<?xml version="1.0" encoding="UTF-8" standalone="no"?>
<!-- Created with Inkscape (http://www.inkscape.org/) -->

<svg
   xmlns:dc="http://purl.org/dc/elements/1.1/"
   xmlns:cc="http://creativecommons.org/ns#"
   xmlns:rdf="http://www.w3.org/1999/02/22-rdf-syntax-ns#"
   xmlns:svg="http://www.w3.org/2000/svg"
   xmlns="http://www.w3.org/2000/svg"
   xmlns:sodipodi="http://sodipodi.sourceforge.net/DTD/sodipodi-0.dtd"
   xmlns:inkscape="http://www.inkscape.org/namespaces/inkscape"
   width="790mm"
   height="384mm"
   viewBox="0 0 790 384"
   version="1.1"
   id="svg8"
   inkscape:version="0.92.5 (2060ec1f9f, 2020-04-08)"
   sodipodi:docname="laptop-stand-hex-cut.svg">
  <defs
     id="defs2" />
  <sodipodi:namedview
     id="base"
     pagecolor="#ffffff"
     bordercolor="#666666"
     borderopacity="1.0"
     inkscape:pageopacity="0.0"
     inkscape:pageshadow="2"
     inkscape:zoom="0.5"
     inkscape:cx="1005.8365"
     inkscape:cy="737.27395"
     inkscape:document-units="mm"
     inkscape:current-layer="layer2"
     showgrid="false"
     inkscape:window-width="1920"
     inkscape:window-height="1016"
     inkscape:window-x="0"
     inkscape:window-y="27"
     inkscape:window-maximized="1"
     fit-margin-top="0"
     fit-margin-left="0"
     fit-margin-right="0"
     fit-margin-bottom="0" />
  <metadata
     id="metadata5">
    <rdf:RDF>
      <cc:Work
         rdf:about="">
        <dc:format>image/svg+xml</dc:format>
        <dc:type
           rdf:resource="http://purl.org/dc/dcmitype/StillImage" />
        <dc:title></dc:title>
      </cc:Work>
    </rdf:RDF>
  </metadata>
  <g
     inkscape:groupmode="layer"
     id="layer2"
     inkscape:label="new"
     style="opacity:1"
     transform="translate(0,107.62393)">
    <path
       style="opacity:1;fill:none;stroke:#000000;stroke-width:0.10001715;stroke-miterlimit:4;stroke-dasharray:none;stroke-opacity:1"
       d="m 39.233949,180.60255 v -79.4727 h 79.499971 v 79.4727 z"
       id="rect4593"
       inkscape:connector-curvature="0" />
    <path
       style="opacity:1;fill:none;stroke:#000000;stroke-width:0.1;stroke-linecap:butt;stroke-linejoin:miter;stroke-miterlimit:4;stroke-dasharray:none;stroke-opacity:1"
       d="M 105.76524,212.53641 H 52.22992 L 39.26539,199.57188 52.22992,186.60735 h 53.53533 l 12.96451,12.96453 z"
       id="path4591-3"
       inkscape:connector-curvature="0"
       sodipodi:nodetypes="ccccccc" />
    <path
       style="opacity:1;fill:none;stroke:#000000;stroke-width:0.10001715;stroke-miterlimit:4;stroke-dasharray:none;stroke-opacity:1"
       d="M 39.233949,-32.655725 V 46.816976 H 118.73392 V -32.655725 Z"
       id="rect4593-2"
       inkscape:connector-curvature="0" />
    <path
       style="opacity:1;fill:none;stroke:#000000;stroke-width:0.1;stroke-linecap:butt;stroke-linejoin:miter;stroke-miterlimit:4;stroke-dasharray:none;stroke-opacity:1"
       d="M 105.76525,-64.589624 H 52.22992 l -12.96453,12.964528 12.96453,12.96453 53.53534,1.9e-5 12.9645,-12.964549 z"
       id="path4591-3-7"
       inkscape:connector-curvature="0"
       sodipodi:nodetypes="ccccccc" />
    <path
       style="opacity:1;fill:none;stroke:#000000;stroke-width:0.1;stroke-linecap:butt;stroke-linejoin:miter;stroke-miterlimit:4;stroke-dasharray:none;stroke-opacity:1"
       d="m 39.26539,82.160495 1.1e-5,-16.374181 12.96453,-12.964531 53.535329,-1.8e-5 12.9645,12.964549 V 82.160495 L 105.76524,95.125027 H 52.22992 Z"
       id="path4591-0"
       inkscape:connector-curvature="0"
       sodipodi:nodetypes="ccccccccc" />
    <path
       style="opacity:1;fill:none;stroke:#000000;stroke-width:0.1;stroke-linecap:butt;stroke-linejoin:miter;stroke-miterlimit:4;stroke-dasharray:none;stroke-opacity:1"
       d="m 265.36326,203.83479 44.71108,44.56256 137.28309,0.10763 v -26.96906 h 8.0977 l -0.004,-41.87171 -8.09371,0.003 v -50.07364 l 8.09767,-0.002 -0.004,-41.86772 -8.09366,-4.7e-5 V 37.652735 l 25.59891,-0.0602 -0.032,-15.9389 -35.70356,-35.710852 -30.60856,8.20157 -22.40701,-22.406999 -61.04985,16.414549 -32.74878,122.220077 22.4241,22.41161 30.43254,-8.24872 24.60529,-91.828154 30.52871,-8.183601 22.16984,22.169859 -32.4947,122.615126 -61.14581,16.19612 -22.23728,-22.36156 -30.58582,8.07348 z"
       id="path6635-2"
       inkscape:connector-curvature="0"
       sodipodi:nodetypes="ccccccccccccccccccccccccccccc" />
    <path
       style="opacity:1;fill:none;stroke:#000000;stroke-width:0.1;stroke-miterlimit:4;stroke-dasharray:none;stroke-opacity:1"
       d="m 135.68978,231.27187 v -6.54169 h 41.88094 v 6.54169 z"
       id="rect5006-2-3"
       inkscape:connector-curvature="0"
       sodipodi:nodetypes="ccccc" />
    <path
       style="opacity:1;fill:none;stroke:#000000;stroke-width:0.1;stroke-miterlimit:4;stroke-dasharray:none;stroke-opacity:1"
       d="m 43.72468,231.27187 v -6.54169 h 41.88093 v 6.54169 z"
       id="rect5006-2-2-1"
       inkscape:connector-curvature="0"
       sodipodi:nodetypes="ccccc" />
    <path
       style="opacity:1;fill:none;stroke:#000000;stroke-width:0.1;stroke-miterlimit:4;stroke-dasharray:none;stroke-opacity:1"
       d="m 135.68977,-76.003824 v -6.54169 h 41.88095 v 6.54169 z"
       id="rect5006-2-3-4"
       inkscape:connector-curvature="0"
       sodipodi:nodetypes="ccccc" />
    <path
       style="opacity:1;fill:none;stroke:#000000;stroke-width:0.1;stroke-miterlimit:4;stroke-dasharray:none;stroke-opacity:1"
       d="m 43.72468,-76.003824 v -6.54169 h 41.88093 v 6.54169 z"
       id="rect5006-2-2-1-7"
       inkscape:connector-curvature="0"
       sodipodi:nodetypes="ccccc" />
    <path
       style="opacity:1;fill:none;stroke:#000000;stroke-width:0.1;stroke-linecap:butt;stroke-linejoin:miter;stroke-miterlimit:4;stroke-dasharray:none;stroke-opacity:1"
       d="M 12.112236,231.34876 V -82.622444 l 12.964527,-12.96453 199.971237,-3e-5 12.96452,12.96456 H 227.6549 v 6.69552 h 10.35762 V 224.65324 H 227.6549 v 6.69552 h 10.35762 l -12.96453,12.96453 H 25.076763 Z"
       id="path1287"
       inkscape:connector-curvature="0" />
    <path
       style="opacity:1;fill:none;stroke:#000000;stroke-width:0.1;stroke-linecap:butt;stroke-linejoin:miter;stroke-miterlimit:4;stroke-dasharray:none;stroke-opacity:1"
       d="m 436.87019,-14.151177 8.74019,-32.618669 -44.71106,-44.562558 -137.28311,-0.10763 v 26.96908 h -8.0977 l 0.004,41.871708 8.09369,-0.0021 1e-5,50.07299 -8.09766,0.0021 0.004,41.867714 8.09365,5e-5 v 50.070712 l -25.5989,0.0602 m 0.032,15.9389 35.70355,35.71084"
       id="path6635-2-8"
       inkscape:connector-curvature="0"
       sodipodi:nodetypes="cccccccccccccccc" />
  </g>
</svg>
