<?xml version="1.0" encoding="UTF-8" standalone="no"?>
<!-- Created with Inkscape (http://www.inkscape.org/) -->

<svg
   xmlns:dc="http://purl.org/dc/elements/1.1/"
   xmlns:cc="http://creativecommons.org/ns#"
   xmlns:rdf="http://www.w3.org/1999/02/22-rdf-syntax-ns#"
   xmlns:svg="http://www.w3.org/2000/svg"
   xmlns="http://www.w3.org/2000/svg"
   xmlns:sodipodi="http://sodipodi.sourceforge.net/DTD/sodipodi-0.dtd"
   xmlns:inkscape="http://www.inkscape.org/namespaces/inkscape"
   width="210mm"
   height="297mm"
   viewBox="0 0 210 297"
   version="1.1"
   id="svg8"
   inkscape:version="0.92.5 (2060ec1f9f, 2020-04-08)"
   sodipodi:docname="tobis-beer-label-print.svg">
  <defs
     id="defs2" />
  <sodipodi:namedview
     id="base"
     pagecolor="#ffffff"
     bordercolor="#666666"
     borderopacity="1.0"
     inkscape:pageopacity="0.0"
     inkscape:pageshadow="2"
     inkscape:zoom="1.4142136"
     inkscape:cx="-153.40095"
     inkscape:cy="-48.429433"
     inkscape:document-units="mm"
     inkscape:current-layer="layer2"
     showgrid="false"
     inkscape:window-width="1920"
     inkscape:window-height="1016"
     inkscape:window-x="0"
     inkscape:window-y="27"
     inkscape:window-maximized="1" />
  <metadata
     id="metadata5">
    <rdf:RDF>
      <cc:Work
         rdf:about="">
        <dc:format>image/svg+xml</dc:format>
        <dc:type
           rdf:resource="http://purl.org/dc/dcmitype/StillImage" />
        <dc:title />
      </cc:Work>
    </rdf:RDF>
  </metadata>
  <g
     inkscape:groupmode="layer"
     id="layer2"
     inkscape:label="gate">
    <path
       style="fill:none;stroke:#ff0000;stroke-width:0.43585855;stroke-linecap:round;stroke-miterlimit:4;stroke-dasharray:none;stroke-opacity:1"
       d="M 8.8182,293.4126 5.14746,213.86445 c 0,-14.2305 7.59188,-27.38002 19.91585,-34.49527 12.32397,-7.11525 27.50773,-7.11525 39.8317,0 12.32397,7.11525 19.91586,20.26477 19.91586,34.49527 l -3.67074,79.54815 z"
       id="path3799-3-6"
       inkscape:connector-curvature="0"
       sodipodi:nodetypes="ccsscc"
       inkscape:export-filename="/home/vs/tobis-beer-label.png"
       inkscape:export-xdpi="699.99915"
       inkscape:export-ydpi="699.99915" />
    <path
       style="fill:none;stroke:#000000;stroke-width:1.30660141;stroke-linecap:round;stroke-linejoin:miter;stroke-miterlimit:4;stroke-dasharray:none;stroke-opacity:1"
       d="m 70.12282,209.19145 h 10.4783"
       id="path4860-9"
       inkscape:connector-curvature="0"
       inkscape:export-filename="/home/vs/tobis-beer-label.png"
       inkscape:export-xdpi="699.99915"
       inkscape:export-ydpi="699.99915" />
    <path
       transform="matrix(-0.21776688,0.37718331,-0.37718331,-0.21776688,145.95729,173.3697)"
       style="fill:none;fill-rule:evenodd;stroke:#000000;stroke-width:3;stroke-miterlimit:4;stroke-dasharray:none"
       d="m 162.98493,107.91883 c -1.03555,-0.43443 -0.99108,-1.84067 -0.41794,-2.61856 1.0218,-1.38683 3.07804,-1.2444 4.26978,-0.17627 1.75853,1.57613 1.50673,4.35761 -0.0774,5.95416 -2.12572,2.14232 -5.66223,1.77447 -7.66232,-0.33832 -0.30858,-0.32596 -0.58005,-0.68676 -0.80899,-1.0728"
       id="path4862-2" />
    <path
       transform="matrix(0.21776688,0.37718331,0.37718331,-0.21776688,4.76665,173.3697)"
       style="fill:none;fill-rule:evenodd;stroke:#000000;stroke-width:3;stroke-miterlimit:4;stroke-dasharray:none"
       d="m 162.98493,107.91883 c -1.03555,-0.43443 -0.99108,-1.84067 -0.41794,-2.61856 1.0218,-1.38683 3.07804,-1.2444 4.26978,-0.17627 1.75853,1.57613 1.50673,4.35761 -0.0774,5.95416 -2.12572,2.14232 -5.66223,1.77447 -7.66232,-0.33832 -0.30858,-0.32596 -0.58005,-0.68676 -0.80899,-1.0728"
       id="path4862-5-2" />
    <path
       style="fill:none;stroke:#000000;stroke-width:1.30660141;stroke-linecap:butt;stroke-linejoin:miter;stroke-miterlimit:4;stroke-dasharray:none;stroke-opacity:1"
       d="m 72.48454,212.79187 c 2.35197,0.74632 3.43774,0.86356 5.71696,0.21225"
       id="path4898-4"
       inkscape:connector-curvature="0"
       sodipodi:nodetypes="cc"
       inkscape:export-filename="/home/vs/tobis-beer-label.png"
       inkscape:export-xdpi="699.99915"
       inkscape:export-ydpi="699.99915" />
    <path
       style="fill:none;stroke:#000000;stroke-width:1.30660141;stroke-linecap:round;stroke-linejoin:miter;stroke-miterlimit:4;stroke-dasharray:none;stroke-opacity:1"
       d="m 78.2015,213.00412 -0.27727,14.69648 m -0.0225,3.23594 -0.200262,12.06252 m -0.05057,3.56543 -0.68089,40.11999"
       id="path4900-7"
       inkscape:connector-curvature="0"
       sodipodi:nodetypes="cccccc"
       inkscape:export-filename="/home/vs/tobis-beer-label.png"
       inkscape:export-xdpi="699.99915"
       inkscape:export-ydpi="699.99915" />
    <path
       style="fill:none;stroke:#000000;stroke-width:1.30660141;stroke-linecap:round;stroke-linejoin:miter;stroke-miterlimit:4;stroke-dasharray:none;stroke-opacity:1"
       d="m 72.48454,212.79187 -2.349417,21.70405 m -0.479205,4.34719 -1.281573,10.65408 M 67.9189,254.14438 64.33795,286.578"
       id="path4902-7"
       inkscape:connector-curvature="0"
       sodipodi:nodetypes="cccccc"
       inkscape:export-filename="/home/vs/tobis-beer-label.png"
       inkscape:export-xdpi="699.99915"
       inkscape:export-ydpi="699.99915" />
    <path
       style="fill:none;stroke:#000000;stroke-width:1.30660141;stroke-linecap:round;stroke-miterlimit:4;stroke-dasharray:none;stroke-opacity:1"
       d="m 78.379668,287.11638 a 7.8917809,1.5613843 0 0 1 -3.398434,1.58648 7.8917809,1.5613843 0 0 1 -8.709053,0.002 7.8917809,1.5613843 0 0 1 -3.41339,-1.58522"
       id="path4904-5" />
    <path
       style="fill:none;stroke:#000000;stroke-width:1.30660141;stroke-linecap:round;stroke-miterlimit:4;stroke-dasharray:none;stroke-opacity:1"
       d="m 79.247649,289.19895 a 9.1458206,1.5243032 0 0 1 -3.358838,1.66766 9.1458206,1.5243032 0 0 1 -10.553183,0.0295 9.1458206,1.5243032 0 0 1 -3.692642,-1.64794"
       id="path4906-4" />
    <path
       style="fill:none;stroke:#000000;stroke-width:1.30678046;stroke-linecap:round;stroke-linejoin:miter;stroke-miterlimit:16.5;stroke-dasharray:none;stroke-opacity:1"
       d="m 66.23561,269.23761 c -5.784106,-24.27045 19.13258,-18.0238 13.51847,-31.45212 0.875975,7.35682 -9.908624,9.35588 -13.478777,14.0357 1.510075,-24.09666 18.021314,-17.12868 14.099352,-30.07883 -1.664602,10.34966 -5.972328,5.1241 -12.802431,16.79134 3.293424,-23.99239 -7.331236,-30.59817 -6.350586,-19.22618 2.152356,-11.07375 6.838506,7.70939 3.889834,16.71812 -12.8024,-12.96544 -19.153127,-1.02277 -8.808267,0.66467 -9.568728,-8.05142 6.490586,-5.07905 7.782506,5.47024 0.313553,3.62415 -0.446063,12.14126 -1.086835,15.84236 -2.702054,-5.78576 -1.320395,-10.88575 -1.62743,-16.15993 -6.104983,16.7053 4.932478,15.54701 1.641551,34.59973 -1.76126,7.78246 -2.833345,11.74063 -4.228405,13.46106"
       id="path4912-8"
       inkscape:connector-curvature="0"
       sodipodi:nodetypes="ccccccccccccc"
       inkscape:export-filename="/home/vs/tobis-beer-label.png"
       inkscape:export-xdpi="699.99915"
       inkscape:export-ydpi="699.99915" />
    <path
       style="fill:none;stroke:#000000;stroke-width:1.307;stroke-linecap:butt;stroke-miterlimit:4;stroke-dasharray:none;stroke-opacity:1"
       d="m 44.99903,178.86154 c 6.10066,0.003 12.20063,1.58316 17.66704,4.73919 9.44579,5.45353 15.76135,14.89866 17.31406,25.50757"
       id="path3799-3-3-1"
       inkscape:connector-curvature="0"
       sodipodi:nodetypes="csc"
       inkscape:export-filename="/home/vs/tobis-beer-label.png"
       inkscape:export-xdpi="699.99915"
       inkscape:export-ydpi="699.99915" />
    <path
       style="fill:#000000;fill-opacity:1;stroke:none;stroke-width:0.07953624;stroke-linecap:butt;stroke-linejoin:miter;stroke-miterlimit:4;stroke-dasharray:none;stroke-opacity:1"
       d="m 59.19927,181.1422 c -0.33822,-0.25198 -0.0848,-2.03817 1.39622,-1.52396 1.02474,0.47537 0.37225,1.91487 -0.42208,1.493 -0.32902,-0.23965 -0.13694,-0.578 0.002,-0.61565 -0.17376,0.31724 0.32942,0.69984 0.58352,0.19295 0.19744,-0.58576 -0.62347,-0.87814 -0.98661,-0.44926 -0.24676,0.33051 -0.31159,0.80728 0.52853,1.38741"
       id="path4993-28"
       inkscape:connector-curvature="0"
       sodipodi:nodetypes="ccccccc"
       inkscape:export-filename="/home/vs/tobis-beer-label.png"
       inkscape:export-xdpi="699.99915"
       inkscape:export-ydpi="699.99915" />
    <path
       style="fill:#000000;fill-opacity:1;stroke:none;stroke-width:0.07953624;stroke-linecap:butt;stroke-linejoin:miter;stroke-miterlimit:4;stroke-dasharray:none;stroke-opacity:1"
       d="m 52.960774,179.12749 c -0.38025,-0.18245 -0.47405,-1.98409 1.07813,-1.76339 1.09687,0.27007 0.73248,1.80797 -0.12801,1.54623 -0.36886,-0.17212 -0.24521,-0.54101 -0.11648,-0.60454 -0.1097,0.34468 0.4575,0.6237 0.6097,0.0775 0.0815,-0.61274 -0.78026,-0.7423 -1.05444,-0.25177 -0.17881,0.3717 -0.15104,0.85206 0.78474,1.26035"
       id="path4993-6-9"
       inkscape:connector-curvature="0"
       sodipodi:nodetypes="ccccccc"
       inkscape:export-filename="/home/vs/tobis-beer-label.png"
       inkscape:export-xdpi="699.99915"
       inkscape:export-ydpi="699.99915" />
    <path
       style="fill:#000000;fill-opacity:1;stroke:none;stroke-width:0.07953624;stroke-linecap:butt;stroke-linejoin:miter;stroke-miterlimit:4;stroke-dasharray:none;stroke-opacity:1"
       d="m 64.80107,184.18199 c -0.29005,-0.3062 0.26555,-2.02258 1.63664,-1.26228 0.92816,0.64387 0.0388,1.95033 -0.67159,1.39863 -0.28312,-0.29246 -0.0359,-0.59291 0.10701,-0.60628 -0.22553,0.2828 0.20468,0.74594 0.54186,0.29005 0.29485,-0.54326 -0.46382,-0.97195 -0.89507,-0.61162 -0.29974,0.28336 -0.44527,0.74199 0.28306,1.45745"
       id="path4993-61-3"
       inkscape:connector-curvature="0"
       sodipodi:nodetypes="ccccccc"
       inkscape:export-filename="/home/vs/tobis-beer-label.png"
       inkscape:export-xdpi="699.99915"
       inkscape:export-ydpi="699.99915" />
    <path
       style="fill:#000000;fill-opacity:1;stroke:none;stroke-width:0.07953624;stroke-linecap:butt;stroke-linejoin:miter;stroke-miterlimit:4;stroke-dasharray:none;stroke-opacity:1"
       d="m 69.564093,187.90787 c -0.23165,-0.35245 0.61737,-1.94426 1.83324,-0.95452 0.80035,0.79717 -0.30512,1.92671 -0.90727,1.2586 -0.22721,-0.33772 0.0691,-0.58997 0.21206,-0.57798 -0.27178,0.23869 0.0703,0.77031 0.48235,0.38088 0.38586,-0.48288 -0.28553,-1.0384 -0.77346,-0.75959 -0.34492,0.22618 -0.5689,0.65203 0.0221,1.48452"
       id="path4993-7-6"
       inkscape:connector-curvature="0"
       sodipodi:nodetypes="ccccccc"
       inkscape:export-filename="/home/vs/tobis-beer-label.png"
       inkscape:export-xdpi="699.99915"
       inkscape:export-ydpi="699.99915" />
    <path
       style="fill:#000000;fill-opacity:1;stroke:none;stroke-width:0.07953624;stroke-linecap:butt;stroke-linejoin:miter;stroke-miterlimit:4;stroke-dasharray:none;stroke-opacity:1"
       d="m 73.778361,192.63623 c -0.16871,-0.38653 0.93719,-1.81189 1.96824,-0.63084 0.65405,0.92101 -0.62647,1.84739 -1.107,1.08709 -0.16685,-0.37127 0.16777,-0.56981 0.30673,-0.5338 -0.30823,0.18931 -0.0611,0.77108 0.41099,0.45695 0.46195,-0.41071 -0.10585,-1.07173 -0.63388,-0.87943 -0.3782,0.16462 -0.67096,0.54646 -0.22917,1.46688"
       id="path4993-2-8"
       inkscape:connector-curvature="0"
       sodipodi:nodetypes="ccccccc"
       inkscape:export-filename="/home/vs/tobis-beer-label.png"
       inkscape:export-xdpi="699.99915"
       inkscape:export-ydpi="699.99915" />
    <path
       style="fill:#000000;fill-opacity:1;stroke:none;stroke-width:0.07953624;stroke-linecap:butt;stroke-linejoin:miter;stroke-miterlimit:4;stroke-dasharray:none;stroke-opacity:1"
       d="m 77.14341,198.05995 c -0.10034,-0.40964 1.23235,-1.62562 2.04698,-0.28609 0.48748,1.01904 -0.93223,1.71357 -1.27612,0.88248 -0.10111,-0.39428 0.26244,-0.53287 0.39324,-0.47371 -0.33599,0.134 -0.1916,0.7494 0.32709,0.52033 0.52521,-0.32595 0.0783,-1.07409 -0.47471,-0.97462 -0.40071,0.0977 -0.75429,0.4241 -0.47586,1.40634"
       id="path4993-23-0"
       inkscape:connector-curvature="0"
       sodipodi:nodetypes="ccccccc"
       inkscape:export-filename="/home/vs/tobis-beer-label.png"
       inkscape:export-xdpi="699.99915"
       inkscape:export-ydpi="699.99915" />
    <path
       style="fill:#000000;fill-opacity:1;stroke:none;stroke-width:0.07953624;stroke-linecap:butt;stroke-linejoin:miter;stroke-miterlimit:4;stroke-dasharray:none;stroke-opacity:1"
       d="m 79.713696,204.71274 c -0.0153,-0.42148 1.53632,-1.34203 2.06245,0.13484 0.27078,1.0967 -1.26024,1.48898 -1.42851,0.60545 -0.0191,-0.4066 0.36503,-0.46861 0.4811,-0.38416 -0.35616,0.0631 -0.33954,0.69499 0.21482,0.57584 0.58038,-0.2127 0.29452,-1.0359 -0.26726,-1.05062 -0.41221,0.0145 -0.8246,0.26236 -0.7511,1.28068"
       id="path4993-5-21"
       inkscape:connector-curvature="0"
       sodipodi:nodetypes="ccccccc"
       inkscape:export-filename="/home/vs/tobis-beer-label.png"
       inkscape:export-xdpi="699.99915"
       inkscape:export-ydpi="699.99915" />
    <path
       style="fill:#000000;fill-opacity:1;stroke:none;stroke-width:0.10941973;stroke-linecap:butt;stroke-linejoin:miter;stroke-miterlimit:4;stroke-dasharray:none;stroke-opacity:1"
       d="m 46.44105,178.24349 c -0.55705,-0.1623 -1.08837,-2.58673 1.06791,-2.63526 1.54938,0.12059 1.39967,2.28972 0.17302,2.12744 -0.53928,-0.15089 -0.45416,-0.67936 -0.29367,-0.79442 -0.0717,0.49241 0.76083,0.74395 0.84493,-0.0316 -0.0268,-0.84995 -1.22553,-0.83257 -1.48767,-0.10528 -0.15934,0.54461 -0.0138,1.19039 1.34779,1.53472"
       id="path4993-5-2-05"
       inkscape:connector-curvature="0"
       sodipodi:nodetypes="ccccccc"
       inkscape:export-filename="/home/vs/tobis-beer-label.png"
       inkscape:export-xdpi="699.99915"
       inkscape:export-ydpi="699.99915" />
    <path
       style="fill:none;stroke:#000000;stroke-width:1.30660141;stroke-linecap:round;stroke-linejoin:miter;stroke-miterlimit:4;stroke-dasharray:none;stroke-opacity:1"
       d="M 20.11238,209.19145 H 9.63409"
       id="path4860-7-1"
       inkscape:connector-curvature="0"
       inkscape:export-filename="/home/vs/tobis-beer-label.png"
       inkscape:export-xdpi="699.99915"
       inkscape:export-ydpi="699.99915" />
    <path
       transform="matrix(0.21776688,0.37718333,0.37718333,-0.21776688,-55.722077,173.3697)"
       style="fill:none;fill-rule:evenodd;stroke:#000000;stroke-width:3;stroke-miterlimit:4;stroke-dasharray:none"
       d="m 162.98493,107.91883 c -1.03555,-0.43443 -0.99108,-1.84067 -0.41794,-2.61856 1.0218,-1.38683 3.07804,-1.2444 4.26978,-0.17627 1.75853,1.57613 1.50673,4.35761 -0.0774,5.95416 -2.12572,2.14232 -5.66223,1.77447 -7.66232,-0.33832 -0.30858,-0.32596 -0.58005,-0.68676 -0.80899,-1.0728"
       id="path4862-3-1" />
    <path
       transform="matrix(-0.21776688,0.37718333,-0.37718333,-0.21776688,85.46855,173.3697)"
       style="fill:none;fill-rule:evenodd;stroke:#000000;stroke-width:3;stroke-miterlimit:4;stroke-dasharray:none"
       d="m 162.98493,107.91883 c -1.03555,-0.43443 -0.99108,-1.84067 -0.41794,-2.61856 1.0218,-1.38683 3.07804,-1.2444 4.26978,-0.17627 1.75853,1.57613 1.50673,4.35761 -0.0774,5.95416 -2.12572,2.14232 -5.66223,1.77447 -7.66232,-0.33832 -0.30858,-0.32596 -0.58005,-0.68676 -0.80899,-1.0728"
       id="path4862-5-6-0" />
    <path
       style="fill:none;stroke:#000000;stroke-width:1.30660141;stroke-linecap:butt;stroke-linejoin:miter;stroke-miterlimit:4;stroke-dasharray:none;stroke-opacity:1"
       d="m 17.75066,212.79187 c -2.35197,0.74632 -3.43774,0.86356 -5.71695,0.21225"
       id="path4898-1-8"
       inkscape:connector-curvature="0"
       sodipodi:nodetypes="cc"
       inkscape:export-filename="/home/vs/tobis-beer-label.png"
       inkscape:export-xdpi="699.99915"
       inkscape:export-ydpi="699.99915" />
    <path
       style="fill:none;stroke:#000000;stroke-width:1.30660141;stroke-linecap:round;stroke-linejoin:miter;stroke-miterlimit:4;stroke-dasharray:none;stroke-opacity:1"
       d="m 12.03371,213.00412 0.27727,14.69648 m 0.0225,3.23594 0.20852,12.47593 m 0.0423,3.15202 0.68088,40.11999"
       id="path4900-2-5"
       inkscape:connector-curvature="0"
       sodipodi:nodetypes="cccccc"
       inkscape:export-filename="/home/vs/tobis-beer-label.png"
       inkscape:export-xdpi="699.99915"
       inkscape:export-ydpi="699.99915" />
    <path
       style="fill:none;stroke:#000000;stroke-width:1.30660141;stroke-linecap:round;stroke-linejoin:miter;stroke-miterlimit:4;stroke-dasharray:none;stroke-opacity:1"
       d="m 17.75066,212.79187 2.19233,20.28192 m 0.40362,3.23057 1.34888,12.21718 m 0.62082,5.62284 3.58094,32.43362"
       id="path4902-9-0"
       inkscape:connector-curvature="0"
       sodipodi:nodetypes="cccccc"
       inkscape:export-filename="/home/vs/tobis-beer-label.png"
       inkscape:export-xdpi="699.99915"
       inkscape:export-ydpi="699.99915" />
    <path
       transform="scale(-1,1)"
       style="fill:none;stroke:#000000;stroke-width:1.30660141;stroke-linecap:round;stroke-miterlimit:4;stroke-dasharray:none;stroke-opacity:1"
       d="m -11.855544,287.11638 a 7.8917809,1.5613843 0 0 1 -3.398434,1.58648 7.8917809,1.5613843 0 0 1 -8.709054,0.002 7.8917809,1.5613843 0 0 1 -3.413389,-1.58522"
       id="path4904-3-6" />
    <path
       transform="scale(-1,1)"
       style="fill:none;stroke:#000000;stroke-width:1.30660141;stroke-linecap:round;stroke-miterlimit:4;stroke-dasharray:none;stroke-opacity:1"
       d="m -10.987563,289.19895 a 9.1458206,1.5243032 0 0 1 -3.358839,1.66766 9.1458206,1.5243032 0 0 1 -10.553183,0.0295 9.1458206,1.5243032 0 0 1 -3.692641,-1.64794"
       id="path4906-1-4" />
    <path
       style="fill:none;stroke:#000000;stroke-width:1.30678046;stroke-linecap:round;stroke-linejoin:miter;stroke-miterlimit:16.5;stroke-dasharray:none;stroke-opacity:1"
       d="m 23.99959,269.23761 c 6.27433,-23.53511 -19.13258,-18.0238 -13.51846,-31.45212 -0.023,8.5644 12.267272,10.62624 14.206371,14.36643 4.923209,-22.0291 -21.0934359,-16.64938 -14.430071,-31.13716 0.329981,7.99406 3.468374,7.69141 13.92691,15.50442 -7.96752,-20.81223 8.60853,-26.20289 5.49068,-12.38301 -2.595571,-14.8814 -9.945474,3.92671 -2.739333,11.22205 9.923409,-16.20071 21.841638,-3.39785 11.957255,-1.18145 7.140286,-6.76001 -9.500461,-7.69502 -10.692922,5.93326 -0.688991,3.75078 -0.983332,12.71018 -0.43453,16.37153 1.147537,-1.09791 2.325044,-3.83566 2.214159,-9.20201 3.703966,10.62671 -5.401768,13.29595 -1.993834,28.81148 l 3.043923,12.57717"
       id="path4912-9-6"
       inkscape:connector-curvature="0"
       sodipodi:nodetypes="ccccccccccccc"
       inkscape:export-filename="/home/vs/tobis-beer-label.png"
       inkscape:export-xdpi="699.99915"
       inkscape:export-ydpi="699.99915" />
    <path
       style="fill:none;stroke:#000000;stroke-width:1.307;stroke-linecap:butt;stroke-miterlimit:4;stroke-dasharray:none;stroke-opacity:1"
       d="m 45.23616,178.86154 c -6.10065,0.003 -12.20061,1.58316 -17.66702,4.73919 -9.4458,5.45353 -15.76136,14.89866 -17.31406,25.50757"
       id="path3799-3-3-4-2"
       inkscape:connector-curvature="0"
       sodipodi:nodetypes="csc"
       inkscape:export-filename="/home/vs/tobis-beer-label.png"
       inkscape:export-xdpi="699.99915"
       inkscape:export-ydpi="699.99915" />
    <path
       style="fill:#000000;fill-opacity:1;stroke:none;stroke-width:0.07953624;stroke-linecap:butt;stroke-linejoin:miter;stroke-miterlimit:4;stroke-dasharray:none;stroke-opacity:1"
       d="m 31.01839,181.16267 c 0.33822,-0.25198 0.0848,-2.03817 -1.39622,-1.52396 -1.02474,0.47537 -0.37225,1.91487 0.42209,1.493 0.32901,-0.23965 0.13693,-0.578 -0.002,-0.61565 0.17375,0.31724 -0.32942,0.69984 -0.58353,0.19295 -0.19743,-0.58576 0.62347,-0.87814 0.98661,-0.44926 0.24676,0.33051 0.31159,0.80728 -0.52853,1.38741"
       id="path4993-78-5"
       inkscape:connector-curvature="0"
       sodipodi:nodetypes="ccccccc"
       inkscape:export-filename="/home/vs/tobis-beer-label.png"
       inkscape:export-xdpi="699.99915"
       inkscape:export-ydpi="699.99915" />
    <path
       style="fill:#000000;fill-opacity:1;stroke:none;stroke-width:0.07953624;stroke-linecap:butt;stroke-linejoin:miter;stroke-miterlimit:4;stroke-dasharray:none;stroke-opacity:1"
       d="m 37.27856,179.11509 c 0.38025,-0.18245 0.47405,-1.98409 -1.07812,-1.76339 -1.09687,0.27007 -0.73249,1.80797 0.128,1.54623 0.36886,-0.17212 0.24521,-0.54101 0.11648,-0.60454 0.10971,0.34468 -0.4575,0.6237 -0.60969,0.0775 -0.0815,-0.61274 0.78026,-0.7423 1.05443,-0.25177 0.17882,0.3717 0.15104,0.85206 -0.78474,1.26035"
       id="path4993-6-4-8"
       inkscape:connector-curvature="0"
       sodipodi:nodetypes="ccccccc"
       inkscape:export-filename="/home/vs/tobis-beer-label.png"
       inkscape:export-xdpi="699.99915"
       inkscape:export-ydpi="699.99915" />
    <path
       style="fill:#000000;fill-opacity:1;stroke:none;stroke-width:0.07953624;stroke-linecap:butt;stroke-linejoin:miter;stroke-miterlimit:4;stroke-dasharray:none;stroke-opacity:1"
       d="m 25.43413,184.1586 c 0.29005,-0.3062 -0.26555,-2.02258 -1.63664,-1.26228 -0.92816,0.64387 -0.0388,1.95033 0.6716,1.39863 0.28311,-0.29246 0.0359,-0.59291 -0.10703,-0.60628 0.22554,0.2828 -0.20466,0.74594 -0.54185,0.29005 -0.29486,-0.54326 0.46383,-0.97195 0.89507,-0.61162 0.29974,0.28336 0.44527,0.74199 -0.28306,1.45745"
       id="path4993-61-5-6"
       inkscape:connector-curvature="0"
       sodipodi:nodetypes="ccccccc"
       inkscape:export-filename="/home/vs/tobis-beer-label.png"
       inkscape:export-xdpi="699.99915"
       inkscape:export-ydpi="699.99915" />
    <path
       style="fill:#000000;fill-opacity:1;stroke:none;stroke-width:0.07953624;stroke-linecap:butt;stroke-linejoin:miter;stroke-miterlimit:4;stroke-dasharray:none;stroke-opacity:1"
       d="m 20.671117,187.90202 c 0.23164,-0.35245 -0.61738,-1.94426 -1.83325,-0.95452 -0.80035,0.79717 0.30512,1.92671 0.90727,1.2586 0.22721,-0.33772 -0.0691,-0.58997 -0.21206,-0.57798 0.27179,0.23869 -0.0703,0.77031 -0.48235,0.38088 -0.38586,-0.48288 0.28554,-1.0384 0.77346,-0.75959 0.34492,0.22618 0.5689,0.65203 -0.0221,1.48452"
       id="path4993-7-0-2"
       inkscape:connector-curvature="0"
       sodipodi:nodetypes="ccccccc"
       inkscape:export-filename="/home/vs/tobis-beer-label.png"
       inkscape:export-xdpi="699.99915"
       inkscape:export-ydpi="699.99915" />
    <path
       style="fill:#000000;fill-opacity:1;stroke:none;stroke-width:0.07953624;stroke-linecap:butt;stroke-linejoin:miter;stroke-miterlimit:4;stroke-dasharray:none;stroke-opacity:1"
       d="m 16.450993,192.63331 c 0.16872,-0.38653 -0.93719,-1.81189 -1.96823,-0.63084 -0.65406,0.92101 0.62646,1.84739 1.10699,1.08709 0.16685,-0.37127 -0.16777,-0.56981 -0.30672,-0.5338 0.30822,0.18931 0.0611,0.77108 -0.411,0.45695 -0.46195,-0.41071 0.10585,-1.07173 0.63389,-0.87943 0.37819,0.16462 0.67095,0.54646 0.22916,1.46688"
       id="path4993-2-3-8"
       inkscape:connector-curvature="0"
       sodipodi:nodetypes="ccccccc"
       inkscape:export-filename="/home/vs/tobis-beer-label.png"
       inkscape:export-xdpi="699.99915"
       inkscape:export-ydpi="699.99915" />
    <path
       style="fill:#000000;fill-opacity:1;stroke:none;stroke-width:0.07953624;stroke-linecap:butt;stroke-linejoin:miter;stroke-miterlimit:4;stroke-dasharray:none;stroke-opacity:1"
       d="m 13.09179,198.05995 c 0.10034,-0.40964 -1.23234,-1.62562 -2.04696,-0.28609 -0.48749,1.01904 0.93221,1.71357 1.2761,0.88248 0.10111,-0.39428 -0.26244,-0.53287 -0.39324,-0.47371 0.33599,0.134 0.19161,0.7494 -0.32709,0.52033 -0.5252,-0.32595 -0.0783,-1.07409 0.47471,-0.97462 0.40072,0.0977 0.75429,0.4241 0.47586,1.40634"
       id="path4993-23-6-4"
       inkscape:connector-curvature="0"
       sodipodi:nodetypes="ccccccc"
       inkscape:export-filename="/home/vs/tobis-beer-label.png"
       inkscape:export-xdpi="699.99915"
       inkscape:export-ydpi="699.99915" />
    <path
       style="fill:#000000;fill-opacity:1;stroke:none;stroke-width:0.07953624;stroke-linecap:butt;stroke-linejoin:miter;stroke-miterlimit:4;stroke-dasharray:none;stroke-opacity:1"
       d="m 10.51738,204.71274 c 0.0153,-0.42148 -1.53632,-1.34203 -2.06245,0.13484 -0.27077,1.0967 1.26024,1.48898 1.42851,0.60545 0.0191,-0.4066 -0.36503,-0.46861 -0.4811,-0.38416 0.35616,0.0631 0.33954,0.69499 -0.21482,0.57584 -0.58038,-0.2127 -0.29451,-1.0359 0.26726,-1.05062 0.41221,0.0145 0.8246,0.26236 0.7511,1.28068"
       id="path4993-5-1-7"
       inkscape:connector-curvature="0"
       sodipodi:nodetypes="ccccccc"
       inkscape:export-filename="/home/vs/tobis-beer-label.png"
       inkscape:export-xdpi="699.99915"
       inkscape:export-ydpi="699.99915" />
    <path
       style="fill:#000000;fill-opacity:1;stroke:none;stroke-width:0.10941973;stroke-linecap:butt;stroke-linejoin:miter;stroke-miterlimit:4;stroke-dasharray:none;stroke-opacity:1"
       d="m 43.79416,178.24349 c 0.55705,-0.1623 1.08836,-2.58673 -1.06791,-2.63526 -1.54939,0.12059 -1.39968,2.28972 -0.17303,2.12744 0.53928,-0.15089 0.45416,-0.67936 0.29367,-0.79442 0.0717,0.49241 -0.76083,0.74395 -0.84493,-0.0316 0.0268,-0.84995 1.22554,-0.83257 1.48767,-0.10528 0.15935,0.54461 0.0138,1.19039 -1.34778,1.53472"
       id="path4993-5-2-0-2"
       inkscape:connector-curvature="0"
       sodipodi:nodetypes="ccccccc"
       inkscape:export-filename="/home/vs/tobis-beer-label.png"
       inkscape:export-xdpi="699.99915"
       inkscape:export-ydpi="699.99915" />
    <path
       style="fill:none;fill-opacity:1;stroke:#010000;stroke-width:1.30678046;stroke-linecap:butt;stroke-miterlimit:4;stroke-dasharray:none;stroke-opacity:1"
       d="m 18.75274,209.39655 c 1.68075,-12.95629 12.70553,-23.01129 26.13692,-23.11879 13.54182,-0.10838 24.79945,9.93284 26.54829,23.01695"
       id="path5180-4"
       inkscape:connector-curvature="0"
       sodipodi:nodetypes="csc"
       inkscape:export-filename="/home/vs/tobis-beer-label.png"
       inkscape:export-xdpi="699.99915"
       inkscape:export-ydpi="699.99915" />
    <g
       id="g928"
       transform="translate(-0.09280648)">
      <path
         inkscape:export-ydpi="699.99915"
         inkscape:export-xdpi="699.99915"
         inkscape:export-filename="/home/vs/tobis-beer-label.png"
         sodipodi:nodetypes="cccsccc"
         inkscape:connector-curvature="0"
         id="path1019-0"
         d="m 48.0276,221.44593 c 0.0379,0.002 0.0376,0 0.0747,0.002 2.18839,0.12401 3.06756,-0.69538 3.89498,-1.24346 -1.07715,-0.0342 -2.45811,0.40451 -2.79766,-1.1048 l -8.51898,0.0526 -2.62154,1.58024 c 1.21083,0.85168 2.2969,0.62407 3.63567,0.66033"
         style="fill:none;stroke:#000000;stroke-width:0.47721744;stroke-linecap:butt;stroke-linejoin:miter;stroke-miterlimit:4;stroke-dasharray:none;stroke-opacity:1" />
      <path
         inkscape:export-ydpi="699.99915"
         inkscape:export-xdpi="699.99915"
         inkscape:export-filename="/home/vs/tobis-beer-label.png"
         sodipodi:nodetypes="ccccc"
         inkscape:connector-curvature="0"
         id="path1021-6"
         d="m 41.86407,220.77007 c -0.0446,0.0651 -0.57393,2.20264 -0.57393,2.20264 h 7.18589 l -0.57402,-2.18931 z"
         style="fill:none;stroke:#000000;stroke-width:0.47721744;stroke-linecap:butt;stroke-linejoin:miter;stroke-miterlimit:4;stroke-dasharray:none;stroke-opacity:1" />
      <path
         inkscape:export-ydpi="699.99915"
         inkscape:export-xdpi="699.99915"
         inkscape:export-filename="/home/vs/tobis-beer-label.png"
         sodipodi:nodetypes="cccccccc"
         inkscape:connector-curvature="0"
         id="path1023-2"
         d="m 42.30109,218.75147 c -0.26393,-2.22293 0.41755,-3.86217 2.17016,-4.84011 -0.63357,0.84347 -1.45643,1.33992 -1.39416,3.4591 h 0.73654 v 0.86806 h -0.67077 v 0.51023 z"
         style="fill:none;stroke:#000000;stroke-width:0.47721744;stroke-linecap:butt;stroke-linejoin:miter;stroke-miterlimit:4;stroke-dasharray:none;stroke-opacity:1" />
      <path
         inkscape:export-ydpi="699.99915"
         inkscape:export-xdpi="699.99915"
         inkscape:export-filename="/home/vs/tobis-beer-label.png"
         sodipodi:nodetypes="cccc"
         inkscape:connector-curvature="0"
         id="rect1025-9"
         d="m 43.81429,217.45016 h 4.99796 v 0.72744 h -4.99796"
         style="fill:none;fill-opacity:1;stroke:#010000;stroke-width:0.47721744;stroke-linecap:butt;stroke-miterlimit:4;stroke-dasharray:none;stroke-opacity:1" />
    </g>
    <path
       style="fill:none;stroke:#000000;stroke-width:0.47721744;stroke-linecap:round;stroke-linejoin:miter;stroke-miterlimit:4;stroke-dasharray:none;stroke-opacity:1"
       d="m 76.08291,217.99899 -0.18642,7.3074 m -0.34771,13.63047 -0.0926,3.62974 m -0.37051,14.5243 -0.58106,22.77734"
       id="path1030-9"
       inkscape:connector-curvature="0"
       sodipodi:nodetypes="cccccc"
       inkscape:export-filename="/home/vs/tobis-beer-label.png"
       inkscape:export-xdpi="699.99915"
       inkscape:export-ydpi="699.99915" />
    <path
       style="fill:none;stroke:#000000;stroke-width:0.47721744;stroke-linecap:round;stroke-linejoin:miter;stroke-miterlimit:4;stroke-dasharray:none;stroke-opacity:1"
       d="m 20.63206,262.92785 1.89396,19.04479"
       id="path1032-0"
       inkscape:connector-curvature="0"
       inkscape:export-filename="/home/vs/tobis-beer-label.png"
       inkscape:export-xdpi="699.99915"
       inkscape:export-ydpi="699.99915" />
    <g
       aria-label="bottled:"
       transform="matrix(0.168802,0,0,0.168802,-28.921103,155.79704)"
       style="font-style:normal;font-weight:normal;font-size:24px;line-height:1.25;font-family:sans-serif;letter-spacing:0px;word-spacing:0px;fill:#000000;fill-opacity:1;stroke:none;stroke-width:1.25288951"
       id="flowRoot5197-8">
      <path
         d="m 388.2,725.45391 q 0,2.352 -3.024,3.888 -1.944,0.984 -4.128,1.296 -1.08,0.168 -2.352,0.168 -1.248,0 -1.536,-0.192 -0.456,-0.288 -0.456,-1.656 l -0.048,-5.064 q 0,-0.384 -0.048,-1.296 -0.024,-0.912 -0.024,-1.368 0,-0.12 -0.048,-0.528 -0.048,-0.408 -0.048,-0.456 0,0.264 0.048,-2.016 0.024,-0.168 0.096,-0.528 0.072,-0.36 0.072,-0.408 0,-0.456 -0.432,-0.456 -0.048,0 -0.864,0.36 -0.792,0.336 -0.864,0.336 -0.408,0 -0.408,-0.288 0,-0.672 2.208,-1.416 1.872,-0.624 2.496,-0.624 0.696,0 0.696,0.48 0,0.048 0,0.528 -0.024,0.456 -0.024,0.528 l -0.024,1.08 q -0.024,0.384 0.216,0.384 0.12,0 1.368,-1.008 1.416,-1.128 1.992,-1.44 0.576,-0.336 1.344,-0.336 1.92,0 2.832,2.352 0.072,0.192 0.072,0.912 0,0.648 0,0.696 -0.216,0.528 -0.864,1.272 -0.24,0.288 -0.624,0.744 -0.216,0.24 -0.216,0.264 0,0.168 0.288,0.264 0.936,0.288 1.8,1.608 0.288,0.456 0.336,0.696 0.168,0.816 0.168,1.224 z m -3.048,-5.4 q 0,-0.312 -0.12,-0.696 -0.528,-1.728 -1.968,-1.728 -0.24,0 -0.552,0.12 -0.552,0.216 -0.576,0.24 -0.312,0.096 -1.272,0.84 -1.128,0.864 -1.128,1.272 v 1.464 q 0,0.072 0.024,0.48 0.048,0.384 0.048,0.576 0.12,0.216 0.456,0.216 0.048,0 0.36,-0.048 0.312,-0.072 0.432,-0.072 0.408,-0.024 2.208,-0.552 1.224,-0.36 1.872,-1.2 0.216,-0.288 0.216,-0.912 z m 0.696,6.888 q 0,-1.344 -0.864,-2.352 -0.84,-1.008 -2.16,-1.008 -0.048,0 -0.624,0.096 -0.576,0.072 -0.864,0.096 -0.456,0.048 -0.864,0.168 -0.384,0.096 -0.456,0.12 -0.312,0.144 -0.36,0.36 -0.072,0.408 -0.072,1.224 0,0.072 0.024,0.72 0.024,0.648 0.024,0.696 l 0.024,1.752 q 0,0.504 1.2,0.504 0.144,0 0.888,-0.12 0.312,-0.024 0.888,-0.072 0.744,-0.12 1.704,-0.576 1.488,-0.72 1.512,-1.608 z"
         style="font-style:normal;font-variant:normal;font-weight:normal;font-stretch:normal;font-family:Aniron;-inkscape-font-specification:Aniron;stroke-width:1.25288951"
         id="path925" />
      <path
         d="m 407.59195,722.88591 q 0,1.992 -0.6,2.952 -2.808,4.728 -8.52,4.728 -5.472,0 -7.344,-4.536 -0.216,-0.432 -0.528,-1.296 -0.192,-0.84 -0.192,-1.68 0,-1.248 0.408,-2.616 0.432,-1.368 1.104,-2.256 1.32,-1.776 3.504,-2.544 0.72,-0.264 2.016,-0.504 1.44,-0.264 2.328,-0.264 3.264,0 5.544,2.448 2.28,2.424 2.28,5.568 z m -3.072,1.272 q 0,-1.152 -0.024,-1.248 -0.648,-2.304 -1.368,-3.576 -1.104,-1.944 -2.976,-2.808 -0.912,-0.432 -1.728,-0.432 -1.512,0 -2.76,0.912 -1.44,1.056 -1.968,2.952 -0.12,0.24 -0.264,0.624 0,0.312 -0.048,0.864 -0.096,0.792 -0.096,0.624 0,0.744 0.192,1.416 0.096,0.192 0.216,0.504 0.552,2.376 2.4,3.936 1.728,1.464 3.624,1.464 2.688,0 4.296,-2.808 0.408,-0.696 0.48,-1.176 0.024,-0.168 0.024,-1.248 z"
         style="font-style:normal;font-variant:normal;font-weight:normal;font-stretch:normal;font-family:Aniron;-inkscape-font-specification:Aniron;stroke-width:1.25288951"
         id="path927" />
      <path
         d="m 425.7119,715.73391 q 0,0.24 -0.384,0.528 -0.384,0.288 -0.648,0.336 -1.056,0.192 -2.472,0.24 -0.12,0.024 -0.552,0.072 -0.408,0.024 -0.48,0.024 h -1.632 q 0.12,0 -0.912,0.24 -0.144,0.024 -0.312,0.192 -0.144,0.144 -0.144,1.128 v 8.952 q 0,0.192 0.384,0.336 0.24,0.072 0.48,0.168 0.24,0.072 0.24,0.288 0,0.168 -0.648,0.696 -1.632,1.32 -2.712,1.32 -0.432,0 -0.48,-0.288 -0.264,-1.776 -0.312,-2.856 -0.072,-1.392 -0.072,-2.448 v -5.4 q 0,0.048 0.12,-0.6 0.072,-0.504 -0.024,-0.84 -0.12,-0.48 -0.648,-0.6 -0.144,-0.024 -0.864,-0.024 -0.912,0 -2.88,0.288 -0.048,0 -0.264,0.072 -0.216,0.072 -0.408,0.072 -0.48,0 -0.48,-0.24 0,-0.24 0.696,-0.624 0.504,-0.288 0.816,-0.408 1.416,-0.504 2.232,-0.6 0.816,-0.12 2.424,-0.312 l 7.92,0.048 q 1.008,-0.12 1.416,-0.12 0.6,0 0.6,0.36 z"
         style="font-style:normal;font-variant:normal;font-weight:normal;font-stretch:normal;font-family:Aniron;-inkscape-font-specification:Aniron;stroke-width:1.25288951"
         id="path929" />
      <path
         d="m 443.83188,715.73391 q 0,0.24 -0.384,0.528 -0.384,0.288 -0.648,0.336 -1.056,0.192 -2.472,0.24 -0.12,0.024 -0.552,0.072 -0.408,0.024 -0.48,0.024 h -1.632 q 0.12,0 -0.912,0.24 -0.144,0.024 -0.312,0.192 -0.144,0.144 -0.144,1.128 v 8.952 q 0,0.192 0.384,0.336 0.24,0.072 0.48,0.168 0.24,0.072 0.24,0.288 0,0.168 -0.648,0.696 -1.632,1.32 -2.712,1.32 -0.432,0 -0.48,-0.288 -0.264,-1.776 -0.312,-2.856 -0.072,-1.392 -0.072,-2.448 v -5.4 q 0,0.048 0.12,-0.6 0.072,-0.504 -0.024,-0.84 -0.12,-0.48 -0.648,-0.6 -0.144,-0.024 -0.864,-0.024 -0.912,0 -2.88,0.288 -0.048,0 -0.264,0.072 -0.216,0.072 -0.408,0.072 -0.48,0 -0.48,-0.24 0,-0.24 0.696,-0.624 0.504,-0.288 0.816,-0.408 1.416,-0.504 2.232,-0.6 0.816,-0.12 2.424,-0.312 l 7.92,0.048 q 1.008,-0.12 1.416,-0.12 0.6,0 0.6,0.36 z"
         style="font-style:normal;font-variant:normal;font-weight:normal;font-stretch:normal;font-family:Aniron;-inkscape-font-specification:Aniron;stroke-width:1.25288951"
         id="path931" />
      <path
         d="m 462.33586,728.98191 q 0,0.48 -2.016,0.96 -1.608,0.384 -2.088,0.384 h -8.208 q -0.6,0 -0.864,-0.792 -0.168,-0.504 -0.168,-1.032 v -7.584 q 0,-0.096 0.048,-0.36 0.048,-0.264 0.072,-0.336 0,-0.144 -0.024,-0.432 -0.024,-0.288 -0.024,-0.336 v -2.136 q 0,0.336 0.048,-1.632 0.024,-1.68 0,-2.448 -0.024,-0.456 -0.504,-0.72 -0.336,-0.192 -1.32,-0.24 -0.888,-0.048 -1.368,-0.408 v -0.36 h 5.616 q 0.84,0 0.984,1.104 l 0.144,15.6 q 0,0.168 0.192,0.384 0.216,0.216 0.744,0.264 0.36,0 0.72,0.024 1.728,0.192 3.576,0.192 1.176,0 1.944,-0.096 0.336,-0.024 1.176,-0.24 0.744,-0.192 0.84,-0.192 0.144,0 0.48,0.168 z"
         style="font-style:normal;font-variant:normal;font-weight:normal;font-stretch:normal;font-family:Aniron;-inkscape-font-specification:Aniron;stroke-width:1.25288951"
         id="path933" />
      <path
         d="m 475.84782,717.36591 q 0,0.456 -0.48,0.888 -0.48,0.432 -0.864,0.432 -0.312,0 -0.504,-0.408 -0.216,-0.528 -0.528,-0.744 -0.384,-0.264 -1.272,-0.504 -0.864,-0.24 -1.488,-0.24 -1.272,0 -2.496,0.792 -1.368,0.888 -2.112,2.376 -0.384,0.768 -0.384,0.936 -0.048,0.72 0.648,0.72 h 2.568 q 0.048,0 0.528,0.072 0.48,0.048 0.552,0.048 h 3.696 q 1.368,0 1.368,0.648 0,0.336 -0.672,0.792 -0.576,0.384 -0.84,0.48 -0.168,0.072 -0.384,0.072 -0.12,0 -0.696,-0.336 -0.576,-0.336 -0.96,-0.336 l -3.672,0.048 q -0.048,0.024 -1.296,0.096 -0.936,0.048 -0.96,0.312 -0.048,0.432 -0.048,0.576 0.072,0.384 0.168,1.104 0.192,1.632 1.92,2.784 1.536,1.008 2.976,1.008 0.456,0 2.544,-0.528 0.168,-0.048 0.936,-0.384 0.648,-0.264 0.936,-0.264 0.312,0 0.312,0.336 0,0.288 -0.528,0.744 -0.456,0.36 -0.816,0.528 -0.84,0.384 -2.64,1.008 -0.672,0.168 -1.344,0.168 -1.248,0 -2.232,-0.24 -0.192,-0.024 -1.8,-0.792 -1.944,-0.888 -2.928,-2.88 -0.792,-1.608 -0.792,-3.504 0,-1.056 0.456,-2.4 0.624,-1.92 2.064,-3.192 0.984,-0.84 2.064,-1.344 0.264,-0.12 1.656,-0.528 1.272,-0.36 2.592,-0.36 1.464,0 2.856,0.408 1.896,0.552 1.896,1.608 z"
         style="font-style:normal;font-variant:normal;font-weight:normal;font-stretch:normal;font-family:Aniron;-inkscape-font-specification:Aniron;stroke-width:1.25288951"
         id="path935" />
      <path
         d="m 494.73582,723.02991 q 0,2.376 -2.664,4.656 -1.08,0.912 -3.072,1.896 -0.192,0.048 -0.6,0.168 -1.392,0.696 -3.096,0.696 -0.552,0 -1.92,-0.216 -0.216,-0.12 -0.72,-0.336 -1.008,-0.288 -2.136,-1.32 -1.104,-1.056 -1.392,-2.064 -0.216,-0.696 -0.216,-1.632 0,-0.96 0.216,-1.824 0.144,-0.192 0.336,-0.6 0.192,-0.744 1.488,-2.4 0.6,-0.744 1.872,-1.752 0.6,-0.48 1.128,-0.72 1.728,-0.84 1.728,-1.248 0,-0.168 -0.36,-0.528 -0.504,-0.456 -0.576,-0.552 -0.408,-0.432 -1.248,-1.296 -3.024,-4.008 -3.024,-4.416 0,-0.792 1.704,-1.776 1.512,-0.888 2.04,-0.888 0.072,0 0.264,0.048 0.192,0.024 0.288,0.024 0,0.024 0.024,0.072 0.048,0.048 0.048,0.144 0,0.144 -0.384,0.384 -0.456,0.264 -0.576,0.48 -0.072,0.096 -0.072,0.36 0,0.624 1.512,2.592 1.128,1.464 1.752,2.088 0.48,0.432 1.464,1.392 1.944,1.896 3.864,3.768 1.488,1.536 2.112,3.12 0.216,0.552 0.216,1.68 z m -2.52,1.008 q 0,-0.648 -0.648,-1.728 -0.528,-0.888 -1.08,-1.464 -1.368,-1.44 -2.784,-2.616 -0.192,-0.168 -0.696,-0.168 -1.32,0 -2.856,1.344 -1.536,1.32 -2.136,2.856 -0.432,1.104 -0.432,1.248 0,1.104 0.672,2.304 0.696,1.176 1.824,1.752 0.336,0.168 1.44,0.36 0.072,0.024 0.288,0.096 0.24,0.072 0.312,0.072 1.608,0 3.6,-1.008 2.496,-1.248 2.496,-3.048 z"
         style="font-style:normal;font-variant:normal;font-weight:normal;font-stretch:normal;font-family:Aniron;-inkscape-font-specification:Aniron;stroke-width:1.25288951"
         id="path937" />
      <path
         d="m 502.82379,729.05391 q 0,0.6 -0.768,1.104 -0.648,0.408 -1.176,0.408 -0.36,0 -1.392,-0.696 -1.128,-0.744 -1.128,-1.176 0,-1.416 2.184,-1.416 2.28,0 2.28,1.776 z m 0,-8.472 q 0,0.624 -0.768,1.128 -0.648,0.408 -1.176,0.408 -0.36,0 -1.392,-0.696 -1.128,-0.744 -1.128,-1.176 0,-1.416 2.184,-1.416 2.28,0 2.28,1.752 z"
         style="font-style:normal;font-variant:normal;font-weight:normal;font-stretch:normal;font-family:Aniron;-inkscape-font-specification:Aniron;stroke-width:1.25288951"
         id="path939" />
    </g>
    <g
       aria-label="Tobi's"
       style="font-style:normal;font-weight:normal;font-size:5.85133076px;line-height:1.25;font-family:sans-serif;letter-spacing:0px;word-spacing:0px;fill:#000000;fill-opacity:1;stroke:none;stroke-width:0.21149024"
       id="text881-1">
      <path
         d="m 35.658196,200.81671 q 0,0.16852 -0.252778,0.3581 -0.242245,0.17905 -0.431828,0.22118 -0.684606,0.12639 -1.621989,0.15799 -0.08426,0 -0.358102,0.0316 -0.273842,0.0211 -0.315972,0.0211 h -1.074304 q 0.07373,0 -0.600347,0.15799 -0.09479,0.0211 -0.200115,0.12639 -0.105324,0.10532 -0.105324,0.75833 v 5.88761 q 0,0.12639 0.252777,0.21065 0.168519,0.0527 0.337037,0.0948 0.147454,0.0737 0.147454,0.21065 0,0.10532 -0.431829,0.45289 -0.389698,0.31597 -0.895253,0.57928 -0.56875,0.29491 -0.895254,0.29491 -0.09479,0 -0.200116,-0.0737 -0.09479,-0.0737 -0.105324,-0.11586 -0.06319,-0.44236 -0.17905,-1.33761 -0.07373,-0.90579 -0.07373,-2.15914 v -3.54942 q 0,-0.0421 0.04213,-0.27384 0.05266,-0.24225 0.05266,-0.40023 0,-0.14746 -0.04213,-0.27384 -0.08426,-0.31598 -0.421296,-0.3897 -0.09479,-0.0211 -0.568749,-0.0211 -0.589814,0 -1.895832,0.18958 -0.0316,0.0105 -0.17905,0.0527 -0.147454,0.0421 -0.26331,0.0421 -0.315972,0 -0.315972,-0.15799 0,-0.15799 0.463425,-0.4213 0.315972,-0.17905 0.537152,-0.25277 0.926851,-0.32651 1.474536,-0.4213 0.537152,-0.0632 1.590392,-0.18958 l 5.213536,0.0316 q 0.653009,-0.0737 0.926851,-0.0737 0.389699,0 0.389699,0.23171 z"
         style="font-style:normal;font-variant:normal;font-weight:bold;font-stretch:normal;font-size:10.53239632px;font-family:Aniron;-inkscape-font-specification:'Aniron Bold';stroke-width:0.21149024"
         id="path942" />
      <path
         d="m 42.261985,207.14668 q 0,0.87419 -0.263309,1.29549 -1.232291,2.07488 -3.739001,2.07488 -2.401386,0 -3.222913,-1.99062 -0.09479,-0.18959 -0.231713,-0.56875 -0.08426,-0.36864 -0.08426,-0.73727 0,-0.54769 0.17905,-1.14803 0.189584,-0.60035 0.484491,-0.99005 0.579281,-0.7794 1.53773,-1.11643 0.315971,-0.11586 0.884721,-0.22118 0.631944,-0.11586 1.021642,-0.11586 1.432406,0 2.432984,1.07431 1.000577,1.06377 1.000577,2.44351 z m -1.348146,0.55822 q 0,-0.50556 -0.01053,-0.54769 -0.284374,-1.01111 -0.600346,-1.56932 -0.48449,-0.85313 -1.306017,-1.23229 -0.400231,-0.18959 -0.758333,-0.18959 -0.663541,0 -1.211225,0.40023 -0.631944,0.46343 -0.863657,1.29549 -0.05266,0.10532 -0.115856,0.27384 0,0.13692 -0.02107,0.37917 -0.04213,0.34757 -0.04213,0.27384 0,0.3265 0.08426,0.62141 0.04213,0.0843 0.09479,0.22118 0.242245,1.04271 1.05324,1.72731 0.758332,0.64248 1.590391,0.64248 1.179629,0 1.885299,-1.23229 0.179051,-0.30544 0.210648,-0.51609 0.01053,-0.0737 0.01053,-0.54768 z"
         style="font-style:normal;font-variant:normal;font-weight:bold;font-stretch:normal;font-size:10.53239632px;font-family:Aniron;-inkscape-font-specification:'Aniron Bold';stroke-width:0.21149024"
         id="path944" />
      <path
         d="m 49.424005,208.27365 q 0,1.03217 -1.327082,1.70625 -0.853124,0.43182 -1.811572,0.56875 -0.473958,0.0737 -1.032175,0.0737 -0.547684,0 -0.674073,-0.0843 -0.200115,-0.12639 -0.200115,-0.72673 l -0.02107,-2.22234 q 0,-0.16852 -0.02107,-0.56875 -0.01053,-0.40023 -0.01053,-0.60034 0,-0.0527 -0.02107,-0.23172 -0.02107,-0.17905 -0.02107,-0.20011 0,0.11585 0.02107,-0.88472 0.01053,-0.0737 0.04213,-0.23172 0.0316,-0.15798 0.0316,-0.17905 0,-0.20011 -0.189584,-0.20011 -0.02106,0 -0.379166,0.15798 -0.347569,0.14746 -0.379166,0.14746 -0.179051,0 -0.179051,-0.12639 0,-0.29491 0.968981,-0.62141 0.821527,-0.27385 1.095369,-0.27385 0.305439,0 0.305439,0.21065 0,0.0211 0,0.23172 -0.01053,0.20011 -0.01053,0.23171 l -0.01053,0.47396 q -0.01053,0.16851 0.09479,0.16851 0.05266,0 0.600347,-0.44236 0.621411,-0.49502 0.874189,-0.63194 0.252777,-0.14745 0.589814,-0.14745 0.842592,0 1.242823,1.03217 0.0316,0.0843 0.0316,0.40023 0,0.28438 0,0.30544 -0.09479,0.23171 -0.379167,0.55822 -0.105323,0.12639 -0.273842,0.3265 -0.09479,0.10533 -0.09479,0.11586 0,0.0737 0.126388,0.11586 0.410764,0.12638 0.78993,0.70567 0.126389,0.20011 0.147454,0.30544 0.07373,0.3581 0.07373,0.53715 z m -1.337614,-2.36979 q 0,-0.13692 -0.05266,-0.30544 -0.231713,-0.75833 -0.863656,-0.75833 -0.105324,0 -0.242246,0.0527 -0.242245,0.0948 -0.252777,0.10532 -0.136921,0.0421 -0.558217,0.36864 -0.495023,0.37916 -0.495023,0.55821 v 0.64248 q 0,0.0316 0.01053,0.21065 0.02107,0.16852 0.02107,0.25277 0.05266,0.0948 0.200115,0.0948 0.02107,0 0.157986,-0.0211 0.136921,-0.0316 0.189583,-0.0316 0.179051,-0.0105 0.968981,-0.24224 0.537152,-0.15799 0.821527,-0.52662 0.09479,-0.12639 0.09479,-0.40023 z m 0.30544,3.0228 q 0,-0.58982 -0.379167,-1.03218 -0.368634,-0.44236 -0.947915,-0.44236 -0.02107,0 -0.273843,0.0421 -0.252777,0.0316 -0.379166,0.0421 -0.200115,0.0211 -0.379166,0.0737 -0.168519,0.0421 -0.200116,0.0527 -0.136921,0.0632 -0.157986,0.15798 -0.0316,0.17906 -0.0316,0.53716 0,0.0316 0.01053,0.31597 0.01053,0.28437 0.01053,0.30544 l 0.01053,0.76886 q 0,0.22118 0.52662,0.22118 0.0632,0 0.389699,-0.0527 0.136921,-0.0105 0.389698,-0.0316 0.326505,-0.0527 0.747801,-0.25277 0.653008,-0.31598 0.663541,-0.70567 z"
         style="font-style:normal;font-variant:normal;font-weight:bold;font-stretch:normal;font-size:10.53239632px;font-family:Aniron;-inkscape-font-specification:'Aniron Bold';stroke-width:0.21149024"
         id="path946" />
      <path
         d="m 54.342617,210.15895 q 0,0.16851 -0.315972,0.21064 -0.231713,0.0316 -0.695138,0.0632 -0.0316,0 -0.326505,0.0316 -0.294907,0.0316 -0.315972,0.0316 -0.347569,0 -0.400231,-0.17905 -0.07373,-0.25277 -0.07373,-0.3581 v -1.31655 q 0,-0.0211 0.01053,-0.16852 0.02107,-0.14745 0.02107,-0.15798 v -0.4213 q 0,0.0105 -0.01053,-0.18958 -0.01053,-0.18958 0,-0.28438 0,-0.13692 0.02107,-0.3897 0.02107,-0.2633 0.02107,-0.27384 v -0.52662 l 0.02107,-0.77939 q -0.0316,-0.24225 -0.0316,-0.52662 0,-0.56875 -0.242246,-0.66355 -0.105324,-0.0316 -0.610879,-0.0948 -0.379166,-0.0421 -0.379166,-0.13692 0,-0.13692 0.389699,-0.16852 1.211225,-0.10532 1.421873,-0.10532 0.179051,0 0.410764,0.0843 0.284374,0.0948 0.284374,0.24224 v 1.95903 q 0,-0.0105 0,0.3265 -0.01053,0.33704 -0.01053,0.48449 0,0.0632 -0.01053,0.20012 -0.01053,0.12639 -0.01053,0.12639 v 1.60092 q 0,0.0105 0.0316,0.12639 0.04213,0.11586 0.04213,0.13692 v 0.43183 q 0,0.10532 0.05266,0.30544 0.07373,0.24225 0.157986,0.25278 0.168518,0.0105 0.495023,0.0421 0.05266,0.0105 0.05266,0.0843 z"
         style="font-style:normal;font-variant:normal;font-weight:bold;font-stretch:normal;font-size:10.53239632px;font-family:Aniron;-inkscape-font-specification:'Aniron Bold';stroke-width:0.21149024"
         id="path948" />
      <path
         d="m 57.291668,204.59784 q 0,1.00058 -0.621411,1.23229 -0.200116,0.0737 -0.22118,0.0737 H 56.33322 v -0.0843 q 0,-0.0316 0.05266,-0.15799 0.0316,-0.0843 0.0316,-0.67407 0,-0.0948 -0.0316,-0.15799 -0.242245,-0.44236 -0.242245,-0.67407 0,-0.18958 0.147454,-0.31597 0.157986,-0.13692 0.358101,-0.13692 0.642476,0 0.642476,0.89525 z"
         style="font-style:normal;font-variant:normal;font-weight:bold;font-stretch:normal;font-size:10.53239632px;font-family:Aniron;-inkscape-font-specification:'Aniron Bold';stroke-width:0.21149024"
         id="path950" />
      <path
         d="m 65.127754,207.74703 q 0,0.37916 -0.863656,1.23229 -0.26331,0.26331 -0.853124,0.6846 -0.579282,0.41077 -0.874189,0.55822 -0.126389,0.0737 -0.379166,0.16852 -0.547685,0.10532 -1.116434,0.10532 -0.115857,0 -0.56875,-0.11585 -0.0316,0 -0.431828,-0.17905 -0.958448,-0.43183 -0.958448,-0.58982 0,-0.0843 0.26331,-0.48449 0.273842,-0.41076 0.400231,-0.41076 0.07373,0 0.210648,0.11585 0.168518,0.15799 0.294907,0.22119 0.895254,0.46342 1.600924,0.49502 0.05266,0 0.179051,0.0211 0.136921,0.0211 0.157986,0.0211 0.431828,0 0.863656,-0.20012 0.442361,-0.21065 0.716203,-0.54768 0.105324,-0.13692 0.105324,-0.4213 0,-0.51609 -0.537152,-0.80046 -0.379166,-0.21065 -1.05324,-0.30544 -0.379166,-0.0421 -0.758332,-0.0948 -0.431828,-0.0632 -1.253355,-0.20012 -0.368634,-0.0632 -0.663541,-0.25277 -0.400231,-0.26331 -0.400231,-0.63195 0,-0.24224 0.358101,-0.83206 0.821527,-0.86365 1.664119,-1.21122 0.716203,-0.29491 1.653586,-0.29491 1.27442,0 1.621989,0.65301 0.09479,0.17905 0.09479,0.24224 0,0.20012 -0.26331,0.61088 -0.30544,0.47396 -0.579282,0.47396 -0.04213,0 -0.105324,-0.0527 -0.05266,-0.0527 -0.05266,-0.0843 0,-0.0527 0.115856,-0.20012 0.126389,-0.14745 0.136921,-0.3265 0,-0.50556 -1.063772,-0.55822 -0.126388,-0.0105 -0.463425,-0.0316 -0.337037,-0.0316 -0.368634,-0.0316 -0.368634,0 -0.853124,0.16852 -0.326504,0.10532 -0.695138,0.46342 -0.09479,0.0948 -0.200116,0.31597 -0.09479,0.21065 -0.09479,0.33704 0,0.50555 1.074304,0.50555 h 0.810995 q 0.126388,0 0.558217,0.0421 0.294907,0.0211 0.589814,0.0527 0.368634,0.0421 0.568749,0.11585 1.411341,0.52662 1.411341,1.25336 z"
         style="font-style:normal;font-variant:normal;font-weight:bold;font-stretch:normal;font-size:10.53239632px;font-family:Aniron;-inkscape-font-specification:'Aniron Bold';stroke-width:0.21149024"
         id="path952" />
    </g>
    <g
       aria-label="    1iN; t`Ë `C w`V6V--- w1J 25^²1 1jR° @ jReÁ"
       style="font-style:normal;font-variant:normal;font-weight:normal;font-stretch:normal;font-size:10.58333302px;line-height:1.25;font-family:'Tengwar Annatar';-inkscape-font-specification:'Tengwar Annatar';letter-spacing:0px;word-spacing:0px;fill:#000000;fill-opacity:1;stroke:none;stroke-width:0.26458332"
       id="text938-3"
       transform="matrix(0.79933325,0,0,0.79933325,-44.335685,116.87841)"
       inkscape:export-filename="/home/vs/tobis-beer-label.png"
       inkscape:export-xdpi="699.99915"
       inkscape:export-ydpi="699.99915">
      <path
         d="m 79.251568,109.5414 q -0.01918,0.048 -0.05277,0.0346 -0.05279,-0.0211 -0.142086,-0.17364 -0.06722,-0.13816 -0.100824,-0.17941 -0.149777,-0.2101 -0.544278,-0.49016 -0.722775,-0.51696 -2.656668,-1.28969 -0.283126,-0.11313 -0.41747,-0.11116 -0.119948,0.008 -0.158297,0.1037 -0.0038,0.01 -0.0096,0.024 -0.0115,0.0288 -0.0067,0.0585 l 0.04709,0.20246 q 1e-5,0.0278 -0.0096,0.0518 -0.01726,0.0432 -0.05565,0.0279 -0.09118,-0.0364 -0.162255,-0.22065 -0.17864,-0.4164 -0.08277,-0.65634 0.02493,-0.0624 0.07001,-0.10558 0.141019,-0.11617 0.568107,0.0545 l 0.23802,0.10068 -0.097,-0.21684 q -0.187295,-0.46438 -0.225838,-0.89715 -0.02699,-0.32242 0.06313,-0.54796 0.176405,-0.44148 0.710891,-0.4839 0.258127,-0.0193 0.488467,0.0727 0.547056,0.21859 0.827516,0.9094 0.18347,0.50181 0.04541,0.84732 -0.05369,0.13436 -0.157292,0.22652 -0.12567,0.10561 -0.269632,0.0481 -0.158359,-0.0633 -0.213114,-0.21871 -0.05091,-0.13721 -0.0068,-0.24758 0.02684,-0.0672 0.094,-0.12382 l 0.178445,-0.11234 q 0.07003,-0.0499 0.114135,-0.1603 0.03835,-0.096 0.02296,-0.19672 l -0.0058,-0.0134 q -0.01155,-0.0825 -0.147859,-0.21489 -0.128633,-0.12375 -0.286991,-0.18702 -0.206346,-0.0824 -0.459674,-0.0613 -0.412621,0.0299 -0.601556,0.32169 -0.0086,0.008 -0.01439,0.0221 -0.02206,0.0413 -0.03931,0.0845 -0.109294,0.27353 0.0031,0.6746 0.113406,0.46825 0.471415,0.67251 l 0.698709,0.31258 q 1.097015,0.49955 1.62785,0.96764 0.380116,0.30214 0.596213,0.80585 0.08932,0.2082 0.05864,0.28498 z"
         style="font-size:5.29166651px;stroke-width:0.26458332"
         id="path950-4"
         inkscape:connector-curvature="0" />
      <path
         d="m 78.2283,102.51333 q -0.207062,-0.10583 -0.530903,-0.074 -0.495323,0.0834 -0.739929,0.56197 -0.05174,0.10123 -0.07813,0.20962 -0.06719,0.27905 -0.0059,0.40901 0.102146,0.20891 0.359823,0.34062 0.115035,0.0588 0.22138,0.0551 0.03006,-0.002 0.194591,-0.0514 l 0.007,-0.002 q 0.111253,-0.036 0.217085,0.0181 0.08743,0.0447 0.141925,0.1538 0.0909,0.17414 0.01564,0.32138 -0.0094,0.0184 -0.02577,0.0391 -0.0071,0.0138 -0.01871,0.0253 -0.200731,0.2224 -0.624058,0.006 -0.487747,-0.24931 -0.696531,-0.94219 -0.112162,-0.38233 -0.05826,-0.72621 0.03436,-0.22619 0.126092,-0.40564 0.138766,-0.27148 0.410666,-0.44009 0.429987,-0.27352 0.915997,-0.0889 0.03681,0.0188 0.06902,0.0353 0.409523,0.20933 0.825677,0.97339 0.141104,0.24623 0.504394,0.97746 0.249793,0.49911 0.414007,0.74555 0.19857,0.28141 0.378024,0.37314 0.124237,0.0635 0.23999,0.0414 l 0.08334,-0.0154 q 0.01616,0.002 0.04837,0.0189 0.03211,0.028 0.07986,0.11626 0.06585,0.13232 0.08548,0.26423 0.01523,0.10645 -0.0083,0.15246 -0.01176,0.023 -0.0905,0.0408 -0.152769,0.0264 -0.313817,-0.0559 -0.23007,-0.1176 -0.476595,-0.46415 l -0.0022,-0.007 -0.06851,-0.0931 q -0.202966,-0.30687 -0.5865,-1.10068 -0.288341,-0.58265 -0.491307,-0.88953 -0.246218,-0.38121 -0.522301,-0.52233 z"
         style="font-size:5.29166651px;stroke-width:0.26458332"
         id="path952-0"
         inkscape:connector-curvature="0" />
      <path
         d="m 75.596895,100.98266 q -0.351406,-0.7747 -0.112233,-1.197497 0.09923,-0.175416 0.313224,-0.196854 0.146705,-0.01794 0.277142,0.05585 0.256377,0.145031 0.338783,0.524121 0.04529,0.2453 0.002,0.32176 -0.01527,0.027 -0.0493,0.0137 -0.03598,-0.0204 -0.06256,-0.0888 l -0.05256,-0.14847 q -0.06002,-0.0933 -0.145474,-0.14167 -0.08996,-0.0509 -0.196953,-0.0402 -0.120489,0.003 -0.184099,0.11553 -0.05089,0.09 -0.03999,0.23862 0.0154,0.1512 0.10235,0.39632 0.05061,0.14143 0.317788,0.70818 0.120391,0.26997 0.139925,0.34039 0.03948,0.0876 0.01658,0.12812 -0.03249,0.0469 -0.07297,0.024 -0.03149,-0.0178 -0.06765,-0.0798 -0.275041,-0.45839 -0.524048,-0.97329 z"
         style="font-size:5.29166651px;stroke-width:0.26458332"
         id="path954-3"
         inkscape:connector-curvature="0" />
      <path
         d="m 79.064977,105.51533 q -0.01781,0.0315 -0.05829,0.009 -0.04048,-0.0229 -0.09423,-0.14829 -0.180176,-0.45816 0.06154,-0.88545 0.09414,-0.16642 0.258708,-0.35238 0.309366,-0.34746 0.385698,-0.4824 0.01272,-0.0225 0.02544,-0.045 0.08397,-0.14843 0.08792,-0.27087 l -0.02712,-0.19346 q 0.0018,-0.0346 0.01254,-0.0641 0.0229,-0.0405 0.05438,-0.0227 0.03598,0.0204 0.08387,0.12463 l 0.0059,0.0211 q 0.184674,0.46071 -0.05959,0.8925 -0.0916,0.16192 -0.23699,0.33497 -0.32913,0.37191 -0.397829,0.49335 -0.01976,0.0245 -0.03503,0.0514 -0.08651,0.15293 -0.08147,0.28046 l 0.02144,0.21399 q 0.0033,0.0256 -0.0069,0.0436 z"
         style="font-size:5.29166651px;stroke-width:0.26458332"
         id="path956-9"
         inkscape:connector-curvature="0" />
      <path
         d="m 79.688302,98.713462 0.166942,0.130567 -0.03052,-0.132167 q -0.05924,-0.327385 -0.05244,-0.68295 0.01359,-0.459981 0.189346,-0.696357 0.101752,-0.13685 0.258585,-0.200547 0.268265,-0.109635 0.601504,-0.0035 l 0.203943,0.0808 q -0.01669,-0.03817 -0.02946,-0.124936 -0.04116,-0.204469 -0.05478,-0.497938 -0.01161,-0.555995 0.18881,-0.825547 0.0925,-0.124408 0.223497,-0.187998 0.247637,-0.09921 0.488687,-0.04234 0.22861,0.04763 0.411076,0.183296 0.286139,0.212754 0.455325,0.634769 0.08879,0.227009 0.124954,0.472841 0.141836,-0.19076 0.168523,-0.235313 0.130352,-0.218618 0.1397,-0.45637 l -0.01054,-0.297615 q 0.0101,-0.05689 0.0286,-0.08177 0.03392,-0.04562 0.07124,-0.01787 0.05806,0.04317 0.09517,0.270391 0.06297,0.478267 -0.0946,0.863397 -0.06858,0.161517 -0.250497,0.406187 -0.037,0.04976 -0.07708,0.103674 -0.48941,0.61492 -0.948836,1.232816 -0.499509,0.671806 -1.032507,1.492578 l -0.102708,0.15546 -0.0031,0.004 q -0.02775,0.0373 -0.06497,0.0354 -0.01446,0.002 -0.03105,-0.0102 -0.04562,-0.0339 -0.08549,-0.17948 -0.02308,-0.0816 -0.140362,-0.200957 -0.08198,-0.08028 -0.493595,-0.392761 l -0.295497,-0.226151 q -0.398108,-0.296006 -0.51836,-0.134275 -0.03392,0.04562 -0.03477,0.09006 l -0.0024,0.159175 0.0011,0.0072 q -0.009,0.06412 -0.02754,0.089 -0.0185,0.02488 -0.0537,0.01159 l -0.02074,-0.01542 q -0.05189,-0.05146 -0.08571,-0.231157 -0.07732,-0.450301 0.08918,-0.674236 0.05242,-0.0705 0.130888,-0.08943 0.172465,-0.03276 0.504221,0.213915 z m 1.048018,0.99818 0.186916,-0.286032 q 0.205416,-0.310915 0.425293,-0.623956 0.02158,-0.02903 0.116106,-0.164815 0.08942,-0.120261 0.09452,-0.135786 l 0.01297,-0.112709 -0.0011,-0.0072 q -0.0064,-0.04338 -0.04594,-0.111432 -0.107401,-0.227965 -0.302307,-0.372885 -0.265405,-0.197337 -0.567275,-0.215721 -0.251257,-0.02583 -0.442963,0.102093 -0.07007,0.05093 -0.119404,0.117285 -0.17267,0.23223 -0.103646,0.676364 0.05498,0.298464 0.260633,0.541525 0.155672,0.154384 0.311344,0.308769 0.0789,0.08442 0.174816,0.28453 z m 1.001673,-1.451112 q 0.0031,-0.0041 0.709288,-0.927961 l 0.175753,-0.236377 q 0.0051,-0.01552 0.0069,-0.07858 0.02424,-0.136528 0.01892,-0.172679 -0.05711,-0.312925 -0.376426,-0.550346 -0.165878,-0.123336 -0.345895,-0.167031 -0.340363,-0.0792 -0.56184,0.09742 -0.05667,0.04158 -0.09676,0.09549 l -0.05539,0.100483 q -0.03796,0.06837 -0.05305,0.16662 -0.06346,0.397142 0.186426,0.840525 l 0.211182,0.330889 q 0.08018,0.143329 0.135688,0.319833 z"
         style="font-size:5.29166651px;stroke-width:0.26458332"
         id="path958-1"
         inkscape:connector-curvature="0" />
      <path
         d="m 82.626859,94.948591 q -0.02771,0.03068 -0.05839,0.003 -0.06136,-0.05542 -0.07336,-0.219455 -0.05679,-0.469096 0.164884,-0.714536 0.121229,-0.134225 0.370627,0.02139 l 0.0073,-3.71e-4 q 0.08709,0.05777 0.186801,0.147825 0.360491,0.325589 0.533437,0.488754 0.273028,0.260521 0.35307,0.395483 0.07621,0.131499 0.117777,0.301348 0.048,0.224403 0.0224,0.368399 -0.01286,0.10676 -0.04404,0.141275 -0.02425,0.02684 -0.04726,0.0061 -0.04602,-0.04157 -0.0887,-0.23331 -0.03934,-0.126056 -0.346143,-0.403153 L 83.11129,94.689783 q -0.236285,-0.185555 -0.352815,-0.102792 -0.01423,0.008 -0.02808,0.02338 -0.01039,0.0115 -0.01695,0.02647 -0.03117,0.03452 -0.02969,0.06371 l -0.02065,0.169356 q -0.02932,0.07101 -0.03624,0.07868 z"
         style="font-size:5.29166651px;stroke-width:0.26458332"
         id="path960-9"
         inkscape:connector-curvature="0" />
      <path
         d="m 84.953773,96.600217 0.01109,-0.117317 q 0.01771,-0.01881 0.07615,-0.02057 l 0.178859,-0.009 q 0.12042,-0.0073 0.252347,0.0034 0.0038,0.0035 0.0038,0.0035 0.0301,0.02834 0.02167,0.112676 l 0.0083,0.277584 q 0.0033,0.109573 -0.0073,0.12086 -0.01771,0.01881 -0.07615,0.02057 l -0.350633,0.01055 q -0.07305,0.0022 -0.0881,-0.01197 -0.01881,-0.01771 -0.02167,-0.112676 z"
         style="font-size:5.29166651px;stroke-width:0.26458332"
         id="path962-6"
         inkscape:connector-curvature="0" />
      <path
         d="m 85.085598,92.353112 q -0.03039,0.02803 -0.05842,-0.0024 -0.05606,-0.06077 -0.05308,-0.225222 -0.01385,-0.472318 0.22925,-0.696558 0.132946,-0.122631 0.367141,0.05505 l 0.0073,2.95e-4 q 0.08147,0.06546 0.172568,0.164218 0.329352,0.357055 0.486726,0.535288 0.248176,0.284295 0.315599,0.425984 0.06392,0.137891 0.08985,0.310819 0.02738,0.227842 -0.01123,0.368908 -0.02253,0.105146 -0.05672,0.136679 -0.02659,0.02453 -0.04761,0.0017 -0.04205,-0.04558 -0.0671,-0.240416 -0.0277,-0.129115 -0.308002,-0.432992 l -0.560305,-0.615056 q -0.218411,-0.206296 -0.341992,-0.134485 -0.0149,0.0067 -0.03009,0.02073 -0.01139,0.01051 -0.01929,0.02482 -0.03419,0.03153 -0.03537,0.06074 l -0.03599,0.166772 q -0.03566,0.06804 -0.04326,0.07505 z"
         style="font-size:5.29166651px;stroke-width:0.26458332"
         id="path964-9"
         inkscape:connector-curvature="0" />
      <path
         d="m 83.57792,89.705319 q 0.0062,-0.102123 0.02173,-0.11582 0.01935,-0.01712 0.07771,-0.01355 l 0.178939,0.0073 0.171198,0.01413 q 0.06565,0.004 0.07935,0.0195 0.02054,0.02322 0.01519,0.110756 l -0.01696,0.277192 q -0.0067,0.109418 -0.02605,0.126538 -0.02278,0.01325 -0.06997,0.0067 l -0.182363,-0.01116 -0.171644,-0.0068 q -0.06565,-0.004 -0.08277,-0.02337 -0.01712,-0.01935 -0.01132,-0.11418 z m 0.09457,0.847794 0.02173,-0.11582 q 0.01935,-0.01712 0.07771,-0.01355 l 0.178938,0.0073 q 0.120583,0.0037 0.250992,0.02634 0.0034,0.0039 0.0034,0.0039 0.02739,0.03096 0.01132,0.114181 l -0.01696,0.277191 q -0.0067,0.109418 -0.0183,0.11969 -0.01935,0.01712 -0.07771,0.01355 l -0.350136,-0.02142 q -0.07295,-0.0045 -0.08664,-0.01994 -0.01712,-0.01935 -0.01132,-0.11418 z m 0.731502,-0.64716 0.02173,-0.11582 q 0.01935,-0.01712 0.07771,-0.01355 l 0.178938,0.0073 q 0.120583,0.0037 0.250992,0.02634 0.0034,0.0039 0.0034,0.0039 0.02739,0.03096 0.01132,0.11418 l -0.01696,0.277192 q -0.0067,0.109418 -0.0183,0.11969 -0.01935,0.01712 -0.07771,0.01355 l -0.350136,-0.02142 q -0.07295,-0.0045 -0.08664,-0.01994 -0.01712,-0.01935 -0.01132,-0.114181 z"
         style="font-size:5.29166651px;stroke-width:0.26458332"
         id="path966-3"
         inkscape:connector-curvature="0" />
      <path
         d="m 90.162416,93.579938 q -0.03411,0.02335 -0.05747,-0.01076 -0.04379,-0.06396 -0.01221,-0.292254 0.0011,-0.02581 0.0038,-0.04018 0.02574,-0.236822 -0.140504,-0.699176 -0.301493,-0.85199 -1.261966,-2.25485 l -0.270157,-0.403737 -0.0029,-0.0043 q -0.143049,-0.208936 -0.240043,-0.286573 -0.130221,-0.09873 -0.232558,-0.02866 -0.02985,0.02044 -0.05228,0.06085 l -0.04844,0.139634 q -0.03634,0.07498 -0.06619,0.09542 -0.03411,0.02335 -0.05747,-0.01076 -0.04963,-0.07249 -0.01198,-0.273623 0.07484,-0.439532 0.296568,-0.591339 0.06396,-0.04379 0.1313,-0.04605 0.171941,-0.005 0.40841,0.340394 0.0146,0.02132 0.03211,0.0469 -0.121268,-0.186272 -0.121268,-0.186272 0,0 0.0058,0.0085 0.02627,0.03838 0.223447,0.335512 0.02102,-0.271164 0.164312,-0.738774 0.173143,-0.488046 0.428983,-0.663208 0.136449,-0.09342 0.35126,-0.108973 0.311345,0.02482 0.554501,0.215322 l 0.140554,0.122966 q 0,0 0,0 0.0043,-0.0029 0.01276,-0.127726 0.03719,-0.238396 0.115675,-0.498803 0.16281,-0.512285 0.439971,-0.702044 0.12792,-0.08758 0.276736,-0.108053 0.223109,-0.04002 0.472989,0.11456 0.20071,0.119357 0.332082,0.311238 0.201437,0.294216 0.22582,0.759756 0.01152,0.236361 -0.03285,0.473413 0.208936,-0.143049 0.248657,-0.176507 0.248197,-0.213768 0.312086,-0.495495 0.03765,-0.201135 0.105874,-0.247845 0.03838,-0.02627 0.06465,0.0121 0.04963,0.07249 0.0079,0.295173 -0.102653,0.508676 -0.41412,0.822127 -0.092,0.0943 -0.428861,0.324935 v 0 q 0,0 -0.759224,0.501017 -0.275816,0.182576 -0.514601,0.346061 -0.635338,0.434986 -1.022903,0.73791 -0.217235,0.167519 -0.217235,0.167519 0,0 0,0 0.100834,0.156424 0.328581,0.607985 0.380704,0.766444 0.427558,1.31054 0.03042,0.37373 -0.05479,0.670054 -0.037,0.138059 -0.09243,0.176011 z m -0.799137,-3.079012 q 0.102106,-0.0887 0.330788,-0.257789 0.252692,-0.198058 0.393404,-0.294397 0.147666,-0.113625 0.224418,-0.166174 l 0.06822,-0.04671 0.0368,-0.03772 q 0.03926,-0.07072 0.04733,-0.113819 0.0094,-0.05028 -0.01014,-0.124577 -0.02589,-0.239051 -0.160177,-0.435195 -0.08758,-0.127921 -0.222296,-0.242359 -0.150657,-0.128574 -0.323288,-0.179477 -0.297899,-0.09665 -0.511099,0.04931 -0.102337,0.07007 -0.165606,0.169748 -0.222348,0.333851 -0.172611,0.763243 0.0144,0.121658 0.05013,0.228718 0.07256,0.188307 0.414126,0.687197 z m 1.300948,-0.972115 v 0 q 0,0 0.899937,-0.597357 l 0.318457,-0.211769 0.03342,-0.07925 0.06304,-0.118314 q 0.01951,-0.04468 0.01141,-0.120543 -0.0079,-0.295173 -0.17435,-0.538222 -0.172243,-0.251577 -0.414249,-0.348923 -0.309806,-0.132342 -0.54859,0.03114 -0.174825,0.119695 -0.257804,0.36439 -0.105184,0.303737 -0.03728,0.695638 l 0.104285,0.435885 q 0.02228,0.178895 0.01267,0.329516 z"
         style="font-size:5.29166651px;stroke-width:0.26458332"
         id="path968-3"
         inkscape:connector-curvature="0" />
      <path
         d="m 92.554241,86.709622 q -0.03618,0.02 -0.05618,-0.01618 -0.04,-0.07236 0.002,-0.231384 0.09883,-0.462071 0.38827,-0.622091 0.158287,-0.08751 0.343529,0.140747 l 0.007,0.002 q 0.06357,0.08295 0.128582,0.200534 0.235028,0.425115 0.345519,0.635651 0.173478,0.335143 0.205284,0.488798 0.02931,0.149133 0.01339,0.323269 -0.02757,0.227818 -0.09861,0.355663 -0.04688,0.09677 -0.08758,0.119278 -0.03166,0.0175 -0.04666,-0.0096 -0.03,-0.05427 -0.008,-0.249475 0.0038,-0.131999 -0.196238,-0.493799 L 93.096521,86.62241 q -0.163108,-0.252304 -0.300217,-0.21193 -0.01607,0.003 -0.03416,0.01298 -0.01357,0.0075 -0.02464,0.01952 -0.0407,0.0225 -0.04879,0.05059 l -0.0746,0.153436 q -0.05081,0.05762 -0.05986,0.06262 z"
         style="font-size:5.29166651px;stroke-width:0.26458332"
         id="path970-8"
         inkscape:connector-curvature="0" />
      <path
         d="m 92.000476,85.289442 q -0.02165,-0.04116 0.0058,-0.16655 0.103521,-0.702508 0.248164,-1.315708 0.03423,-0.134769 0.0446,-0.192769 0.04988,-0.160515 0.11368,-0.205739 0.155512,-0.08177 0.225259,0.05087 0.05051,0.09605 -0.0189,0.319377 L 92.522,84.11608 92.270183,84.914082 q -0.0595,0.14222 -0.100474,0.286372 -0.03951,0.102515 -0.0761,0.121756 -0.05946,0.03127 -0.09313,-0.03277 z"
         style="font-size:5.29166651px;stroke-width:0.26458332"
         id="path972-0"
         inkscape:connector-curvature="0" />
      <path
         d="m 94.230853,85.591897 q -0.02345,0.01086 -0.07572,0.05785 l -0.08535,0.147728 -0.0025,0.0069 q -0.03821,0.04047 -0.06634,0.0535 -0.03282,0.0152 -0.04803,-0.01762 l -0.01086,-0.02345 q -0.01451,-0.05592 0.03219,-0.225619 0.138027,-0.439784 0.405312,-0.563565 0.0891,-0.04126 0.171424,-0.01105 0.08702,0.02804 0.182474,0.160376 0.05967,0.09196 0.181282,0.354554 0.0304,0.06565 0.06515,0.140676 0.226142,-0.679912 0.554446,-1.065443 0.19172,-0.225464 0.398045,-0.321015 0.445475,-0.206302 0.857757,0.155172 0.189334,0.162893 0.289228,0.378596 0.247563,0.53457 -0.02261,1.217788 -0.209056,0.495458 -0.560747,0.658328 -0.215704,0.09989 -0.374982,0.0142 -0.08198,-0.04176 -0.127587,-0.140235 -0.07166,-0.154743 0.03279,-0.322708 0.06086,-0.10222 0.145269,-0.141309 0.06565,-0.0304 0.146499,-0.02798 l 0.229963,0.04157 q 0.09023,-0.0019 0.169945,-0.03884 0.154744,-0.07166 0.188165,-0.183954 0.04384,-0.151284 -0.0142,-0.374982 -0.02685,-0.107159 -0.07028,-0.200944 -0.117267,-0.253217 -0.364698,-0.40629 -0.231537,-0.143348 -0.481987,-0.118482 -0.09275,0.0088 -0.167773,0.04353 -0.01407,0.0065 -0.02814,0.01303 -0.220393,0.102065 -0.419224,0.410551 -0.243111,0.397331 -0.182711,0.773697 0.0076,0.05341 0.10512,0.34996 0.12797,0.436192 -0.08014,0.823011 -0.07024,0.106563 -0.117134,0.128279 -0.03283,0.0152 -0.04586,-0.01293 -0.02389,-0.05158 0.01126,-0.221622 l 0.0025,-0.0069 q 0.0029,-0.01841 6.92e-4,-0.0231 0.0086,-0.05523 -0.03129,-0.190528 -0.03371,-0.109677 -0.250523,-0.590148 L 94.617863,85.94799 q -0.204131,-0.440785 -0.38701,-0.356093 z"
         style="font-size:5.29166651px;stroke-width:0.26458332"
         id="path974-5"
         inkscape:connector-curvature="0" />
      <path
         d="m 95.622203,83.445723 q -0.01739,-0.04314 0.02258,-0.165115 0.173725,-0.688516 0.379372,-1.284038 0.04762,-0.130637 0.06378,-0.187298 0.06579,-0.154678 0.133817,-0.193248 0.162954,-0.0657 0.218992,0.07329 0.04058,0.100648 -0.05096,0.315851 l -0.130576,0.325665 -0.330882,0.768594 q -0.07352,0.135506 -0.128796,0.274801 -0.04963,0.09802 -0.08797,0.113475 -0.06231,0.02512 -0.08936,-0.04198 z"
         style="font-size:5.29166651px;stroke-width:0.26458332"
         id="path976-6"
         inkscape:connector-curvature="0" />
      <path
         d="m 97.649229,83.746361 q 0.04181,-0.09338 0.06113,-0.100745 0.0048,-0.0018 0.0097,-0.0037 0.02897,-0.01105 0.07566,0.0099 0.113389,0.05078 0.171577,0.07283 l 0.14858,0.07054 q 0.06003,0.02688 0.0674,0.04619 0.01289,0.0338 -0.02962,0.110851 l -0.110513,0.246788 q -0.04181,0.09338 -0.06113,0.100745 -0.0048,0.0018 -0.0097,0.0037 -0.02897,0.01105 -0.06899,-0.0069 l -0.326827,-0.146354 q -0.05635,-0.01722 -0.0674,-0.04619 -0.01105,-0.02897 0.02962,-0.110851 z m 0.535892,1.405057 0.06596,-0.102587 q 0.01931,-0.0074 0.08049,0.008 l 0.320157,0.143368 q 0.06003,0.02688 0.06924,0.05102 0.01105,0.02897 -0.02962,0.110851 l -0.110512,0.246787 q -0.0448,0.100049 -0.06412,0.107415 -0.04828,0.01842 -0.25092,-0.09234 l -0.151567,-0.06387 q -0.06003,-0.02688 -0.06924,-0.05102 -0.0092,-0.02414 0.02962,-0.110851 z"
         style="font-size:5.29166651px;stroke-width:0.26458332"
         id="path978-6"
         inkscape:connector-curvature="0" />
      <path
         d="m 99.034282,83.228968 q 0.04531,-0.09173 0.06489,-0.09837 0.0049,-0.0017 0.0098,-0.0033 0.02937,-0.0099 0.07523,0.01271 0.111391,0.05502 0.168705,0.07925 l 0.145811,0.0761 q 0.05897,0.02913 0.0656,0.04871 0.01161,0.03426 -0.03378,0.109654 l -0.119749,0.242439 q -0.04531,0.09173 -0.06489,0.09837 -0.0049,0.0017 -0.0098,0.0033 -0.02937,0.0099 -0.06868,-0.0095 L 98.94635,83.629743 q -0.05566,-0.01934 -0.0656,-0.04871 -0.0099,-0.02937 0.03379,-0.109653 z m 0.48247,1.424285 0.06978,-0.100023 q 0.01958,-0.0066 0.08013,0.01105 l 0.314516,0.155351 q 0.05897,0.02913 0.06726,0.0536 0.01,0.02937 -0.0338,0.109654 l -0.119781,0.242439 q -0.04855,0.09829 -0.06813,0.104919 -0.04894,0.01658 -0.247254,-0.101751 l -0.149048,-0.06954 q -0.05897,-0.02913 -0.06726,-0.0536 -0.0083,-0.02447 0.03378,-0.109654 z"
         style="font-size:5.29166651px;stroke-width:0.26458332"
         id="path980-4"
         inkscape:connector-curvature="0" />
      <path
         d="m 100.43774,82.76427 q 0.0487,-0.08996 0.0686,-0.09585 0.005,-0.0015 0.01,-0.0029 0.0297,-0.0088 0.0747,0.01554 0.10923,0.05919 0.16559,0.08557 l 0.14283,0.08155 q 0.0578,0.03133 0.0637,0.05115 0.0103,0.03468 -0.0379,0.1083 l -0.12882,0.237745 q -0.0487,0.08996 -0.0686,0.09585 -0.005,0.0015 -0.01,0.0029 -0.0297,0.0088 -0.0683,-0.01206 l -0.31485,-0.170597 q -0.0549,-0.02143 -0.0637,-0.05115 -0.009,-0.02972 0.0379,-0.108301 z m 0.42835,1.441486 0.0735,-0.09732 q 0.0198,-0.0059 0.0797,0.01407 l 0.30842,0.167115 q 0.0578,0.03133 0.0652,0.0561 0.009,0.02972 -0.0379,0.1083 l -0.12882,0.237745 q -0.0522,0.09638 -0.072,0.102272 -0.0495,0.01472 -0.24324,-0.111014 l -0.14632,-0.07512 q -0.0578,-0.03133 -0.0652,-0.0561 -0.007,-0.02477 0.0379,-0.1083 z"
         style="font-size:5.29166651px;stroke-width:0.26458332"
         id="path982-0"
         inkscape:connector-curvature="0" />
      <path
         d="m 104.13835,86.661053 q -0.0409,0.006 -0.0469,-0.03493 -0.0112,-0.0767 0.11755,-0.26785 0.0124,-0.02269 0.0211,-0.03441 0.12726,-0.201375 0.18126,-0.689732 0.10388,-0.897772 -0.14185,-2.580074 l -0.0651,-0.481405 -7.5e-4,-0.0051 q -0.0366,-0.250556 -0.0896,-0.362936 -0.0735,-0.145932 -0.19626,-0.128006 -0.0358,0.0052 -0.0737,0.03166 l -0.10491,0.104106 q -0.0656,0.05136 -0.10141,0.05659 -0.0409,0.006 -0.0469,-0.03493 -0.0127,-0.08693 0.10956,-0.251016 0.2605,-0.361844 0.52639,-0.400683 0.0767,-0.0112 0.13818,0.01637 0.15662,0.07113 0.21712,0.485311 0.004,0.02557 0.008,0.05625 -0.027,-0.220622 -0.027,-0.220622 0,0 0.001,0.01023 0.007,0.04602 0.0532,0.399591 0.13812,-0.234297 0.47244,-0.591258 0.37012,-0.362189 0.67692,-0.407003 0.16363,-0.0239 0.36339,0.05659 0.26872,0.159204 0.40333,0.437222 l 0.0722,0.172247 q 0,0 0,0 0.005,-7.47e-4 0.0676,-0.109105 0.13823,-0.197756 0.32323,-0.397121 0.3715,-0.388503 0.70386,-0.437052 0.15341,-0.02241 0.29606,0.02465 0.21798,0.06217 0.37443,0.310882 0.12778,0.195457 0.16139,0.425559 0.0515,0.352824 -0.13128,0.781659 -0.0936,0.217347 -0.23769,0.410737 0.25056,-0.0366 0.30095,-0.04918 0.31691,-0.08285 0.49818,-0.307781 0.12226,-0.164088 0.20407,-0.176038 0.046,-0.0067 0.0527,0.0393 0.0127,0.08693 -0.12266,0.268596 -0.31588,0.411714 -0.73345,0.556269 -0.1241,0.04424 -0.52806,0.103245 v 0 q 0,0 -0.9022,0.116116 -0.328,0.04269 -0.61435,0.08451 -0.76189,0.111289 -1.24318,0.212926 -0.26877,0.05493 -0.26877,0.05493 0,0 0,0 0.0218,0.184829 0.0277,0.690536 0.005,0.855774 -0.19229,1.365044 -0.13703,0.349032 -0.34386,0.577698 -0.0939,0.107726 -0.16041,0.117436 z m 0.63623,-3.116752 q 0.13071,-0.03476 0.41045,-0.08607 0.31404,-0.06676 0.48279,-0.09141 0.18258,-0.03712 0.27462,-0.05056 l 0.0818,-0.01195 0.0496,-0.0177 q 0.0664,-0.04625 0.0926,-0.08141 0.0306,-0.04102 0.0457,-0.116344 0.0819,-0.22608 0.0475,-0.461296 -0.0224,-0.153401 -0.0931,-0.315421 -0.0788,-0.181726 -0.21143,-0.303355 -0.22505,-0.217807 -0.48072,-0.180461 -0.12272,0.01793 -0.22338,0.07963 -0.3465,0.202065 -0.49065,0.609585 -0.0406,0.115597 -0.0556,0.227459 -0.0176,0.201031 0.0697,0.799296 z m 1.5959,-0.301003 v 0 q 0,0 1.07093,-0.140763 l 0.37914,-0.05016 0.0649,-0.05648 0.10865,-0.07854 q 0.0372,-0.03154 0.0633,-0.103245 0.12266,-0.268596 0.0801,-0.560059 -0.0441,-0.301689 -0.21862,-0.495538 -0.22005,-0.255094 -0.50639,-0.213267 -0.20965,0.03062 -0.39178,0.213901 -0.22803,0.22654 -0.33938,0.608378 l -0.098,0.437338 q -0.0587,0.170465 -0.13353,0.301517 z"
         style="font-size:5.29166651px;stroke-width:0.26458332"
         id="path984-0"
         inkscape:connector-curvature="0" />
      <path
         d="m 109.31194,85.916744 q -0.0517,0.0011 -0.0525,-0.03504 -0.001,-0.05683 0.10422,-0.198688 0.10085,-0.115912 0.12567,-0.162972 0.13477,-0.220029 0.23819,-0.692649 0.19302,-0.867406 0.14767,-2.949472 -0.007,-0.304819 -0.061,-0.427687 -0.054,-0.10737 -0.15736,-0.105119 -0.0103,2.26e-4 -0.0258,5.63e-4 -0.031,6.76e-4 -0.0565,0.01674 l -0.1679,0.122541 q -0.0256,0.0109 -0.0514,0.01146 -0.0465,0.001 -0.0474,-0.04032 -0.002,-0.09816 0.13959,-0.23564 0.31334,-0.327296 0.57166,-0.332924 0.0672,-0.0015 0.12456,0.02313 0.16207,0.08434 0.17209,0.544151 l 4.6e-4,0.258434 0.16161,-0.174094 q 0.35411,-0.354028 0.73731,-0.558793 0.28617,-0.150963 0.52899,-0.156253 0.47531,-0.01035 0.72344,0.464945 0.11872,0.230013 0.12413,0.478001 0.0128,0.588971 -0.51323,1.117318 -0.39004,0.36515 -0.76203,0.373253 -0.14466,0.0032 -0.27,-0.05614 -0.14635,-0.07435 -0.14972,-0.229337 -0.004,-0.170492 0.11791,-0.281688 0.10636,-0.100526 0.22519,-0.103114 0.0723,-0.0016 0.15072,0.03807 l 0.17319,0.12028 q 0.0733,0.04492 0.19218,0.04233 0.10332,-0.0023 0.19003,-0.05583 l 0.0101,-0.01056 q 0.0714,-0.04291 0.13994,-0.220141 0.0636,-0.166789 0.0598,-0.337281 -0.005,-0.222156 -0.12346,-0.447002 -0.18893,-0.368043 -0.53137,-0.427778 -0.0105,-0.0049 -0.026,-0.0046 -0.0466,-0.0042 -0.0931,-0.0031 -0.29448,0.0064 -0.61962,0.266773 -0.38657,0.287541 -0.43451,0.696926 l -0.0143,0.765305 q -0.0306,1.205013 -0.25374,1.876658 -0.12936,0.468017 -0.5084,0.863939 -0.15667,0.163648 -0.23934,0.165449 z"
         style="font-size:5.29166651px;stroke-width:0.26458332"
         id="path986-4"
         inkscape:connector-curvature="0" />
      <path
         d="m 111.90415,78.632223 q 0.29182,-0.276412 0.60693,-0.267868 0.2118,0.0057 0.34623,0.195491 0.0794,0.121054 0.0751,0.281192 -0.0121,0.444254 -0.72998,0.802164 -0.49733,0.229483 -1.11221,0.409253 -0.099,0.02833 -0.13515,0.02735 -0.005,-1.4e-4 -0.0103,-2.8e-4 -0.0409,-0.01662 -0.0401,-0.04761 9.8e-4,-0.03616 0.0381,-0.07134 0.0475,-0.0349 0.30381,-0.146848 l 0.63793,-0.267027 q 0.5864,-0.273594 0.59383,-0.547379 0.005,-0.185967 -0.19446,-0.26375 -0.0666,-0.02248 -0.12859,-0.02416 -0.0413,-0.0011 -0.0829,0.0081 -0.0156,0.0047 -0.14185,0.08404 -0.058,0.03978 -0.1096,0.03838 -0.0103,-2.8e-4 -0.0155,-4.2e-4 -0.031,-8.4e-4 -0.03,-0.037 0.002,-0.06715 0.12874,-0.172273 z"
         style="font-size:5.29166651px;stroke-width:0.26458332"
         id="path988-6"
         inkscape:connector-curvature="0" />
      <path
         d="m 115.55878,81.363735 q -0.046,-0.0069 -0.0899,0.0074 l -0.1863,0.09221 q -0.0271,0.0064 -0.0526,0.0025 -0.046,-0.0069 -0.0399,-0.04779 0.0146,-0.0971 0.17762,-0.208479 0.36442,-0.269263 0.61994,-0.230893 0.20442,0.0307 0.21357,0.282899 0.006,0.131596 -0.0558,0.545534 0.18171,-0.166061 0.4577,-0.33364 0.58929,-0.340007 0.93679,-0.287824 0.15331,0.02302 0.27978,0.120397 0.18012,0.157687 0.26109,0.384094 0.0707,0.224872 0.0602,0.364386 0.31178,-0.266716 0.64552,-0.436075 0.38357,-0.188003 0.67486,-0.144261 0.31685,0.04758 0.4839,0.39665 0.14177,0.308695 0.0881,0.66642 -0.076,0.505924 -0.51068,0.895272 -0.12574,0.106533 -0.26373,0.190322 -0.0118,0.0087 -0.0235,0.01737 -0.33247,0.195677 -0.61354,0.153471 -0.17375,-0.02609 -0.26675,-0.102764 -0.12213,-0.0915 -0.10064,-0.234587 0.0276,-0.183972 0.17738,-0.276448 0.11525,-0.07153 0.22257,-0.05541 0.0664,0.01 0.14206,0.06314 l 0.10807,0.115514 q 0.0958,0.09277 0.20823,0.109653 0.0971,0.01458 0.16022,-0.02297 0.0235,-0.01737 0.07,-0.08355 0.15718,-0.211548 0.19478,-0.461955 0.0537,-0.357724 -0.10926,-0.664379 -0.15148,-0.2788 -0.41722,-0.318705 -0.15331,-0.02302 -0.29845,0.03879 -0.14949,0.05594 -0.25529,0.134109 -0.18375,0.144852 -0.41762,0.553908 -0.0976,0.163008 -0.15156,0.243745 -0.1876,0.274913 -0.50116,0.48388 -0.37515,0.236299 -0.69199,0.188721 -0.16353,-0.02456 -0.26164,-0.101996 -0.12213,-0.0915 -0.10064,-0.234587 0.0284,-0.189083 0.18837,-0.280024 0.10861,-0.06207 0.21081,-0.04673 0.0716,0.01074 0.14283,0.05803 l 0.11318,0.116281 q 0.0907,0.092 0.20312,0.108886 0.0468,0.0018 0.0986,0.0044 l 0.006,-0.0043 q 0.0797,-0.0089 0.14848,-0.118795 0.1513,-0.207205 0.18737,-0.447391 0.0507,-0.337283 -0.097,-0.641636 -0.15864,-0.300776 -0.4346,-0.342216 l -0.10885,-0.0059 q -0.185,0.01402 -0.37436,0.126679 -0.3662,0.211515 -0.51037,0.545205 -0.0409,0.09837 -0.0949,0.388125 l -0.11534,0.594073 q -0.2166,1.059621 -0.54121,1.690201 -0.23209,0.466804 -0.63255,0.767235 -0.12931,0.09555 -0.22232,0.123382 -0.0388,0.01507 -0.0644,0.01123 -0.0511,-0.0077 -0.0442,-0.05367 0.009,-0.06132 0.1467,-0.176543 0.10222,-0.08916 0.13391,-0.126207 0.46488,-0.520682 0.81065,-2.370872 0.0829,-0.447408 0.19464,-1.156979 0.0445,-0.2964 0.0118,-0.426723 -0.0283,-0.124444 -0.13055,-0.139792 z"
         style="font-size:5.29166651px;stroke-width:0.26458332"
         id="path990-2"
         inkscape:connector-curvature="0" />
      <path
         d="m 120.64927,84.143037 q -0.0346,-0.01053 -0.0241,-0.04514 0.0165,-0.05438 0.17194,-0.174558 0.0845,-0.08234 0.19963,-0.425403 l 0.18886,-0.585321 q 0.1113,-0.365852 0.0949,-0.489658 -0.0133,-0.133695 -0.10728,-0.16227 -0.0396,-0.01203 -0.0965,-0.0024 l -0.16206,0.05333 -0.006,0.0034 q -0.0471,0.01269 -0.0767,0.0037 -0.0346,-0.01053 -0.031,-0.05803 0.0211,-0.06921 0.17387,-0.163166 0.30563,-0.187901 0.57582,-0.170525 0.0589,0.0017 0.10339,0.01525 0.19281,0.05866 0.16748,0.337228 -0.007,0.09501 -0.0945,0.381756 l -0.0327,0.125102 q 0.0318,-0.03354 0.14787,-0.09546 0.85113,-0.454073 1.31091,-0.314203 0.3708,0.1128 0.462,0.594266 0.0333,0.209998 0.006,0.35294 0.36323,-0.235197 0.70863,-0.340779 0.39054,-0.129662 0.67729,-0.04243 0.38563,0.117311 0.45404,0.60265 0.043,0.266957 -0.0367,0.528986 -0.16244,0.533945 -0.73393,0.867829 -0.25899,0.158878 -0.52444,0.196957 -0.18077,0.02603 -0.32909,-0.01909 -0.12854,-0.0391 -0.23409,-0.136031 -0.11587,-0.116271 -0.0692,-0.269533 0.0526,-0.173038 0.20137,-0.235821 0.12445,-0.05397 0.23322,-0.02088 0.0643,0.01955 0.11952,0.06877 l 0.1034,0.139486 0.003,0.0064 q 0.0793,0.09435 0.18315,0.125935 0.0643,0.01955 0.14101,0.01589 0.0505,-0.0062 0.10273,-0.07138 0.18827,-0.17499 0.26347,-0.422187 0.10528,-0.346076 0.004,-0.65236 -0.11009,-0.330573 -0.38201,-0.413292 -0.19775,-0.06016 -0.45503,0.03982 l -0.006,0.0034 q -0.16657,0.06816 -0.3514,0.249597 -0.0383,0.03698 -0.40125,0.466698 -0.0189,0.02666 -0.0413,0.04686 -0.36429,0.380715 -0.79782,0.491898 -0.25169,0.06387 -0.46428,-8.01e-4 -0.23236,-0.07069 -0.29816,-0.209534 -0.0501,-0.101663 -0.02,-0.200542 0.0226,-0.07416 0.0926,-0.14467 0.0969,-0.10555 0.21622,-0.10707 0.0798,-0.01355 0.14896,0.0075 0.0742,0.02256 0.13478,0.08962 l 0.0935,0.136478 q 0.0922,0.08747 0.17133,0.111535 0.0593,0.01805 0.11973,0.01482 0.0589,0.0017 0.12895,-0.0688 0.18978,-0.179933 0.26648,-0.432074 0.0406,-0.133487 0.0496,-0.287389 0.0126,-0.325644 -0.14882,-0.55841 -0.11372,-0.15883 -0.27687,-0.208462 -0.17304,-0.05264 -0.36283,0.0031 -0.4806,0.12387 -0.72967,0.534233 -0.003,0.0099 -0.14075,0.302876 -0.006,0.01978 -0.017,0.03805 -0.16976,0.380475 -0.59211,0.543673 -0.13627,0.03957 -0.17582,0.02754 z"
         style="font-size:5.29166651px;stroke-width:0.26458332"
         id="path992-6"
         inkscape:connector-curvature="0" />
      <path
         d="m 124.76145,80.70801 q 0.58548,-0.239098 0.95664,-0.09566 0.19762,0.07638 0.26334,0.279059 l 0.003,0.0067 q 0.041,0.137714 -0.0112,0.272679 -0.006,0.01446 -0.0112,0.02892 -0.10245,0.26511 -0.53674,0.385358 -0.20377,0.05421 -0.305,0.01509 -0.0434,-0.01677 -0.0322,-0.04569 0.0205,-0.05302 0.18012,-0.107674 0.14998,-0.05838 0.20587,-0.202983 0.0261,-0.06748 0.0232,-0.146142 0.004,-0.0096 7.7e-4,-0.01632 -0.003,-0.07866 -0.0777,-0.157436 -0.03,-0.02268 -0.0686,-0.03758 -0.17835,-0.06893 -0.55774,0.06699 -0.21791,0.07645 -0.88184,0.418191 -0.17935,0.09135 -0.3598,0.171197 -0.1147,0.03877 -0.15513,0.02869 -0.0145,-0.0056 -0.0204,-0.01896 -0.0185,-0.02378 -0.007,-0.0527 0.013,-0.03374 0.0806,-0.07964 l 0.4813,-0.284902 q 0.46607,-0.274168 0.82991,-0.427179 z"
         style="font-size:5.29166651px;stroke-width:0.26458332"
         id="path994-7"
         inkscape:connector-curvature="0" />
      <path
         d="m 127.08873,82.620011 q 0.0996,-0.243995 0.0192,-0.539176 -0.034,-0.08085 -0.0242,-0.104773 0.0176,-0.04306 0.10146,-0.09812 0.12626,-0.07683 0.2695,-0.113231 0.10478,-0.0242 0.14783,-0.0066 0.0383,0.01563 0.0721,0.124307 0.0795,0.283659 -0.0338,0.561143 -0.14651,0.358816 -0.60486,0.579136 -0.22254,0.121244 -0.36627,0.09047 -0.0383,-0.01563 -0.0246,-0.04912 0.0254,-0.06219 0.23163,-0.184514 0.13778,-0.0777 0.21201,-0.259505 z"
         style="font-size:5.29166651px;stroke-width:0.26458332"
         id="path996-5"
         inkscape:connector-curvature="0" />
      <path
         d="m 125.50416,88.471521 q -0.0464,-0.02278 -0.0304,-0.05525 0.0251,-0.05102 0.18397,-0.128432 0.14288,-0.05649 0.18657,-0.08685 0.22091,-0.13332 0.53024,-0.505317 0.57057,-0.681251 1.48851,-2.550591 0.13439,-0.273675 0.14267,-0.407778 0.001,-0.120187 -0.0913,-0.165743 -0.009,-0.0046 -0.0232,-0.01139 -0.0278,-0.01367 -0.0579,-0.01114 l -0.20546,0.03152 q -0.0277,-0.0021 -0.0509,-0.0135 -0.0417,-0.0205 -0.0235,-0.05761 0.0433,-0.08813 0.23238,-0.144957 0.42882,-0.146369 0.66074,-0.03248 0.0603,0.02961 0.0999,0.07786 0.10507,0.149467 -0.0976,0.562299 l -0.11853,0.22965 0.2236,-0.08018 q 0.47731,-0.151339 0.91176,-0.156771 0.32354,-0.0023 0.54155,0.104732 0.42675,0.209556 0.42829,0.74572 -4.5e-4,0.258847 -0.10979,0.481498 -0.25966,0.528796 -0.96985,0.755762 -0.51434,0.144671 -0.84831,-0.01933 -0.12988,-0.06378 -0.21388,-0.174107 -0.0957,-0.133357 -0.0274,-0.272513 0.0752,-0.153073 0.23433,-0.195816 0.14069,-0.0403 0.24737,0.01209 0.0649,0.03189 0.1163,0.103164 l 0.0984,0.186492 q 0.0444,0.07364 0.15112,0.126025 0.0928,0.04556 0.19441,0.03789 l 0.0138,-0.0047 q 0.0832,-0.0052 0.22555,-0.131041 0.13319,-0.118823 0.20835,-0.271896 0.0979,-0.199458 0.0961,-0.453666 0.002,-0.413698 -0.27488,-0.624333 -0.007,-0.0092 -0.0209,-0.01603 -0.0395,-0.02514 -0.0812,-0.04564 -0.2644,-0.129834 -0.67288,-0.04832 -0.47553,0.07737 -0.7065,0.418762 l -0.36494,0.67284 q -0.58175,1.055729 -1.08896,1.549325 -0.33024,0.35597 -0.84896,0.533028 -0.21441,0.07318 -0.28863,0.03674 z"
         style="font-size:5.29166651px;stroke-width:0.26458332"
         id="path998-6"
         inkscape:connector-curvature="0" />
      <path
         d="m 130.11186,90.82089 q -0.0425,-0.02943 -0.0219,-0.05917 0.0324,-0.04672 0.20104,-0.09959 0.1497,-0.03458 0.19743,-0.05809 0.2383,-0.09892 0.59959,-0.420693 0.66569,-0.588655 1.85186,-2.300397 0.17366,-0.250602 0.20182,-0.381975 0.0193,-0.118631 -0.0656,-0.177498 -0.008,-0.0059 -0.0212,-0.01472 -0.0255,-0.01766 -0.0556,-0.01963 l -0.20787,5.62e-4 q -0.0271,-0.0062 -0.0484,-0.02094 -0.0382,-0.02649 -0.0147,-0.06047 0.0559,-0.0807 0.25138,-0.108724 0.44583,-0.08086 0.65821,0.06631 0.0552,0.03826 0.0872,0.09188 0.0816,0.163452 -0.18032,0.541479 l -0.15141,0.209432 0.23305,-0.04598 q 0.49452,-0.07855 0.92493,-0.0192 0.32028,0.0459 0.51991,0.184234 0.39077,0.270788 0.31242,0.8012 -0.039,0.255891 -0.18028,0.459771 -0.33554,0.484214 -1.07162,0.602856 -0.53015,0.06644 -0.83597,-0.145482 -0.11893,-0.08241 -0.18555,-0.204024 -0.0748,-0.146126 0.0135,-0.273551 0.0971,-0.140167 0.26088,-0.158724 0.14513,-0.01889 0.24282,0.0488 0.0595,0.04121 0.0996,0.119337 l 0.0695,0.19907 q 0.033,0.07943 0.13066,0.147131 0.085,0.05887 0.18659,0.06643 l 0.0144,-0.0026 q 0.083,0.0072 0.24255,-0.09598 0.1494,-0.09766 0.24653,-0.237824 0.12657,-0.182642 0.16263,-0.434286 0.0633,-0.408837 -0.17882,-0.658315 -0.006,-0.01013 -0.0183,-0.01896 -0.0353,-0.03074 -0.0735,-0.05723 -0.24211,-0.167771 -0.65817,-0.148018 -0.48175,0.0057 -0.761,0.308846 l -0.4611,0.610969 q -0.73252,0.95729 -1.3076,1.369824 -0.37958,0.302804 -0.9189,0.400615 -0.22291,0.04043 -0.29087,-0.0067 z"
         style="font-size:5.29166651px;stroke-width:0.26458332"
         id="path1000-9"
         inkscape:connector-curvature="0" />
      <path
         d="m 139.95341,92.001658 q 0.0349,0.03077 6.9e-4,0.06952 -0.0171,0.01937 -0.0565,0.03283 -0.0964,0.03898 -0.24617,0.04469 -0.48869,0.03057 -0.9293,-0.282363 -0.12651,-0.09094 -0.27376,-0.220854 -0.34876,-0.307694 -0.80648,-0.835567 l -0.27582,-0.312257 q -0.0413,-0.01573 -0.52744,-0.0036 -1.1513,0.03174 -1.63335,0.578129 -0.26667,0.302256 -0.32865,0.716189 -0.10003,0.566424 0.2704,1.161998 0.18692,0.29585 0.43492,0.514654 0.45339,0.400002 1.06449,0.511886 0.3998,0.07018 0.77474,-0.08141 0.18212,-0.07363 0.27443,-0.17826 0.0205,-0.02325 0.0371,-0.04992 0.0294,-0.05676 0.0194,-0.217224 -0.01,-0.160465 0.0686,-0.249592 0.0444,-0.05038 0.15157,-0.09369 0.19374,-0.06338 0.34487,0.06996 0.12012,0.105983 0.10395,0.257105 -0.0157,0.158416 -0.12854,0.286293 -0.15385,0.174378 -0.4864,0.301356 -0.73325,0.276523 -1.55223,0.119063 -0.73008,-0.141053 -1.24159,-0.592337 -0.73239,-0.646157 -0.75774,-1.461024 -0.0153,-0.537241 0.34049,-0.995182 0.0171,-0.01937 0.0376,-0.04263 0.63932,-0.724639 2.34769,-0.747295 l 0.20469,-0.0055 -0.42512,-0.416415 q -0.29063,-0.256411 -0.53088,-0.35122 -0.049,-0.02256 -0.26669,-0.04922 -0.0884,-0.0091 -0.11944,-0.03646 -0.0349,-0.03077 -0.008,-0.06177 0.0479,-0.05425 0.24776,-0.07774 0.39683,-0.03581 0.75926,0.139229 0.21928,0.110765 0.50603,0.363757 0.12788,0.112821 0.27217,0.253905 0.0702,0.06883 0.7438,0.828505 0.31069,0.343026 0.55186,0.56958 0.43013,0.379489 0.633,0.461991 l 0.007,-4.56e-4 0.004,0.0034 q 0.0937,0.03441 0.17437,0.03669 0.17209,2.19e-4 0.21859,0.04125 z"
         style="font-size:5.29166651px;stroke-width:0.26458332"
         id="path1002-8"
         inkscape:connector-curvature="0" />
      <path
         d="m 139.17168,90.207678 q 0.011,-0.01091 0.0403,-0.02538 0.44611,-0.06361 1.44781,-0.161076 l 0.20106,-0.0173 q 0.16809,8.14e-4 0.22997,0.04862 0.0509,0.0514 0.0617,0.09896 0.0106,0.07679 -0.0408,0.127696 -0.0845,0.08364 -0.34754,0.08236 l -0.29967,0.0059 -0.84039,-0.01138 -0.31784,-0.0125 q -0.10959,-0.0078 -0.13868,-0.03721 -0.0473,-0.04773 0.004,-0.09864 z"
         style="font-size:5.29166651px;stroke-width:0.26458332"
         id="path1004-7"
         inkscape:connector-curvature="0" />
      <path
         d="m 138.667,92.554831 q -0.033,0.03273 -0.15738,0.05405 -0.48989,0.04878 -0.83898,-0.303702 -0.12727,-0.128511 -0.25426,-0.315486 -0.26842,-0.410562 -0.37387,-0.517042 l -0.0582,-0.05875 q -0.10916,-0.09553 -0.20042,-0.114248 l -0.20812,-0.0339 q -0.0219,-0.0074 -0.0328,-0.01843 -0.0146,-0.01469 -0.0144,-0.03661 -0.004,-0.01829 0.0111,-0.03283 0.0331,-0.03273 0.16466,-0.04671 0.48985,-0.04148 0.81712,0.288979 0.13455,0.135855 0.27601,0.352133 0.23936,0.373879 0.35209,0.487703 0.14909,0.150541 0.2622,0.183976 l 0.19354,0.02652 q 0.0401,0.01116 0.062,0.03319 0.0255,0.0257 -2.5e-4,0.05116 z"
         style="font-size:5.29166651px;stroke-width:0.26458332"
         id="path1006-2"
         inkscape:connector-curvature="0" />
      <path
         d="m 142.9705,95.547064 q 0.24456,0.313879 0.041,0.767287 -0.11086,0.210849 -0.19419,0.288876 0.0299,-0.0037 0.20895,0.0075 0.24748,0.02336 0.5136,0.104255 0.44701,0.136491 0.6344,0.376996 0.18739,0.240505 0.0762,0.602281 -0.10351,0.329589 -0.39293,0.555095 -0.41171,0.320789 -1.00547,0.298639 -0.16543,-0.0021 -0.32636,-0.04051 -0.38306,-0.08805 -0.5641,-0.320403 -0.12069,-0.154901 -0.12307,-0.284071 -0.004,-0.14775 0.0941,-0.223977 0.0571,-0.04447 0.14045,-0.06357 0.24288,-0.05822 0.38581,0.125213 0.0413,0.05299 0.0509,0.124142 l -0.001,0.158179 -9e-4,0.0073 q 0.006,0.133245 0.0754,0.222925 0.0604,0.07745 0.13197,0.09371 0.029,0.0036 0.10831,-0.01233 0.25967,-0.04509 0.45941,-0.200724 0.28534,-0.22233 0.37842,-0.556895 0.0854,-0.30238 -0.0798,-0.514351 -0.0921,-0.118214 -0.24626,-0.181534 -0.1469,-0.06242 -0.27744,-0.07862 -0.23298,-0.02155 -0.68429,0.113897 -0.18306,0.05092 -0.27777,0.0723 -0.32536,0.07008 -0.69661,0.0056 -0.42837,-0.07895 -0.63164,-0.339834 -0.11117,-0.142673 -0.11852,-0.261413 -0.0183,-0.149551 0.0959,-0.238483 0.15082,-0.117517 0.32853,-0.066 0.12467,0.03388 0.18502,0.111336 0.0476,0.06115 0.0586,0.150876 l 0.005,0.199418 q 0.003,0.0041 0.002,0.01133 0.0237,0.106036 0.0713,0.167182 0.0413,0.05299 0.10068,0.07877 l 0.0104,0.005 q 0.0603,0.01853 0.14775,-0.0038 0.24834,-0.04282 0.444,-0.195272 0.25681,-0.200097 0.36079,-0.503852 0.11256,-0.343194 -0.0621,-0.567394 -0.13339,-0.171207 -0.44303,-0.257508 -0.41026,-0.106156 -0.75368,0.05005 -0.082,0.03769 -0.35739,0.239161 -1.17902,0.866236 -1.88538,1.128359 -0.60668,0.230311 -1.11436,0.167296 -0.25384,-0.03151 -0.31101,-0.104882 -0.0222,-0.02853 0.0104,-0.05394 0.0204,-0.01588 0.0625,-0.02906 0.0453,-0.0091 0.25744,0.0025 0.0186,-0.0014 0.0331,4.25e-4 0.70566,-0.01919 2.36527,-1.227124 0.49461,-0.365731 0.98785,-0.750044 0.83973,-0.654284 1.19442,-0.871688 0.82491,-0.505158 1.54513,-0.463627 0.21937,0.0125 0.33001,0.07042 0.0531,0.01763 0.0721,0.04209 0.0222,0.02853 -0.0145,0.05712 -0.0856,0.0667 -0.30138,0.02519 -0.60916,-0.0167 -1.91359,0.999665 l -0.0856,0.0667 q -0.2405,0.187392 -0.36189,0.275424 -0.1549,0.120693 -0.16803,0.137474 0.0485,-0.005 0.15728,0.0085 0.26199,0.02515 0.52583,0.09473 0.53266,0.128712 0.74228,0.397752 z"
         style="font-size:5.29166651px;stroke-width:0.26458332"
         id="path1008-8"
         inkscape:connector-curvature="0" />
      <path
         d="m 148.42804,104.11974 q 0.0213,0.0414 -0.0247,0.065 -0.023,0.0118 -0.0646,0.01 -0.10399,0.001 -0.24553,-0.0481 -0.46624,-0.14957 -0.76258,-0.60151 -0.0847,-0.13078 -0.17449,-0.30541 -0.21269,-0.41361 -0.44665,-1.07195 l -0.14311,-0.39128 q -0.0327,-0.0297 -0.48988,-0.19552 -1.08374,-0.38986 -1.73172,-0.0566 -0.35846,0.18433 -0.56697,0.54724 -0.29951,0.49106 -0.17151,1.18065 0.0663,0.34362 0.21755,0.63774 0.2765,0.53768 0.80484,0.8645 0.34676,0.21101 0.75117,0.20643 0.19643,-0.002 0.32051,-0.066 0.0276,-0.0142 0.0528,-0.0329 0.0481,-0.0421 0.0972,-0.19524 0.0491,-0.1531 0.15481,-0.20745 0.0597,-0.0307 0.17528,-0.032 0.20352,0.0116 0.29569,0.19079 0.0733,0.14246 0.003,0.27731 -0.0724,0.1418 -0.224,0.21979 -0.2068,0.10635 -0.56276,0.10345 -0.7836,-0.01 -1.48894,-0.45461 -0.62852,-0.39733 -0.94048,-1.00395 -0.44666,-0.86856 -0.1734,-1.63666 0.18147,-0.5059 0.67964,-0.80276 0.023,-0.0118 0.0506,-0.026 0.85937,-0.44194 2.4586,0.15933 l 0.19261,0.0695 -0.2442,-0.54268 q -0.17725,-0.34466 -0.36645,-0.52048 -0.0374,-0.0389 -0.23043,-0.14299 -0.079,-0.0407 -0.0979,-0.0775 -0.0213,-0.0414 0.0155,-0.0603 0.0643,-0.0331 0.25906,0.0179 0.3826,0.11123 0.65636,0.40627 0.16386,0.18303 0.33874,0.52311 0.078,0.15165 0.16096,0.33561 0.0403,0.0897 0.39086,1.04253 0.16437,0.43264 0.30643,0.73149 0.26233,0.51011 0.4212,0.66085 l 0.007,0.002 0.002,0.005 q 0.0747,0.0662 0.14902,0.0977 0.16019,0.0629 0.18855,0.11805 z"
         style="font-size:5.29166651px;stroke-width:0.26458332"
         id="path1010-2"
         inkscape:connector-curvature="0" />
      <path
         d="m 148.35539,102.16601 q 0.0142,-0.006 0.0468,-0.009 0.43856,0.10359 1.40673,0.37844 l 0.19351,0.0573 q 0.15619,0.0621 0.19636,0.12919 0.0286,0.0664 0.0213,0.11463 -0.0182,0.0754 -0.0846,0.104 -0.10915,0.047 -0.35362,-0.0502 l -0.28114,-0.10392 -0.77827,-0.31731 -0.29136,-0.12764 q -0.0992,-0.0473 -0.11553,-0.0853 -0.0266,-0.0617 0.0399,-0.0903 z"
         style="font-size:5.29166651px;stroke-width:0.26458332"
         id="path1012-9"
         inkscape:connector-curvature="0" />
      <path
         d="m 148.76467,107.84876 q -0.50803,0.19058 -1.21329,-0.1299 l 0.10345,0.27579 q 0.11132,0.22317 0.27645,0.3544 l 0.21412,0.12941 0.0671,0.0466 q 0.0605,0.0435 0.075,0.0823 0.007,0.0194 0.003,0.0375 l -0.003,0.007 q -0.006,0.0133 -0.0206,0.0187 -0.0726,0.0272 -0.21532,-0.0296 -0.54618,-0.2201 -0.82264,-0.70695 -0.0423,-0.0835 -0.0986,-0.23345 l -0.3134,-0.90902 q -0.15609,-0.4161 -0.40715,-0.92353 -0.0321,-0.0708 -0.0484,-0.1143 -0.029,-0.0774 0.0193,-0.0956 0.0484,-0.0182 0.17904,0.0211 0.0798,0.0363 0.28426,-0.007 0.005,-0.002 0.39252,-0.13069 0.15181,-0.0514 0.45179,-0.16395 1.11283,-0.41746 1.48842,-0.51972 0.53586,-0.14582 0.87759,-0.14707 0.026,-0.004 0.049,-0.002 0.47055,-0.0109 0.90302,0.18558 0.13126,0.0556 0.1978,0.13002 0.0351,0.0199 0.0423,0.0393 0.0163,0.0436 -0.0224,0.0581 -0.0677,0.0254 -0.34113,-0.0707 l -0.0115,-0.001 -0.0133,-0.006 q -0.54799,-0.13663 -1.76848,0.2881 -0.35502,0.12765 -1.06627,0.39446 0.58127,0.24005 0.95327,0.56964 0.26373,0.23223 0.35449,0.47415 0.14701,0.39191 -0.13359,0.76209 -0.17174,0.21897 -0.43302,0.31698 z m -1.90239,-1.86386 0.15609,0.3278 q 0.12583,0.26187 0.26922,0.64411 l 0.10406,0.29212 q 0.0236,0.0629 0.0423,0.12761 l 0.069,0.0514 q 0.10525,0.10402 0.13549,0.12579 0.13186,0.072 0.3877,0.0477 0.13367,-0.0115 0.24979,-0.0551 0.21289,-0.0799 0.37436,-0.26737 l 0.003,-0.007 q 0.2679,-0.31575 0.12815,-0.6883 -0.0853,-0.22741 -0.37142,-0.44572 -0.3478,-0.25036 -0.68469,-0.25092 -0.0768,10e-4 -0.40583,0.0805 -0.20624,0.0387 -0.33084,0.0303 z"
         style="font-size:5.29166651px;stroke-width:0.26458332"
         id="path1014-9"
         inkscape:connector-curvature="0" />
      <path
         d="m 151.37322,108.66788 q 0.0149,0.0495 -0.0282,0.0678 -0.0445,0.0134 -0.12227,-0.0118 l -0.26485,-0.10928 -0.006,-0.003 q -0.26632,-0.0603 -0.57316,0.0319 -0.2425,0.0729 -0.5117,0.21851 -0.0648,0.0357 -0.76206,0.44482 -0.5191,0.30166 -0.83583,0.39683 -0.68297,0.20522 -1.3162,-0.16028 -0.17032,-0.0999 -0.20549,-0.18107 -0.0134,-0.0445 0.0213,-0.055 0.0445,-0.0134 0.16285,0.0212 l 0.26337,0.10432 q 0.2584,0.0519 0.60483,-0.0522 0.33159,-0.0996 1.12086,-0.5796 0.56312,-0.35267 0.92935,-0.46271 0.38602,-0.116 0.72263,-0.0553 0.28463,0.0494 0.58713,0.21208 0.16931,0.0786 0.2139,0.17315 z"
         style="font-size:5.29166651px;stroke-width:0.26458332"
         id="path1016-6"
         inkscape:connector-curvature="0" />
    </g>
  </g>
  <g
     inkscape:groupmode="layer"
     id="layer3"
     inkscape:label="text">
    <flowRoot
       xml:space="preserve"
       id="flowRoot4654"
       style="font-style:normal;font-weight:normal;font-size:40px;line-height:1.25;font-family:sans-serif;letter-spacing:0px;word-spacing:0px;fill:#000000;fill-opacity:1;stroke:none"><flowRegion
         id="flowRegion4656"><rect
           id="rect4658"
           width="554.28571"
           height="114.28571"
           x="123.57143"
           y="209.66254" /></flowRegion><flowPara
         id="flowPara4660" /></flowRoot>    <flowRoot
       xml:space="preserve"
       id="flowRoot5185"
       style="font-style:normal;font-weight:normal;font-size:40px;line-height:1.25;font-family:sans-serif;letter-spacing:0px;word-spacing:0px;fill:#000000;fill-opacity:1;stroke:none"
       transform="scale(0.26458333)"><flowRegion
         id="flowRegion5187"><rect
           id="rect5189"
           width="93.5"
           height="41.5"
           x="376.5"
           y="738.51971" /></flowRegion><flowPara
         id="flowPara5191">bobodd</flowPara></flowRoot>    <text
       xml:space="preserve"
       style="font-style:normal;font-weight:normal;font-size:10.58333302px;line-height:1.25;font-family:sans-serif;letter-spacing:0px;word-spacing:0px;fill:#000000;fill-opacity:1;stroke:none;stroke-width:0.26458332"
       x="108.08229"
       y="201.08855"
       id="text5195"><tspan
         sodipodi:role="line"
         id="tspan5193"
         x="108.08229"
         y="210.45232"
         style="stroke-width:0.26458332" /></text>
    <flowRoot
       xml:space="preserve"
       id="flowRoot883"
       style="font-style:normal;font-weight:normal;font-size:40px;line-height:1.25;font-family:sans-serif;letter-spacing:0px;word-spacing:0px;fill:#000000;fill-opacity:1;stroke:none"><flowRegion
         id="flowRegion885"><rect
           id="rect887"
           width="706"
           height="51"
           x="78"
           y="156.51968" /></flowRegion><flowPara
         id="flowPara889" /></flowRoot>    <flowRoot
       xml:space="preserve"
       id="flowRoot885"
       style="font-style:normal;font-variant:normal;font-weight:normal;font-stretch:normal;font-size:40px;line-height:1.25;font-family:'Elvish Ring NFI';-inkscape-font-specification:'Elvish Ring NFI';letter-spacing:0px;word-spacing:0px;fill:#000000;fill-opacity:1;stroke:none"><flowRegion
         id="flowRegion887"
         style="font-style:normal;font-variant:normal;font-weight:normal;font-stretch:normal;font-family:'Elvish Ring NFI';-inkscape-font-specification:'Elvish Ring NFI'"><rect
           id="rect889"
           width="906"
           height="97"
           x="43"
           y="125.51968"
           style="font-style:normal;font-variant:normal;font-weight:normal;font-stretch:normal;font-family:'Elvish Ring NFI';-inkscape-font-specification:'Elvish Ring NFI'" /></flowRegion><flowPara
         id="flowPara891" /></flowRoot>  </g>
</svg>
