<?xml version="1.0" encoding="UTF-8" standalone="no"?>
<!-- Created with Inkscape (http://www.inkscape.org/) -->

<svg
   xmlns:dc="http://purl.org/dc/elements/1.1/"
   xmlns:cc="http://creativecommons.org/ns#"
   xmlns:rdf="http://www.w3.org/1999/02/22-rdf-syntax-ns#"
   xmlns:svg="http://www.w3.org/2000/svg"
   xmlns="http://www.w3.org/2000/svg"
   xmlns:sodipodi="http://sodipodi.sourceforge.net/DTD/sodipodi-0.dtd"
   xmlns:inkscape="http://www.inkscape.org/namespaces/inkscape"
   width="160.10106mm"
   height="204.81773mm"
   viewBox="0 0 160.10106 204.81773"
   version="1.1"
   id="svg8"
   inkscape:version="0.92.5 (2060ec1f9f, 2020-04-08)"
   sodipodi:docname="3mm-gardener-case.svg">
  <defs
     id="defs2" />
  <sodipodi:namedview
     id="base"
     pagecolor="#ffffff"
     bordercolor="#666666"
     borderopacity="1.0"
     inkscape:pageopacity="0.0"
     inkscape:pageshadow="2"
     inkscape:zoom="1.4"
     inkscape:cx="293.99665"
     inkscape:cy="271.66262"
     inkscape:document-units="mm"
     inkscape:current-layer="layer1"
     showgrid="false"
     inkscape:window-width="1920"
     inkscape:window-height="1016"
     inkscape:window-x="0"
     inkscape:window-y="27"
     inkscape:window-maximized="1"
     fit-margin-top="0"
     fit-margin-left="0"
     fit-margin-right="0"
     fit-margin-bottom="0"
     showguides="false" />
  <metadata
     id="metadata5">
    <rdf:RDF>
      <cc:Work
         rdf:about="">
        <dc:format>image/svg+xml</dc:format>
        <dc:type
           rdf:resource="http://purl.org/dc/dcmitype/StillImage" />
        <dc:title></dc:title>
      </cc:Work>
    </rdf:RDF>
  </metadata>
  <g
     inkscape:label="Layer 1"
     inkscape:groupmode="layer"
     id="layer1"
     transform="translate(-5.6929162,-7.9407622)">
    <path
       style="opacity:1;fill:none;fill-opacity:1;stroke:#000000;stroke-width:0.09999999;stroke-linecap:round;stroke-linejoin:miter;stroke-miterlimit:4;stroke-dasharray:none;stroke-dashoffset:0;stroke-opacity:1"
       d="M 30.642932,74.340332 H 137.94396 V 131.07441 H 30.642932 Z"
       id="rect815"
       inkscape:connector-curvature="0"
       sodipodi:nodetypes="ccccc" />
    <path
       style="opacity:1;fill:none;fill-opacity:1;stroke:#000000;stroke-width:0.10000002;stroke-linecap:round;stroke-linejoin:miter;stroke-miterlimit:4;stroke-dasharray:none;stroke-dashoffset:0;stroke-opacity:1"
       d="M 30.642922,187.80849 H 5.7429212 v -56.73408"
       id="rect841-3"
       inkscape:connector-curvature="0"
       sodipodi:nodetypes="ccc" />
    <path
       style="opacity:1;fill:none;fill-opacity:1;stroke:#000000;stroke-width:0.1;stroke-linecap:round;stroke-linejoin:miter;stroke-miterlimit:4;stroke-dasharray:none;stroke-dashoffset:0;stroke-opacity:1"
       d="m 132.47209,80.809476 a 1.1870815,1.1870815 0 0 1 -1.18709,1.187082 1.1870815,1.1870815 0 0 1 -1.18708,-1.187082 1.1870815,1.1870815 0 0 1 1.18708,-1.187081 1.1870815,1.1870815 0 0 1 1.18709,1.187081 z"
       id="path1020"
       inkscape:connector-curvature="0" />
    <path
       style="opacity:1;fill:none;fill-opacity:1;stroke:#000000;stroke-width:0.1;stroke-linecap:round;stroke-linejoin:miter;stroke-miterlimit:4;stroke-dasharray:none;stroke-dashoffset:0;stroke-opacity:1"
       d="m 132.33627,124.96875 a 1.1870815,1.1870815 0 0 1 -1.18708,1.18708 1.1870815,1.1870815 0 0 1 -1.18709,-1.18708 1.1870815,1.1870815 0 0 1 1.18709,-1.18708 1.1870815,1.1870815 0 0 1 1.18708,1.18708 z"
       id="path1020-5"
       inkscape:connector-curvature="0" />
    <path
       style="opacity:1;fill:none;fill-opacity:1;stroke:#000000;stroke-width:0.1;stroke-linecap:round;stroke-linejoin:miter;stroke-miterlimit:4;stroke-dasharray:none;stroke-dashoffset:0;stroke-opacity:1"
       d="m 38.257257,80.799158 a 1.1870815,1.1870815 0 0 1 -1.187082,1.187081 1.1870815,1.1870815 0 0 1 -1.187081,-1.187081 1.1870815,1.1870815 0 0 1 1.187081,-1.187082 1.1870815,1.1870815 0 0 1 1.187082,1.187082 z"
       id="path1020-3"
       inkscape:connector-curvature="0" />
    <path
       style="opacity:1;fill:none;fill-opacity:1;stroke:#000000;stroke-width:0.1;stroke-linecap:round;stroke-linejoin:miter;stroke-miterlimit:4;stroke-dasharray:none;stroke-dashoffset:0;stroke-opacity:1"
       d="m 38.24672,125.12547 a 1.1870815,1.1870815 0 0 1 -1.187081,1.18708 1.1870815,1.1870815 0 0 1 -1.187081,-1.18708 1.1870815,1.1870815 0 0 1 1.187081,-1.18708 1.1870815,1.1870815 0 0 1 1.187081,1.18708 z"
       id="path1020-5-5"
       inkscape:connector-curvature="0" />
    <g
       id="g1227"
       transform="translate(-1.5636624,68.420999)">
      <path
         sodipodi:nodetypes="cccc"
         inkscape:connector-curvature="0"
         id="rect841-3-6-7-6"
         d="M 136.60761,119.38749 V 144.2875 H 35.106594 v -24.90001"
         style="opacity:1;fill:none;fill-opacity:1;stroke:#000000;stroke-width:0.10000002;stroke-linecap:round;stroke-linejoin:miter;stroke-miterlimit:4;stroke-dasharray:none;stroke-dashoffset:0;stroke-opacity:1" />
      <path
         style="opacity:1;fill:none;fill-opacity:1;stroke:#000000;stroke-width:0.1;stroke-linecap:round;stroke-linejoin:miter;stroke-miterlimit:4;stroke-dasharray:none;stroke-dashoffset:0;stroke-opacity:1"
         d="m 46.531761,137.80324 h 3.207235 v 3.67495 h -3.207235 z"
         id="rect1075"
         inkscape:connector-curvature="0" />
    </g>
    <path
       style="opacity:1;fill:none;fill-opacity:1;stroke:#000000;stroke-width:0.10000002;stroke-linecap:round;stroke-linejoin:miter;stroke-miterlimit:4;stroke-dasharray:none;stroke-dashoffset:0;stroke-opacity:1"
       d="m 30.642932,90.885081 h -1.971113 v 2.873143 h 1.971113 m 0,18.358076 h -1.971113 v 3.24064 h 1.971113 m 0,15.71739 H 5.7429312 V 74.340332 H 30.642932"
       id="rect841-2"
       inkscape:connector-curvature="0"
       sodipodi:nodetypes="cccccccccccc" />
    <path
       style="opacity:1;fill:none;fill-opacity:1;stroke:#000000;stroke-width:0.09999999;stroke-linecap:round;stroke-linejoin:miter;stroke-miterlimit:4;stroke-dasharray:none;stroke-dashoffset:0;stroke-opacity:1"
       d="M 78.346695,131.07441 H 90.24019 v 2.9 H 78.346695 Z"
       id="rect1202"
       inkscape:connector-curvature="0" />
    <path
       style="fill:none;stroke:#000000;stroke-width:0.1;stroke-linecap:butt;stroke-linejoin:miter;stroke-miterlimit:4;stroke-dasharray:none;stroke-opacity:1"
       d="m 30.642931,131.07432 -10e-6,56.73417 h 47.703771 v -2.9 h 11.893494 v 2.9 h 47.703774 v -56.73408"
       id="path1230"
       inkscape:connector-curvature="0" />
    <path
       style="fill:none;stroke:#000000;stroke-width:0.1;stroke-linecap:butt;stroke-linejoin:miter;stroke-miterlimit:4;stroke-dasharray:none;stroke-opacity:1"
       d="m 137.94396,86.307476 h 24.90001 v 6.754572 h -2.03162 v 12.848702 h 2.03162 v 25.20048 h 2.9 v 11.8935 h -2.9 v 44.80376 h -24.90001"
       id="path1232"
       inkscape:connector-curvature="0" />
    <path
       inkscape:connector-curvature="0"
       style="opacity:1;fill:none;fill-opacity:1;stroke:#000000;stroke-width:0.1;stroke-linecap:round;stroke-linejoin:miter;stroke-miterlimit:4;stroke-dasharray:none;stroke-dashoffset:0;stroke-opacity:1"
       d="m 41.467348,74.340332 c -3.675003,0 -6.633578,-2.958575 -6.633578,-6.633577 0,-3.675002 2.958575,-6.633577 6.633578,-6.633577 H 126.2218 c 3.675,0 6.63357,2.958575 6.63357,6.633577 0,3.675002 -2.95857,6.633577 -6.63357,6.633577"
       id="rect828-3"
       sodipodi:nodetypes="cssssc" />
    <path
       inkscape:connector-curvature="0"
       style="opacity:1;fill:none;fill-opacity:1;stroke:#000000;stroke-width:0.1;stroke-linecap:round;stroke-linejoin:miter;stroke-miterlimit:4;stroke-dasharray:none;stroke-dashoffset:0;stroke-opacity:1"
       d="m 130.60784,67.706755 c 0,2.60938 -2.11532,4.724701 -4.7247,4.724702 -2.60938,-10e-7 -4.7247,-2.115322 -4.7247,-4.724702 0,-2.60938 2.11532,-4.7247 4.7247,-4.724702 2.60938,2e-6 4.7247,2.115322 4.7247,4.724702 z"
       id="path830-6"
       sodipodi:nodetypes="scscs" />
    <path
       inkscape:connector-curvature="0"
       style="opacity:1;fill:none;fill-opacity:1;stroke:#000000;stroke-width:0.1;stroke-linecap:round;stroke-linejoin:miter;stroke-miterlimit:4;stroke-dasharray:none;stroke-dashoffset:0;stroke-opacity:1"
       d="m 41.467355,61.070818 c -3.675003,0 -6.633578,-2.958575 -6.633578,-6.633577 0,-3.675002 2.958575,-6.633577 6.633578,-6.633577 H 126.2218 c 3.675,0 6.63357,2.958575 6.63357,6.633577 0,3.675002 -2.95857,6.633577 -6.63357,6.633577"
       id="rect828-3-7"
       sodipodi:nodetypes="cssssc" />
    <path
       inkscape:connector-curvature="0"
       style="opacity:1;fill:none;fill-opacity:1;stroke:#000000;stroke-width:0.1;stroke-linecap:round;stroke-linejoin:miter;stroke-miterlimit:4;stroke-dasharray:none;stroke-dashoffset:0;stroke-opacity:1"
       d="m 130.60784,54.437241 c 0,2.60938 -2.11532,4.724701 -4.7247,4.724702 -2.60938,-10e-7 -4.7247,-2.115322 -4.7247,-4.724702 0,-2.60938 2.11532,-4.7247 4.7247,-4.724702 2.60938,2e-6 4.7247,2.115322 4.7247,4.724702 z"
       id="path830-6-5"
       sodipodi:nodetypes="scscs" />
    <path
       inkscape:connector-curvature="0"
       style="opacity:1;fill:none;fill-opacity:1;stroke:#000000;stroke-width:0.1;stroke-linecap:round;stroke-linejoin:miter;stroke-miterlimit:4;stroke-dasharray:none;stroke-dashoffset:0;stroke-opacity:1"
       d="m 41.467348,47.797128 c -3.675003,0 -6.633578,-2.958576 -6.633578,-6.633578 0,-3.675002 2.958575,-6.633577 6.633578,-6.633577 H 126.2218 c 3.675,0 6.63357,2.958575 6.63357,6.633577 0,3.675002 -2.95857,6.633578 -6.63357,6.633578"
       id="rect828-3-3"
       sodipodi:nodetypes="cssssc" />
    <path
       inkscape:connector-curvature="0"
       style="opacity:1;fill:none;fill-opacity:1;stroke:#000000;stroke-width:0.1;stroke-linecap:round;stroke-linejoin:miter;stroke-miterlimit:4;stroke-dasharray:none;stroke-dashoffset:0;stroke-opacity:1"
       d="m 130.60784,41.16355 c 0,2.60938 -2.11532,4.724701 -4.7247,4.724702 -2.60938,-1e-6 -4.7247,-2.115322 -4.7247,-4.724702 0,-2.60938 2.11532,-4.7247 4.7247,-4.724702 2.60938,2e-6 4.7247,2.115322 4.7247,4.724702 z"
       id="path830-6-56"
       sodipodi:nodetypes="scscs" />
    <path
       inkscape:connector-curvature="0"
       style="opacity:1;fill:none;fill-opacity:1;stroke:#000000;stroke-width:0.1;stroke-linecap:round;stroke-linejoin:miter;stroke-miterlimit:4;stroke-dasharray:none;stroke-dashoffset:0;stroke-opacity:1"
       d="m 41.467355,34.527613 c -3.675003,0 -6.633578,-2.958575 -6.633578,-6.633577 0,-3.675002 2.958575,-6.633577 6.633578,-6.633577 H 126.2218 c 3.675,0 6.63357,2.958575 6.63357,6.633577 0,3.675002 -2.95857,6.633577 -6.63357,6.633577"
       id="rect828-3-7-2"
       sodipodi:nodetypes="cssssc" />
    <path
       inkscape:connector-curvature="0"
       style="opacity:1;fill:none;fill-opacity:1;stroke:#000000;stroke-width:0.1;stroke-linecap:round;stroke-linejoin:miter;stroke-miterlimit:4;stroke-dasharray:none;stroke-dashoffset:0;stroke-opacity:1"
       d="m 130.60784,27.894036 c 0,2.60938 -2.11532,4.724701 -4.7247,4.724702 -2.60938,-10e-7 -4.7247,-2.115322 -4.7247,-4.724702 0,-2.60938 2.11532,-4.7247 4.7247,-4.724702 2.60938,2e-6 4.7247,2.115322 4.7247,4.724702 z"
       id="path830-6-5-9"
       sodipodi:nodetypes="scscs" />
    <path
       inkscape:connector-curvature="0"
       style="opacity:1;fill:none;fill-opacity:1;stroke:#000000;stroke-width:0.1;stroke-linecap:round;stroke-linejoin:miter;stroke-miterlimit:4;stroke-dasharray:none;stroke-dashoffset:0;stroke-opacity:1"
       d="m 41.467351,21.257916 c -3.675004,0 -6.633579,-2.958575 -6.633579,-6.633577 0,-3.675002 2.958575,-6.6335768 6.633579,-6.6335768 H 126.2218 c 3.675,0 6.63357,2.9585748 6.63357,6.6335768 0,3.675002 -2.95857,6.633577 -6.63357,6.633577"
       id="rect828-3-7-2-1"
       sodipodi:nodetypes="cssssc" />
    <path
       inkscape:connector-curvature="0"
       style="opacity:1;fill:none;fill-opacity:1;stroke:#000000;stroke-width:0.1;stroke-linecap:round;stroke-linejoin:miter;stroke-miterlimit:4;stroke-dasharray:none;stroke-dashoffset:0;stroke-opacity:1"
       d="m 130.60784,14.624339 c 0,2.60938 -2.11532,4.724701 -4.7247,4.724702 -2.60938,-1e-6 -4.7247,-2.115322 -4.7247,-4.724702 0,-2.60938 2.11532,-4.7246998 4.7247,-4.7247018 2.60938,2e-6 4.7247,2.1153218 4.7247,4.7247018 z"
       id="path830-6-5-9-2"
       sodipodi:nodetypes="scscs" />
  </g>
</svg>
