<?xml version="1.0" encoding="UTF-8" standalone="no"?>
<!-- Created with Inkscape (http://www.inkscape.org/) -->

<svg
   xmlns:dc="http://purl.org/dc/elements/1.1/"
   xmlns:cc="http://creativecommons.org/ns#"
   xmlns:rdf="http://www.w3.org/1999/02/22-rdf-syntax-ns#"
   xmlns:svg="http://www.w3.org/2000/svg"
   xmlns="http://www.w3.org/2000/svg"
   xmlns:sodipodi="http://sodipodi.sourceforge.net/DTD/sodipodi-0.dtd"
   xmlns:inkscape="http://www.inkscape.org/namespaces/inkscape"
   width="98.400291mm"
   height="71.258804mm"
   viewBox="0 0 98.400291 71.258804"
   version="1.1"
   id="svg8"
   inkscape:version="0.92.5 (2060ec1f9f, 2020-04-08)"
   sodipodi:docname="3mm-tablet-postavka.svg">
  <defs
     id="defs2" />
  <sodipodi:namedview
     id="base"
     pagecolor="#ffffff"
     bordercolor="#666666"
     borderopacity="1.0"
     inkscape:pageopacity="0.0"
     inkscape:pageshadow="2"
     inkscape:zoom="0.7"
     inkscape:cx="-132.97573"
     inkscape:cy="13.644419"
     inkscape:document-units="mm"
     inkscape:current-layer="layer1"
     showgrid="false"
     inkscape:window-width="1920"
     inkscape:window-height="1016"
     inkscape:window-x="0"
     inkscape:window-y="27"
     inkscape:window-maximized="1"
     fit-margin-top="0"
     fit-margin-left="0"
     fit-margin-right="0"
     fit-margin-bottom="0" />
  <metadata
     id="metadata5">
    <rdf:RDF>
      <cc:Work
         rdf:about="">
        <dc:format>image/svg+xml</dc:format>
        <dc:type
           rdf:resource="http://purl.org/dc/dcmitype/StillImage" />
        <dc:title></dc:title>
      </cc:Work>
    </rdf:RDF>
  </metadata>
  <g
     inkscape:label="Layer 1"
     inkscape:groupmode="layer"
     id="layer1"
     transform="translate(-16.282786,-16.260013)">
    <path
       style="opacity:1;fill:none;fill-opacity:1;stroke:#000000;stroke-width:0.1;stroke-linecap:round;stroke-linejoin:miter;stroke-miterlimit:4;stroke-dasharray:none;stroke-dashoffset:0;stroke-opacity:1"
       d="m 39.495767,16.310013 h 13.151638 c 4.999397,0 9.024181,4.024785 9.024181,9.024182 v 18.651638 c 0,4.999396 -4.024784,9.024181 -9.024181,9.024181 H 39.495767 c -4.999396,0 -9.024181,-4.024785 -9.024181,-9.024181 V 25.334195 c 0,-4.999397 4.024785,-9.024182 9.024181,-9.024182 z"
       id="rect815"
       inkscape:connector-curvature="0" />
    <path
       style="opacity:1;fill:none;fill-opacity:1;stroke:#000000;stroke-width:0.1;stroke-linecap:round;stroke-linejoin:miter;stroke-miterlimit:4;stroke-dasharray:none;stroke-dashoffset:0;stroke-opacity:1"
       d="m 44.771585,24.91001 h 2.6 v 19.6 h -2.6 z"
       id="rect817"
       inkscape:connector-curvature="0" />
    <path
       style="fill:none;stroke:#000000;stroke-width:0.1;stroke-linecap:butt;stroke-linejoin:miter;stroke-miterlimit:4;stroke-dasharray:none;stroke-opacity:1"
       d="m 30.491086,24.120254 -11.5388,-2.19264 v 6.78752 h -2.6195 v 19.7 h 2.6 v 6.78752 l 11.5388,-2.19264 0.0053,-7.78398"
       id="path853"
       inkscape:connector-curvature="0"
       sodipodi:nodetypes="ccccccccc" />
    <path
       style="opacity:1;fill:none;fill-opacity:1;stroke:#000000;stroke-width:0.1;stroke-linecap:round;stroke-linejoin:miter;stroke-miterlimit:4;stroke-dasharray:none;stroke-dashoffset:0;stroke-opacity:1"
       d="m 61.671586,25.334195 c 0,-4.999397 4.024785,-9.024182 9.024182,-9.024182 h 13.151636 c 4.999396,0 9.024181,4.024785 9.024181,9.024182 v 18.651638 c 0,4.999396 -4.024785,9.024181 -9.024181,9.024181 H 70.695768 c -4.999397,0 -9.024182,-4.024785 -9.024182,-9.024181"
       id="rect815-3"
       inkscape:connector-curvature="0"
       sodipodi:nodetypes="cssssssc" />
    <path
       style="opacity:1;fill:none;fill-opacity:1;stroke:#000000;stroke-width:0.1;stroke-linecap:round;stroke-linejoin:miter;stroke-miterlimit:4;stroke-dasharray:none;stroke-dashoffset:0;stroke-opacity:1"
       d="m 77.121366,23.857535 h 0.300445 c 4.999397,0 9.024182,4.024785 9.024182,9.024181 v 3.556588 c 0,4.999396 -4.024785,9.024181 -9.024182,9.024181 h -0.300445 c -4.999397,0 -9.024181,-4.024785 -9.024181,-9.024181 v -3.556588 c 0,-4.999396 4.024784,-9.024181 9.024181,-9.024181 z"
       id="rect815-3-6"
       inkscape:connector-curvature="0" />
    <path
       inkscape:connector-curvature="0"
       style="opacity:1;fill:none;fill-opacity:1;stroke:#000000;stroke-width:0.1;stroke-linecap:round;stroke-linejoin:round;stroke-miterlimit:4;stroke-dasharray:none;stroke-dashoffset:0;stroke-opacity:1"
       d="m 99.526646,21.476507 a 5.1026782,5.1026782 0 0 1 5.102684,5.10268 5.1026782,5.1026782 0 0 1 -5.102684,5.10268 5.1026782,5.1026782 0 0 1 -5.102663,-5.10268 5.1026782,5.1026782 0 0 1 5.102663,-5.10268 z"
       id="path1627-43-31-5-3" />
    <path
       inkscape:connector-curvature="0"
       style="opacity:1;fill:none;fill-opacity:1;stroke:#000000;stroke-width:0.1;stroke-linecap:round;stroke-linejoin:round;stroke-miterlimit:4;stroke-dasharray:none;stroke-dashoffset:0;stroke-opacity:1"
       d="m 99.696764,32.499281 a 5.1026782,5.1026782 0 0 1 5.102676,5.10268 5.1026782,5.1026782 0 0 1 -5.102676,5.10268 5.1026782,5.1026782 0 0 1 -5.102681,-5.10268 5.1026782,5.1026782 0 0 1 5.102681,-5.10268 z"
       id="path1627-43-31-9-0-0" />
    <path
       inkscape:connector-curvature="0"
       style="opacity:1;fill:none;fill-opacity:1;stroke:#000000;stroke-width:0.1;stroke-linecap:round;stroke-linejoin:round;stroke-miterlimit:4;stroke-dasharray:none;stroke-dashoffset:0;stroke-opacity:1"
       d="m 99.074414,43.388432 a 5.1026782,5.1026782 0 0 1 5.102676,5.10267 5.1026782,5.1026782 0 0 1 -5.102676,5.10268 5.1026782,5.1026782 0 0 1 -5.102676,-5.10268 5.1026782,5.1026782 0 0 1 5.102676,-5.10267 z"
       id="path1627-43-31-4-3-4" />
    <path
       inkscape:connector-curvature="0"
       style="opacity:1;fill:none;fill-opacity:1;stroke:#000000;stroke-width:0.1;stroke-linecap:round;stroke-linejoin:round;stroke-miterlimit:4;stroke-dasharray:none;stroke-dashoffset:0;stroke-opacity:1"
       d="m 109.5304,26.74881 a 5.1026782,5.1026782 0 0 1 5.10268,5.102678 5.1026782,5.1026782 0 0 1 -5.10268,5.10268 5.1026782,5.1026782 0 0 1 -5.10267,-5.10268 5.1026782,5.1026782 0 0 1 5.10267,-5.102678 z"
       id="path1627-43-31-7-6-4" />
    <path
       inkscape:connector-curvature="0"
       style="opacity:1;fill:none;fill-opacity:1;stroke:#000000;stroke-width:0.1;stroke-linecap:round;stroke-linejoin:round;stroke-miterlimit:4;stroke-dasharray:none;stroke-dashoffset:0;stroke-opacity:1"
       d="m 109.44132,38.306121 a 5.1026782,5.1026782 0 0 1 5.10268,5.10268 5.1026782,5.1026782 0 0 1 -5.10268,5.10268 5.1026782,5.1026782 0 0 1 -5.10267,-5.10268 5.1026782,5.1026782 0 0 1 5.10267,-5.10268 z"
       id="path1627-43-31-8-1-4" />
    <path
       inkscape:connector-curvature="0"
       style="display:inline;opacity:1;fill:none;fill-opacity:1;stroke:#000000;stroke-width:0.1;stroke-linecap:round;stroke-linejoin:round;stroke-miterlimit:4;stroke-dasharray:none;stroke-opacity:1;paint-order:fill markers stroke"
       d="m 93.666403,78.640805 a 8.8280108,8.8280108 0 0 1 -8.82801,8.827999 8.8280108,8.8280108 0 0 1 -8.82801,-8.827999 8.8280108,8.8280108 0 0 1 8.82801,-8.82802 8.8280108,8.8280108 0 0 1 8.82801,8.82802 z"
       id="path7-0-5" />
    <path
       inkscape:connector-curvature="0"
       style="display:inline;opacity:1;fill:none;fill-opacity:1;stroke:#000000;stroke-width:0.1;stroke-linecap:round;stroke-linejoin:round;stroke-miterlimit:4;stroke-dasharray:none;stroke-opacity:1;paint-order:fill markers stroke"
       d="m 73.360473,78.640805 a 8.8280116,8.8280116 0 0 1 -8.82801,8.828009 8.8280116,8.8280116 0 0 1 -8.82801,-8.828009 8.8280116,8.8280116 0 0 1 8.82801,-8.82803 8.8280116,8.8280116 0 0 1 8.82801,8.82803 z"
       id="path7-0-6-4" />
    <path
       inkscape:connector-curvature="0"
       style="display:inline;opacity:1;fill:none;fill-opacity:1;stroke:#000000;stroke-width:0.1;stroke-linecap:round;stroke-linejoin:round;stroke-miterlimit:4;stroke-dasharray:none;stroke-opacity:1;paint-order:fill markers stroke"
       d="m 53.054553,78.640795 a 8.8280116,8.8280116 0 0 1 -8.82801,8.828009 8.8280116,8.8280116 0 0 1 -8.828013,-8.828009 8.8280116,8.8280116 0 0 1 8.828013,-8.82801 8.8280116,8.8280116 0 0 1 8.82801,8.82801 z"
       id="path7-0-0-05" />
    <path
       inkscape:connector-curvature="0"
       style="display:inline;opacity:1;fill:none;fill-opacity:1;stroke:#000000;stroke-width:0.1;stroke-linecap:round;stroke-linejoin:round;stroke-miterlimit:4;stroke-dasharray:none;stroke-opacity:1;paint-order:fill markers stroke"
       d="m 104.10962,62.871893 a 8.8280126,8.8280126 0 0 1 -8.828006,8.827999 8.8280126,8.8280126 0 0 1 -8.82802,-8.827999 8.8280126,8.8280126 0 0 1 8.82802,-8.82801 8.8280126,8.8280126 0 0 1 8.828006,8.82801 z"
       id="path7-0-6-6-9" />
    <path
       inkscape:connector-curvature="0"
       style="display:inline;opacity:1;fill:none;fill-opacity:1;stroke:#000000;stroke-width:0.1;stroke-linecap:round;stroke-linejoin:round;stroke-miterlimit:4;stroke-dasharray:none;stroke-opacity:1;paint-order:fill markers stroke"
       d="m 83.803684,62.871903 a 8.8280116,8.8280116 0 0 1 -8.82801,8.827999 8.8280116,8.8280116 0 0 1 -8.82801,-8.827999 8.8280116,8.8280116 0 0 1 8.82801,-8.82802 8.8280116,8.8280116 0 0 1 8.82801,8.82802 z"
       id="path7-0-2-4" />
    <path
       inkscape:connector-curvature="0"
       style="display:inline;opacity:1;fill:none;fill-opacity:1;stroke:#000000;stroke-width:0.1;stroke-linecap:round;stroke-linejoin:round;stroke-miterlimit:4;stroke-dasharray:none;stroke-opacity:1;paint-order:fill markers stroke"
       d="m 63.497764,62.871893 a 8.8280126,8.8280126 0 0 1 -8.82801,8.828009 8.8280126,8.8280126 0 0 1 -8.82802,-8.828009 8.8280126,8.8280126 0 0 1 8.82802,-8.82802 8.8280126,8.8280126 0 0 1 8.82801,8.82802 z"
       id="path7-0-6-61-6" />
    <path
       inkscape:connector-curvature="0"
       style="display:inline;opacity:1;fill:none;fill-opacity:1;stroke:#000000;stroke-width:0.1;stroke-linecap:round;stroke-linejoin:round;stroke-miterlimit:4;stroke-dasharray:none;stroke-opacity:1;paint-order:fill markers stroke"
       d="m 43.191854,62.871883 a 8.8280126,8.8280126 0 0 1 -8.82801,8.828019 8.8280126,8.8280126 0 0 1 -8.828019,-8.828019 8.8280126,8.8280126 0 0 1 8.828019,-8.82801 8.8280126,8.8280126 0 0 1 8.82801,8.82801 z"
       id="path7-0-6-7-9" />
  </g>
</svg>
