<?xml version="1.0" encoding="UTF-8" standalone="no"?>
<!-- Created with Inkscape (http://www.inkscape.org/) -->

<svg
   xmlns:dc="http://purl.org/dc/elements/1.1/"
   xmlns:cc="http://creativecommons.org/ns#"
   xmlns:rdf="http://www.w3.org/1999/02/22-rdf-syntax-ns#"
   xmlns:svg="http://www.w3.org/2000/svg"
   xmlns="http://www.w3.org/2000/svg"
   xmlns:sodipodi="http://sodipodi.sourceforge.net/DTD/sodipodi-0.dtd"
   xmlns:inkscape="http://www.inkscape.org/namespaces/inkscape"
   width="139.20001mm"
   height="167.8587mm"
   viewBox="0 0 139.20001 167.8587"
   version="1.1"
   id="svg8"
   inkscape:version="0.92.5 (2060ec1f9f, 2020-04-08)"
   sodipodi:docname="3mm-karanica-case.svg">
  <defs
     id="defs2" />
  <sodipodi:namedview
     id="base"
     pagecolor="#ffffff"
     bordercolor="#666666"
     borderopacity="1.0"
     inkscape:pageopacity="0.0"
     inkscape:pageshadow="2"
     inkscape:zoom="1.0610016"
     inkscape:cx="306.85669"
     inkscape:cy="344.75095"
     inkscape:document-units="mm"
     inkscape:current-layer="layer1"
     showgrid="false"
     inkscape:window-width="1920"
     inkscape:window-height="1016"
     inkscape:window-x="0"
     inkscape:window-y="27"
     inkscape:window-maximized="1"
     fit-margin-top="0"
     fit-margin-left="0"
     fit-margin-right="0"
     fit-margin-bottom="0" />
  <metadata
     id="metadata5">
    <rdf:RDF>
      <cc:Work
         rdf:about="">
        <dc:format>image/svg+xml</dc:format>
        <dc:type
           rdf:resource="http://purl.org/dc/dcmitype/StillImage" />
        <dc:title></dc:title>
      </cc:Work>
    </rdf:RDF>
  </metadata>
  <g
     inkscape:label="Layer 1"
     inkscape:groupmode="layer"
     id="layer1"
     transform="translate(-40.038618,-67.607651)">
    <path
       style="opacity:1;fill:none;fill-opacity:1;stroke:#000000;stroke-width:0.1;stroke-linecap:round;stroke-linejoin:miter;stroke-miterlimit:4;stroke-dasharray:none;stroke-dashoffset:0;stroke-opacity:1"
       d="M 69.788628,67.658363 H 149.48862 V 151.53736 H 69.788628 Z"
       id="rect815-4-5"
       inkscape:connector-curvature="0" />
    <path
       style="opacity:1;fill:none;fill-opacity:1;stroke:#000000;stroke-width:0.1;stroke-linecap:round;stroke-linejoin:miter;stroke-miterlimit:4;stroke-dasharray:none;stroke-dashoffset:0;stroke-opacity:1"
       d="m 71.988628,67.658363 v 25.200001 h -2.2"
       id="rect817-9-2"
       inkscape:connector-curvature="0"
       sodipodi:nodetypes="ccc" />
    <g
       id="g857-10-9"
       transform="translate(25.943413,8.4162274)"
       style="stroke-width:0.1;stroke-miterlimit:4;stroke-dasharray:none">
      <path
         style="opacity:1;fill:none;fill-opacity:1;stroke:#000000;stroke-width:0.1;stroke-linecap:round;stroke-linejoin:miter;stroke-miterlimit:4;stroke-dasharray:none;stroke-dashoffset:0;stroke-opacity:1"
         d="m 52.217784,63.606888 a 1.2695302,1.2695302 0 0 1 -1.26953,1.26953 1.2695302,1.2695302 0 0 1 -1.269531,-1.26953 1.2695302,1.2695302 0 0 1 1.269531,-1.26953 1.2695302,1.2695302 0 0 1 1.26953,1.26953 z"
         id="path834-7-0"
         inkscape:connector-curvature="0" />
      <path
         style="opacity:1;fill:none;fill-opacity:1;stroke:#000000;stroke-width:0.1;stroke-linecap:round;stroke-linejoin:miter;stroke-miterlimit:4;stroke-dasharray:none;stroke-dashoffset:0;stroke-opacity:1"
         d="m 52.217784,80.07737 a 1.2695302,1.2695302 0 0 1 -1.26953,1.26953 1.2695302,1.2695302 0 0 1 -1.269531,-1.26953 1.2695302,1.2695302 0 0 1 1.269531,-1.26953 1.2695302,1.2695302 0 0 1 1.26953,1.26953 z"
         id="path834-6-58-2"
         inkscape:connector-curvature="0" />
    </g>
    <path
       style="opacity:1;fill:none;fill-opacity:1;stroke:#000000;stroke-width:0.1;stroke-linecap:round;stroke-linejoin:miter;stroke-miterlimit:4;stroke-dasharray:none;stroke-dashoffset:0;stroke-opacity:1"
       d="m 69.788628,126.33736 h 2.2 v 25.2"
       id="rect817-7-7-8"
       inkscape:connector-curvature="0"
       sodipodi:nodetypes="ccc" />
    <g
       id="g857-5-0-3"
       transform="translate(25.943413,67.095207)"
       style="stroke-width:0.1;stroke-miterlimit:4;stroke-dasharray:none">
      <path
         style="opacity:1;fill:none;fill-opacity:1;stroke:#000000;stroke-width:0.1;stroke-linecap:round;stroke-linejoin:miter;stroke-miterlimit:4;stroke-dasharray:none;stroke-dashoffset:0;stroke-opacity:1"
         d="m 52.217784,63.606888 a 1.2695302,1.2695302 0 0 1 -1.26953,1.26953 1.2695302,1.2695302 0 0 1 -1.269531,-1.26953 1.2695302,1.2695302 0 0 1 1.269531,-1.26953 1.2695302,1.2695302 0 0 1 1.26953,1.26953 z"
         id="path834-3-4-8"
         inkscape:connector-curvature="0" />
      <path
         style="opacity:1;fill:none;fill-opacity:1;stroke:#000000;stroke-width:0.1;stroke-linecap:round;stroke-linejoin:miter;stroke-miterlimit:4;stroke-dasharray:none;stroke-dashoffset:0;stroke-opacity:1"
         d="m 52.217784,80.07737 a 1.2695302,1.2695302 0 0 1 -1.26953,1.26953 1.2695302,1.2695302 0 0 1 -1.269531,-1.26953 1.2695302,1.2695302 0 0 1 1.269531,-1.26953 1.2695302,1.2695302 0 0 1 1.26953,1.26953 z"
         id="path834-6-5-8-0"
         inkscape:connector-curvature="0" />
    </g>
    <g
       aria-label="open in case of"
       style="font-style:normal;font-weight:normal;font-size:12.73609257px;line-height:1.25;font-family:sans-serif;letter-spacing:0px;word-spacing:0px;fill:none;fill-opacity:1;stroke:#000000;stroke-width:0.1;stroke-miterlimit:4;stroke-dasharray:none;stroke-opacity:1"
       id="text823-0-4"
       transform="translate(0,1.5119047)">
      <path
         d="m 100.32858,87.738601 c 0,-1.10804 -0.649545,-2.063247 -1.592015,-2.496274 -0.191042,-0.08915 -0.394819,0.06368 -0.394819,0.331138 v 0.611333 c 0,0.267458 0.152833,0.394819 0.29293,0.560388 0.216513,0.267458 0.343874,0.611332 0.343874,0.993415 v 3.61705 c 0,0.382083 -0.127361,0.725958 -0.343874,0.993416 -0.140097,0.165569 -0.29293,0.29293 -0.29293,0.560388 v 0.611332 c 0,0.267458 0.203777,0.420291 0.394819,0.331139 0.94247,-0.433028 1.592015,-1.388235 1.592015,-2.496275 z m -5.476524,3.61705 c 0,1.10804 0.649541,2.063247 1.592012,2.496275 0.191041,0.08915 0.394819,-0.06368 0.394819,-0.331139 v -0.611332 c 0,-0.267458 -0.152833,-0.394819 -0.29293,-0.560388 -0.216514,-0.267458 -0.343875,-0.611333 -0.343875,-0.993416 v -3.61705 c 0,-0.382083 0.127361,-0.725957 0.343875,-0.993415 0.140097,-0.165569 0.29293,-0.29293 0.29293,-0.560388 v -0.611333 c 0,-0.267458 -0.203778,-0.420291 -0.394819,-0.331138 -0.942471,0.433027 -1.592012,1.388234 -1.592012,2.496274 z"
         style="font-style:normal;font-variant:normal;font-weight:normal;font-stretch:normal;font-family:'American Stencil';-inkscape-font-specification:'American Stencil';text-align:center;text-anchor:middle;fill:none;stroke:#000000;stroke-width:0.1;stroke-miterlimit:4;stroke-dasharray:none;stroke-opacity:1"
         id="path934"
         inkscape:connector-curvature="0" />
      <path
         d="m 102.11163,93.558995 c 0,0.267458 0.11462,0.382083 0.38208,0.382083 h 0.58586 c 0.26746,0 0.38208,-0.114625 0.38208,-0.382083 v -8.023738 c 0,-0.267458 -0.11462,-0.382083 -0.38208,-0.382083 h -0.58586 c -0.26746,0 -0.38208,0.114625 -0.38208,0.382083 z m 4.24111,-5.960491 c 0,0.713221 -0.52218,1.146248 -1.00615,1.273609 -0.25472,0.06368 -0.38208,0.114625 -0.38208,0.382083 v 0.483972 c 0,0.267458 0.11462,0.394819 0.38208,0.369346 1.14625,-0.114625 2.35618,-1.006151 2.35618,-2.50901 0,-1.426442 -1.0571,-2.343441 -2.35618,-2.419858 -0.26746,-0.01274 -0.38208,0.08915 -0.38208,0.356611 v 0.483972 c 0,0.267458 0.12736,0.318402 0.38208,0.382082 0.48397,0.127361 1.00615,0.483972 1.00615,1.197193 z"
         style="font-style:normal;font-variant:normal;font-weight:normal;font-stretch:normal;font-family:'American Stencil';-inkscape-font-specification:'American Stencil';text-align:center;text-anchor:middle;fill:none;stroke:#000000;stroke-width:0.1;stroke-miterlimit:4;stroke-dasharray:none;stroke-opacity:1"
         id="path936"
         inkscape:connector-curvature="0" />
      <path
         d="m 109.37119,93.558995 c 0,0.267458 0.11463,0.382083 0.38209,0.382083 h 0.58586 c 0.26745,0 0.38208,-0.114625 0.38208,-0.382083 v -2.992981 c 0,-0.267458 0.11462,-0.382083 0.38208,-0.382083 h 0.4585 c 0.26746,0 0.38208,-0.114625 0.38208,-0.382083 v -0.458499 c 0,-0.267458 -0.11462,-0.382083 -0.38208,-0.382083 h -0.4585 c -0.26746,0 -0.38208,-0.114625 -0.38208,-0.382083 v -3.043926 c 0,-0.267458 -0.11463,-0.382083 -0.38208,-0.382083 h -0.58586 c -0.26746,0 -0.38209,0.114625 -0.38209,0.382083 z m 2.85289,0 c 0,0.267458 0.11462,0.382083 0.38208,0.382083 h 2.11419 c 0.26746,0 0.38209,-0.114625 0.38209,-0.382083 v -0.458499 c 0,-0.267458 -0.11463,-0.382083 -0.38209,-0.382083 h -2.11419 c -0.26746,0 -0.38208,0.114625 -0.38208,0.382083 z m 0,-7.565239 c 0,0.267458 0.11462,0.382083 0.38208,0.382083 h 2.11419 c 0.26746,0 0.38209,-0.114625 0.38209,-0.382083 v -0.458499 c 0,-0.267458 -0.11463,-0.382083 -0.38209,-0.382083 h -2.11419 c -0.26746,0 -0.38208,0.114625 -0.38208,0.382083 z"
         style="font-style:normal;font-variant:normal;font-weight:normal;font-stretch:normal;font-family:'American Stencil';-inkscape-font-specification:'American Stencil';text-align:center;text-anchor:middle;fill:none;stroke:#000000;stroke-width:0.1;stroke-miterlimit:4;stroke-dasharray:none;stroke-opacity:1"
         id="path938"
         inkscape:connector-curvature="0" />
      <path
         d="m 121.7252,89.101363 c 0.26746,0 0.38208,-0.114625 0.38208,-0.382083 v -3.184023 c 0,-0.267458 -0.11462,-0.382083 -0.38208,-0.382083 h -0.58586 c -0.26746,0 -0.38208,0.114625 -0.38208,0.382083 v 1.744845 c 0,0.267458 0.0509,0.483971 0.1783,0.725957 l 0.38208,0.75143 c 0.12736,0.241985 0.29293,0.343874 0.56039,0.343874 z m -4.31754,-0.967943 c 0.26746,0 0.43303,0.101889 0.56039,0.343874 l 2.6109,5.11991 c 0.12736,0.241985 0.29293,0.343874 0.56039,0.343874 h 0.58586 c 0.26746,0 0.38208,-0.114625 0.38208,-0.382083 v -2.21608 c 0,-0.267458 -0.11462,-0.382082 -0.38208,-0.382082 h -0.39482 c -0.26746,0 -0.43303,-0.101889 -0.56039,-0.343875 l -2.6109,-5.119909 c -0.12736,-0.241986 -0.29293,-0.343875 -0.56038,-0.343875 h -0.58587 c -0.26745,0 -0.38208,0.114625 -0.38208,0.382083 v 2.21608 c 0,0.267458 0.11463,0.382083 0.38208,0.382083 z m -0.39482,1.859469 c -0.26745,0 -0.38208,0.114625 -0.38208,0.382083 v 3.184023 c 0,0.267458 0.11463,0.382083 0.38208,0.382083 h 0.58587 c 0.26745,0 0.38208,-0.114625 0.38208,-0.382083 v -1.744844 c 0,-0.267458 -0.051,-0.483972 -0.17831,-0.725958 l -0.38208,-0.751429 c -0.12736,-0.241986 -0.29293,-0.343875 -0.56039,-0.343875 z"
         style="font-style:normal;font-variant:normal;font-weight:normal;font-stretch:normal;font-family:'American Stencil';-inkscape-font-specification:'American Stencil';text-align:center;text-anchor:middle;fill:none;stroke:#000000;stroke-width:0.1;stroke-miterlimit:4;stroke-dasharray:none;stroke-opacity:1"
         id="path940"
         inkscape:connector-curvature="0" />
      <path
         d="m 75.136597,109.60349 c 0,0.26745 0.114625,0.38208 0.382083,0.38208 h 0.58586 c 0.267458,0 0.382083,-0.11463 0.382083,-0.38208 v -8.02374 c 0,-0.26746 -0.114625,-0.38208 -0.382083,-0.38208 h -0.58586 c -0.267458,0 -0.382083,0.11462 -0.382083,0.38208 z"
         style="font-style:normal;font-variant:normal;font-weight:normal;font-stretch:normal;font-family:'American Stencil';-inkscape-font-specification:'American Stencil';text-align:center;text-anchor:middle;fill:none;stroke:#000000;stroke-width:0.1;stroke-miterlimit:4;stroke-dasharray:none;stroke-opacity:1"
         id="path942"
         inkscape:connector-curvature="0" />
      <path
         d="m 85.427355,105.14585 c 0.267458,0 0.382083,-0.11462 0.382083,-0.38208 v -3.18402 c 0,-0.26746 -0.114625,-0.38208 -0.382083,-0.38208 h -0.58586 c -0.267458,0 -0.382083,0.11462 -0.382083,0.38208 v 1.74484 c 0,0.26746 0.05094,0.48397 0.178306,0.72596 l 0.382083,0.75143 c 0.12736,0.24199 0.29293,0.34387 0.560388,0.34387 z m -4.317535,-0.96794 c 0.267458,0 0.433027,0.10189 0.560388,0.34388 l 2.610899,5.11991 c 0.127361,0.24198 0.29293,0.34387 0.560388,0.34387 h 0.58586 c 0.267458,0 0.382083,-0.11463 0.382083,-0.38208 v -2.21608 c 0,-0.26746 -0.114625,-0.38209 -0.382083,-0.38209 h -0.394818 c -0.267458,0 -0.433028,-0.10188 -0.560388,-0.34387 l -2.610899,-5.11991 c -0.127361,-0.24199 -0.292931,-0.34387 -0.560389,-0.34387 h -0.58586 c -0.267458,0 -0.382083,0.11462 -0.382083,0.38208 v 2.21608 c 0,0.26746 0.114625,0.38208 0.382083,0.38208 z m -0.394819,1.85947 c -0.267458,0 -0.382083,0.11463 -0.382083,0.38208 v 3.18403 c 0,0.26745 0.114625,0.38208 0.382083,0.38208 h 0.58586 c 0.267458,0 0.382083,-0.11463 0.382083,-0.38208 v -1.74485 c 0,-0.26746 -0.05094,-0.48397 -0.178305,-0.72595 l -0.382083,-0.75143 c -0.127361,-0.24199 -0.29293,-0.34388 -0.560388,-0.34388 z"
         style="font-style:normal;font-variant:normal;font-weight:normal;font-stretch:normal;font-family:'American Stencil';-inkscape-font-specification:'American Stencil';text-align:center;text-anchor:middle;fill:none;stroke:#000000;stroke-width:0.1;stroke-miterlimit:4;stroke-dasharray:none;stroke-opacity:1"
         id="path944"
         inkscape:connector-curvature="0" />
      <path
         d="m 100.3031,103.41375 c -0.12736,-0.94247 -0.725954,-1.74485 -1.566536,-2.12693 -0.191042,-0.0892 -0.394819,0.0637 -0.394819,0.33114 v 0.61133 c 0,0.26746 0.152833,0.39482 0.29293,0.56039 0.140097,0.1783 0.241986,0.38208 0.305666,0.61133 0.07642,0.26746 0.140097,0.38208 0.407555,0.38208 h 0.58586 c 0.267454,0 0.407554,-0.10189 0.369344,-0.36934 z m 0,4.35574 c 0.0382,-0.26746 -0.10189,-0.36935 -0.369344,-0.36935 h -0.58586 c -0.267458,0 -0.331138,0.11463 -0.407555,0.38209 -0.06368,0.22925 -0.165569,0.43302 -0.305666,0.61133 -0.140097,0.16557 -0.29293,0.29293 -0.29293,0.56039 v 0.61133 c 0,0.26746 0.203777,0.42029 0.394819,0.33114 0.840582,-0.38209 1.439176,-1.18446 1.566536,-2.12693 z m -5.451045,-0.36935 c 0,1.10804 0.649541,2.06325 1.592012,2.49628 0.191041,0.0891 0.394819,-0.0637 0.394819,-0.33114 v -0.61133 c 0,-0.26746 -0.152833,-0.39482 -0.29293,-0.56039 -0.216514,-0.26746 -0.343875,-0.61133 -0.343875,-0.99342 v -3.61705 c 0,-0.38208 0.127361,-0.72595 0.343875,-0.99341 0.140097,-0.16557 0.29293,-0.29293 0.29293,-0.56039 v -0.61133 c 0,-0.26746 -0.203778,-0.42029 -0.394819,-0.33114 -0.942471,0.43303 -1.592012,1.38823 -1.592012,2.49627 z"
         style="font-style:normal;font-variant:normal;font-weight:normal;font-stretch:normal;font-family:'American Stencil';-inkscape-font-specification:'American Stencil';text-align:center;text-anchor:middle;fill:none;stroke:#000000;stroke-width:0.1;stroke-miterlimit:4;stroke-dasharray:none;stroke-opacity:1"
         id="path946"
         inkscape:connector-curvature="0" />
      <path
         d="m 106.39095,109.61622 c 0.0637,0.25472 0.20378,0.36935 0.47124,0.36935 h 0.6368 c 0.26746,0 0.35661,-0.11463 0.29293,-0.36935 l -2.0123,-8.04921 c -0.0637,-0.25472 -0.20378,-0.36934 -0.47124,-0.36934 h -1.12077 c -0.26746,0 -0.42029,0.12736 -0.47124,0.38208 l -0.0255,0.11462 c -0.0509,0.25473 0,0.4585 0.20378,0.63681 l 0.57312,0.49671 c 0.20378,0.16556 0.3184,0.35661 0.38208,0.61133 z m -2.21608,-3.2477 c -0.0637,-0.25472 -0.0637,-0.48397 0,-0.73869 l 0.15283,-0.68775 c 0.0637,-0.25472 0,-0.44577 -0.20377,-0.62407 l -0.57313,-0.49671 c -0.20377,-0.1783 -0.3184,-0.1401 -0.38208,0.11463 l -1.29908,5.68029 c -0.0637,0.25472 0.0255,0.36935 0.29293,0.36935 h 0.62407 c 0.26746,0 0.40755,-0.11463 0.47123,-0.36935 l 0.12736,-0.57312 c 0.0509,-0.25472 0.19105,-0.36935 0.4585,-0.36935 h 0.52218 c 0.26746,0 0.35661,-0.11462 0.29293,-0.36934 z"
         style="font-style:normal;font-variant:normal;font-weight:normal;font-stretch:normal;font-family:'American Stencil';-inkscape-font-specification:'American Stencil';text-align:center;text-anchor:middle;fill:none;stroke:#000000;stroke-width:0.1;stroke-miterlimit:4;stroke-dasharray:none;stroke-opacity:1"
         id="path948"
         inkscape:connector-curvature="0" />
      <path
         d="m 113.24297,102.77694 c 0.15283,0.17831 0.26745,0.40756 0.33113,0.63681 0.0637,0.26745 0.12737,0.36934 0.40756,0.36934 h 0.61133 c 0.2802,0 0.42029,-0.11462 0.38208,-0.38208 -0.14009,-0.95521 -0.81511,-1.74484 -1.7321,-2.12693 -0.26746,-0.11462 -0.38209,0.0255 -0.38209,0.29293 v 0.58586 c 0,0.26746 0.12736,0.35661 0.38209,0.62407 z m -2.26703,7.14495 c 0.2802,0.11462 0.38208,-0.0382 0.38208,-0.30567 v -0.59859 c 0,-0.26746 -0.19104,-0.39482 -0.38208,-0.58586 -0.19104,-0.19104 -0.3184,-0.43303 -0.38208,-0.70049 -0.0637,-0.26746 -0.12736,-0.36935 -0.40756,-0.36935 h -0.61133 c -0.28019,0 -0.42029,0.11463 -0.38208,0.38209 0.15283,0.98068 0.82784,1.80852 1.78305,2.17787 z m 2.26703,-4.66141 c -0.22925,-0.0892 -0.38209,0.0509 -0.38209,0.3184 v 0.58586 c 0,0.26746 0.16557,0.40756 0.38209,0.57313 0.26745,0.21651 0.43302,0.48397 0.43302,0.87879 0,0.35661 -0.16557,0.68775 -0.43302,0.917 -0.25473,0.21651 -0.38209,0.33113 -0.38209,0.59859 v 0.53492 c 0,0.26746 0.11463,0.39482 0.38209,0.29293 1.06983,-0.40756 1.80852,-1.27361 1.80852,-2.34344 0,-1.33729 -0.81511,-1.94863 -1.80852,-2.35618 z m -2.26703,0.58586 c 0.22925,0.0892 0.38208,-0.0509 0.38208,-0.3184 v -0.58586 c 0,-0.26746 -0.16557,-0.40756 -0.38208,-0.57313 -0.28019,-0.21651 -0.4585,-0.50944 -0.4585,-0.90426 0,-0.35661 0.17831,-0.64954 0.4585,-0.87879 0.19104,-0.15283 0.38208,-0.22925 0.38208,-0.49671 v -0.58586 c 0,-0.26746 -0.10188,-0.36934 -0.38208,-0.30566 -1.13351,0.34387 -1.834,1.22266 -1.834,2.26702 0,1.35003 0.81511,1.96136 1.834,2.38165 z"
         style="font-style:normal;font-variant:normal;font-weight:normal;font-stretch:normal;font-family:'American Stencil';-inkscape-font-specification:'American Stencil';text-align:center;text-anchor:middle;fill:none;stroke:#000000;stroke-width:0.1;stroke-miterlimit:4;stroke-dasharray:none;stroke-opacity:1"
         id="path950"
         inkscape:connector-curvature="0" />
      <path
         d="m 116.63076,109.60349 c 0,0.26745 0.11463,0.38208 0.38208,0.38208 h 0.58586 c 0.26746,0 0.38209,-0.11463 0.38209,-0.38208 v -2.99298 c 0,-0.26746 0.11462,-0.38209 0.38208,-0.38209 h 0.4585 c 0.26746,0 0.38208,-0.11462 0.38208,-0.38208 v -0.4585 c 0,-0.26746 -0.11462,-0.38208 -0.38208,-0.38208 h -0.4585 c -0.26746,0 -0.38208,-0.11463 -0.38208,-0.38209 v -3.04392 c 0,-0.26746 -0.11463,-0.38208 -0.38209,-0.38208 h -0.58586 c -0.26745,0 -0.38208,0.11462 -0.38208,0.38208 z m 2.85289,0 c 0,0.26745 0.11462,0.38208 0.38208,0.38208 h 2.11419 c 0.26746,0 0.38208,-0.11463 0.38208,-0.38208 v -0.4585 c 0,-0.26746 -0.11462,-0.38209 -0.38208,-0.38209 h -2.11419 c -0.26746,0 -0.38208,0.11463 -0.38208,0.38209 z m 0,-7.56524 c 0,0.26746 0.11462,0.38208 0.38208,0.38208 h 2.11419 c 0.26746,0 0.38208,-0.11462 0.38208,-0.38208 v -0.4585 c 0,-0.26746 -0.11462,-0.38208 -0.38208,-0.38208 h -2.11419 c -0.26746,0 -0.38208,0.11462 -0.38208,0.38208 z"
         style="font-style:normal;font-variant:normal;font-weight:normal;font-stretch:normal;font-family:'American Stencil';-inkscape-font-specification:'American Stencil';text-align:center;text-anchor:middle;fill:none;stroke:#000000;stroke-width:0.1;stroke-miterlimit:4;stroke-dasharray:none;stroke-opacity:1"
         id="path952"
         inkscape:connector-curvature="0" />
      <path
         d="m 136.62642,103.78309 c 0,-1.10804 -0.64954,-2.06324 -1.59201,-2.49627 -0.19104,-0.0892 -0.39482,0.0637 -0.39482,0.33114 v 0.61133 c 0,0.26746 0.15283,0.39482 0.29293,0.56039 0.21651,0.26746 0.34387,0.61133 0.34387,0.99341 v 3.61705 c 0,0.38209 -0.12736,0.72596 -0.34387,0.99342 -0.1401,0.16557 -0.29293,0.29293 -0.29293,0.56039 v 0.61133 c 0,0.26746 0.20378,0.42029 0.39482,0.33114 0.94247,-0.43303 1.59201,-1.38824 1.59201,-2.49628 z m -5.47652,3.61705 c 0,1.10804 0.64954,2.06325 1.59201,2.49628 0.19104,0.0891 0.39482,-0.0637 0.39482,-0.33114 v -0.61133 c 0,-0.26746 -0.15283,-0.39482 -0.29293,-0.56039 -0.21651,-0.26746 -0.34387,-0.61133 -0.34387,-0.99342 v -3.61705 c 0,-0.38208 0.12736,-0.72595 0.34387,-0.99341 0.1401,-0.16557 0.29293,-0.29293 0.29293,-0.56039 v -0.61133 c 0,-0.26746 -0.20378,-0.42029 -0.39482,-0.33114 -0.94247,0.43303 -1.59201,1.38823 -1.59201,2.49627 z"
         style="font-style:normal;font-variant:normal;font-weight:normal;font-stretch:normal;font-family:'American Stencil';-inkscape-font-specification:'American Stencil';text-align:center;text-anchor:middle;fill:none;stroke:#000000;stroke-width:0.1;stroke-miterlimit:4;stroke-dasharray:none;stroke-opacity:1"
         id="path954"
         inkscape:connector-curvature="0" />
      <path
         d="m 138.40947,109.60349 c 0,0.26745 0.11463,0.38208 0.38208,0.38208 h 0.58586 c 0.26746,0 0.38209,-0.11463 0.38209,-0.38208 v -2.99298 c 0,-0.26746 0.11462,-0.38209 0.38208,-0.38209 h 0.4585 c 0.26746,0 0.38208,-0.11462 0.38208,-0.38208 v -0.4585 c 0,-0.26746 -0.11462,-0.38208 -0.38208,-0.38208 h -0.4585 c -0.26746,0 -0.38208,-0.11463 -0.38208,-0.38209 v -3.04392 c 0,-0.26746 -0.11463,-0.38208 -0.38209,-0.38208 h -0.58586 c -0.26745,0 -0.38208,0.11462 -0.38208,0.38208 z m 2.85289,-7.56524 c 0,0.26746 0.11462,0.38208 0.38208,0.38208 h 2.11419 c 0.26746,0 0.38208,-0.11462 0.38208,-0.38208 v -0.4585 c 0,-0.26746 -0.11462,-0.38208 -0.38208,-0.38208 h -2.11419 c -0.26746,0 -0.38208,0.11462 -0.38208,0.38208 z"
         style="font-style:normal;font-variant:normal;font-weight:normal;font-stretch:normal;font-family:'American Stencil';-inkscape-font-specification:'American Stencil';text-align:center;text-anchor:middle;fill:none;stroke:#000000;stroke-width:0.1;stroke-miterlimit:4;stroke-dasharray:none;stroke-opacity:1"
         id="path956"
         inkscape:connector-curvature="0" />
    </g>
    <path
       inkscape:connector-curvature="0"
       id="path959"
       style="font-style:normal;font-variant:normal;font-weight:normal;font-stretch:normal;font-size:17.92903519px;line-height:1.25;font-family:'Kenyan Coffee Stencil';-inkscape-font-specification:'Kenyan Coffee Stencil';letter-spacing:0px;word-spacing:0px;fill:none;fill-opacity:1;stroke:#000000;stroke-width:0.1;stroke-miterlimit:4;stroke-dasharray:none;stroke-opacity:1"
       d="m 93.251777,131.65894 -1.757045,-6.25724 1.506039,-4.48226 h -2.276987 l -0.519943,1.88255 v 5.84487 l 0.699233,3.01208 z m -3.675452,-10.7395 h -2.169413 v 10.7395 h 2.169413 z" />
    <path
       inkscape:connector-curvature="0"
       id="path961"
       style="font-style:normal;font-variant:normal;font-weight:normal;font-stretch:normal;font-size:17.92903519px;line-height:1.25;font-family:'Kenyan Coffee Stencil';-inkscape-font-specification:'Kenyan Coffee Stencil';letter-spacing:0px;word-spacing:0px;fill:none;fill-opacity:1;stroke:#000000;stroke-width:0.1;stroke-miterlimit:4;stroke-dasharray:none;stroke-opacity:1"
       d="m 95.851454,123.26815 c 0,-0.37651 0.03586,-0.5558 0.251006,-0.62752 v -1.90048 c -1.828761,0.0359 -2.241129,0.35858 -2.241129,2.27699 v 1.27296 h 1.990123 z m 0,4.42847 c 0,-0.59166 0.01793,-0.78888 0.484084,-0.80681 v -1.57775 c -0.107574,-0.0179 -0.215149,-0.0179 -0.358581,-0.0179 H 95.54666 c -1.237103,0 -1.685329,0.57373 -1.685329,1.86462 v 2.59971 c 0,1.81083 0.394439,2.04391 2.241129,2.07977 v -1.84669 c -0.251006,-0.0717 -0.251006,-0.26894 -0.251006,-0.80681 z m 1.1116,2.29492 c -0.05379,0.0179 -0.125503,0.0179 -0.233077,0.0359 v 1.81084 c 1.039884,-0.0179 2.008052,-0.0717 2.366632,-0.17929 v -8.6418 c 0,-1.88255 -0.430297,-2.24113 -2.366632,-2.27699 v 1.91841 c 0.17929,0.0717 0.233077,0.25101 0.233077,0.60959 z" />
    <path
       inkscape:connector-curvature="0"
       id="path963"
       style="font-style:normal;font-variant:normal;font-weight:normal;font-stretch:normal;font-size:17.92903519px;line-height:1.25;font-family:'Kenyan Coffee Stencil';-inkscape-font-specification:'Kenyan Coffee Stencil';letter-spacing:0px;word-spacing:0px;fill:none;fill-opacity:1;stroke:#000000;stroke-width:0.1;stroke-miterlimit:4;stroke-dasharray:none;stroke-opacity:1"
       d="m 105.89169,123.01714 c 0,-1.64947 -0.28686,-2.18734 -1.68532,-2.18734 -0.39444,0 -0.66338,0.0359 -0.87853,0.1255 v 1.84669 c 0.39444,0.0179 0.48409,0.19722 0.48409,0.64545 v 5.70143 c 0,0.46616 -0.0897,0.64545 -0.48409,0.64545 v 1.82876 c 0.25101,0.0896 0.5558,0.1255 0.91438,0.1255 1.36261,0 1.64947,-0.53787 1.64947,-2.18734 z m -3.19136,-2.0977 h -2.18735 v 13.48264 h 2.18735 z" />
    <path
       inkscape:connector-curvature="0"
       id="path965"
       style="font-style:normal;font-variant:normal;font-weight:normal;font-stretch:normal;font-size:17.92903519px;line-height:1.25;font-family:'Kenyan Coffee Stencil';-inkscape-font-specification:'Kenyan Coffee Stencil';letter-spacing:0px;word-spacing:0px;fill:none;fill-opacity:1;stroke:#000000;stroke-width:0.1;stroke-miterlimit:4;stroke-dasharray:none;stroke-opacity:1"
       d="m 109.10098,123.26815 c 0,-0.37651 0.0359,-0.5558 0.25101,-0.62752 v -1.90048 c -1.82876,0.0359 -2.24113,0.35858 -2.24113,2.27699 v 1.27296 h 1.99012 z m 0,4.42847 c 0,-0.59166 0.0179,-0.78888 0.48409,-0.80681 v -1.57775 c -0.10758,-0.0179 -0.21515,-0.0179 -0.35858,-0.0179 h -0.4303 c -1.2371,0 -1.68533,0.57373 -1.68533,1.86462 v 2.59971 c 0,1.81083 0.39444,2.04391 2.24113,2.07977 v -1.84669 c -0.25101,-0.0717 -0.25101,-0.26894 -0.25101,-0.80681 z m 1.1116,2.29492 c -0.0538,0.0179 -0.1255,0.0179 -0.23307,0.0359 v 1.81084 c 1.03988,-0.0179 2.00805,-0.0717 2.36663,-0.17929 v -8.6418 c 0,-1.88255 -0.4303,-2.24113 -2.36663,-2.27699 v 1.91841 c 0.17929,0.0717 0.23307,0.25101 0.23307,0.60959 z" />
    <path
       inkscape:connector-curvature="0"
       id="path967"
       style="font-style:normal;font-variant:normal;font-weight:normal;font-stretch:normal;font-size:17.92903519px;line-height:1.25;font-family:'Kenyan Coffee Stencil';-inkscape-font-specification:'Kenyan Coffee Stencil';letter-spacing:0px;word-spacing:0px;fill:none;fill-opacity:1;stroke:#000000;stroke-width:0.1;stroke-miterlimit:4;stroke-dasharray:none;stroke-opacity:1"
       d="m 115.914,120.91944 h -2.15149 v 10.7395 h 2.15149 z m 3.37066,0 h -2.15149 v 4.14161 h -0.59166 v 1.91841 h 0.59166 v 4.67948 h 2.15149 z" />
    <path
       inkscape:connector-curvature="0"
       id="path971"
       style="font-style:normal;font-variant:normal;font-weight:normal;font-stretch:normal;font-size:17.92903519px;line-height:1.25;font-family:'Kenyan Coffee Stencil';-inkscape-font-specification:'Kenyan Coffee Stencil';letter-spacing:0px;word-spacing:0px;fill:none;fill-opacity:1;stroke:#000000;stroke-width:0.1;stroke-miterlimit:4;stroke-dasharray:none;stroke-opacity:1"
       d="m 134.38089,129.83017 h -6.52617 v 1.82877 h 4.71534 v 1.97219 h 1.81083 z m -3.15551,-0.62751 h 2.15149 v -8.28322 h -2.15149 z m -3.37066,0 h 2.15149 v -8.28322 h -2.15149 z" />
    <path
       inkscape:connector-curvature="0"
       id="path973"
       style="font-style:normal;font-variant:normal;font-weight:normal;font-stretch:normal;font-size:17.92903519px;line-height:1.25;font-family:'Kenyan Coffee Stencil';-inkscape-font-specification:'Kenyan Coffee Stencil';letter-spacing:0px;word-spacing:0px;fill:none;fill-opacity:1;stroke:#000000;stroke-width:0.1;stroke-miterlimit:4;stroke-dasharray:none;stroke-opacity:1"
       d="m 137.17782,123.26815 c 0,-0.37651 0.0359,-0.5558 0.251,-0.62752 v -1.90048 c -1.82876,0.0359 -2.24113,0.35858 -2.24113,2.27699 v 1.27296 h 1.99013 z m 0,4.42847 c 0,-0.59166 0.0179,-0.78888 0.48408,-0.80681 v -1.57775 c -0.10757,-0.0179 -0.21515,-0.0179 -0.35858,-0.0179 h -0.4303 c -1.2371,0 -1.68533,0.57373 -1.68533,1.86462 v 2.59971 c 0,1.81083 0.39444,2.04391 2.24113,2.07977 v -1.84669 c -0.251,-0.0717 -0.251,-0.26894 -0.251,-0.80681 z m 1.1116,2.29492 c -0.0538,0.0179 -0.12551,0.0179 -0.23308,0.0359 v 1.81084 c 1.03988,-0.0179 2.00805,-0.0717 2.36663,-0.17929 v -8.6418 c 0,-1.88255 -0.4303,-2.24113 -2.36663,-2.27699 v 1.91841 c 0.17929,0.0717 0.23308,0.25101 0.23308,0.60959 z" />
    <path
       style="opacity:1;fill:none;fill-opacity:1;stroke:#000000;stroke-width:0.1;stroke-linecap:round;stroke-linejoin:miter;stroke-miterlimit:4;stroke-dasharray:none;stroke-dashoffset:0;stroke-opacity:1"
       d="M 69.788654,151.52694 H 40.08865 V 67.658363 h 29.700004"
       id="rect880-0-6"
       inkscape:connector-curvature="0"
       sodipodi:nodetypes="cccc" />
    <g
       id="g857-1-4-2"
       transform="matrix(-1,0,0,1,115.83387,8.4162294)"
       style="stroke-width:0.1;stroke-miterlimit:4;stroke-dasharray:none">
      <path
         style="opacity:1;fill:none;fill-opacity:1;stroke:#000000;stroke-width:0.1;stroke-linecap:round;stroke-linejoin:miter;stroke-miterlimit:4;stroke-dasharray:none;stroke-dashoffset:0;stroke-opacity:1"
         d="m 52.217784,63.606888 a 1.2695302,1.2695302 0 0 1 -1.26953,1.26953 1.2695302,1.2695302 0 0 1 -1.269531,-1.26953 1.2695302,1.2695302 0 0 1 1.269531,-1.26953 1.2695302,1.2695302 0 0 1 1.26953,1.26953 z"
         id="path834-32-2-5"
         inkscape:connector-curvature="0" />
      <path
         style="opacity:1;fill:none;fill-opacity:1;stroke:#000000;stroke-width:0.1;stroke-linecap:round;stroke-linejoin:miter;stroke-miterlimit:4;stroke-dasharray:none;stroke-dashoffset:0;stroke-opacity:1"
         d="m 52.217784,80.07737 a 1.2695302,1.2695302 0 0 1 -1.26953,1.26953 1.2695302,1.2695302 0 0 1 -1.269531,-1.26953 1.2695302,1.2695302 0 0 1 1.269531,-1.26953 1.2695302,1.2695302 0 0 1 1.26953,1.26953 z"
         id="path834-6-1-2-4"
         inkscape:connector-curvature="0" />
    </g>
    <g
       id="g857-5-9-2-4"
       transform="matrix(-1,0,0,1,115.83387,67.095207)"
       style="stroke-width:0.1;stroke-miterlimit:4;stroke-dasharray:none">
      <path
         style="opacity:1;fill:none;fill-opacity:1;stroke:#000000;stroke-width:0.1;stroke-linecap:round;stroke-linejoin:miter;stroke-miterlimit:4;stroke-dasharray:none;stroke-dashoffset:0;stroke-opacity:1"
         d="m 52.217784,63.606888 a 1.2695302,1.2695302 0 0 1 -1.26953,1.26953 1.2695302,1.2695302 0 0 1 -1.269531,-1.26953 1.2695302,1.2695302 0 0 1 1.269531,-1.26953 1.2695302,1.2695302 0 0 1 1.26953,1.26953 z"
         id="path834-3-9-0-9"
         inkscape:connector-curvature="0" />
      <path
         style="opacity:1;fill:none;fill-opacity:1;stroke:#000000;stroke-width:0.1;stroke-linecap:round;stroke-linejoin:miter;stroke-miterlimit:4;stroke-dasharray:none;stroke-dashoffset:0;stroke-opacity:1"
         d="m 52.217784,80.07737 a 1.2695302,1.2695302 0 0 1 -1.26953,1.26953 1.2695302,1.2695302 0 0 1 -1.269531,-1.26953 1.2695302,1.2695302 0 0 1 1.269531,-1.26953 1.2695302,1.2695302 0 0 1 1.26953,1.26953 z"
         id="path834-6-5-1-5-9"
         inkscape:connector-curvature="0" />
    </g>
    <path
       style="opacity:1;fill:none;fill-opacity:1;stroke:#000000;stroke-width:0.1;stroke-linecap:round;stroke-linejoin:miter;stroke-miterlimit:4;stroke-dasharray:none;stroke-dashoffset:0;stroke-opacity:1"
       d="m 149.48862,67.658363 h 29.7 v 83.868587 h -29.7"
       id="rect880-0-6-3"
       inkscape:connector-curvature="0"
       sodipodi:nodetypes="cccc" />
    <path
       style="opacity:1;fill:none;fill-opacity:1;stroke:#000000;stroke-width:0.10000002;stroke-linecap:round;stroke-linejoin:miter;stroke-miterlimit:4;stroke-dasharray:none;stroke-dashoffset:0;stroke-opacity:1"
       d="m -69.788628,-226.03735 h 29.700005 v 74.5"
       id="rect880-0-6-6"
       inkscape:connector-curvature="0"
       sodipodi:nodetypes="ccc"
       transform="scale(-1)" />
    <path
       style="opacity:1;fill:none;fill-opacity:1;stroke:#000000;stroke-width:0.10000002;stroke-linecap:round;stroke-linejoin:miter;stroke-miterlimit:4;stroke-dasharray:none;stroke-dashoffset:0;stroke-opacity:1"
       d="m -179.18863,-151.52695 v -74.5 h 29.70001"
       id="rect880-0-6-6-7"
       inkscape:connector-curvature="0"
       sodipodi:nodetypes="ccc"
       transform="scale(-1)" />
    <path
       style="opacity:1;fill:none;fill-opacity:1;stroke:#000000;stroke-width:0.1;stroke-linecap:round;stroke-linejoin:miter;stroke-miterlimit:4;stroke-dasharray:none;stroke-dashoffset:0;stroke-opacity:1"
       d="m 149.48861,151.53735 v 83.879 H 69.788612 v -83.879"
       id="rect815-4-5-5"
       inkscape:connector-curvature="0"
       sodipodi:nodetypes="cccc" />
    <path
       style="opacity:1;fill:none;fill-opacity:1;stroke:#000000;stroke-width:0.1;stroke-linecap:round;stroke-linejoin:miter;stroke-miterlimit:4;stroke-dasharray:none;stroke-dashoffset:0;stroke-opacity:1"
       d="m 88.592971,167.25451 a 3.6852679,3.6852679 0 0 1 -3.68527,3.68526 3.6852679,3.6852679 0 0 1 -3.685265,-3.68526 3.6852679,3.6852679 0 0 1 3.685265,-3.68527 3.6852679,3.6852679 0 0 1 3.68527,3.68527 z"
       id="path985"
       inkscape:connector-curvature="0" />
    <path
       style="opacity:1;fill:none;fill-opacity:1;stroke:#000000;stroke-width:0.1;stroke-linecap:round;stroke-linejoin:miter;stroke-miterlimit:4;stroke-dasharray:none;stroke-dashoffset:0;stroke-opacity:1"
       d="m 138.05478,167.25451 a 3.685268,3.685268 0 0 1 -3.68527,3.68526 3.685268,3.685268 0 0 1 -3.68527,-3.68526 3.685268,3.685268 0 0 1 3.68527,-3.68527 3.685268,3.685268 0 0 1 3.68527,3.68527 z"
       id="path985-3"
       inkscape:connector-curvature="0" />
    <path
       style="opacity:1;fill:none;fill-opacity:1;stroke:#000000;stroke-width:0.1;stroke-linecap:round;stroke-linejoin:miter;stroke-miterlimit:4;stroke-dasharray:none;stroke-dashoffset:0;stroke-opacity:1"
       d="m 138.05478,219.69849 a 3.685268,3.685268 0 0 1 -3.68527,3.68526 3.685268,3.685268 0 0 1 -3.68527,-3.68526 3.685268,3.685268 0 0 1 3.68527,-3.68527 3.685268,3.685268 0 0 1 3.68527,3.68527 z"
       id="path985-3-6"
       inkscape:connector-curvature="0" />
    <path
       style="opacity:1;fill:none;fill-opacity:1;stroke:#000000;stroke-width:0.1;stroke-linecap:round;stroke-linejoin:miter;stroke-miterlimit:4;stroke-dasharray:none;stroke-dashoffset:0;stroke-opacity:1"
       d="m 88.592976,219.69849 a 3.685268,3.685268 0 0 1 -3.68527,3.68526 3.685268,3.685268 0 0 1 -3.68527,-3.68526 3.685268,3.685268 0 0 1 3.68527,-3.68527 3.685268,3.685268 0 0 1 3.68527,3.68527 z"
       id="path985-3-2"
       inkscape:connector-curvature="0" />
    <path
       style="fill:none;stroke:#000000;stroke-width:0.065;stroke-linecap:butt;stroke-linejoin:miter;stroke-miterlimit:4;stroke-dasharray:none;stroke-opacity:1"
       d="m 120.80862,120.91944 v 10.7395 h 2.18734 l 1.31778,-5.77826 0.0807,5.77826 h 1.93633 v -10.7395 h -2.13355 l -1.42027,6.13055 -0.032,-6.13055 z"
       id="path858"
       inkscape:connector-curvature="0" />
  </g>
</svg>
