<?xml version="1.0" encoding="UTF-8" standalone="no"?>
<!-- Created with Inkscape (http://www.inkscape.org/) -->

<svg
   xmlns:dc="http://purl.org/dc/elements/1.1/"
   xmlns:cc="http://creativecommons.org/ns#"
   xmlns:rdf="http://www.w3.org/1999/02/22-rdf-syntax-ns#"
   xmlns:svg="http://www.w3.org/2000/svg"
   xmlns="http://www.w3.org/2000/svg"
   xmlns:sodipodi="http://sodipodi.sourceforge.net/DTD/sodipodi-0.dtd"
   xmlns:inkscape="http://www.inkscape.org/namespaces/inkscape"
   width="624.40411mm"
   height="517.98846mm"
   viewBox="0 0 624.40411 517.98846"
   version="1.1"
   id="svg8"
   inkscape:version="0.92.5 (2060ec1f9f, 2020-04-08)"
   sodipodi:docname="6mm-record-stand.svg">
  <defs
     id="defs2" />
  <sodipodi:namedview
     id="base"
     pagecolor="#ffffff"
     bordercolor="#666666"
     borderopacity="1.0"
     inkscape:pageopacity="0.0"
     inkscape:pageshadow="2"
     inkscape:zoom="0.5"
     inkscape:cx="1442.3771"
     inkscape:cy="1070.0947"
     inkscape:document-units="mm"
     inkscape:current-layer="layer2"
     showgrid="false"
     inkscape:window-width="2560"
     inkscape:window-height="1376"
     inkscape:window-x="0"
     inkscape:window-y="27"
     inkscape:window-maximized="1"
     fit-margin-top="0"
     fit-margin-left="0"
     fit-margin-right="0"
     fit-margin-bottom="0" />
  <metadata
     id="metadata5">
    <rdf:RDF>
      <cc:Work
         rdf:about="">
        <dc:format>image/svg+xml</dc:format>
        <dc:type
           rdf:resource="http://purl.org/dc/dcmitype/StillImage" />
        <dc:title />
      </cc:Work>
    </rdf:RDF>
  </metadata>
  <g
     inkscape:groupmode="layer"
     id="layer2"
     inkscape:label="cut"
     transform="translate(314.49126,115.02988)">
    <path
       style="fill:none;stroke:#000000;stroke-width:0.1;stroke-linecap:butt;stroke-linejoin:miter;stroke-miterlimit:4;stroke-dasharray:none;stroke-opacity:1"
       d="m -314.39125,225.69364 19.86566,3e-5 v -19.79999 h 5.99999 v 19.79999 h 70.59937 v -19.79999 h 6 v 19.79999 h 70.59931 v -19.79999 h 6 v 19.79999 l 19.63566,-3e-5"
       id="path1204"
       inkscape:connector-curvature="0"
       sodipodi:nodetypes="cccccccccccccc" />
    <path
       style="display:inline;opacity:1;fill:none;fill-opacity:1;stroke:#000000;stroke-width:0.1;stroke-linecap:round;stroke-linejoin:miter;stroke-miterlimit:4;stroke-dasharray:none;stroke-dashoffset:0;stroke-opacity:1"
       d="M -314.39125,225.69364 V 108.62013 c 0,-55.039902 44.3101,-99.3500016 99.34999,-99.3500016 55.0399,0 99.35,44.3100996 99.35,99.3500016"
       id="rect817-3-9-0"
       inkscape:connector-curvature="0"
       sodipodi:nodetypes="ccsc" />
    <path
       style="display:inline;opacity:1;fill:none;fill-opacity:1;stroke:#000000;stroke-width:0.1;stroke-linecap:round;stroke-linejoin:miter;stroke-miterlimit:4;stroke-dasharray:none;stroke-dashoffset:0;stroke-opacity:1"
       d="M 96.683468,225.72121 V 56.26287 c 0,-55.03991 44.310092,-99.35001 99.349982,-99.35001 55.0399,0 99.35,44.3101 99.35,99.35001 v 169.45834"
       id="rect817-3-3"
       inkscape:connector-curvature="0"
       sodipodi:nodetypes="ccscc" />
    <path
       style="opacity:1;fill:none;fill-opacity:1;stroke:#000000;stroke-width:0.1;stroke-linecap:round;stroke-linejoin:miter;stroke-miterlimit:4;stroke-dasharray:none;stroke-dashoffset:0;stroke-opacity:1"
       d="m -284.41155,108.43886 c 10e-6,-38.312172 31.05816,-69.370322 69.37032,-69.370322 38.31217,0 69.37032,31.05815 69.37032,69.370322"
       id="path1272-0"
       inkscape:connector-curvature="0"
       sodipodi:nodetypes="csc" />
    <path
       style="opacity:1;fill:none;fill-opacity:1;stroke:#000000;stroke-width:0.1;stroke-linecap:round;stroke-linejoin:miter;stroke-miterlimit:4;stroke-dasharray:none;stroke-dashoffset:0;stroke-opacity:1"
       d="m -240.77725,108.43888 c 0,-14.213612 11.52241,-25.736022 25.73602,-25.736022 14.21361,0 25.73601,11.52241 25.73601,25.736022"
       id="path1272-6"
       inkscape:connector-curvature="0"
       sodipodi:nodetypes="csc" />
    <path
       style="opacity:1;fill:none;fill-opacity:1;stroke:#000000;stroke-width:0.1;stroke-linecap:round;stroke-linejoin:miter;stroke-miterlimit:4;stroke-dasharray:none;stroke-dashoffset:0;stroke-opacity:1"
       d="m -240.77725,108.43888 c 0,12.0867 -9.73045,21.81714 -21.81714,21.81714 -12.0867,0 -21.81714,-9.73044 -21.81714,-21.81714"
       id="rect1299"
       inkscape:connector-curvature="0"
       sodipodi:nodetypes="csc" />
    <path
       style="opacity:1;fill:none;fill-opacity:1;stroke:#000000;stroke-width:0.1;stroke-linecap:round;stroke-linejoin:miter;stroke-miterlimit:4;stroke-dasharray:none;stroke-dashoffset:0;stroke-opacity:1"
       d="m -145.67091,108.43886 c 0,12.0867 -9.73045,21.81714 -21.81714,21.81714 -12.0867,0 -21.81714,-9.73044 -21.81714,-21.81714"
       id="rect1299-3"
       inkscape:connector-curvature="0"
       sodipodi:nodetypes="csc" />
    <path
       style="opacity:1;fill:none;fill-opacity:1;stroke:#000000;stroke-width:0.1;stroke-linecap:round;stroke-linejoin:miter;stroke-miterlimit:4;stroke-dasharray:none;stroke-dashoffset:0;stroke-opacity:1"
       d="m -211.20477,108.43888 a 3.8364582,3.8364582 0 0 1 -3.83646,3.83646 3.8364582,3.8364582 0 0 1 -3.83646,-3.83646 3.8364582,3.8364582 0 0 1 3.83646,-3.83645 3.8364582,3.8364582 0 0 1 3.83646,3.83645 z"
       id="path1319"
       inkscape:connector-curvature="0" />
    <path
       style="fill:none;stroke:#000000;stroke-width:0.1;stroke-linecap:butt;stroke-linejoin:miter;stroke-miterlimit:4;stroke-dasharray:none;stroke-opacity:1"
       d="M -115.69126,225.69364 V 10.139227 c 0.067,-5.3803904 0.77908,-6.3647204 6.92978,-6.3949504 l 38.42481,193.7154934 5.889232,-1.14758 -5.803092,-29.22222 6.86687,-1.36809 0.27057,1.38195 6.86687,-1.36808 0.27057,1.38194 6.86687,-1.36808 0.27057,1.38197 6.86687,-1.36808 0.27057,1.38195 6.86687,-1.36808 0.27057,1.38194 6.86687,-1.36808 0.27057,1.38195 6.86687,-1.36808 0.27057,1.38197 6.86686,-1.36808 0.27058,1.38194 6.86686,-1.36808 0.27058,1.38195 6.86686,-1.36809 0.27058,1.38195 6.86688,-1.36808 0.27057,1.38194 6.866868,-1.36808 0.27057,1.38197 6.86686,-1.36808 0.27058,1.38195 6.86686,-1.36808 0.27058,1.38194 6.854458,-1.37325 -5.94147,30.36861 5.883932,1.18084 16.78302,-84.62084 c 4.68812,0.0845 6.8347,1.91598 6.91739,7.14904 v 105.73267 z"
       id="path1202-2-7"
       inkscape:connector-curvature="0"
       sodipodi:nodetypes="ccccccccccccccccccccccccccccccccccccccccc" />
    <path
       style="fill:none;stroke:#000000;stroke-width:0.1;stroke-linecap:butt;stroke-linejoin:miter;stroke-miterlimit:4;stroke-dasharray:none;stroke-opacity:1"
       d="m 96.683468,225.72121 19.865652,3e-5 v -19.79999 h 5.99999 v 19.79999 h 70.59937 v -19.79999 h 6 v 19.79999 h 70.59931 v -19.79999 h 6 v 19.79999 l 19.63566,-3e-5"
       id="path1204-36"
       inkscape:connector-curvature="0"
       sodipodi:nodetypes="cccccccccccccc" />
  </g>
</svg>
