<?xml version="1.0" encoding="UTF-8" standalone="no"?>
<!-- Created with Inkscape (http://www.inkscape.org/) -->

<svg
   xmlns:dc="http://purl.org/dc/elements/1.1/"
   xmlns:cc="http://creativecommons.org/ns#"
   xmlns:rdf="http://www.w3.org/1999/02/22-rdf-syntax-ns#"
   xmlns:svg="http://www.w3.org/2000/svg"
   xmlns="http://www.w3.org/2000/svg"
   xmlns:sodipodi="http://sodipodi.sourceforge.net/DTD/sodipodi-0.dtd"
   xmlns:inkscape="http://www.inkscape.org/namespaces/inkscape"
   width="300mm"
   height="300mm"
   viewBox="0 0 300 300"
   version="1.1"
   id="svg1482"
   inkscape:version="0.92.5 (2060ec1f9f, 2020-04-08)"
   sodipodi:docname="6mm-shelf-bot.svg">
  <defs
     id="defs1476" />
  <sodipodi:namedview
     id="base"
     pagecolor="#ffffff"
     bordercolor="#666666"
     borderopacity="1.0"
     inkscape:pageopacity="0.0"
     inkscape:pageshadow="2"
     inkscape:zoom="0.49497475"
     inkscape:cx="19.140172"
     inkscape:cy="586.14958"
     inkscape:document-units="mm"
     inkscape:current-layer="layer1"
     showgrid="false"
     fit-margin-top="0"
     fit-margin-left="0"
     fit-margin-right="0"
     fit-margin-bottom="0"
     inkscape:window-width="1920"
     inkscape:window-height="1016"
     inkscape:window-x="0"
     inkscape:window-y="27"
     inkscape:window-maximized="1" />
  <metadata
     id="metadata1479">
    <rdf:RDF>
      <cc:Work
         rdf:about="">
        <dc:format>image/svg+xml</dc:format>
        <dc:type
           rdf:resource="http://purl.org/dc/dcmitype/StillImage" />
        <dc:title />
      </cc:Work>
    </rdf:RDF>
  </metadata>
  <g
     inkscape:label="Layer 1"
     inkscape:groupmode="layer"
     id="layer1"
     transform="translate(-51.839286,70.714286)">
    <path
       style="display:inline;opacity:1;fill:none;fill-opacity:1;stroke:#000000;stroke-width:0.10000001;stroke-linecap:round;stroke-linejoin:miter;stroke-miterlimit:4;stroke-dasharray:none;stroke-dashoffset:0;stroke-opacity:1"
       d="m 342.68129,-38.537212 a 1.95,1.95 0 0 1 -1.95,1.95 1.95,1.95 0 0 1 -1.95,-1.95 1.95,1.95 0 0 1 1.95,-1.95 1.95,1.95 0 0 1 1.95,1.95 z"
       id="path863-56-8" />
    <path
       style="display:inline;opacity:1;fill:none;fill-opacity:1;stroke:#000000;stroke-width:0.10000001;stroke-linecap:round;stroke-linejoin:miter;stroke-miterlimit:4;stroke-dasharray:none;stroke-dashoffset:0;stroke-opacity:1"
       d="m 345.61031,-48.464405 a 1.95,1.95 0 0 1 -1.95,1.95 1.95,1.95 0 0 1 -1.95,-1.95 1.95,1.95 0 0 1 1.95,-1.95 1.95,1.95 0 0 1 1.95,1.95 z"
       id="path863-5-7-9" />
    <path
       style="display:inline;opacity:1;fill:none;fill-opacity:1;stroke:#000000;stroke-width:0.10000001;stroke-linecap:round;stroke-linejoin:miter;stroke-miterlimit:4;stroke-dasharray:none;stroke-dashoffset:0;stroke-opacity:1"
       d="m 62.681319,-38.537212 a 1.95,1.95 0 0 1 -1.95,1.95 1.95,1.95 0 0 1 -1.95,-1.95 1.95,1.95 0 0 1 1.95,-1.95 1.95,1.95 0 0 1 1.95,1.95 z"
       id="path863-56-9-7" />
    <path
       style="display:inline;opacity:1;fill:none;fill-opacity:1;stroke:#000000;stroke-width:0.10000001;stroke-linecap:round;stroke-linejoin:miter;stroke-miterlimit:4;stroke-dasharray:none;stroke-dashoffset:0;stroke-opacity:1"
       d="m 65.610336,-48.464405 a 1.95,1.95 0 0 1 -1.95,1.95 1.95,1.95 0 0 1 -1.950001,-1.95 1.95,1.95 0 0 1 1.950001,-1.95 1.95,1.95 0 0 1 1.95,1.95 z"
       id="path863-5-7-3-3" />
    <path
       transform="scale(-1)"
       style="display:inline;opacity:1;fill:none;fill-opacity:1;stroke:#000000;stroke-width:0.10000001;stroke-linecap:round;stroke-linejoin:miter;stroke-miterlimit:4;stroke-dasharray:none;stroke-dashoffset:0;stroke-opacity:1"
       d="m -60.997872,-197.10872 a 1.95,1.95 0 0 1 -1.95,1.95 1.95,1.95 0 0 1 -1.95,-1.95 1.95,1.95 0 0 1 1.95,-1.95 1.95,1.95 0 0 1 1.95,1.95 z"
       id="path863-56-2-6" />
    <path
       transform="scale(-1)"
       style="display:inline;opacity:1;fill:none;fill-opacity:1;stroke:#000000;stroke-width:0.10000001;stroke-linecap:round;stroke-linejoin:miter;stroke-miterlimit:4;stroke-dasharray:none;stroke-dashoffset:0;stroke-opacity:1"
       d="m -58.068856,-207.03587 a 1.95,1.95 0 0 1 -1.95,1.95 1.95,1.95 0 0 1 -1.95,-1.95 1.95,1.95 0 0 1 1.95,-1.95 1.95,1.95 0 0 1 1.95,1.95 z"
       id="path863-5-7-6-1" />
    <path
       transform="scale(-1)"
       style="display:inline;opacity:1;fill:none;fill-opacity:1;stroke:#000000;stroke-width:0.10000001;stroke-linecap:round;stroke-linejoin:miter;stroke-miterlimit:4;stroke-dasharray:none;stroke-dashoffset:0;stroke-opacity:1"
       d="m -340.99742,-197.10872 a 1.95,1.95 0 0 1 -1.95,1.95 1.95,1.95 0 0 1 -1.95,-1.95 1.95,1.95 0 0 1 1.95,-1.95 1.95,1.95 0 0 1 1.95,1.95 z"
       id="path863-56-2-2-2" />
    <path
       transform="scale(-1)"
       style="display:inline;opacity:1;fill:none;fill-opacity:1;stroke:#000000;stroke-width:0.10000001;stroke-linecap:round;stroke-linejoin:miter;stroke-miterlimit:4;stroke-dasharray:none;stroke-dashoffset:0;stroke-opacity:1"
       d="m -338.0684,-207.03587 a 1.95,1.95 0 0 1 -1.95,1.95 1.95,1.95 0 0 1 -1.95,-1.95 1.95,1.95 0 0 1 1.95,-1.95 1.95,1.95 0 0 1 1.95,1.95 z"
       id="path863-5-7-6-3-9" />
    <path
       style="display:inline;fill:none;stroke:#000000;stroke-width:0.1;stroke-linecap:butt;stroke-linejoin:miter;stroke-miterlimit:4;stroke-dasharray:none;stroke-opacity:1"
       d="m 331.88929,215.33572 h 19.9 V -56.764279 h -19.9 V -70.664286 H 71.789286 v 13.900007 h -19.9 V 215.33572 h 19.9 v 13.89999 H 331.88212 Z"
       id="path1068"
       inkscape:connector-curvature="0" />
  </g>
</svg>
