<?xml version="1.0" encoding="UTF-8" standalone="no"?>
<!-- Created with Inkscape (http://www.inkscape.org/) -->

<svg
   xmlns:dc="http://purl.org/dc/elements/1.1/"
   xmlns:cc="http://creativecommons.org/ns#"
   xmlns:rdf="http://www.w3.org/1999/02/22-rdf-syntax-ns#"
   xmlns:svg="http://www.w3.org/2000/svg"
   xmlns="http://www.w3.org/2000/svg"
   xmlns:sodipodi="http://sodipodi.sourceforge.net/DTD/sodipodi-0.dtd"
   xmlns:inkscape="http://www.inkscape.org/namespaces/inkscape"
   width="275.33615mm"
   height="253.31693mm"
   viewBox="0 0 275.33615 253.31692"
   version="1.1"
   id="svg8"
   sodipodi:docname="record-holder-dispencer.svg"
   inkscape:version="0.92.5 (2060ec1f9f, 2020-04-08)">
  <defs
     id="defs2" />
  <sodipodi:namedview
     id="base"
     pagecolor="#ffffff"
     bordercolor="#666666"
     borderopacity="1.0"
     inkscape:pageopacity="0.0"
     inkscape:pageshadow="2"
     inkscape:zoom="0.96166522"
     inkscape:cx="769.21644"
     inkscape:cy="441.78102"
     inkscape:document-units="mm"
     inkscape:current-layer="layer1"
     showgrid="false"
     inkscape:window-width="2560"
     inkscape:window-height="1376"
     inkscape:window-x="0"
     inkscape:window-y="27"
     inkscape:window-maximized="1"
     fit-margin-top="0"
     fit-margin-left="0"
     fit-margin-right="0"
     fit-margin-bottom="0" />
  <metadata
     id="metadata5">
    <rdf:RDF>
      <cc:Work
         rdf:about="">
        <dc:format>image/svg+xml</dc:format>
        <dc:type
           rdf:resource="http://purl.org/dc/dcmitype/StillImage" />
        <dc:title></dc:title>
      </cc:Work>
    </rdf:RDF>
  </metadata>
  <g
     inkscape:label="Layer 1"
     inkscape:groupmode="layer"
     id="layer1"
     transform="translate(-147.97848,-44.949881)">
    <path
       sodipodi:nodetypes="cssssssc"
       inkscape:connector-curvature="0"
       style="opacity:1;fill:none;fill-opacity:1;stroke:#000000;stroke-width:0.1;stroke-linecap:butt;stroke-miterlimit:4;stroke-dasharray:none;stroke-dashoffset:0;stroke-opacity:1"
       d="m 237.92848,156.89988 c 0,1.662 -1.338,3 -3,3 h -83.9 c -1.662,0 -3,-1.338 -3,-3 V 47.999881 c 0,-1.662 1.338,-3 3,-3 h 83.9 c 1.662,0 3,1.338 3,3"
       id="rect815" />
    <circle
       style="opacity:1;fill:none;fill-opacity:1;stroke:#000000;stroke-width:0.1;stroke-linecap:butt;stroke-miterlimit:4;stroke-dasharray:none;stroke-dashoffset:0;stroke-opacity:1"
       id="path819-3"
       cx="89.999794"
       cy="-192.92879"
       r="0.94999999"
       transform="rotate(90)" />
    <path
       style="opacity:1;fill:none;fill-opacity:1;stroke:#000000;stroke-width:0.09999999;stroke-linecap:butt;stroke-miterlimit:4;stroke-dasharray:none;stroke-dashoffset:0;stroke-opacity:1"
       d="m 177.88133,193.04122 c 0,-1.66199 1.338,-3 3,-3 h 7.11521 c 1.35802,0 2.49972,0.89333 2.87193,2.12679 1.2505,4.84293 3.1366,9.43064 5.56271,13.66279 0.8578,1.46515 1.35013,3.17701 1.35013,5.00386 0,5.49524 -4.45477,9.94999 -9.95,9.94999 -5.49523,0 -9.95,-4.45475 -9.94999,-9.84361 z"
       id="rect888"
       inkscape:connector-curvature="0"
       sodipodi:nodetypes="sssccsscs" />
    <path
       style="opacity:1;fill:none;fill-opacity:1;stroke:#000000;stroke-width:0.09999999;stroke-linecap:butt;stroke-miterlimit:4;stroke-dasharray:none;stroke-dashoffset:0;stroke-opacity:1"
       d="m 237.92848,165.89949 c -4.61756,19.23167 -7.06329,39.30845 -7.06329,59.95647 0,20.6447 2.44494,40.71835 7.06106,59.94719 l 80.77785,0.005 c 4.61612,-19.22901 7.06106,-39.30267 7.06106,-59.94737 0,-20.64801 -2.44573,-40.7248 -7.06329,-59.95647"
       id="path904"
       inkscape:connector-curvature="0"
       sodipodi:nodetypes="ccccsc" />
    <path
       style="opacity:1;fill:none;fill-opacity:1;stroke:#000000;stroke-width:0.09999999;stroke-linecap:butt;stroke-miterlimit:4;stroke-dasharray:none;stroke-dashoffset:0;stroke-opacity:1"
       d="m 317.82848,165.89989 h -79.9 V 44.999886 h 79.9"
       id="rect922"
       inkscape:connector-curvature="0"
       sodipodi:nodetypes="cccc" />
    <path
       style="opacity:1;fill:none;fill-opacity:1;stroke:#000000;stroke-width:0.09999999;stroke-linecap:butt;stroke-miterlimit:4;stroke-dasharray:none;stroke-dashoffset:0;stroke-opacity:1"
       d="m 167.12474,254.34791 -0.002,40.34122 c 9.6071,2.30618 19.6364,3.52767 29.95105,3.52767 10.313,0 20.34073,-1.22109 29.94643,-3.52655 l 0.002,-40.34345 c -9.60579,-2.30546 -19.63352,-3.52655 -29.94652,-3.52655 -10.31465,0 -20.34395,1.22148 -29.95105,3.52766"
       id="path904-5"
       inkscape:connector-curvature="0"
       sodipodi:nodetypes="cscccsc" />
    <path
       style="opacity:1;fill:none;fill-opacity:1;stroke:#000000;stroke-width:0.09999999;stroke-linecap:butt;stroke-miterlimit:4;stroke-dasharray:none;stroke-dashoffset:0;stroke-opacity:1"
       d="m 148.13083,248.50139 v -86.67001 h 79.89999 v 86.67001 z"
       id="rect945"
       inkscape:connector-curvature="0" />
    <path
       style="opacity:1;fill:none;fill-opacity:1;stroke:#000000;stroke-width:0.1;stroke-linecap:butt;stroke-miterlimit:4;stroke-dasharray:none;stroke-dashoffset:0;stroke-opacity:1"
       d="m 203.03082,185.21642 v 39.9 h -29.89999 v -39.9 z"
       id="rect947"
       inkscape:connector-curvature="0" />
    <path
       style="opacity:1;fill:none;fill-opacity:1;stroke:#000000;stroke-width:0.1;stroke-linecap:butt;stroke-miterlimit:4;stroke-dasharray:none;stroke-dashoffset:0;stroke-opacity:1"
       d="m 183.12246,274.51852 a 13.95,13.95 0 0 1 13.95,-13.95 13.95,13.95 0 0 1 13.95,13.95 13.95,13.95 0 0 1 -13.95,13.95 13.95,13.95 0 0 1 -13.95,-13.95 z"
       id="path949"
       inkscape:connector-curvature="0" />
    <path
       style="opacity:1;fill:none;fill-opacity:1;stroke:#000000;stroke-width:0.09999999;stroke-linecap:butt;stroke-miterlimit:4;stroke-dasharray:none;stroke-dashoffset:0;stroke-opacity:1"
       d="m 317.82849,44.999886 h 79.9 V 165.89989 h -79.9 z"
       id="rect922-6"
       inkscape:connector-curvature="0" />
    <path
       style="opacity:1;fill:none;fill-opacity:1;stroke:#000000;stroke-width:0.09999999;stroke-linecap:butt;stroke-miterlimit:4;stroke-dasharray:none;stroke-dashoffset:0;stroke-opacity:1"
       d="m 335.42796,165.89989 c -4.61756,19.23167 -7.06329,39.30845 -7.06329,59.95647 0,20.6447 2.44494,40.71835 7.06106,59.94719 l 80.77785,0.005 c 4.61612,-19.22901 7.06106,-39.30267 7.06106,-59.94737 0,-20.64801 -2.44573,-40.7248 -7.06329,-59.95647 l -18.47286,-0.005"
       id="path904-3"
       inkscape:connector-curvature="0"
       sodipodi:nodetypes="ccccsc" />
  </g>
</svg>
