<?xml version="1.0" encoding="UTF-8" standalone="no"?>
<!-- Created with Inkscape (http://www.inkscape.org/) -->

<svg
   xmlns:dc="http://purl.org/dc/elements/1.1/"
   xmlns:cc="http://creativecommons.org/ns#"
   xmlns:rdf="http://www.w3.org/1999/02/22-rdf-syntax-ns#"
   xmlns:svg="http://www.w3.org/2000/svg"
   xmlns="http://www.w3.org/2000/svg"
   xmlns:sodipodi="http://sodipodi.sourceforge.net/DTD/sodipodi-0.dtd"
   xmlns:inkscape="http://www.inkscape.org/namespaces/inkscape"
   width="359.29376mm"
   height="360.99802mm"
   viewBox="0 0 359.29376 360.99802"
   version="1.1"
   id="svg1085"
   inkscape:version="0.92.5 (2060ec1f9f, 2020-04-08)"
   sodipodi:docname="life-trackers1_v2.svg">
  <defs
     id="defs1079" />
  <sodipodi:namedview
     id="base"
     pagecolor="#ffffff"
     bordercolor="#666666"
     borderopacity="1.0"
     inkscape:pageopacity="0.0"
     inkscape:pageshadow="2"
     inkscape:zoom="0.35"
     inkscape:cx="271.83746"
     inkscape:cy="765.0581"
     inkscape:document-units="mm"
     inkscape:current-layer="layer1"
     showgrid="false"
     fit-margin-top="0"
     fit-margin-left="0"
     fit-margin-right="0"
     fit-margin-bottom="0"
     inkscape:window-width="1920"
     inkscape:window-height="1016"
     inkscape:window-x="0"
     inkscape:window-y="27"
     inkscape:window-maximized="1" />
  <metadata
     id="metadata1082">
    <rdf:RDF>
      <cc:Work
         rdf:about="">
        <dc:format>image/svg+xml</dc:format>
        <dc:type
           rdf:resource="http://purl.org/dc/dcmitype/StillImage" />
        <dc:title></dc:title>
      </cc:Work>
    </rdf:RDF>
  </metadata>
  <g
     inkscape:label="Layer 1"
     inkscape:groupmode="layer"
     id="layer1"
     transform="translate(117.65878,9.7430466)">
    <rect
       style="display:inline;opacity:1;fill:none;fill-opacity:1;stroke:#000000;stroke-width:0.1;stroke-linecap:round;stroke-linejoin:round;stroke-miterlimit:4;stroke-dasharray:none;stroke-dashoffset:0;stroke-opacity:1"
       id="rect1623-7-5"
       width="172.16814"
       height="55.502319"
       x="-117.35651"
       y="295.70264"
       rx="3.590766"
       ry="3.590766" />
    <path
       style="display:inline;opacity:1;fill:none;fill-opacity:1;stroke:#000000;stroke-width:0.1;stroke-linecap:round;stroke-linejoin:round;stroke-miterlimit:4;stroke-dasharray:none;stroke-dashoffset:0;stroke-opacity:1"
       d="m 193.83438,323.72445 a 11.717261,11.717261 0 0 1 11.71726,-11.71726 11.717261,11.717261 0 0 1 11.71726,11.71726 11.717261,11.717261 0 0 1 -11.71726,11.71726 11.717261,11.717261 0 0 1 -11.71726,-11.71726 z"
       id="path1627-43-3-9"
       inkscape:connector-curvature="0" />
    <path
       style="display:inline;opacity:1;fill:none;fill-opacity:1;stroke:#000000;stroke-width:0.1;stroke-linecap:round;stroke-linejoin:round;stroke-miterlimit:4;stroke-dasharray:none;stroke-dashoffset:0;stroke-opacity:1"
       d="m 60.475235,324.01745 a 11.717261,11.717261 0 0 1 11.71726,-11.71726 11.717261,11.717261 0 0 1 11.71727,11.71726 11.717261,11.717261 0 0 1 -11.71727,11.71723 11.717261,11.717261 0 0 1 -11.71726,-11.71723 z"
       id="path1627-6-8"
       inkscape:connector-curvature="0" />
    <path
       style="display:inline;opacity:1;fill:none;fill-opacity:1;stroke:#000000;stroke-width:0.1;stroke-linecap:round;stroke-linejoin:round;stroke-miterlimit:4;stroke-dasharray:none;stroke-dashoffset:0;stroke-opacity:1"
       d="m 93.815025,323.70561 a 11.717261,11.717261 0 0 1 11.717265,-11.71726 11.717261,11.717261 0 0 1 11.71726,11.71726 11.717261,11.717261 0 0 1 -11.71726,11.71726 11.717261,11.717261 0 0 1 -11.717265,-11.71726 z"
       id="path1627-4-1-4"
       inkscape:connector-curvature="0" />
    <path
       style="display:inline;opacity:1;fill:none;fill-opacity:1;stroke:#000000;stroke-width:0.1;stroke-linecap:round;stroke-linejoin:round;stroke-miterlimit:4;stroke-dasharray:none;stroke-dashoffset:0;stroke-opacity:1"
       d="m 127.15481,323.13863 a 11.717261,11.717261 0 0 1 11.71726,-11.71725 11.717261,11.717261 0 0 1 11.71725,11.71725 11.717261,11.717261 0 0 1 -11.71725,11.71726 11.717261,11.717261 0 0 1 -11.71726,-11.71726 z"
       id="path1627-2-2-8"
       inkscape:connector-curvature="0" />
    <path
       style="display:inline;opacity:1;fill:none;fill-opacity:1;stroke:#000000;stroke-width:0.1;stroke-linecap:round;stroke-linejoin:round;stroke-miterlimit:4;stroke-dasharray:none;stroke-dashoffset:0;stroke-opacity:1"
       d="m 160.49458,323.89458 a 11.717261,11.717261 0 0 1 11.71729,-11.71729 11.717261,11.717261 0 0 1 11.71726,11.71729 11.717261,11.717261 0 0 1 -11.71726,11.71725 11.717261,11.717261 0 0 1 -11.71729,-11.71725 z"
       id="path1627-7-9-1"
       inkscape:connector-curvature="0" />
    <path
       inkscape:connector-curvature="0"
       style="display:inline;opacity:1;fill:none;fill-opacity:1;stroke:#000000;stroke-width:0.1;stroke-linecap:round;stroke-linejoin:round;stroke-miterlimit:4;stroke-dasharray:none;stroke-opacity:1;paint-order:fill markers stroke"
       d="m 20.786185,5.7347934 a 8.8280108,8.8280108 0 0 1 -8.82801,8.8279996 8.8280108,8.8280108 0 0 1 -8.8280098,-8.8279996 8.8280108,8.8280108 0 0 1 8.8280098,-8.82802 8.8280108,8.8280108 0 0 1 8.82801,8.82802 z"
       id="path7-0-5" />
    <path
       inkscape:connector-curvature="0"
       style="display:inline;opacity:1;fill:none;fill-opacity:1;stroke:#000000;stroke-width:0.1;stroke-linecap:round;stroke-linejoin:round;stroke-miterlimit:4;stroke-dasharray:none;stroke-opacity:1;paint-order:fill markers stroke"
       d="m 20.786185,26.040714 a 8.8280116,8.8280116 0 0 1 -8.82801,8.828011 8.8280116,8.8280116 0 0 1 -8.8280098,-8.828011 8.8280116,8.8280116 0 0 1 8.8280098,-8.828022 8.8280116,8.8280116 0 0 1 8.82801,8.828022 z"
       id="path7-0-6-4" />
    <path
       inkscape:connector-curvature="0"
       style="display:inline;opacity:1;fill:none;fill-opacity:1;stroke:#000000;stroke-width:0.1;stroke-linecap:round;stroke-linejoin:round;stroke-miterlimit:4;stroke-dasharray:none;stroke-opacity:1;paint-order:fill markers stroke"
       d="m 20.786185,46.346633 a 8.8280116,8.8280116 0 0 1 -8.82801,8.82801 8.8280116,8.8280116 0 0 1 -8.8280098,-8.82801 8.8280116,8.8280116 0 0 1 8.8280098,-8.828008 8.8280116,8.8280116 0 0 1 8.82801,8.828008 z"
       id="path7-0-0-05" />
    <path
       inkscape:connector-curvature="0"
       style="display:inline;opacity:1;fill:none;fill-opacity:1;stroke:#000000;stroke-width:0.1;stroke-linecap:round;stroke-linejoin:round;stroke-miterlimit:4;stroke-dasharray:none;stroke-opacity:1;paint-order:fill markers stroke"
       d="m 20.786185,66.652525 a 8.8280126,8.8280126 0 0 1 -8.82801,8.828008 8.8280126,8.8280126 0 0 1 -8.8280198,-8.828008 8.8280126,8.8280126 0 0 1 8.8280198,-8.828011 8.8280126,8.8280126 0 0 1 8.82801,8.828011 z"
       id="path7-0-6-6-9" />
    <path
       inkscape:connector-curvature="0"
       style="display:inline;opacity:1;fill:none;fill-opacity:1;stroke:#000000;stroke-width:0.1;stroke-linecap:round;stroke-linejoin:round;stroke-miterlimit:4;stroke-dasharray:none;stroke-opacity:1;paint-order:fill markers stroke"
       d="m 20.786185,86.958465 a 8.8280116,8.8280116 0 0 1 -8.82801,8.828008 8.8280116,8.8280116 0 0 1 -8.8280098,-8.828008 8.8280116,8.8280116 0 0 1 8.8280098,-8.828011 8.8280116,8.8280116 0 0 1 8.82801,8.828011 z"
       id="path7-0-2-4" />
    <path
       inkscape:connector-curvature="0"
       style="display:inline;opacity:1;fill:none;fill-opacity:1;stroke:#000000;stroke-width:0.1;stroke-linecap:round;stroke-linejoin:round;stroke-miterlimit:4;stroke-dasharray:none;stroke-opacity:1;paint-order:fill markers stroke"
       d="m 20.786185,107.26439 a 8.8280126,8.8280126 0 0 1 -8.82801,8.82801 8.8280126,8.8280126 0 0 1 -8.8280198,-8.82801 8.8280126,8.8280126 0 0 1 8.8280198,-8.828017 8.8280126,8.8280126 0 0 1 8.82801,8.828017 z"
       id="path7-0-6-61-6" />
    <path
       inkscape:connector-curvature="0"
       style="display:inline;opacity:1;fill:none;fill-opacity:1;stroke:#000000;stroke-width:0.1;stroke-linecap:round;stroke-linejoin:round;stroke-miterlimit:4;stroke-dasharray:none;stroke-opacity:1;paint-order:fill markers stroke"
       d="m 20.786185,127.57029 a 8.8280126,8.8280126 0 0 1 -8.82801,8.82802 8.8280126,8.8280126 0 0 1 -8.8280198,-8.82802 8.8280126,8.8280126 0 0 1 8.8280198,-8.82801 8.8280126,8.8280126 0 0 1 8.82801,8.82801 z"
       id="path7-0-6-7-9" />
    <g
       style="display:inline;opacity:1;fill:none;fill-opacity:1;stroke:#000000;stroke-width:0.14778151;stroke-miterlimit:4;stroke-dasharray:none;stroke-opacity:1"
       inkscape:label="17.5 run"
       transform="matrix(0.67648526,0,0,-0.67686412,44.435795,22.334404)"
       id="Pad-2-0-7-6-4-63-2">
      <path
         inkscape:connector-curvature="0"
         style="fill:none;fill-opacity:1;fill-rule:evenodd;stroke:#000000;stroke-width:0.14778151;stroke-linecap:square;stroke-miterlimit:4;stroke-dasharray:none;stroke-opacity:1"
         d="m -20.048354,0.72348494 c 4.249983,-2.3e-6 6.374983,1.99999776 8.499983,1.99999776 2.1249999,0 4.2500004,-2.00000006 8.5000009,-2.00000006 4.25,0 6.375,2.00000006 8.5,2.00000006 2.125,0 4.25,-2.00000006 8.5000001,-2.00000006 4.249999,0 6.374999,2.00000006 8.499999,2.00000006 2.125,0 4.25,-2.00000006 8.5,-1.99999986 4.250012,2e-7 6.37501,1.99999986 8.500008,1.99999986 2.125,0 4.250001,-1.99999966 8.499998,-1.99999966 4.250001,0 6.375,1.99999966 8.5,1.99999966 2.125,0 4.250001,-1.99999966 8.500001,-1.99999966 4.249995,0 6.374993,1.99999966 8.500006,1.99999966 2.124998,0 4.249997,-1.99999966 8.499961,-1.99999796 3.981962,2e-7 7.21,-3.22319174 7.21,-7.19920254 0,-3.9760082 -3.228038,-7.1992022 -7.209977,-7.1992032 -4.24997,0 -6.374969,2.000002 -8.499967,2.000002 -2.125013,0 -4.250011,-2.000002 -8.500006,-2.000002 -4.25,0 -6.375001,2.000002 -8.500001,2.000002 -2.125,0 -4.249999,-2.000002 -8.5,-2.000002 -4.249997,0 -6.374998,2.000002 -8.499998,2.000002 -2.124998,0 -4.249996,-2.000002 -8.500008,-2.000001 -4.25,0 -6.375,2 -8.5,2 -2.125,0 -4.25,-2 -8.5,-2 -4.2499989,0 -6.3749989,2 -8.4999989,2 -2.125,0 -4.25,-2 -8.5,-2 -4.2500005,0 -6.375001,2 -8.5000011,2 -2.125,0 -4.25,-2 -8.5,-2 -3.981976,0 -7.210006,3.223194 -7.210003,7.1992037 0,3.9760093 3.228029,7.19920124 7.210003,7.19920124"
         id="Pad_f0001-9-3-8-1-9-8-2"
         sodipodi:nodetypes="cscscscscscscscscscscscscscsc" />
      <title
         id="title1-8-7-5-5-0-0-5-4">b'Pad'</title>
    </g>
    <g
       style="display:inline;opacity:1;fill:none;fill-opacity:1;stroke:#000000;stroke-width:0.14778151;stroke-miterlimit:4;stroke-dasharray:none;stroke-opacity:1"
       inkscape:label="17.5 run"
       transform="matrix(0.67648526,0,0,-0.67686412,44.435795,2.0284744)"
       id="Pad-2-0-7-6-4-7-7">
      <path
         inkscape:connector-curvature="0"
         style="fill:none;fill-opacity:1;fill-rule:evenodd;stroke:#000000;stroke-width:0.14778151;stroke-linecap:square;stroke-miterlimit:4;stroke-dasharray:none;stroke-opacity:1"
         d="m -20.048354,0.72348494 c 4.249983,-2.3e-6 6.374983,1.99999776 8.499983,1.99999776 2.1249999,0 4.2500004,-2.00000006 8.5000009,-2.00000006 4.25,0 6.375,2.00000006 8.5,2.00000006 2.125,0 4.25,-2.00000006 8.5000001,-2.00000006 4.249999,0 6.374999,2.00000006 8.499999,2.00000006 2.125,0 4.25,-2.00000006 8.5,-1.99999986 4.250012,2e-7 6.37501,1.99999986 8.500008,1.99999986 2.125,0 4.250001,-1.99999966 8.499998,-1.99999966 4.250001,0 6.375,1.99999966 8.5,1.99999966 2.125,0 4.250001,-1.99999966 8.500001,-1.99999966 4.249995,0 6.374993,1.99999966 8.500006,1.99999966 2.124998,0 4.249997,-1.99999966 8.499961,-1.99999796 3.981962,2e-7 7.21,-3.22319174 7.21,-7.19920254 0,-3.9760082 -3.228038,-7.1992022 -7.209977,-7.1992032 -4.24997,0 -6.374969,2.000002 -8.499967,2.000002 -2.125013,0 -4.250011,-2.000002 -8.500006,-2.000002 -4.25,0 -6.375001,2.000002 -8.500001,2.000002 -2.125,0 -4.249999,-2.000002 -8.5,-2.000002 -4.249997,0 -6.374998,2.000002 -8.499998,2.000002 -2.124998,0 -4.249996,-2.000002 -8.500008,-2.000001 -4.25,0 -6.375,2 -8.5,2 -2.125,0 -4.25,-2 -8.5,-2 -4.2499989,0 -6.3749989,2 -8.4999989,2 -2.125,0 -4.25,-2 -8.5,-2 -4.2500005,0 -6.375001,2 -8.5000011,2 -2.125,0 -4.25,-2 -8.5,-2 -3.981976,0 -7.210006,3.223194 -7.210003,7.1992037 0,3.9760093 3.228029,7.19920124 7.210003,7.19920124"
         id="Pad_f0001-9-3-8-1-9-1-7"
         sodipodi:nodetypes="cscscscscscscscscscscscscscsc" />
      <title
         id="title1-8-7-5-5-0-0-1-5">b'Pad'</title>
    </g>
    <g
       style="display:inline;opacity:1;fill:none;fill-opacity:1;stroke:#000000;stroke-width:0.14778151;stroke-miterlimit:4;stroke-dasharray:none;stroke-opacity:1"
       inkscape:label="17.5 run"
       transform="matrix(0.67648526,0,0,-0.67686412,44.435795,42.640294)"
       id="Pad-2-0-7-6-4-5-4">
      <path
         inkscape:connector-curvature="0"
         style="fill:none;fill-opacity:1;fill-rule:evenodd;stroke:#000000;stroke-width:0.14778151;stroke-linecap:square;stroke-miterlimit:4;stroke-dasharray:none;stroke-opacity:1"
         d="m -20.048354,0.72348494 c 4.249983,-2.3e-6 6.374983,1.99999776 8.499983,1.99999776 2.1249999,0 4.2500004,-2.00000006 8.5000009,-2.00000006 4.25,0 6.375,2.00000006 8.5,2.00000006 2.125,0 4.25,-2.00000006 8.5000001,-2.00000006 4.249999,0 6.374999,2.00000006 8.499999,2.00000006 2.125,0 4.25,-2.00000006 8.5,-1.99999986 4.250012,2e-7 6.37501,1.99999986 8.500008,1.99999986 2.125,0 4.250001,-1.99999966 8.499998,-1.99999966 4.250001,0 6.375,1.99999966 8.5,1.99999966 2.125,0 4.250001,-1.99999966 8.500001,-1.99999966 4.249995,0 6.374993,1.99999966 8.500006,1.99999966 2.124998,0 4.249997,-1.99999966 8.499961,-1.99999796 3.981962,2e-7 7.21,-3.22319174 7.21,-7.19920254 0,-3.9760082 -3.228038,-7.1992022 -7.209977,-7.1992032 -4.24997,0 -6.374969,2.000002 -8.499967,2.000002 -2.125013,0 -4.250011,-2.000002 -8.500006,-2.000002 -4.25,0 -6.375001,2.000002 -8.500001,2.000002 -2.125,0 -4.249999,-2.000002 -8.5,-2.000002 -4.249997,0 -6.374998,2.000002 -8.499998,2.000002 -2.124998,0 -4.249996,-2.000002 -8.500008,-2.000001 -4.25,0 -6.375,2 -8.5,2 -2.125,0 -4.25,-2 -8.5,-2 -4.2499989,0 -6.3749989,2 -8.4999989,2 -2.125,0 -4.25,-2 -8.5,-2 -4.2500005,0 -6.375001,2 -8.5000011,2 -2.125,0 -4.25,-2 -8.5,-2 -3.981976,0 -7.210006,3.223194 -7.210003,7.1992037 0,3.9760093 3.228029,7.19920124 7.210003,7.19920124"
         id="Pad_f0001-9-3-8-1-9-9-8"
         sodipodi:nodetypes="cscscscscscscscscscscscscscsc" />
      <title
         id="title1-8-7-5-5-0-0-7-1">b'Pad'</title>
    </g>
    <g
       style="display:inline;opacity:1;fill:none;fill-opacity:1;stroke:#000000;stroke-width:0.14778151;stroke-miterlimit:4;stroke-dasharray:none;stroke-opacity:1"
       inkscape:label="17.5 run"
       transform="matrix(0.67648526,0,0,-0.67686412,44.435795,62.946194)"
       id="Pad-2-0-7-6-4-76-2">
      <path
         inkscape:connector-curvature="0"
         style="fill:none;fill-opacity:1;fill-rule:evenodd;stroke:#000000;stroke-width:0.14778151;stroke-linecap:square;stroke-miterlimit:4;stroke-dasharray:none;stroke-opacity:1"
         d="m -20.048354,0.72348494 c 4.249983,-2.3e-6 6.374983,1.99999776 8.499983,1.99999776 2.1249999,0 4.2500004,-2.00000006 8.5000009,-2.00000006 4.25,0 6.375,2.00000006 8.5,2.00000006 2.125,0 4.25,-2.00000006 8.5000001,-2.00000006 4.249999,0 6.374999,2.00000006 8.499999,2.00000006 2.125,0 4.25,-2.00000006 8.5,-1.99999986 4.250012,2e-7 6.37501,1.99999986 8.500008,1.99999986 2.125,0 4.250001,-1.99999966 8.499998,-1.99999966 4.250001,0 6.375,1.99999966 8.5,1.99999966 2.125,0 4.250001,-1.99999966 8.500001,-1.99999966 4.249995,0 6.374993,1.99999966 8.500006,1.99999966 2.124998,0 4.249997,-1.99999966 8.499961,-1.99999796 3.981962,2e-7 7.21,-3.22319174 7.21,-7.19920254 0,-3.9760082 -3.228038,-7.1992022 -7.209977,-7.1992032 -4.24997,0 -6.374969,2.000002 -8.499967,2.000002 -2.125013,0 -4.250011,-2.000002 -8.500006,-2.000002 -4.25,0 -6.375001,2.000002 -8.500001,2.000002 -2.125,0 -4.249999,-2.000002 -8.5,-2.000002 -4.249997,0 -6.374998,2.000002 -8.499998,2.000002 -2.124998,0 -4.249996,-2.000002 -8.500008,-2.000001 -4.25,0 -6.375,2 -8.5,2 -2.125,0 -4.25,-2 -8.5,-2 -4.2499989,0 -6.3749989,2 -8.4999989,2 -2.125,0 -4.25,-2 -8.5,-2 -4.2500005,0 -6.375001,2 -8.5000011,2 -2.125,0 -4.25,-2 -8.5,-2 -3.981976,0 -7.210006,3.223194 -7.210003,7.1992037 0,3.9760093 3.228029,7.19920124 7.210003,7.19920124"
         id="Pad_f0001-9-3-8-1-9-7-8"
         sodipodi:nodetypes="cscscscscscscscscscscscscscsc" />
      <title
         id="title1-8-7-5-5-0-0-3-9">b'Pad'</title>
    </g>
    <g
       style="display:inline;opacity:1;fill:none;fill-opacity:1;stroke:#000000;stroke-width:0.14778151;stroke-miterlimit:4;stroke-dasharray:none;stroke-opacity:1"
       inkscape:label="17.5 run"
       transform="matrix(0.67648526,0,0,-0.67686412,44.435795,83.252142)"
       id="Pad-2-0-7-6-4-6-3">
      <path
         inkscape:connector-curvature="0"
         style="fill:none;fill-opacity:1;fill-rule:evenodd;stroke:#000000;stroke-width:0.14778151;stroke-linecap:square;stroke-miterlimit:4;stroke-dasharray:none;stroke-opacity:1"
         d="m -20.048354,0.72348494 c 4.249983,-2.3e-6 6.374983,1.99999776 8.499983,1.99999776 2.1249999,0 4.2500004,-2.00000006 8.5000009,-2.00000006 4.25,0 6.375,2.00000006 8.5,2.00000006 2.125,0 4.25,-2.00000006 8.5000001,-2.00000006 4.249999,0 6.374999,2.00000006 8.499999,2.00000006 2.125,0 4.25,-2.00000006 8.5,-1.99999986 4.250012,2e-7 6.37501,1.99999986 8.500008,1.99999986 2.125,0 4.250001,-1.99999966 8.499998,-1.99999966 4.250001,0 6.375,1.99999966 8.5,1.99999966 2.125,0 4.250001,-1.99999966 8.500001,-1.99999966 4.249995,0 6.374993,1.99999966 8.500006,1.99999966 2.124998,0 4.249997,-1.99999966 8.499961,-1.99999796 3.981962,2e-7 7.21,-3.22319174 7.21,-7.19920254 0,-3.9760082 -3.228038,-7.1992022 -7.209977,-7.1992032 -4.24997,0 -6.374969,2.000002 -8.499967,2.000002 -2.125013,0 -4.250011,-2.000002 -8.500006,-2.000002 -4.25,0 -6.375001,2.000002 -8.500001,2.000002 -2.125,0 -4.249999,-2.000002 -8.5,-2.000002 -4.249997,0 -6.374998,2.000002 -8.499998,2.000002 -2.124998,0 -4.249996,-2.000002 -8.500008,-2.000001 -4.25,0 -6.375,2 -8.5,2 -2.125,0 -4.25,-2 -8.5,-2 -4.2499989,0 -6.3749989,2 -8.4999989,2 -2.125,0 -4.25,-2 -8.5,-2 -4.2500005,0 -6.375001,2 -8.5000011,2 -2.125,0 -4.25,-2 -8.5,-2 -3.981976,0 -7.210006,3.223194 -7.210003,7.1992037 0,3.9760093 3.228029,7.19920124 7.210003,7.19920124"
         id="Pad_f0001-9-3-8-1-9-5-6"
         sodipodi:nodetypes="cscscscscscscscscscscscscscsc" />
      <title
         id="title1-8-7-5-5-0-0-6-8">b'Pad'</title>
    </g>
    <g
       style="display:inline;opacity:1;fill:none;fill-opacity:1;stroke:#000000;stroke-width:0.14778151;stroke-miterlimit:4;stroke-dasharray:none;stroke-opacity:1"
       inkscape:label="17.5 run"
       transform="matrix(0.67648526,0,0,-0.67686412,44.435795,103.55807)"
       id="Pad-2-0-7-6-4-3-0">
      <path
         inkscape:connector-curvature="0"
         style="fill:none;fill-opacity:1;fill-rule:evenodd;stroke:#000000;stroke-width:0.14778151;stroke-linecap:square;stroke-miterlimit:4;stroke-dasharray:none;stroke-opacity:1"
         d="m -20.048354,0.72348494 c 4.249983,-2.3e-6 6.374983,1.99999776 8.499983,1.99999776 2.1249999,0 4.2500004,-2.00000006 8.5000009,-2.00000006 4.25,0 6.375,2.00000006 8.5,2.00000006 2.125,0 4.25,-2.00000006 8.5000001,-2.00000006 4.249999,0 6.374999,2.00000006 8.499999,2.00000006 2.125,0 4.25,-2.00000006 8.5,-1.99999986 4.250012,2e-7 6.37501,1.99999986 8.500008,1.99999986 2.125,0 4.250001,-1.99999966 8.499998,-1.99999966 4.250001,0 6.375,1.99999966 8.5,1.99999966 2.125,0 4.250001,-1.99999966 8.500001,-1.99999966 4.249995,0 6.374993,1.99999966 8.500006,1.99999966 2.124998,0 4.249997,-1.99999966 8.499961,-1.99999796 3.981962,2e-7 7.21,-3.22319174 7.21,-7.19920254 0,-3.9760082 -3.228038,-7.1992022 -7.209977,-7.1992032 -4.24997,0 -6.374969,2.000002 -8.499967,2.000002 -2.125013,0 -4.250011,-2.000002 -8.500006,-2.000002 -4.25,0 -6.375001,2.000002 -8.500001,2.000002 -2.125,0 -4.249999,-2.000002 -8.5,-2.000002 -4.249997,0 -6.374998,2.000002 -8.499998,2.000002 -2.124998,0 -4.249996,-2.000002 -8.500008,-2.000001 -4.25,0 -6.375,2 -8.5,2 -2.125,0 -4.25,-2 -8.5,-2 -4.2499989,0 -6.3749989,2 -8.4999989,2 -2.125,0 -4.25,-2 -8.5,-2 -4.2500005,0 -6.375001,2 -8.5000011,2 -2.125,0 -4.25,-2 -8.5,-2 -3.981976,0 -7.210006,3.223194 -7.210003,7.1992037 0,3.9760093 3.228029,7.19920124 7.210003,7.19920124"
         id="Pad_f0001-9-3-8-1-9-94-2"
         sodipodi:nodetypes="cscscscscscscscscscscscscscsc" />
      <title
         id="title1-8-7-5-5-0-0-8-10">b'Pad'</title>
    </g>
    <g
       style="display:inline;opacity:1;fill:none;fill-opacity:1;stroke:#000000;stroke-width:0.14778151;stroke-miterlimit:4;stroke-dasharray:none;stroke-opacity:1"
       inkscape:label="17.5 run"
       transform="matrix(0.67648526,0,0,-0.67686412,44.435795,123.86399)"
       id="Pad-2-0-7-6-4-1-5">
      <path
         inkscape:connector-curvature="0"
         style="fill:none;fill-opacity:1;fill-rule:evenodd;stroke:#000000;stroke-width:0.14778151;stroke-linecap:square;stroke-miterlimit:4;stroke-dasharray:none;stroke-opacity:1"
         d="m -20.048354,0.72348494 c 4.249983,-2.3e-6 6.374983,1.99999776 8.499983,1.99999776 2.1249999,0 4.2500004,-2.00000006 8.5000009,-2.00000006 4.25,0 6.375,2.00000006 8.5,2.00000006 2.125,0 4.25,-2.00000006 8.5000001,-2.00000006 4.249999,0 6.374999,2.00000006 8.499999,2.00000006 2.125,0 4.25,-2.00000006 8.5,-1.99999986 4.250012,2e-7 6.37501,1.99999986 8.500008,1.99999986 2.125,0 4.250001,-1.99999966 8.499998,-1.99999966 4.250001,0 6.375,1.99999966 8.5,1.99999966 2.125,0 4.250001,-1.99999966 8.500001,-1.99999966 4.249995,0 6.374993,1.99999966 8.500006,1.99999966 2.124998,0 4.249997,-1.99999966 8.499961,-1.99999796 3.981962,2e-7 7.21,-3.22319174 7.21,-7.19920254 0,-3.9760082 -3.228038,-7.1992022 -7.209977,-7.1992032 -4.24997,0 -6.374969,2.000002 -8.499967,2.000002 -2.125013,0 -4.250011,-2.000002 -8.500006,-2.000002 -4.25,0 -6.375001,2.000002 -8.500001,2.000002 -2.125,0 -4.249999,-2.000002 -8.5,-2.000002 -4.249997,0 -6.374998,2.000002 -8.499998,2.000002 -2.124998,0 -4.249996,-2.000002 -8.500008,-2.000001 -4.25,0 -6.375,2 -8.5,2 -2.125,0 -4.25,-2 -8.5,-2 -4.2499989,0 -6.3749989,2 -8.4999989,2 -2.125,0 -4.25,-2 -8.5,-2 -4.2500005,0 -6.375001,2 -8.5000011,2 -2.125,0 -4.25,-2 -8.5,-2 -3.981976,0 -7.210006,3.223194 -7.210003,7.1992037 0,3.9760093 3.228029,7.19920124 7.210003,7.19920124"
         id="Pad_f0001-9-3-8-1-9-2-1"
         sodipodi:nodetypes="cscscscscscscscscscscscscscsc" />
      <title
         id="title1-8-7-5-5-0-0-9-1">b'Pad'</title>
    </g>
    <path
       style="display:inline;opacity:1;fill:none;fill-opacity:1;stroke:#000000;stroke-width:0.1;stroke-linecap:round;stroke-linejoin:miter;stroke-miterlimit:4;stroke-dasharray:none;stroke-dashoffset:0;stroke-opacity:1"
       d="m -3.2087748,3.2715634 c 0,-7.18238 5.7822,-12.96459 12.96458,-12.96459 H 98.126635 c 7.182385,0 12.964605,5.78221 12.964605,12.96459 V 130.03353 c 0,7.18238 -5.78222,12.96458 -12.964605,12.96458 m -88.3708298,0 c -7.18238,0 -12.96458,-5.7822 -12.96458,-12.96458"
       id="rect2228-0"
       inkscape:connector-curvature="0"
       sodipodi:nodetypes="cssssccc" />
    <g
       style="display:inline;opacity:1;fill:none;fill-opacity:1;stroke:#000000;stroke-width:0.14778151;stroke-miterlimit:4;stroke-dasharray:none;stroke-opacity:1"
       inkscape:label="17.5 run"
       transform="matrix(0.67648526,0,0,-0.67686412,-69.908902,21.822803)"
       id="Pad-2-0-7-43-5">
      <path
         inkscape:connector-curvature="0"
         style="fill:none;fill-opacity:1;fill-rule:evenodd;stroke:#000000;stroke-width:0.14778151;stroke-linecap:square;stroke-miterlimit:4;stroke-dasharray:none;stroke-opacity:1"
         d="m 22.369865,-13.981535 c -2.125,0 -4.25,-2 -8.5,-2 -4.2499994,0 -6.3749994,2 -8.4999994,2 -2.125,0 -4.25,-2 -8.5,-2 -4.2500005,0 -6.3750005,2 -8.5000006,2 -2.125,0 -4.25,-2 -8.5,-2 -4.832496,10e-6 -8.749991,3.917527 -8.749981,8.75002 10e-6,4.8324928 3.91752,8.7499947 8.749998,8.7499827 4.249983,-2.3e-6 6.374983,1.9999977 8.499983,1.9999977 2.1250001,0 4.2500001,-2 8.5000006,-2 4.25,0 6.375,2 8.5,2 2.125,0 4.25,-2 8.5000004,-2 4.249999,0 6.374999,2 8.499999,2 2.125,0 4.25,-2 8.5,-1.9999998 4.250012,2e-7 6.37501,1.9999998 8.500008,1.9999998 2.125,0 4.250001,-1.9999996 8.499998,-1.9999996 4.250001,0 6.375,1.9999996 8.5,1.9999996 2.125,0 4.250001,-1.9999996 8.500001,-1.9999996 4.249995,0 6.374993,1.9999996 8.500006,1.9999996 2.124998,0 4.249997,-1.9999996 8.499963,-1.9999981 4.832478,1.32e-5 8.749992,-3.9174894 8.750006,-8.7499822 1.5e-5,-4.8324931 -3.917483,-8.7500101 -8.749976,-8.7500211 -4.249996,0 -6.374995,2.000002 -8.499993,2.000002 -2.125013,0 -4.250011,-2.000002 -8.500006,-2.000002 -4.25,0 -6.375001,2.000002 -8.500001,2.000002 -2.125,0 -4.249999,-2.000002 -8.5,-2.000002 -4.249997,0 -6.374998,2.000002 -8.499998,2.000002 -2.124998,0 -4.249996,-2.000002 -8.500008,-2.000001 -4.25,0 -6.375,2 -8.5,2 z"
         id="Pad_f0001-9-3-8-14-0"
         sodipodi:nodetypes="scscscscscscscscscscscscscscs" />
      <title
         id="title1-8-7-5-5-92-6">b'Pad'</title>
    </g>
    <g
       style="display:inline;opacity:1;fill:none;fill-opacity:1;stroke:#000000;stroke-width:0.14778151;stroke-miterlimit:4;stroke-dasharray:none;stroke-opacity:1"
       inkscape:label="17.5 run"
       transform="matrix(0.67648526,0,0,-0.67686412,-69.908902,1.5168544)"
       id="Pad-2-0-7-6-0-4">
      <path
         inkscape:connector-curvature="0"
         style="fill:none;fill-opacity:1;fill-rule:evenodd;stroke:#000000;stroke-width:0.14778151;stroke-linecap:square;stroke-miterlimit:4;stroke-dasharray:none;stroke-opacity:1"
         d="m 22.369865,-13.981535 c -2.125,0 -4.25,-2 -8.5,-2 -4.2499994,0 -6.3749994,2 -8.4999994,2 -2.125,0 -4.25,-2 -8.5,-2 -4.2500005,0 -6.3750005,2 -8.5000006,2 -2.125,0 -4.25,-2 -8.5,-2 -4.832496,10e-6 -8.749991,3.917527 -8.749981,8.75002 10e-6,4.8324928 3.91752,8.7499947 8.749998,8.7499827 4.249983,-2.3e-6 6.374983,1.9999977 8.499983,1.9999977 2.1250001,0 4.2500001,-2 8.5000006,-2 4.25,0 6.375,2 8.5,2 2.125,0 4.25,-2 8.5000004,-2 4.249999,0 6.374999,2 8.499999,2 2.125,0 4.25,-2 8.5,-1.9999998 4.250012,2e-7 6.37501,1.9999998 8.500008,1.9999998 2.125,0 4.250001,-1.9999996 8.499998,-1.9999996 4.250001,0 6.375,1.9999996 8.5,1.9999996 2.125,0 4.250001,-1.9999996 8.500001,-1.9999996 4.249995,0 6.374993,1.9999996 8.500006,1.9999996 2.124998,0 4.249997,-1.9999996 8.499963,-1.9999981 4.832478,1.32e-5 8.749992,-3.9174894 8.750006,-8.7499822 1.5e-5,-4.8324931 -3.917483,-8.7500101 -8.749976,-8.7500211 -4.249996,0 -6.374995,2.000002 -8.499993,2.000002 -2.125013,0 -4.250011,-2.000002 -8.500006,-2.000002 -4.25,0 -6.375001,2.000002 -8.500001,2.000002 -2.125,0 -4.249999,-2.000002 -8.5,-2.000002 -4.249997,0 -6.374998,2.000002 -8.499998,2.000002 -2.124998,0 -4.249996,-2.000002 -8.500008,-2.000001 -4.25,0 -6.375,2 -8.5,2 z"
         id="Pad_f0001-9-3-8-1-6-6"
         sodipodi:nodetypes="scscscscscscscscscscscscscscs" />
      <title
         id="title1-8-7-5-5-0-8-2">b'Pad'</title>
    </g>
    <g
       style="display:inline;opacity:1;fill:none;fill-opacity:1;stroke:#000000;stroke-width:0.14778151;stroke-miterlimit:4;stroke-dasharray:none;stroke-opacity:1"
       inkscape:label="17.5 run"
       transform="matrix(0.67648526,0,0,-0.67686412,-69.908902,42.128703)"
       id="Pad-2-0-7-63-9-5">
      <path
         inkscape:connector-curvature="0"
         style="fill:none;fill-opacity:1;fill-rule:evenodd;stroke:#000000;stroke-width:0.14778151;stroke-linecap:square;stroke-miterlimit:4;stroke-dasharray:none;stroke-opacity:1"
         d="m 22.369865,-13.981535 c -2.125,0 -4.25,-2 -8.5,-2 -4.2499994,0 -6.3749994,2 -8.4999994,2 -2.125,0 -4.25,-2 -8.5,-2 -4.2500005,0 -6.3750005,2 -8.5000006,2 -2.125,0 -4.25,-2 -8.5,-2 -4.832496,10e-6 -8.749991,3.917527 -8.749981,8.75002 10e-6,4.8324928 3.91752,8.7499947 8.749998,8.7499827 4.249983,-2.3e-6 6.374983,1.9999977 8.499983,1.9999977 2.1250001,0 4.2500001,-2 8.5000006,-2 4.25,0 6.375,2 8.5,2 2.125,0 4.25,-2 8.5000004,-2 4.249999,0 6.374999,2 8.499999,2 2.125,0 4.25,-2 8.5,-1.9999998 4.250012,2e-7 6.37501,1.9999998 8.500008,1.9999998 2.125,0 4.250001,-1.9999996 8.499998,-1.9999996 4.250001,0 6.375,1.9999996 8.5,1.9999996 2.125,0 4.250001,-1.9999996 8.500001,-1.9999996 4.249995,0 6.374993,1.9999996 8.500006,1.9999996 2.124998,0 4.249997,-1.9999996 8.499963,-1.9999981 4.832478,1.32e-5 8.749992,-3.9174894 8.750006,-8.7499822 1.5e-5,-4.8324931 -3.917483,-8.7500101 -8.749976,-8.7500211 -4.249996,0 -6.374995,2.000002 -8.499993,2.000002 -2.125013,0 -4.250011,-2.000002 -8.500006,-2.000002 -4.25,0 -6.375001,2.000002 -8.500001,2.000002 -2.125,0 -4.249999,-2.000002 -8.5,-2.000002 -4.249997,0 -6.374998,2.000002 -8.499998,2.000002 -2.124998,0 -4.249996,-2.000002 -8.500008,-2.000001 -4.25,0 -6.375,2 -8.5,2 z"
         id="Pad_f0001-9-3-8-2-2-8"
         sodipodi:nodetypes="scscscscscscscscscscscscscscs" />
      <title
         id="title1-8-7-5-5-06-6-6">b'Pad'</title>
    </g>
    <g
       style="display:inline;opacity:1;fill:none;fill-opacity:1;stroke:#000000;stroke-width:0.14778151;stroke-miterlimit:4;stroke-dasharray:none;stroke-opacity:1"
       inkscape:label="17.5 run"
       transform="matrix(0.67648526,0,0,-0.67686412,-69.908902,62.434622)"
       id="Pad-2-0-7-1-6-2">
      <path
         inkscape:connector-curvature="0"
         style="fill:none;fill-opacity:1;fill-rule:evenodd;stroke:#000000;stroke-width:0.14778151;stroke-linecap:square;stroke-miterlimit:4;stroke-dasharray:none;stroke-opacity:1"
         d="m 22.369865,-13.981535 c -2.125,0 -4.25,-2 -8.5,-2 -4.2499994,0 -6.3749994,2 -8.4999994,2 -2.125,0 -4.25,-2 -8.5,-2 -4.2500005,0 -6.3750005,2 -8.5000006,2 -2.125,0 -4.25,-2 -8.5,-2 -4.832496,10e-6 -8.749991,3.917527 -8.749981,8.75002 10e-6,4.8324928 3.91752,8.7499947 8.749998,8.7499827 4.249983,-2.3e-6 6.374983,1.9999977 8.499983,1.9999977 2.1250001,0 4.2500001,-2 8.5000006,-2 4.25,0 6.375,2 8.5,2 2.125,0 4.25,-2 8.5000004,-2 4.249999,0 6.374999,2 8.499999,2 2.125,0 4.25,-2 8.5,-1.9999998 4.250012,2e-7 6.37501,1.9999998 8.500008,1.9999998 2.125,0 4.250001,-1.9999996 8.499998,-1.9999996 4.250001,0 6.375,1.9999996 8.5,1.9999996 2.125,0 4.250001,-1.9999996 8.500001,-1.9999996 4.249995,0 6.374993,1.9999996 8.500006,1.9999996 2.124998,0 4.249997,-1.9999996 8.499963,-1.9999981 4.832478,1.32e-5 8.749992,-3.9174894 8.750006,-8.7499822 1.5e-5,-4.8324931 -3.917483,-8.7500101 -8.749976,-8.7500211 -4.249996,0 -6.374995,2.000002 -8.499993,2.000002 -2.125013,0 -4.250011,-2.000002 -8.500006,-2.000002 -4.25,0 -6.375001,2.000002 -8.500001,2.000002 -2.125,0 -4.249999,-2.000002 -8.5,-2.000002 -4.249997,0 -6.374998,2.000002 -8.499998,2.000002 -2.124998,0 -4.249996,-2.000002 -8.500008,-2.000001 -4.25,0 -6.375,2 -8.5,2 z"
         id="Pad_f0001-9-3-8-5-4-8"
         sodipodi:nodetypes="scscscscscscscscscscscscscscs" />
      <title
         id="title1-8-7-5-5-5-9-4">b'Pad'</title>
    </g>
    <g
       style="display:inline;opacity:1;fill:none;fill-opacity:1;stroke:#000000;stroke-width:0.14778151;stroke-miterlimit:4;stroke-dasharray:none;stroke-opacity:1"
       inkscape:label="17.5 run"
       transform="matrix(0.67648526,0,0,-0.67686412,-69.908902,82.740544)"
       id="Pad-2-0-7-4-5-7">
      <path
         inkscape:connector-curvature="0"
         style="fill:none;fill-opacity:1;fill-rule:evenodd;stroke:#000000;stroke-width:0.14778151;stroke-linecap:square;stroke-miterlimit:4;stroke-dasharray:none;stroke-opacity:1"
         d="m 22.369865,-13.981535 c -2.125,0 -4.25,-2 -8.5,-2 -4.2499994,0 -6.3749994,2 -8.4999994,2 -2.125,0 -4.25,-2 -8.5,-2 -4.2500005,0 -6.3750005,2 -8.5000006,2 -2.125,0 -4.25,-2 -8.5,-2 -4.832496,10e-6 -8.749991,3.917527 -8.749981,8.75002 10e-6,4.8324928 3.91752,8.7499947 8.749998,8.7499827 4.249983,-2.3e-6 6.374983,1.9999977 8.499983,1.9999977 2.1250001,0 4.2500001,-2 8.5000006,-2 4.25,0 6.375,2 8.5,2 2.125,0 4.25,-2 8.5000004,-2 4.249999,0 6.374999,2 8.499999,2 2.125,0 4.25,-2 8.5,-1.9999998 4.250012,2e-7 6.37501,1.9999998 8.500008,1.9999998 2.125,0 4.250001,-1.9999996 8.499998,-1.9999996 4.250001,0 6.375,1.9999996 8.5,1.9999996 2.125,0 4.250001,-1.9999996 8.500001,-1.9999996 4.249995,0 6.374993,1.9999996 8.500006,1.9999996 2.124998,0 4.249997,-1.9999996 8.499963,-1.9999981 4.832478,1.32e-5 8.749992,-3.9174894 8.750006,-8.7499822 1.5e-5,-4.8324931 -3.917483,-8.7500101 -8.749976,-8.7500211 -4.249996,0 -6.374995,2.000002 -8.499993,2.000002 -2.125013,0 -4.250011,-2.000002 -8.500006,-2.000002 -4.25,0 -6.375001,2.000002 -8.500001,2.000002 -2.125,0 -4.249999,-2.000002 -8.5,-2.000002 -4.249997,0 -6.374998,2.000002 -8.499998,2.000002 -2.124998,0 -4.249996,-2.000002 -8.500008,-2.000001 -4.25,0 -6.375,2 -8.5,2 z"
         id="Pad_f0001-9-3-8-7-0-2"
         sodipodi:nodetypes="scscscscscscscscscscscscscscs" />
      <title
         id="title1-8-7-5-5-6-4-4">b'Pad'</title>
    </g>
    <g
       style="display:inline;opacity:1;fill:none;fill-opacity:1;stroke:#000000;stroke-width:0.14778151;stroke-miterlimit:4;stroke-dasharray:none;stroke-opacity:1"
       inkscape:label="17.5 run"
       transform="matrix(0.67648526,0,0,-0.67686412,-69.908902,103.04647)"
       id="Pad-2-0-7-5-8-0">
      <path
         inkscape:connector-curvature="0"
         style="fill:none;fill-opacity:1;fill-rule:evenodd;stroke:#000000;stroke-width:0.14778151;stroke-linecap:square;stroke-miterlimit:4;stroke-dasharray:none;stroke-opacity:1"
         d="m 22.369865,-13.981535 c -2.125,0 -4.25,-2 -8.5,-2 -4.2499994,0 -6.3749994,2 -8.4999994,2 -2.125,0 -4.25,-2 -8.5,-2 -4.2500005,0 -6.3750005,2 -8.5000006,2 -2.125,0 -4.25,-2 -8.5,-2 -4.832496,10e-6 -8.749991,3.917527 -8.749981,8.75002 10e-6,4.8324928 3.91752,8.7499947 8.749998,8.7499827 4.249983,-2.3e-6 6.374983,1.9999977 8.499983,1.9999977 2.1250001,0 4.2500001,-2 8.5000006,-2 4.25,0 6.375,2 8.5,2 2.125,0 4.25,-2 8.5000004,-2 4.249999,0 6.374999,2 8.499999,2 2.125,0 4.25,-2 8.5,-1.9999998 4.250012,2e-7 6.37501,1.9999998 8.500008,1.9999998 2.125,0 4.250001,-1.9999996 8.499998,-1.9999996 4.250001,0 6.375,1.9999996 8.5,1.9999996 2.125,0 4.250001,-1.9999996 8.500001,-1.9999996 4.249995,0 6.374993,1.9999996 8.500006,1.9999996 2.124998,0 4.249997,-1.9999996 8.499963,-1.9999981 4.832478,1.32e-5 8.749992,-3.9174894 8.750006,-8.7499822 1.5e-5,-4.8324931 -3.917483,-8.7500101 -8.749976,-8.7500211 -4.249996,0 -6.374995,2.000002 -8.499993,2.000002 -2.125013,0 -4.250011,-2.000002 -8.500006,-2.000002 -4.25,0 -6.375001,2.000002 -8.500001,2.000002 -2.125,0 -4.249999,-2.000002 -8.5,-2.000002 -4.249997,0 -6.374998,2.000002 -8.499998,2.000002 -2.124998,0 -4.249996,-2.000002 -8.500008,-2.000001 -4.25,0 -6.375,2 -8.5,2 z"
         id="Pad_f0001-9-3-8-6-7-6"
         sodipodi:nodetypes="scscscscscscscscscscscscscscs" />
      <title
         id="title1-8-7-5-5-9-1-2">b'Pad'</title>
    </g>
    <g
       style="display:inline;opacity:1;fill:none;fill-opacity:1;stroke:#000000;stroke-width:0.14778151;stroke-miterlimit:4;stroke-dasharray:none;stroke-opacity:1"
       inkscape:label="17.5 run"
       transform="matrix(0.67648526,0,0,-0.67686412,-69.908902,123.35239)"
       id="Pad-2-0-7-3-7-9">
      <path
         inkscape:connector-curvature="0"
         style="fill:none;fill-opacity:1;fill-rule:evenodd;stroke:#000000;stroke-width:0.14778151;stroke-linecap:square;stroke-miterlimit:4;stroke-dasharray:none;stroke-opacity:1"
         d="m 22.369865,-13.981535 c -2.125,0 -4.25,-2 -8.5,-2 -4.2499994,0 -6.3749994,2 -8.4999994,2 -2.125,0 -4.25,-2 -8.5,-2 -4.2500005,0 -6.3750005,2 -8.5000006,2 -2.125,0 -4.25,-2 -8.5,-2 -4.832496,10e-6 -8.749991,3.917527 -8.749981,8.75002 10e-6,4.8324928 3.91752,8.7499947 8.749998,8.7499827 4.249983,-2.3e-6 6.374983,1.9999977 8.499983,1.9999977 2.1250001,0 4.2500001,-2 8.5000006,-2 4.25,0 6.375,2 8.5,2 2.125,0 4.25,-2 8.5000004,-2 4.249999,0 6.374999,2 8.499999,2 2.125,0 4.25,-2 8.5,-1.9999998 4.250012,2e-7 6.37501,1.9999998 8.500008,1.9999998 2.125,0 4.250001,-1.9999996 8.499998,-1.9999996 4.250001,0 6.375,1.9999996 8.5,1.9999996 2.125,0 4.250001,-1.9999996 8.500001,-1.9999996 4.249995,0 6.374993,1.9999996 8.500006,1.9999996 2.124998,0 4.249997,-1.9999996 8.499963,-1.9999981 4.832478,1.32e-5 8.749992,-3.9174894 8.750006,-8.7499822 1.5e-5,-4.8324931 -3.917483,-8.7500101 -8.749976,-8.7500211 -4.249996,0 -6.374995,2.000002 -8.499993,2.000002 -2.125013,0 -4.250011,-2.000002 -8.500006,-2.000002 -4.25,0 -6.375001,2.000002 -8.500001,2.000002 -2.125,0 -4.249999,-2.000002 -8.5,-2.000002 -4.249997,0 -6.374998,2.000002 -8.499998,2.000002 -2.124998,0 -4.249996,-2.000002 -8.500008,-2.000001 -4.25,0 -6.375,2 -8.5,2 z"
         id="Pad_f0001-9-3-8-74-2-9"
         sodipodi:nodetypes="scscscscscscscscscscscscscscs" />
      <title
         id="title1-8-7-5-5-52-7-08">b'Pad'</title>
    </g>
    <path
       inkscape:connector-curvature="0"
       style="display:inline;opacity:1;fill:none;fill-opacity:1;stroke:#000000;stroke-width:0.1;stroke-linecap:round;stroke-linejoin:round;stroke-miterlimit:4;stroke-dasharray:none;stroke-opacity:1;paint-order:fill markers stroke"
       d="m -96.056815,5.7347734 a 6.3850197,6.3850197 0 0 1 -6.385015,6.3850196 6.3850197,6.3850197 0 0 1 -6.38502,-6.3850196 6.3850197,6.3850197 0 0 1 6.38502,-6.38501984 6.3850197,6.3850197 0 0 1 6.385015,6.38501984 z"
       id="path7-0-3-2-13" />
    <path
       inkscape:connector-curvature="0"
       style="display:inline;opacity:1;fill:none;fill-opacity:1;stroke:#000000;stroke-width:0.1;stroke-linecap:round;stroke-linejoin:round;stroke-miterlimit:4;stroke-dasharray:none;stroke-opacity:1;paint-order:fill markers stroke"
       d="m -96.056805,26.040663 a 6.3850197,6.3850197 0 0 1 -6.385025,6.385031 6.3850197,6.3850197 0 0 1 -6.38502,-6.385031 6.3850197,6.3850197 0 0 1 6.38502,-6.385009 6.3850197,6.3850197 0 0 1 6.385025,6.385009 z"
       id="path7-0-3-2-2-1" />
    <path
       inkscape:connector-curvature="0"
       style="display:inline;opacity:1;fill:none;fill-opacity:1;stroke:#000000;stroke-width:0.1;stroke-linecap:round;stroke-linejoin:round;stroke-miterlimit:4;stroke-dasharray:none;stroke-opacity:1;paint-order:fill markers stroke"
       d="m -96.056815,46.346582 a 6.3850197,6.3850197 0 0 1 -6.385015,6.385031 6.3850197,6.3850197 0 0 1 -6.38502,-6.385031 6.3850197,6.3850197 0 0 1 6.38502,-6.385009 6.3850197,6.3850197 0 0 1 6.385015,6.385009 z"
       id="path7-0-3-2-6-1" />
    <path
       inkscape:connector-curvature="0"
       style="display:inline;opacity:1;fill:none;fill-opacity:1;stroke:#000000;stroke-width:0.1;stroke-linecap:round;stroke-linejoin:round;stroke-miterlimit:4;stroke-dasharray:none;stroke-opacity:1;paint-order:fill markers stroke"
       d="m -96.056815,66.652525 a 6.3850197,6.3850197 0 0 1 -6.385015,6.385018 6.3850197,6.3850197 0 0 1 -6.38502,-6.385018 6.3850197,6.3850197 0 0 1 6.38502,-6.38502 6.3850197,6.3850197 0 0 1 6.385015,6.38502 z"
       id="path7-0-3-2-1-0" />
    <path
       inkscape:connector-curvature="0"
       style="display:inline;opacity:1;fill:none;fill-opacity:1;stroke:#000000;stroke-width:0.1;stroke-linecap:round;stroke-linejoin:round;stroke-miterlimit:4;stroke-dasharray:none;stroke-opacity:1;paint-order:fill markers stroke"
       d="m -96.056815,86.958433 a 6.3850197,6.3850197 0 0 1 -6.385015,6.38502 6.3850197,6.3850197 0 0 1 -6.38502,-6.38502 6.3850197,6.3850197 0 0 1 6.38502,-6.38502 6.3850197,6.3850197 0 0 1 6.385015,6.38502 z"
       id="path7-0-3-2-0-3" />
    <path
       inkscape:connector-curvature="0"
       style="display:inline;opacity:1;fill:none;fill-opacity:1;stroke:#000000;stroke-width:0.1;stroke-linecap:round;stroke-linejoin:round;stroke-miterlimit:4;stroke-dasharray:none;stroke-opacity:1;paint-order:fill markers stroke"
       d="m -96.056815,107.26435 a 6.3850197,6.3850197 0 0 1 -6.385015,6.38502 6.3850197,6.3850197 0 0 1 -6.38502,-6.38502 6.3850197,6.3850197 0 0 1 6.38502,-6.38502 6.3850197,6.3850197 0 0 1 6.385015,6.38502 z"
       id="path7-0-3-2-61-4" />
    <path
       inkscape:connector-curvature="0"
       style="display:inline;opacity:1;fill:none;fill-opacity:1;stroke:#000000;stroke-width:0.1;stroke-linecap:round;stroke-linejoin:round;stroke-miterlimit:4;stroke-dasharray:none;stroke-opacity:1;paint-order:fill markers stroke"
       d="m -96.056815,127.57028 a 6.3850197,6.3850197 0 0 1 -6.385015,6.38502 6.3850197,6.3850197 0 0 1 -6.38502,-6.38502 6.3850197,6.3850197 0 0 1 6.38502,-6.38502 6.3850197,6.3850197 0 0 1 6.385015,6.38502 z"
       id="path7-0-3-2-5-0" />
    <path
       style="display:inline;opacity:1;fill:none;fill-opacity:1;stroke:#000000;stroke-width:0.1;stroke-linecap:round;stroke-linejoin:miter;stroke-miterlimit:4;stroke-dasharray:none;stroke-dashoffset:0;stroke-opacity:1"
       d="m -104.64419,142.99811 c -7.18238,0 -12.96459,-5.78221 -12.96459,-12.96458 V 3.2715434 c 0,-7.1823798 5.78221,-12.96459 12.96459,-12.96459 h 88.370815 c 7.1823802,0 12.9646002,5.7822102 12.9646002,12.96459 V 130.03353 c 0,7.18237 -5.78222,12.96458 -12.9646002,12.96458"
       id="rect2228-8-3"
       inkscape:connector-curvature="0"
       sodipodi:nodetypes="cssssssc" />
    <g
       style="display:inline;opacity:1;fill:none;fill-opacity:1;stroke:#000000;stroke-width:0.14778151;stroke-miterlimit:4;stroke-dasharray:none;stroke-opacity:1"
       inkscape:label="17.5 run"
       transform="matrix(0.67648526,0,0,-0.67686412,-69.756602,174.515)"
       id="Pad-2-0-7-43-6">
      <path
         inkscape:connector-curvature="0"
         style="fill:none;fill-opacity:1;fill-rule:evenodd;stroke:#000000;stroke-width:0.14778151;stroke-linecap:square;stroke-miterlimit:4;stroke-dasharray:none;stroke-opacity:1"
         d="m 22.369865,-13.981535 c -2.125,0 -4.25,-2 -8.5,-2 -4.2499994,0 -6.3749994,2 -8.4999994,2 -2.125,0 -4.25,-2 -8.5,-2 -4.2500005,0 -6.3750005,2 -8.5000006,2 -2.125,0 -4.25,-2 -8.5,-2 -4.832496,10e-6 -8.749991,3.917527 -8.749981,8.75002 10e-6,4.8324928 3.91752,8.7499947 8.749998,8.7499827 4.249983,-2.3e-6 6.374983,1.9999977 8.499983,1.9999977 2.1250001,0 4.2500001,-2 8.5000006,-2 4.25,0 6.375,2 8.5,2 2.125,0 4.25,-2 8.5000004,-2 4.249999,0 6.374999,2 8.499999,2 2.125,0 4.25,-2 8.5,-1.9999998 4.250012,2e-7 6.37501,1.9999998 8.500008,1.9999998 2.125,0 4.250001,-1.9999996 8.499998,-1.9999996 4.250001,0 6.375,1.9999996 8.5,1.9999996 2.125,0 4.250001,-1.9999996 8.500001,-1.9999996 4.249995,0 6.374993,1.9999996 8.500006,1.9999996 2.124998,0 4.249997,-1.9999996 8.499963,-1.9999981 4.832478,1.32e-5 8.749992,-3.9174894 8.750006,-8.7499822 1.5e-5,-4.8324931 -3.917483,-8.7500101 -8.749976,-8.7500211 -4.249996,0 -6.374995,2.000002 -8.499993,2.000002 -2.125013,0 -4.250011,-2.000002 -8.500006,-2.000002 -4.25,0 -6.375001,2.000002 -8.500001,2.000002 -2.125,0 -4.249999,-2.000002 -8.5,-2.000002 -4.249997,0 -6.374998,2.000002 -8.499998,2.000002 -2.124998,0 -4.249996,-2.000002 -8.500008,-2.000001 -4.25,0 -6.375,2 -8.5,2 z"
         id="Pad_f0001-9-3-8-14-1"
         sodipodi:nodetypes="scscscscscscscscscscscscscscs" />
      <title
         id="title1-8-7-5-5-92-2">b'Pad'</title>
    </g>
    <g
       style="display:inline;opacity:1;fill:none;fill-opacity:1;stroke:#000000;stroke-width:0.14778151;stroke-miterlimit:4;stroke-dasharray:none;stroke-opacity:1"
       inkscape:label="17.5 run"
       transform="matrix(0.67648526,0,0,-0.67686412,-69.756602,154.20905)"
       id="Pad-2-0-7-6-0-9">
      <path
         inkscape:connector-curvature="0"
         style="fill:none;fill-opacity:1;fill-rule:evenodd;stroke:#000000;stroke-width:0.14778151;stroke-linecap:square;stroke-miterlimit:4;stroke-dasharray:none;stroke-opacity:1"
         d="m 22.369865,-13.981535 c -2.125,0 -4.25,-2 -8.5,-2 -4.2499994,0 -6.3749994,2 -8.4999994,2 -2.125,0 -4.25,-2 -8.5,-2 -4.2500005,0 -6.3750005,2 -8.5000006,2 -2.125,0 -4.25,-2 -8.5,-2 -4.832496,10e-6 -8.749991,3.917527 -8.749981,8.75002 10e-6,4.8324928 3.91752,8.7499947 8.749998,8.7499827 4.249983,-2.3e-6 6.374983,1.9999977 8.499983,1.9999977 2.1250001,0 4.2500001,-2 8.5000006,-2 4.25,0 6.375,2 8.5,2 2.125,0 4.25,-2 8.5000004,-2 4.249999,0 6.374999,2 8.499999,2 2.125,0 4.25,-2 8.5,-1.9999998 4.250012,2e-7 6.37501,1.9999998 8.500008,1.9999998 2.125,0 4.250001,-1.9999996 8.499998,-1.9999996 4.250001,0 6.375,1.9999996 8.5,1.9999996 2.125,0 4.250001,-1.9999996 8.500001,-1.9999996 4.249995,0 6.374993,1.9999996 8.500006,1.9999996 2.124998,0 4.249997,-1.9999996 8.499963,-1.9999981 4.832478,1.32e-5 8.749992,-3.9174894 8.750006,-8.7499822 1.5e-5,-4.8324931 -3.917483,-8.7500101 -8.749976,-8.7500211 -4.249996,0 -6.374995,2.000002 -8.499993,2.000002 -2.125013,0 -4.250011,-2.000002 -8.500006,-2.000002 -4.25,0 -6.375001,2.000002 -8.500001,2.000002 -2.125,0 -4.249999,-2.000002 -8.5,-2.000002 -4.249997,0 -6.374998,2.000002 -8.499998,2.000002 -2.124998,0 -4.249996,-2.000002 -8.500008,-2.000001 -4.25,0 -6.375,2 -8.5,2 z"
         id="Pad_f0001-9-3-8-1-6-3"
         sodipodi:nodetypes="scscscscscscscscscscscscscscs" />
      <title
         id="title1-8-7-5-5-0-8-1">b'Pad'</title>
    </g>
    <g
       style="display:inline;opacity:1;fill:none;fill-opacity:1;stroke:#000000;stroke-width:0.14778151;stroke-miterlimit:4;stroke-dasharray:none;stroke-opacity:1"
       inkscape:label="17.5 run"
       transform="matrix(0.67648526,0,0,-0.67686412,-69.756602,194.8209)"
       id="Pad-2-0-7-63-9-9">
      <path
         inkscape:connector-curvature="0"
         style="fill:none;fill-opacity:1;fill-rule:evenodd;stroke:#000000;stroke-width:0.14778151;stroke-linecap:square;stroke-miterlimit:4;stroke-dasharray:none;stroke-opacity:1"
         d="m 22.369865,-13.981535 c -2.125,0 -4.25,-2 -8.5,-2 -4.2499994,0 -6.3749994,2 -8.4999994,2 -2.125,0 -4.25,-2 -8.5,-2 -4.2500005,0 -6.3750005,2 -8.5000006,2 -2.125,0 -4.25,-2 -8.5,-2 -4.832496,10e-6 -8.749991,3.917527 -8.749981,8.75002 10e-6,4.8324928 3.91752,8.7499947 8.749998,8.7499827 4.249983,-2.3e-6 6.374983,1.9999977 8.499983,1.9999977 2.1250001,0 4.2500001,-2 8.5000006,-2 4.25,0 6.375,2 8.5,2 2.125,0 4.25,-2 8.5000004,-2 4.249999,0 6.374999,2 8.499999,2 2.125,0 4.25,-2 8.5,-1.9999998 4.250012,2e-7 6.37501,1.9999998 8.500008,1.9999998 2.125,0 4.250001,-1.9999996 8.499998,-1.9999996 4.250001,0 6.375,1.9999996 8.5,1.9999996 2.125,0 4.250001,-1.9999996 8.500001,-1.9999996 4.249995,0 6.374993,1.9999996 8.500006,1.9999996 2.124998,0 4.249997,-1.9999996 8.499963,-1.9999981 4.832478,1.32e-5 8.749992,-3.9174894 8.750006,-8.7499822 1.5e-5,-4.8324931 -3.917483,-8.7500101 -8.749976,-8.7500211 -4.249996,0 -6.374995,2.000002 -8.499993,2.000002 -2.125013,0 -4.250011,-2.000002 -8.500006,-2.000002 -4.25,0 -6.375001,2.000002 -8.500001,2.000002 -2.125,0 -4.249999,-2.000002 -8.5,-2.000002 -4.249997,0 -6.374998,2.000002 -8.499998,2.000002 -2.124998,0 -4.249996,-2.000002 -8.500008,-2.000001 -4.25,0 -6.375,2 -8.5,2 z"
         id="Pad_f0001-9-3-8-2-2-4"
         sodipodi:nodetypes="scscscscscscscscscscscscscscs" />
      <title
         id="title1-8-7-5-5-06-6-7">b'Pad'</title>
    </g>
    <g
       style="display:inline;opacity:1;fill:none;fill-opacity:1;stroke:#000000;stroke-width:0.14778151;stroke-miterlimit:4;stroke-dasharray:none;stroke-opacity:1"
       inkscape:label="17.5 run"
       transform="matrix(0.67648526,0,0,-0.67686412,-69.756602,215.12682)"
       id="Pad-2-0-7-1-6-8">
      <path
         inkscape:connector-curvature="0"
         style="fill:none;fill-opacity:1;fill-rule:evenodd;stroke:#000000;stroke-width:0.14778151;stroke-linecap:square;stroke-miterlimit:4;stroke-dasharray:none;stroke-opacity:1"
         d="m 22.369865,-13.981535 c -2.125,0 -4.25,-2 -8.5,-2 -4.2499994,0 -6.3749994,2 -8.4999994,2 -2.125,0 -4.25,-2 -8.5,-2 -4.2500005,0 -6.3750005,2 -8.5000006,2 -2.125,0 -4.25,-2 -8.5,-2 -4.832496,10e-6 -8.749991,3.917527 -8.749981,8.75002 10e-6,4.8324928 3.91752,8.7499947 8.749998,8.7499827 4.249983,-2.3e-6 6.374983,1.9999977 8.499983,1.9999977 2.1250001,0 4.2500001,-2 8.5000006,-2 4.25,0 6.375,2 8.5,2 2.125,0 4.25,-2 8.5000004,-2 4.249999,0 6.374999,2 8.499999,2 2.125,0 4.25,-2 8.5,-1.9999998 4.250012,2e-7 6.37501,1.9999998 8.500008,1.9999998 2.125,0 4.250001,-1.9999996 8.499998,-1.9999996 4.250001,0 6.375,1.9999996 8.5,1.9999996 2.125,0 4.250001,-1.9999996 8.500001,-1.9999996 4.249995,0 6.374993,1.9999996 8.500006,1.9999996 2.124998,0 4.249997,-1.9999996 8.499963,-1.9999981 4.832478,1.32e-5 8.749992,-3.9174894 8.750006,-8.7499822 1.5e-5,-4.8324931 -3.917483,-8.7500101 -8.749976,-8.7500211 -4.249996,0 -6.374995,2.000002 -8.499993,2.000002 -2.125013,0 -4.250011,-2.000002 -8.500006,-2.000002 -4.25,0 -6.375001,2.000002 -8.500001,2.000002 -2.125,0 -4.249999,-2.000002 -8.5,-2.000002 -4.249997,0 -6.374998,2.000002 -8.499998,2.000002 -2.124998,0 -4.249996,-2.000002 -8.500008,-2.000001 -4.25,0 -6.375,2 -8.5,2 z"
         id="Pad_f0001-9-3-8-5-4-4"
         sodipodi:nodetypes="scscscscscscscscscscscscscscs" />
      <title
         id="title1-8-7-5-5-5-9-5">b'Pad'</title>
    </g>
    <g
       style="display:inline;opacity:1;fill:none;fill-opacity:1;stroke:#000000;stroke-width:0.14778151;stroke-miterlimit:4;stroke-dasharray:none;stroke-opacity:1"
       inkscape:label="17.5 run"
       transform="matrix(0.67648526,0,0,-0.67686412,-69.756602,235.43274)"
       id="Pad-2-0-7-4-5-0">
      <path
         inkscape:connector-curvature="0"
         style="fill:none;fill-opacity:1;fill-rule:evenodd;stroke:#000000;stroke-width:0.14778151;stroke-linecap:square;stroke-miterlimit:4;stroke-dasharray:none;stroke-opacity:1"
         d="m 22.369865,-13.981535 c -2.125,0 -4.25,-2 -8.5,-2 -4.2499994,0 -6.3749994,2 -8.4999994,2 -2.125,0 -4.25,-2 -8.5,-2 -4.2500005,0 -6.3750005,2 -8.5000006,2 -2.125,0 -4.25,-2 -8.5,-2 -4.832496,10e-6 -8.749991,3.917527 -8.749981,8.75002 10e-6,4.8324928 3.91752,8.7499947 8.749998,8.7499827 4.249983,-2.3e-6 6.374983,1.9999977 8.499983,1.9999977 2.1250001,0 4.2500001,-2 8.5000006,-2 4.25,0 6.375,2 8.5,2 2.125,0 4.25,-2 8.5000004,-2 4.249999,0 6.374999,2 8.499999,2 2.125,0 4.25,-2 8.5,-1.9999998 4.250012,2e-7 6.37501,1.9999998 8.500008,1.9999998 2.125,0 4.250001,-1.9999996 8.499998,-1.9999996 4.250001,0 6.375,1.9999996 8.5,1.9999996 2.125,0 4.250001,-1.9999996 8.500001,-1.9999996 4.249995,0 6.374993,1.9999996 8.500006,1.9999996 2.124998,0 4.249997,-1.9999996 8.499963,-1.9999981 4.832478,1.32e-5 8.749992,-3.9174894 8.750006,-8.7499822 1.5e-5,-4.8324931 -3.917483,-8.7500101 -8.749976,-8.7500211 -4.249996,0 -6.374995,2.000002 -8.499993,2.000002 -2.125013,0 -4.250011,-2.000002 -8.500006,-2.000002 -4.25,0 -6.375001,2.000002 -8.500001,2.000002 -2.125,0 -4.249999,-2.000002 -8.5,-2.000002 -4.249997,0 -6.374998,2.000002 -8.499998,2.000002 -2.124998,0 -4.249996,-2.000002 -8.500008,-2.000001 -4.25,0 -6.375,2 -8.5,2 z"
         id="Pad_f0001-9-3-8-7-0-3"
         sodipodi:nodetypes="scscscscscscscscscscscscscscs" />
      <title
         id="title1-8-7-5-5-6-4-6">b'Pad'</title>
    </g>
    <g
       style="display:inline;opacity:1;fill:none;fill-opacity:1;stroke:#000000;stroke-width:0.14778151;stroke-miterlimit:4;stroke-dasharray:none;stroke-opacity:1"
       inkscape:label="17.5 run"
       transform="matrix(0.67648526,0,0,-0.67686412,-69.756602,255.73868)"
       id="Pad-2-0-7-5-8-1">
      <path
         inkscape:connector-curvature="0"
         style="fill:none;fill-opacity:1;fill-rule:evenodd;stroke:#000000;stroke-width:0.14778151;stroke-linecap:square;stroke-miterlimit:4;stroke-dasharray:none;stroke-opacity:1"
         d="m 22.369865,-13.981535 c -2.125,0 -4.25,-2 -8.5,-2 -4.2499994,0 -6.3749994,2 -8.4999994,2 -2.125,0 -4.25,-2 -8.5,-2 -4.2500005,0 -6.3750005,2 -8.5000006,2 -2.125,0 -4.25,-2 -8.5,-2 -4.832496,10e-6 -8.749991,3.917527 -8.749981,8.75002 10e-6,4.8324928 3.91752,8.7499947 8.749998,8.7499827 4.249983,-2.3e-6 6.374983,1.9999977 8.499983,1.9999977 2.1250001,0 4.2500001,-2 8.5000006,-2 4.25,0 6.375,2 8.5,2 2.125,0 4.25,-2 8.5000004,-2 4.249999,0 6.374999,2 8.499999,2 2.125,0 4.25,-2 8.5,-1.9999998 4.250012,2e-7 6.37501,1.9999998 8.500008,1.9999998 2.125,0 4.250001,-1.9999996 8.499998,-1.9999996 4.250001,0 6.375,1.9999996 8.5,1.9999996 2.125,0 4.250001,-1.9999996 8.500001,-1.9999996 4.249995,0 6.374993,1.9999996 8.500006,1.9999996 2.124998,0 4.249997,-1.9999996 8.499963,-1.9999981 4.832478,1.32e-5 8.749992,-3.9174894 8.750006,-8.7499822 1.5e-5,-4.8324931 -3.917483,-8.7500101 -8.749976,-8.7500211 -4.249996,0 -6.374995,2.000002 -8.499993,2.000002 -2.125013,0 -4.250011,-2.000002 -8.500006,-2.000002 -4.25,0 -6.375001,2.000002 -8.500001,2.000002 -2.125,0 -4.249999,-2.000002 -8.5,-2.000002 -4.249997,0 -6.374998,2.000002 -8.499998,2.000002 -2.124998,0 -4.249996,-2.000002 -8.500008,-2.000001 -4.25,0 -6.375,2 -8.5,2 z"
         id="Pad_f0001-9-3-8-6-7-0"
         sodipodi:nodetypes="scscscscscscscscscscscscscscs" />
      <title
         id="title1-8-7-5-5-9-1-6">b'Pad'</title>
    </g>
    <g
       style="display:inline;opacity:1;fill:none;fill-opacity:1;stroke:#000000;stroke-width:0.14778151;stroke-miterlimit:4;stroke-dasharray:none;stroke-opacity:1"
       inkscape:label="17.5 run"
       transform="matrix(0.67648526,0,0,-0.67686412,-69.756602,276.0446)"
       id="Pad-2-0-7-3-7-3">
      <path
         inkscape:connector-curvature="0"
         style="fill:none;fill-opacity:1;fill-rule:evenodd;stroke:#000000;stroke-width:0.14778151;stroke-linecap:square;stroke-miterlimit:4;stroke-dasharray:none;stroke-opacity:1"
         d="m 22.369865,-13.981535 c -2.125,0 -4.25,-2 -8.5,-2 -4.2499994,0 -6.3749994,2 -8.4999994,2 -2.125,0 -4.25,-2 -8.5,-2 -4.2500005,0 -6.3750005,2 -8.5000006,2 -2.125,0 -4.25,-2 -8.5,-2 -4.832496,10e-6 -8.749991,3.917527 -8.749981,8.75002 10e-6,4.8324928 3.91752,8.7499947 8.749998,8.7499827 4.249983,-2.3e-6 6.374983,1.9999977 8.499983,1.9999977 2.1250001,0 4.2500001,-2 8.5000006,-2 4.25,0 6.375,2 8.5,2 2.125,0 4.25,-2 8.5000004,-2 4.249999,0 6.374999,2 8.499999,2 2.125,0 4.25,-2 8.5,-1.9999998 4.250012,2e-7 6.37501,1.9999998 8.500008,1.9999998 2.125,0 4.250001,-1.9999996 8.499998,-1.9999996 4.250001,0 6.375,1.9999996 8.5,1.9999996 2.125,0 4.250001,-1.9999996 8.500001,-1.9999996 4.249995,0 6.374993,1.9999996 8.500006,1.9999996 2.124998,0 4.249997,-1.9999996 8.499963,-1.9999981 4.832478,1.32e-5 8.749992,-3.9174894 8.750006,-8.7499822 1.5e-5,-4.8324931 -3.917483,-8.7500101 -8.749976,-8.7500211 -4.249996,0 -6.374995,2.000002 -8.499993,2.000002 -2.125013,0 -4.250011,-2.000002 -8.500006,-2.000002 -4.25,0 -6.375001,2.000002 -8.500001,2.000002 -2.125,0 -4.249999,-2.000002 -8.5,-2.000002 -4.249997,0 -6.374998,2.000002 -8.499998,2.000002 -2.124998,0 -4.249996,-2.000002 -8.500008,-2.000001 -4.25,0 -6.375,2 -8.5,2 z"
         id="Pad_f0001-9-3-8-74-2-2"
         sodipodi:nodetypes="scscscscscscscscscscscscscscs" />
      <title
         id="title1-8-7-5-5-52-7-0">b'Pad'</title>
    </g>
    <path
       inkscape:connector-curvature="0"
       style="display:inline;opacity:1;fill:none;fill-opacity:1;stroke:#000000;stroke-width:0.1;stroke-linecap:round;stroke-linejoin:round;stroke-miterlimit:4;stroke-dasharray:none;stroke-opacity:1;paint-order:fill markers stroke"
       d="m -95.904515,158.42696 a 6.3850197,6.3850197 0 0 1 -6.385015,6.38502 6.3850197,6.3850197 0 0 1 -6.38502,-6.38502 6.3850197,6.3850197 0 0 1 6.38502,-6.38502 6.3850197,6.3850197 0 0 1 6.385015,6.38502 z"
       id="path7-0-3-2-615" />
    <path
       inkscape:connector-curvature="0"
       style="display:inline;opacity:1;fill:none;fill-opacity:1;stroke:#000000;stroke-width:0.1;stroke-linecap:round;stroke-linejoin:round;stroke-miterlimit:4;stroke-dasharray:none;stroke-opacity:1;paint-order:fill markers stroke"
       d="m -95.904505,178.73286 a 6.3850197,6.3850197 0 0 1 -6.385025,6.38502 6.3850197,6.3850197 0 0 1 -6.38502,-6.38502 6.3850197,6.3850197 0 0 1 6.38502,-6.38502 6.3850197,6.3850197 0 0 1 6.385025,6.38502 z"
       id="path7-0-3-2-2-5" />
    <path
       inkscape:connector-curvature="0"
       style="display:inline;opacity:1;fill:none;fill-opacity:1;stroke:#000000;stroke-width:0.1;stroke-linecap:round;stroke-linejoin:round;stroke-miterlimit:4;stroke-dasharray:none;stroke-opacity:1;paint-order:fill markers stroke"
       d="m -95.904515,199.03878 a 6.3850197,6.3850197 0 0 1 -6.385015,6.38503 6.3850197,6.3850197 0 0 1 -6.38502,-6.38503 6.3850197,6.3850197 0 0 1 6.38502,-6.38501 6.3850197,6.3850197 0 0 1 6.385015,6.38501 z"
       id="path7-0-3-2-6-4" />
    <path
       inkscape:connector-curvature="0"
       style="display:inline;opacity:1;fill:none;fill-opacity:1;stroke:#000000;stroke-width:0.1;stroke-linecap:round;stroke-linejoin:round;stroke-miterlimit:4;stroke-dasharray:none;stroke-opacity:1;paint-order:fill markers stroke"
       d="m -95.904515,219.34472 a 6.3850197,6.3850197 0 0 1 -6.385015,6.38502 6.3850197,6.3850197 0 0 1 -6.38502,-6.38502 6.3850197,6.3850197 0 0 1 6.38502,-6.38502 6.3850197,6.3850197 0 0 1 6.385015,6.38502 z"
       id="path7-0-3-2-1-7" />
    <path
       inkscape:connector-curvature="0"
       style="display:inline;opacity:1;fill:none;fill-opacity:1;stroke:#000000;stroke-width:0.1;stroke-linecap:round;stroke-linejoin:round;stroke-miterlimit:4;stroke-dasharray:none;stroke-opacity:1;paint-order:fill markers stroke"
       d="m -95.904515,239.65063 a 6.3850197,6.3850197 0 0 1 -6.385015,6.38502 6.3850197,6.3850197 0 0 1 -6.38502,-6.38502 6.3850197,6.3850197 0 0 1 6.38502,-6.38502 6.3850197,6.3850197 0 0 1 6.385015,6.38502 z"
       id="path7-0-3-2-0-6" />
    <path
       inkscape:connector-curvature="0"
       style="display:inline;opacity:1;fill:none;fill-opacity:1;stroke:#000000;stroke-width:0.1;stroke-linecap:round;stroke-linejoin:round;stroke-miterlimit:4;stroke-dasharray:none;stroke-opacity:1;paint-order:fill markers stroke"
       d="m -95.904515,259.95656 a 6.3850197,6.3850197 0 0 1 -6.385015,6.38503 6.3850197,6.3850197 0 0 1 -6.38502,-6.38503 6.3850197,6.3850197 0 0 1 6.38502,-6.38503 6.3850197,6.3850197 0 0 1 6.385015,6.38503 z"
       id="path7-0-3-2-61-5" />
    <path
       inkscape:connector-curvature="0"
       style="display:inline;opacity:1;fill:none;fill-opacity:1;stroke:#000000;stroke-width:0.1;stroke-linecap:round;stroke-linejoin:round;stroke-miterlimit:4;stroke-dasharray:none;stroke-opacity:1;paint-order:fill markers stroke"
       d="m -95.904515,280.26248 a 6.3850197,6.3850197 0 0 1 -6.385015,6.38503 6.3850197,6.3850197 0 0 1 -6.38502,-6.38503 6.3850197,6.3850197 0 0 1 6.38502,-6.385 6.3850197,6.3850197 0 0 1 6.385015,6.385 z"
       id="path7-0-3-2-5-6" />
    <path
       style="display:inline;opacity:1;fill:none;fill-opacity:1;stroke:#000000;stroke-width:0.1;stroke-linecap:round;stroke-linejoin:miter;stroke-miterlimit:4;stroke-dasharray:none;stroke-dashoffset:0;stroke-opacity:1"
       d="m -104.49189,295.69031 c -7.18238,0 -12.96459,-5.7822 -12.96459,-12.96458 v -126.762 c 0,-7.18237 5.78221,-12.96458 12.96459,-12.96458 h 88.370815 c 7.1823802,0 12.9646002,5.78221 12.9646002,12.96458 v 126.762 c 0,7.18238 -5.78222,12.96458 -12.9646002,12.96458"
       id="rect2228-8-9"
       inkscape:connector-curvature="0"
       sodipodi:nodetypes="cssssssc" />
    <g
       style="display:inline;opacity:1;fill:none;fill-opacity:1;stroke:#000000;stroke-width:0.14778151;stroke-miterlimit:4;stroke-dasharray:none;stroke-opacity:1"
       inkscape:label="17.5 run"
       transform="matrix(0.67648526,0,0,-0.67686412,44.643405,174.515)"
       id="Pad-2-0-7-43-6-7">
      <path
         inkscape:connector-curvature="0"
         style="fill:none;fill-opacity:1;fill-rule:evenodd;stroke:#000000;stroke-width:0.14778151;stroke-linecap:square;stroke-miterlimit:4;stroke-dasharray:none;stroke-opacity:1"
         d="m 22.369865,-13.981535 c -2.125,0 -4.25,-2 -8.5,-2 -4.2499994,0 -6.3749994,2 -8.4999994,2 -2.125,0 -4.25,-2 -8.5,-2 -4.2500005,0 -6.3750005,2 -8.5000006,2 -2.125,0 -4.25,-2 -8.5,-2 -4.832496,10e-6 -8.749991,3.917527 -8.749981,8.75002 10e-6,4.8324928 3.91752,8.7499947 8.749998,8.7499827 4.249983,-2.3e-6 6.374983,1.9999977 8.499983,1.9999977 2.1250001,0 4.2500001,-2 8.5000006,-2 4.25,0 6.375,2 8.5,2 2.125,0 4.25,-2 8.5000004,-2 4.249999,0 6.374999,2 8.499999,2 2.125,0 4.25,-2 8.5,-1.9999998 4.250012,2e-7 6.37501,1.9999998 8.500008,1.9999998 2.125,0 4.250001,-1.9999996 8.499998,-1.9999996 4.250001,0 6.375,1.9999996 8.5,1.9999996 2.125,0 4.250001,-1.9999996 8.500001,-1.9999996 4.249995,0 6.374993,1.9999996 8.500006,1.9999996 2.124998,0 4.249997,-1.9999996 8.499963,-1.9999981 4.832478,1.32e-5 8.749992,-3.9174894 8.750006,-8.7499822 1.5e-5,-4.8324931 -3.917483,-8.7500101 -8.749976,-8.7500211 -4.249996,0 -6.374995,2.000002 -8.499993,2.000002 -2.125013,0 -4.250011,-2.000002 -8.500006,-2.000002 -4.25,0 -6.375001,2.000002 -8.500001,2.000002 -2.125,0 -4.249999,-2.000002 -8.5,-2.000002 -4.249997,0 -6.374998,2.000002 -8.499998,2.000002 -2.124998,0 -4.249996,-2.000002 -8.500008,-2.000001 -4.25,0 -6.375,2 -8.5,2 z"
         id="Pad_f0001-9-3-8-14-1-4"
         sodipodi:nodetypes="scscscscscscscscscscscscscscs" />
      <title
         id="title1-8-7-5-5-92-2-5">b'Pad'</title>
    </g>
    <g
       style="display:inline;opacity:1;fill:none;fill-opacity:1;stroke:#000000;stroke-width:0.14778151;stroke-miterlimit:4;stroke-dasharray:none;stroke-opacity:1"
       inkscape:label="17.5 run"
       transform="matrix(0.67648526,0,0,-0.67686412,44.643405,154.20905)"
       id="Pad-2-0-7-6-0-9-2">
      <path
         inkscape:connector-curvature="0"
         style="fill:none;fill-opacity:1;fill-rule:evenodd;stroke:#000000;stroke-width:0.14778151;stroke-linecap:square;stroke-miterlimit:4;stroke-dasharray:none;stroke-opacity:1"
         d="m 22.369865,-13.981535 c -2.125,0 -4.25,-2 -8.5,-2 -4.2499994,0 -6.3749994,2 -8.4999994,2 -2.125,0 -4.25,-2 -8.5,-2 -4.2500005,0 -6.3750005,2 -8.5000006,2 -2.125,0 -4.25,-2 -8.5,-2 -4.832496,10e-6 -8.749991,3.917527 -8.749981,8.75002 10e-6,4.8324928 3.91752,8.7499947 8.749998,8.7499827 4.249983,-2.3e-6 6.374983,1.9999977 8.499983,1.9999977 2.1250001,0 4.2500001,-2 8.5000006,-2 4.25,0 6.375,2 8.5,2 2.125,0 4.25,-2 8.5000004,-2 4.249999,0 6.374999,2 8.499999,2 2.125,0 4.25,-2 8.5,-1.9999998 4.250012,2e-7 6.37501,1.9999998 8.500008,1.9999998 2.125,0 4.250001,-1.9999996 8.499998,-1.9999996 4.250001,0 6.375,1.9999996 8.5,1.9999996 2.125,0 4.250001,-1.9999996 8.500001,-1.9999996 4.249995,0 6.374993,1.9999996 8.500006,1.9999996 2.124998,0 4.249997,-1.9999996 8.499963,-1.9999981 4.832478,1.32e-5 8.749992,-3.9174894 8.750006,-8.7499822 1.5e-5,-4.8324931 -3.917483,-8.7500101 -8.749976,-8.7500211 -4.249996,0 -6.374995,2.000002 -8.499993,2.000002 -2.125013,0 -4.250011,-2.000002 -8.500006,-2.000002 -4.25,0 -6.375001,2.000002 -8.500001,2.000002 -2.125,0 -4.249999,-2.000002 -8.5,-2.000002 -4.249997,0 -6.374998,2.000002 -8.499998,2.000002 -2.124998,0 -4.249996,-2.000002 -8.500008,-2.000001 -4.25,0 -6.375,2 -8.5,2 z"
         id="Pad_f0001-9-3-8-1-6-3-5"
         sodipodi:nodetypes="scscscscscscscscscscscscscscs" />
      <title
         id="title1-8-7-5-5-0-8-1-4">b'Pad'</title>
    </g>
    <g
       style="display:inline;opacity:1;fill:none;fill-opacity:1;stroke:#000000;stroke-width:0.14778151;stroke-miterlimit:4;stroke-dasharray:none;stroke-opacity:1"
       inkscape:label="17.5 run"
       transform="matrix(0.67648526,0,0,-0.67686412,44.643405,194.8209)"
       id="Pad-2-0-7-63-9-9-7">
      <path
         inkscape:connector-curvature="0"
         style="fill:none;fill-opacity:1;fill-rule:evenodd;stroke:#000000;stroke-width:0.14778151;stroke-linecap:square;stroke-miterlimit:4;stroke-dasharray:none;stroke-opacity:1"
         d="m 22.369865,-13.981535 c -2.125,0 -4.25,-2 -8.5,-2 -4.2499994,0 -6.3749994,2 -8.4999994,2 -2.125,0 -4.25,-2 -8.5,-2 -4.2500005,0 -6.3750005,2 -8.5000006,2 -2.125,0 -4.25,-2 -8.5,-2 -4.832496,10e-6 -8.749991,3.917527 -8.749981,8.75002 10e-6,4.8324928 3.91752,8.7499947 8.749998,8.7499827 4.249983,-2.3e-6 6.374983,1.9999977 8.499983,1.9999977 2.1250001,0 4.2500001,-2 8.5000006,-2 4.25,0 6.375,2 8.5,2 2.125,0 4.25,-2 8.5000004,-2 4.249999,0 6.374999,2 8.499999,2 2.125,0 4.25,-2 8.5,-1.9999998 4.250012,2e-7 6.37501,1.9999998 8.500008,1.9999998 2.125,0 4.250001,-1.9999996 8.499998,-1.9999996 4.250001,0 6.375,1.9999996 8.5,1.9999996 2.125,0 4.250001,-1.9999996 8.500001,-1.9999996 4.249995,0 6.374993,1.9999996 8.500006,1.9999996 2.124998,0 4.249997,-1.9999996 8.499963,-1.9999981 4.832478,1.32e-5 8.749992,-3.9174894 8.750006,-8.7499822 1.5e-5,-4.8324931 -3.917483,-8.7500101 -8.749976,-8.7500211 -4.249996,0 -6.374995,2.000002 -8.499993,2.000002 -2.125013,0 -4.250011,-2.000002 -8.500006,-2.000002 -4.25,0 -6.375001,2.000002 -8.500001,2.000002 -2.125,0 -4.249999,-2.000002 -8.5,-2.000002 -4.249997,0 -6.374998,2.000002 -8.499998,2.000002 -2.124998,0 -4.249996,-2.000002 -8.500008,-2.000001 -4.25,0 -6.375,2 -8.5,2 z"
         id="Pad_f0001-9-3-8-2-2-4-4"
         sodipodi:nodetypes="scscscscscscscscscscscscscscs" />
      <title
         id="title1-8-7-5-5-06-6-7-4">b'Pad'</title>
    </g>
    <g
       style="display:inline;opacity:1;fill:none;fill-opacity:1;stroke:#000000;stroke-width:0.14778151;stroke-miterlimit:4;stroke-dasharray:none;stroke-opacity:1"
       inkscape:label="17.5 run"
       transform="matrix(0.67648526,0,0,-0.67686412,44.643405,215.12682)"
       id="Pad-2-0-7-1-6-8-3">
      <path
         inkscape:connector-curvature="0"
         style="fill:none;fill-opacity:1;fill-rule:evenodd;stroke:#000000;stroke-width:0.14778151;stroke-linecap:square;stroke-miterlimit:4;stroke-dasharray:none;stroke-opacity:1"
         d="m 22.369865,-13.981535 c -2.125,0 -4.25,-2 -8.5,-2 -4.2499994,0 -6.3749994,2 -8.4999994,2 -2.125,0 -4.25,-2 -8.5,-2 -4.2500005,0 -6.3750005,2 -8.5000006,2 -2.125,0 -4.25,-2 -8.5,-2 -4.832496,10e-6 -8.749991,3.917527 -8.749981,8.75002 10e-6,4.8324928 3.91752,8.7499947 8.749998,8.7499827 4.249983,-2.3e-6 6.374983,1.9999977 8.499983,1.9999977 2.1250001,0 4.2500001,-2 8.5000006,-2 4.25,0 6.375,2 8.5,2 2.125,0 4.25,-2 8.5000004,-2 4.249999,0 6.374999,2 8.499999,2 2.125,0 4.25,-2 8.5,-1.9999998 4.250012,2e-7 6.37501,1.9999998 8.500008,1.9999998 2.125,0 4.250001,-1.9999996 8.499998,-1.9999996 4.250001,0 6.375,1.9999996 8.5,1.9999996 2.125,0 4.250001,-1.9999996 8.500001,-1.9999996 4.249995,0 6.374993,1.9999996 8.500006,1.9999996 2.124998,0 4.249997,-1.9999996 8.499963,-1.9999981 4.832478,1.32e-5 8.749992,-3.9174894 8.750006,-8.7499822 1.5e-5,-4.8324931 -3.917483,-8.7500101 -8.749976,-8.7500211 -4.249996,0 -6.374995,2.000002 -8.499993,2.000002 -2.125013,0 -4.250011,-2.000002 -8.500006,-2.000002 -4.25,0 -6.375001,2.000002 -8.500001,2.000002 -2.125,0 -4.249999,-2.000002 -8.5,-2.000002 -4.249997,0 -6.374998,2.000002 -8.499998,2.000002 -2.124998,0 -4.249996,-2.000002 -8.500008,-2.000001 -4.25,0 -6.375,2 -8.5,2 z"
         id="Pad_f0001-9-3-8-5-4-4-0"
         sodipodi:nodetypes="scscscscscscscscscscscscscscs" />
      <title
         id="title1-8-7-5-5-5-9-5-7">b'Pad'</title>
    </g>
    <g
       style="display:inline;opacity:1;fill:none;fill-opacity:1;stroke:#000000;stroke-width:0.14778151;stroke-miterlimit:4;stroke-dasharray:none;stroke-opacity:1"
       inkscape:label="17.5 run"
       transform="matrix(0.67648526,0,0,-0.67686412,44.643405,235.43274)"
       id="Pad-2-0-7-4-5-0-8">
      <path
         inkscape:connector-curvature="0"
         style="fill:none;fill-opacity:1;fill-rule:evenodd;stroke:#000000;stroke-width:0.14778151;stroke-linecap:square;stroke-miterlimit:4;stroke-dasharray:none;stroke-opacity:1"
         d="m 22.369865,-13.981535 c -2.125,0 -4.25,-2 -8.5,-2 -4.2499994,0 -6.3749994,2 -8.4999994,2 -2.125,0 -4.25,-2 -8.5,-2 -4.2500005,0 -6.3750005,2 -8.5000006,2 -2.125,0 -4.25,-2 -8.5,-2 -4.832496,10e-6 -8.749991,3.917527 -8.749981,8.75002 10e-6,4.8324928 3.91752,8.7499947 8.749998,8.7499827 4.249983,-2.3e-6 6.374983,1.9999977 8.499983,1.9999977 2.1250001,0 4.2500001,-2 8.5000006,-2 4.25,0 6.375,2 8.5,2 2.125,0 4.25,-2 8.5000004,-2 4.249999,0 6.374999,2 8.499999,2 2.125,0 4.25,-2 8.5,-1.9999998 4.250012,2e-7 6.37501,1.9999998 8.500008,1.9999998 2.125,0 4.250001,-1.9999996 8.499998,-1.9999996 4.250001,0 6.375,1.9999996 8.5,1.9999996 2.125,0 4.250001,-1.9999996 8.500001,-1.9999996 4.249995,0 6.374993,1.9999996 8.500006,1.9999996 2.124998,0 4.249997,-1.9999996 8.499963,-1.9999981 4.832478,1.32e-5 8.749992,-3.9174894 8.750006,-8.7499822 1.5e-5,-4.8324931 -3.917483,-8.7500101 -8.749976,-8.7500211 -4.249996,0 -6.374995,2.000002 -8.499993,2.000002 -2.125013,0 -4.250011,-2.000002 -8.500006,-2.000002 -4.25,0 -6.375001,2.000002 -8.500001,2.000002 -2.125,0 -4.249999,-2.000002 -8.5,-2.000002 -4.249997,0 -6.374998,2.000002 -8.499998,2.000002 -2.124998,0 -4.249996,-2.000002 -8.500008,-2.000001 -4.25,0 -6.375,2 -8.5,2 z"
         id="Pad_f0001-9-3-8-7-0-3-6"
         sodipodi:nodetypes="scscscscscscscscscscscscscscs" />
      <title
         id="title1-8-7-5-5-6-4-6-8">b'Pad'</title>
    </g>
    <g
       style="display:inline;opacity:1;fill:none;fill-opacity:1;stroke:#000000;stroke-width:0.14778151;stroke-miterlimit:4;stroke-dasharray:none;stroke-opacity:1"
       inkscape:label="17.5 run"
       transform="matrix(0.67648526,0,0,-0.67686412,44.643405,255.73868)"
       id="Pad-2-0-7-5-8-1-8">
      <path
         inkscape:connector-curvature="0"
         style="fill:none;fill-opacity:1;fill-rule:evenodd;stroke:#000000;stroke-width:0.14778151;stroke-linecap:square;stroke-miterlimit:4;stroke-dasharray:none;stroke-opacity:1"
         d="m 22.369865,-13.981535 c -2.125,0 -4.25,-2 -8.5,-2 -4.2499994,0 -6.3749994,2 -8.4999994,2 -2.125,0 -4.25,-2 -8.5,-2 -4.2500005,0 -6.3750005,2 -8.5000006,2 -2.125,0 -4.25,-2 -8.5,-2 -4.832496,10e-6 -8.749991,3.917527 -8.749981,8.75002 10e-6,4.8324928 3.91752,8.7499947 8.749998,8.7499827 4.249983,-2.3e-6 6.374983,1.9999977 8.499983,1.9999977 2.1250001,0 4.2500001,-2 8.5000006,-2 4.25,0 6.375,2 8.5,2 2.125,0 4.25,-2 8.5000004,-2 4.249999,0 6.374999,2 8.499999,2 2.125,0 4.25,-2 8.5,-1.9999998 4.250012,2e-7 6.37501,1.9999998 8.500008,1.9999998 2.125,0 4.250001,-1.9999996 8.499998,-1.9999996 4.250001,0 6.375,1.9999996 8.5,1.9999996 2.125,0 4.250001,-1.9999996 8.500001,-1.9999996 4.249995,0 6.374993,1.9999996 8.500006,1.9999996 2.124998,0 4.249997,-1.9999996 8.499963,-1.9999981 4.832478,1.32e-5 8.749992,-3.9174894 8.750006,-8.7499822 1.5e-5,-4.8324931 -3.917483,-8.7500101 -8.749976,-8.7500211 -4.249996,0 -6.374995,2.000002 -8.499993,2.000002 -2.125013,0 -4.250011,-2.000002 -8.500006,-2.000002 -4.25,0 -6.375001,2.000002 -8.500001,2.000002 -2.125,0 -4.249999,-2.000002 -8.5,-2.000002 -4.249997,0 -6.374998,2.000002 -8.499998,2.000002 -2.124998,0 -4.249996,-2.000002 -8.500008,-2.000001 -4.25,0 -6.375,2 -8.5,2 z"
         id="Pad_f0001-9-3-8-6-7-0-4"
         sodipodi:nodetypes="scscscscscscscscscscscscscscs" />
      <title
         id="title1-8-7-5-5-9-1-6-3">b'Pad'</title>
    </g>
    <g
       style="display:inline;opacity:1;fill:none;fill-opacity:1;stroke:#000000;stroke-width:0.14778151;stroke-miterlimit:4;stroke-dasharray:none;stroke-opacity:1"
       inkscape:label="17.5 run"
       transform="matrix(0.67648526,0,0,-0.67686412,44.643405,276.0446)"
       id="Pad-2-0-7-3-7-3-1">
      <path
         inkscape:connector-curvature="0"
         style="fill:none;fill-opacity:1;fill-rule:evenodd;stroke:#000000;stroke-width:0.14778151;stroke-linecap:square;stroke-miterlimit:4;stroke-dasharray:none;stroke-opacity:1"
         d="m 22.369865,-13.981535 c -2.125,0 -4.25,-2 -8.5,-2 -4.2499994,0 -6.3749994,2 -8.4999994,2 -2.125,0 -4.25,-2 -8.5,-2 -4.2500005,0 -6.3750005,2 -8.5000006,2 -2.125,0 -4.25,-2 -8.5,-2 -4.832496,10e-6 -8.749991,3.917527 -8.749981,8.75002 10e-6,4.8324928 3.91752,8.7499947 8.749998,8.7499827 4.249983,-2.3e-6 6.374983,1.9999977 8.499983,1.9999977 2.1250001,0 4.2500001,-2 8.5000006,-2 4.25,0 6.375,2 8.5,2 2.125,0 4.25,-2 8.5000004,-2 4.249999,0 6.374999,2 8.499999,2 2.125,0 4.25,-2 8.5,-1.9999998 4.250012,2e-7 6.37501,1.9999998 8.500008,1.9999998 2.125,0 4.250001,-1.9999996 8.499998,-1.9999996 4.250001,0 6.375,1.9999996 8.5,1.9999996 2.125,0 4.250001,-1.9999996 8.500001,-1.9999996 4.249995,0 6.374993,1.9999996 8.500006,1.9999996 2.124998,0 4.249997,-1.9999996 8.499963,-1.9999981 4.832478,1.32e-5 8.749992,-3.9174894 8.750006,-8.7499822 1.5e-5,-4.8324931 -3.917483,-8.7500101 -8.749976,-8.7500211 -4.249996,0 -6.374995,2.000002 -8.499993,2.000002 -2.125013,0 -4.250011,-2.000002 -8.500006,-2.000002 -4.25,0 -6.375001,2.000002 -8.500001,2.000002 -2.125,0 -4.249999,-2.000002 -8.5,-2.000002 -4.249997,0 -6.374998,2.000002 -8.499998,2.000002 -2.124998,0 -4.249996,-2.000002 -8.500008,-2.000001 -4.25,0 -6.375,2 -8.5,2 z"
         id="Pad_f0001-9-3-8-74-2-2-4"
         sodipodi:nodetypes="scscscscscscscscscscscscscscs" />
      <title
         id="title1-8-7-5-5-52-7-0-9">b'Pad'</title>
    </g>
    <path
       inkscape:connector-curvature="0"
       style="display:inline;opacity:1;fill:none;fill-opacity:1;stroke:#000000;stroke-width:0.1;stroke-linecap:round;stroke-linejoin:round;stroke-miterlimit:4;stroke-dasharray:none;stroke-opacity:1;paint-order:fill markers stroke"
       d="m 18.495495,158.42696 a 6.3850197,6.3850197 0 0 1 -6.38502,6.38502 6.3850197,6.3850197 0 0 1 -6.3850198,-6.38502 6.3850197,6.3850197 0 0 1 6.3850198,-6.38502 6.3850197,6.3850197 0 0 1 6.38502,6.38502 z"
       id="path7-0-3-2-615-2" />
    <path
       inkscape:connector-curvature="0"
       style="display:inline;opacity:1;fill:none;fill-opacity:1;stroke:#000000;stroke-width:0.1;stroke-linecap:round;stroke-linejoin:round;stroke-miterlimit:4;stroke-dasharray:none;stroke-opacity:1;paint-order:fill markers stroke"
       d="m 18.495505,178.73286 a 6.3850197,6.3850197 0 0 1 -6.38503,6.38502 6.3850197,6.3850197 0 0 1 -6.3850198,-6.38502 6.3850197,6.3850197 0 0 1 6.3850198,-6.38502 6.3850197,6.3850197 0 0 1 6.38503,6.38502 z"
       id="path7-0-3-2-2-5-0" />
    <path
       inkscape:connector-curvature="0"
       style="display:inline;opacity:1;fill:none;fill-opacity:1;stroke:#000000;stroke-width:0.1;stroke-linecap:round;stroke-linejoin:round;stroke-miterlimit:4;stroke-dasharray:none;stroke-opacity:1;paint-order:fill markers stroke"
       d="m 18.495495,199.03878 a 6.3850197,6.3850197 0 0 1 -6.38502,6.38503 6.3850197,6.3850197 0 0 1 -6.3850198,-6.38503 6.3850197,6.3850197 0 0 1 6.3850198,-6.38501 6.3850197,6.3850197 0 0 1 6.38502,6.38501 z"
       id="path7-0-3-2-6-4-6" />
    <path
       inkscape:connector-curvature="0"
       style="display:inline;opacity:1;fill:none;fill-opacity:1;stroke:#000000;stroke-width:0.1;stroke-linecap:round;stroke-linejoin:round;stroke-miterlimit:4;stroke-dasharray:none;stroke-opacity:1;paint-order:fill markers stroke"
       d="m 18.495495,219.34472 a 6.3850197,6.3850197 0 0 1 -6.38502,6.38502 6.3850197,6.3850197 0 0 1 -6.3850198,-6.38502 6.3850197,6.3850197 0 0 1 6.3850198,-6.38502 6.3850197,6.3850197 0 0 1 6.38502,6.38502 z"
       id="path7-0-3-2-1-7-8" />
    <path
       inkscape:connector-curvature="0"
       style="display:inline;opacity:1;fill:none;fill-opacity:1;stroke:#000000;stroke-width:0.1;stroke-linecap:round;stroke-linejoin:round;stroke-miterlimit:4;stroke-dasharray:none;stroke-opacity:1;paint-order:fill markers stroke"
       d="m 18.495495,239.65063 a 6.3850197,6.3850197 0 0 1 -6.38502,6.38502 6.3850197,6.3850197 0 0 1 -6.3850198,-6.38502 6.3850197,6.3850197 0 0 1 6.3850198,-6.38502 6.3850197,6.3850197 0 0 1 6.38502,6.38502 z"
       id="path7-0-3-2-0-6-9" />
    <path
       inkscape:connector-curvature="0"
       style="display:inline;opacity:1;fill:none;fill-opacity:1;stroke:#000000;stroke-width:0.1;stroke-linecap:round;stroke-linejoin:round;stroke-miterlimit:4;stroke-dasharray:none;stroke-opacity:1;paint-order:fill markers stroke"
       d="m 18.495495,259.95656 a 6.3850197,6.3850197 0 0 1 -6.38502,6.38503 6.3850197,6.3850197 0 0 1 -6.3850198,-6.38503 6.3850197,6.3850197 0 0 1 6.3850198,-6.38503 6.3850197,6.3850197 0 0 1 6.38502,6.38503 z"
       id="path7-0-3-2-61-5-2" />
    <path
       inkscape:connector-curvature="0"
       style="display:inline;opacity:1;fill:none;fill-opacity:1;stroke:#000000;stroke-width:0.1;stroke-linecap:round;stroke-linejoin:round;stroke-miterlimit:4;stroke-dasharray:none;stroke-opacity:1;paint-order:fill markers stroke"
       d="m 18.495495,280.26248 a 6.3850197,6.3850197 0 0 1 -6.38502,6.38503 6.3850197,6.3850197 0 0 1 -6.3850198,-6.38503 6.3850197,6.3850197 0 0 1 6.3850198,-6.385 6.3850197,6.3850197 0 0 1 6.38502,6.385 z"
       id="path7-0-3-2-5-6-6" />
    <path
       style="display:inline;opacity:1;fill:none;fill-opacity:1;stroke:#000000;stroke-width:0.1;stroke-linecap:round;stroke-linejoin:miter;stroke-miterlimit:4;stroke-dasharray:none;stroke-dashoffset:0;stroke-opacity:1"
       d="m -3.0564748,155.96373 c 0,-7.18237 5.78221,-12.96458 12.96459,-12.96458 H 98.278935 c 7.182385,0 12.964605,5.78221 12.964605,12.96458 m 0,126.762 c 0,7.18238 -5.78222,12.96458 -12.964605,12.96458 h -47.05035 m -41.3204698,0 c -7.18238,0 -12.96459,-5.7822 -12.96459,-12.96458"
       id="rect2228-8-9-6"
       inkscape:connector-curvature="0"
       sodipodi:nodetypes="cssccsccc" />
    <path
       style="display:inline;opacity:1;fill:none;fill-opacity:1;stroke:#000000;stroke-width:0.1;stroke-linecap:round;stroke-linejoin:miter;stroke-miterlimit:4;stroke-dasharray:none;stroke-dashoffset:0;stroke-opacity:1"
       d="m 111.19125,3.2715434 c 0,-7.1823701 5.78221,-12.96458 12.96459,-12.96458 h 88.37083 c 7.18238,0 12.96458,5.7822099 12.96458,12.96458 V 130.03354 c 0,7.18237 -5.7822,12.96458 -12.96458,12.96458 m -29.61436,0 h -12.36838 m -46.38809,0 c -7.18238,0 -12.96459,-5.78221 -12.96459,-12.96458"
       id="rect2228-8-9-6-1"
       inkscape:connector-curvature="0"
       sodipodi:nodetypes="cssssccccc" />
    <path
       style="display:inline;opacity:1;fill:none;fill-opacity:1;stroke:#000000;stroke-width:0.1;stroke-linecap:round;stroke-linejoin:round;stroke-miterlimit:4;stroke-dasharray:none;stroke-dashoffset:0;stroke-opacity:1"
       d="m 117.02578,142.91649 h 53.63341 c 3.19333,0 5.76416,2.57081 5.76416,5.76414 v 153.39974 c 0,3.19331 -2.57083,5.76413 -5.76416,5.76413 h -53.63341 c -3.19333,0 -5.76414,-2.57082 -5.76414,-5.76413 V 148.68063 c 0,-3.19333 2.57081,-5.76414 5.76414,-5.76414 z"
       id="rect1979-36-9-3"
       inkscape:connector-curvature="0" />
    <path
       style="display:inline;opacity:1;fill:none;fill-opacity:1;stroke:#000000;stroke-width:0.1;stroke-linecap:round;stroke-linejoin:round;stroke-miterlimit:4;stroke-dasharray:none;stroke-dashoffset:0;stroke-opacity:1"
       d="m 176.42335,148.68063 c 0,-3.19333 2.57077,-5.76414 5.7641,-5.76414 h 53.6334 c 3.19333,0 5.76413,2.57081 5.76413,5.76414 v 153.39974 c 0,3.19331 -2.5708,5.76413 -5.76413,5.76413 h -53.6334 c -3.19333,0 -5.7641,-2.57082 -5.7641,-5.76413"
       id="rect1979-36-3-8"
       inkscape:connector-curvature="0"
       sodipodi:nodetypes="cssccssc" />
    <path
       style="display:inline;opacity:1;fill:none;fill-opacity:1;stroke:#000000;stroke-width:0.1;stroke-linecap:round;stroke-linejoin:round;stroke-miterlimit:4;stroke-dasharray:none;stroke-dashoffset:0;stroke-opacity:1"
       d="m 211.71045,146.96693 c 2.5118,0.59583 4.40513,3.46081 4.40513,6.92599 v 2.18086 c 0,3.4642 -1.89225,6.32853 -4.40296,6.92549 m -5.27989,0.0302 c -2.5786,-0.52359 -4.53998,-3.42874 -4.53998,-6.95568 v -2.18086 c 0,-3.57198 2.01181,-6.50619 4.63907,-6.97457"
       id="rect1981-9-0-9-2-04"
       inkscape:connector-curvature="0"
       sodipodi:nodetypes="cccccccc" />
    <path
       inkscape:connector-curvature="0"
       style="display:inline;opacity:1;fill:none;fill-opacity:1;stroke:#000000;stroke-width:0.1;stroke-linecap:round;stroke-linejoin:round;stroke-miterlimit:4;stroke-dasharray:none;stroke-dashoffset:0;stroke-opacity:1"
       d="m 237.16337,156.07378 c 0,3.90005 -3.13973,7.03981 -7.03979,7.03981 h -42.23885 c -3.90004,0 -7.0398,-3.13976 -7.0398,-7.03981 v -2.18086 c 0,-3.90005 3.13976,-7.03981 7.0398,-7.03981 h 42.23885 c 3.90006,0 7.03979,3.13976 7.03979,7.03981 z"
       id="rect1981-7-6-0-3-88"
       sodipodi:nodetypes="cssccsscc" />
    <path
       style="display:inline;opacity:1;fill:none;fill-opacity:1;stroke:#000000;stroke-width:0.1;stroke-linecap:round;stroke-linejoin:round;stroke-miterlimit:4;stroke-dasharray:none;stroke-dashoffset:0;stroke-opacity:1"
       d="m 211.71045,167.23158 c 2.5118,0.59583 4.40513,3.46081 4.40513,6.92599 v 2.18086 c 0,3.4642 -1.89225,6.32853 -4.40296,6.92549 m -5.27989,0.0302 c -2.5786,-0.52359 -4.53998,-3.42874 -4.53998,-6.95568 v -2.18086 c 0,-3.57198 2.01181,-6.50619 4.63907,-6.97457"
       id="rect1981-9-0-9-2-1-9"
       inkscape:connector-curvature="0"
       sodipodi:nodetypes="cccccccc" />
    <path
       inkscape:connector-curvature="0"
       style="display:inline;opacity:1;fill:none;fill-opacity:1;stroke:#000000;stroke-width:0.1;stroke-linecap:round;stroke-linejoin:round;stroke-miterlimit:4;stroke-dasharray:none;stroke-dashoffset:0;stroke-opacity:1"
       d="m 237.16337,176.33843 c 0,3.90005 -3.13973,7.03981 -7.03979,7.03981 h -42.23885 c -3.90004,0 -7.0398,-3.13976 -7.0398,-7.03981 v -2.18086 c 0,-3.90005 3.13976,-7.03981 7.0398,-7.03981 h 42.23885 c 3.90006,0 7.03979,3.13976 7.03979,7.03981 z"
       id="rect1981-7-6-0-3-2-7"
       sodipodi:nodetypes="cssccsscc" />
    <path
       style="display:inline;opacity:1;fill:none;fill-opacity:1;stroke:#000000;stroke-width:0.1;stroke-linecap:round;stroke-linejoin:round;stroke-miterlimit:4;stroke-dasharray:none;stroke-dashoffset:0;stroke-opacity:1"
       d="m 211.71045,187.49623 c 2.5118,0.59583 4.40513,3.46081 4.40513,6.92599 v 2.18086 c 0,3.4642 -1.89225,6.32853 -4.40296,6.92549 m -5.27989,0.0302 c -2.5786,-0.52359 -4.53998,-3.42874 -4.53998,-6.95568 v -2.18086 c 0,-3.57198 2.01181,-6.50619 4.63907,-6.97457"
       id="rect1981-9-0-9-2-0-6"
       inkscape:connector-curvature="0"
       sodipodi:nodetypes="cccccccc" />
    <path
       inkscape:connector-curvature="0"
       style="display:inline;opacity:1;fill:none;fill-opacity:1;stroke:#000000;stroke-width:0.1;stroke-linecap:round;stroke-linejoin:round;stroke-miterlimit:4;stroke-dasharray:none;stroke-dashoffset:0;stroke-opacity:1"
       d="m 237.16337,196.60308 c 0,3.90005 -3.13973,7.03981 -7.03979,7.03981 h -42.23885 c -3.90004,0 -7.0398,-3.13976 -7.0398,-7.03981 v -2.18086 c 0,-3.90005 3.13976,-7.03981 7.0398,-7.03981 h 42.23885 c 3.90006,0 7.03979,3.13976 7.03979,7.03981 z"
       id="rect1981-7-6-0-3-9-4"
       sodipodi:nodetypes="cssccsscc" />
    <path
       style="display:inline;opacity:1;fill:none;fill-opacity:1;stroke:#000000;stroke-width:0.1;stroke-linecap:round;stroke-linejoin:round;stroke-miterlimit:4;stroke-dasharray:none;stroke-dashoffset:0;stroke-opacity:1"
       d="m 211.71045,207.7609 c 2.5118,0.59583 4.40513,3.46081 4.40513,6.92599 v 2.18086 c 0,3.4642 -1.89225,6.32853 -4.40296,6.92549 m -5.27989,0.0302 c -2.5786,-0.52359 -4.53998,-3.42874 -4.53998,-6.95568 v -2.18086 c 0,-3.57198 2.01181,-6.50619 4.63907,-6.97457"
       id="rect1981-9-0-9-2-60-0"
       inkscape:connector-curvature="0"
       sodipodi:nodetypes="cccccccc" />
    <path
       inkscape:connector-curvature="0"
       style="display:inline;opacity:1;fill:none;fill-opacity:1;stroke:#000000;stroke-width:0.1;stroke-linecap:round;stroke-linejoin:round;stroke-miterlimit:4;stroke-dasharray:none;stroke-dashoffset:0;stroke-opacity:1"
       d="m 237.16337,216.86775 c 0,3.90005 -3.13973,7.03981 -7.03979,7.03981 h -42.23885 c -3.90004,0 -7.0398,-3.13976 -7.0398,-7.03981 v -2.18086 c 0,-3.90005 3.13976,-7.03981 7.0398,-7.03981 h 42.23885 c 3.90006,0 7.03979,3.13976 7.03979,7.03981 z"
       id="rect1981-7-6-0-3-6-3"
       sodipodi:nodetypes="cssccsscc" />
    <path
       style="display:inline;opacity:1;fill:none;fill-opacity:1;stroke:#000000;stroke-width:0.1;stroke-linecap:round;stroke-linejoin:round;stroke-miterlimit:4;stroke-dasharray:none;stroke-dashoffset:0;stroke-opacity:1"
       d="m 211.71045,228.02555 c 2.5118,0.59583 4.40513,3.46081 4.40513,6.92599 v 2.18086 c 0,3.4642 -1.89225,6.32853 -4.40296,6.92549 m -5.27989,0.0302 c -2.5786,-0.52359 -4.53998,-3.42874 -4.53998,-6.95568 v -2.18086 c 0,-3.57198 2.01181,-6.50619 4.63907,-6.97457"
       id="rect1981-9-0-9-2-61-9"
       inkscape:connector-curvature="0"
       sodipodi:nodetypes="cccccccc" />
    <path
       inkscape:connector-curvature="0"
       style="display:inline;opacity:1;fill:none;fill-opacity:1;stroke:#000000;stroke-width:0.1;stroke-linecap:round;stroke-linejoin:round;stroke-miterlimit:4;stroke-dasharray:none;stroke-dashoffset:0;stroke-opacity:1"
       d="m 237.16337,237.1324 c 0,3.90005 -3.13973,7.03981 -7.03979,7.03981 h -42.23885 c -3.90004,0 -7.0398,-3.13976 -7.0398,-7.03981 v -2.18086 c 0,-3.90005 3.13976,-7.03981 7.0398,-7.03981 h 42.23885 c 3.90006,0 7.03979,3.13976 7.03979,7.03981 z"
       id="rect1981-7-6-0-3-8-2"
       sodipodi:nodetypes="cssccsscc" />
    <path
       style="display:inline;opacity:1;fill:none;fill-opacity:1;stroke:#000000;stroke-width:0.1;stroke-linecap:round;stroke-linejoin:round;stroke-miterlimit:4;stroke-dasharray:none;stroke-dashoffset:0;stroke-opacity:1"
       d="m 211.71045,248.29018 c 2.5118,0.59582 4.40513,3.4608 4.40513,6.926 v 2.18085 c 0,3.46419 -1.89225,6.32854 -4.40296,6.9255 m -5.27989,0.0302 c -2.5786,-0.52359 -4.53998,-3.42874 -4.53998,-6.95569 v -2.18085 c 0,-3.57198 2.01181,-6.50619 4.63907,-6.97457"
       id="rect1981-9-0-9-2-2-4"
       inkscape:connector-curvature="0"
       sodipodi:nodetypes="cccccccc" />
    <path
       inkscape:connector-curvature="0"
       style="display:inline;opacity:1;fill:none;fill-opacity:1;stroke:#000000;stroke-width:0.1;stroke-linecap:round;stroke-linejoin:round;stroke-miterlimit:4;stroke-dasharray:none;stroke-dashoffset:0;stroke-opacity:1"
       d="m 237.16337,257.39703 c 0,3.90007 -3.13973,7.03982 -7.03979,7.03982 h -42.23885 c -3.90004,0 -7.0398,-3.13978 -7.0398,-7.03982 v -2.18085 c 0,-3.90006 3.13976,-7.03982 7.0398,-7.03982 h 42.23885 c 3.90006,0 7.03979,3.13976 7.03979,7.03982 z"
       id="rect1981-7-6-0-3-0-0"
       sodipodi:nodetypes="cssccsscc" />
    <path
       style="display:inline;opacity:1;fill:none;fill-opacity:1;stroke:#000000;stroke-width:0.1;stroke-linecap:round;stroke-linejoin:round;stroke-miterlimit:4;stroke-dasharray:none;stroke-dashoffset:0;stroke-opacity:1"
       d="m 211.71045,268.55485 c 2.5118,0.59585 4.40513,3.46081 4.40513,6.926 v 2.18086 c 0,3.46419 -1.89225,6.32851 -4.40296,6.92549 m -5.27989,0.0302 c -2.5786,-0.52358 -4.53998,-3.42873 -4.53998,-6.95568 v -2.18086 c 0,-3.57198 2.01181,-6.50618 4.63907,-6.97457"
       id="rect1981-9-0-9-2-7-9"
       inkscape:connector-curvature="0"
       sodipodi:nodetypes="cccccccc" />
    <path
       inkscape:connector-curvature="0"
       style="display:inline;opacity:1;fill:none;fill-opacity:1;stroke:#000000;stroke-width:0.1;stroke-linecap:round;stroke-linejoin:round;stroke-miterlimit:4;stroke-dasharray:none;stroke-dashoffset:0;stroke-opacity:1"
       d="m 237.16337,277.66171 c 0,3.90003 -3.13973,7.03979 -7.03979,7.03979 h -42.23885 c -3.90004,0 -7.0398,-3.13976 -7.0398,-7.03979 v -2.18086 c 0,-3.90006 3.13976,-7.03982 7.0398,-7.03982 h 42.23885 c 3.90006,0 7.03979,3.13976 7.03979,7.03982 z"
       id="rect1981-7-6-0-3-5-4"
       sodipodi:nodetypes="cssccsscc" />
    <path
       style="display:inline;opacity:1;fill:none;fill-opacity:1;stroke:#000000;stroke-width:0.1;stroke-linecap:round;stroke-linejoin:round;stroke-miterlimit:4;stroke-dasharray:none;stroke-dashoffset:0;stroke-opacity:1"
       d="m 211.71045,288.8195 c 2.5118,0.59585 4.40513,3.46081 4.40513,6.926 v 2.18086 c 0,3.46419 -1.89225,6.32851 -4.40296,6.92549 m -5.27989,0.0302 c -2.5786,-0.52358 -4.53998,-3.42874 -4.53998,-6.95568 v -2.18086 c 0,-3.57198 2.01181,-6.50618 4.63907,-6.97457"
       id="rect1981-9-0-9-2-28-9"
       inkscape:connector-curvature="0"
       sodipodi:nodetypes="cccccccc" />
    <path
       inkscape:connector-curvature="0"
       style="display:inline;opacity:1;fill:none;fill-opacity:1;stroke:#000000;stroke-width:0.1;stroke-linecap:round;stroke-linejoin:round;stroke-miterlimit:4;stroke-dasharray:none;stroke-dashoffset:0;stroke-opacity:1"
       d="m 237.16337,297.92636 c 0,3.90003 -3.13973,7.03979 -7.03979,7.03979 h -42.23885 c -3.90004,0 -7.0398,-3.13976 -7.0398,-7.03979 v -2.18086 c 0,-3.90006 3.13976,-7.03982 7.0398,-7.03982 h 42.23885 c 3.90006,0 7.03979,3.13976 7.03979,7.03982 z"
       id="rect1981-7-6-0-3-97-2"
       sodipodi:nodetypes="cssccsscc" />
  </g>
</svg>
