<?xml version="1.0" encoding="UTF-8" standalone="no"?>
<!-- Created with Inkscape (http://www.inkscape.org/) -->

<svg
   xmlns:dc="http://purl.org/dc/elements/1.1/"
   xmlns:cc="http://creativecommons.org/ns#"
   xmlns:rdf="http://www.w3.org/1999/02/22-rdf-syntax-ns#"
   xmlns:svg="http://www.w3.org/2000/svg"
   xmlns="http://www.w3.org/2000/svg"
   xmlns:sodipodi="http://sodipodi.sourceforge.net/DTD/sodipodi-0.dtd"
   xmlns:inkscape="http://www.inkscape.org/namespaces/inkscape"
   width="198.93022mm"
   height="172.35339mm"
   viewBox="0 0 198.93022 172.35339"
   version="1.1"
   id="svg2751"
   inkscape:version="0.92.5 (2060ec1f9f, 2020-04-08)"
   sodipodi:docname="life-trackers2.svg">
  <defs
     id="defs2745" />
  <sodipodi:namedview
     id="base"
     pagecolor="#ffffff"
     bordercolor="#666666"
     borderopacity="1.0"
     inkscape:pageopacity="0.0"
     inkscape:pageshadow="2"
     inkscape:zoom="1.4"
     inkscape:cx="479.59606"
     inkscape:cy="325.9101"
     inkscape:document-units="mm"
     inkscape:current-layer="layer1"
     showgrid="false"
     fit-margin-top="0"
     fit-margin-left="0"
     fit-margin-right="0"
     fit-margin-bottom="0"
     inkscape:window-width="2560"
     inkscape:window-height="1376"
     inkscape:window-x="0"
     inkscape:window-y="27"
     inkscape:window-maximized="1" />
  <metadata
     id="metadata2748">
    <rdf:RDF>
      <cc:Work
         rdf:about="">
        <dc:format>image/svg+xml</dc:format>
        <dc:type
           rdf:resource="http://purl.org/dc/dcmitype/StillImage" />
        <dc:title />
      </cc:Work>
    </rdf:RDF>
  </metadata>
  <g
     inkscape:label="Layer 1"
     inkscape:groupmode="layer"
     id="layer1"
     transform="translate(88.125829,87.021938)">
    <path
       style="opacity:1;fill:none;fill-opacity:1;stroke:#000000;stroke-width:0.1;stroke-linecap:round;stroke-linejoin:round;stroke-miterlimit:4;stroke-dasharray:none;stroke-dashoffset:0;stroke-opacity:1"
       d="m -9.9158373,-83.381168 c 0,-1.98928 1.601478,-3.59077 3.590769,-3.59077 H 41.995711 c 1.98929,0 3.59077,1.60149 3.59077,3.59077 v 164.98661 c 0,1.98928 -1.60148,3.59076 -3.59077,3.59076 H -6.3250683 c -1.989291,0 -3.590769,-1.60148 -3.590769,-3.59076"
       id="rect1623-4-0"
       inkscape:connector-curvature="0"
       sodipodi:nodetypes="cssssssc" />
    <path
       inkscape:connector-curvature="0"
       style="opacity:1;fill:none;fill-opacity:1;stroke:#000000;stroke-width:0.1;stroke-linecap:round;stroke-linejoin:round;stroke-miterlimit:4;stroke-dasharray:none;stroke-dashoffset:0;stroke-opacity:1"
       d="m 28.136861,-71.748578 a 5.1026782,5.1026782 0 0 1 5.10268,5.10268 5.1026782,5.1026782 0 0 1 -5.10268,5.10268 5.1026782,5.1026782 0 0 1 -5.10267,-5.10268 5.1026782,5.1026782 0 0 1 5.10267,-5.10268 z"
       id="path1627-43-31-5-3" />
    <path
       inkscape:connector-curvature="0"
       style="opacity:1;fill:none;fill-opacity:1;stroke:#000000;stroke-width:0.1;stroke-linecap:round;stroke-linejoin:round;stroke-miterlimit:4;stroke-dasharray:none;stroke-dashoffset:0;stroke-opacity:1"
       d="m 28.306971,-38.408799 a 5.1026782,5.1026782 0 0 1 5.10268,5.10268 5.1026782,5.1026782 0 0 1 -5.10268,5.102681 5.1026782,5.1026782 0 0 1 -5.10268,-5.102681 5.1026782,5.1026782 0 0 1 5.10268,-5.10268 z"
       id="path1627-43-31-9-0-0" />
    <path
       inkscape:connector-curvature="0"
       style="opacity:1;fill:none;fill-opacity:1;stroke:#000000;stroke-width:0.1;stroke-linecap:round;stroke-linejoin:round;stroke-miterlimit:4;stroke-dasharray:none;stroke-dashoffset:0;stroke-opacity:1"
       d="m 27.550991,-5.0690071 a 5.1026782,5.1026782 0 0 1 5.10268,5.102669 5.1026782,5.1026782 0 0 1 -5.10268,5.10268 5.1026782,5.1026782 0 0 1 -5.10268,-5.10268 5.1026782,5.1026782 0 0 1 5.10268,-5.102669 z"
       id="path1627-43-31-4-3-4" />
    <path
       inkscape:connector-curvature="0"
       style="opacity:1;fill:none;fill-opacity:1;stroke:#000000;stroke-width:0.1;stroke-linecap:round;stroke-linejoin:round;stroke-miterlimit:4;stroke-dasharray:none;stroke-dashoffset:0;stroke-opacity:1"
       d="m 28.118001,28.270772 a 5.1026782,5.1026782 0 0 1 5.10268,5.10268 5.1026782,5.1026782 0 0 1 -5.10268,5.10268 5.1026782,5.1026782 0 0 1 -5.10267,-5.10268 5.1026782,5.1026782 0 0 1 5.10267,-5.10268 z"
       id="path1627-43-31-7-6-4" />
    <path
       inkscape:connector-curvature="0"
       style="opacity:1;fill:none;fill-opacity:1;stroke:#000000;stroke-width:0.1;stroke-linecap:round;stroke-linejoin:round;stroke-miterlimit:4;stroke-dasharray:none;stroke-dashoffset:0;stroke-opacity:1"
       d="m 28.429831,61.610552 a 5.1026782,5.1026782 0 0 1 5.10268,5.10268 5.1026782,5.1026782 0 0 1 -5.10268,5.10268 5.1026782,5.1026782 0 0 1 -5.10267,-5.10268 5.1026782,5.1026782 0 0 1 5.10267,-5.10268 z"
       id="path1627-43-31-8-1-4" />
    <path
       style="opacity:1;fill:none;fill-opacity:1;stroke:#000000;stroke-width:0.1;stroke-linecap:round;stroke-linejoin:round;stroke-miterlimit:4;stroke-dasharray:none;stroke-dashoffset:0;stroke-opacity:1"
       d="m -65.431559,-54.470938 v 10.734219 m 0,22.637732 v 10.722509 m 0,22.602971 v 10.730969 m 0,22.58173 v 10.76937 m 0,22.59707 v 2.78506 c 0,1.98929 1.60149,3.59077 3.59077,3.59077 h 48.32079 c 1.98928,0 3.5907607,-1.60148 3.5907607,-3.59077 v -164.9866 c 0,-1.98929 -1.6014807,-3.59077 -3.5907607,-3.59077 h -48.32079 c -1.98928,0 -3.59077,1.60148 -3.59077,3.59077 v 6.16765"
       id="rect1623-44-4"
       inkscape:connector-curvature="0"
       sodipodi:nodetypes="cccccccccssssssscc" />
    <path
       sodipodi:nodetypes="cccssssccc"
       inkscape:connector-curvature="0"
       id="rect1625-4-31-7"
       d="m -9.9292493,-56.429188 h -2.5187087 v 1.96443 h -71.254441 c -2.42288,0 -4.37343,-1.601491 -4.37343,-3.590769 v -15.402541 c 0,-1.98929 1.95055,-3.59077 4.37343,-3.59077 h 71.254441 v -1.60779 h 2.5187087"
       style="opacity:1;fill:none;fill-opacity:1;stroke:#000000;stroke-width:0.1;stroke-linecap:round;stroke-linejoin:round;stroke-miterlimit:4;stroke-dasharray:none;stroke-dashoffset:0;stroke-opacity:1" />
    <path
       sodipodi:nodetypes="cccssssccc"
       inkscape:connector-curvature="0"
       id="rect1625-4-6-2-1"
       d="m -9.9292493,-23.089408 h -2.5187087 v 1.964431 h -71.254441 c -2.42288,0 -4.37343,-1.601491 -4.37343,-3.590772 v -15.402538 c 0,-1.989291 1.95055,-3.590769 4.37343,-3.590769 h 71.254441 v -1.607791 h 2.5187087"
       style="opacity:1;fill:none;fill-opacity:1;stroke:#000000;stroke-width:0.1;stroke-linecap:round;stroke-linejoin:round;stroke-miterlimit:4;stroke-dasharray:none;stroke-dashoffset:0;stroke-opacity:1" />
    <path
       sodipodi:nodetypes="cccssssccc"
       inkscape:connector-curvature="0"
       id="rect1625-4-6-9-4-9"
       d="m -9.9292493,10.250394 h -2.5187087 v 1.964428 h -71.254441 c -2.42288,0 -4.37343,-1.601488 -4.37343,-3.5907691 v -15.402541 c 0,-1.989289 1.95055,-3.5907689 4.37343,-3.5907689 h 71.254441 v -1.607791 h 2.5187087"
       style="opacity:1;fill:none;fill-opacity:1;stroke:#000000;stroke-width:0.1;stroke-linecap:round;stroke-linejoin:round;stroke-miterlimit:4;stroke-dasharray:none;stroke-dashoffset:0;stroke-opacity:1" />
    <path
       sodipodi:nodetypes="cccssssccc"
       inkscape:connector-curvature="0"
       id="rect1625-4-6-9-6-2-1"
       d="m -9.9292493,43.590172 h -2.5187087 v 1.96443 h -71.254441 c -2.42288,0 -4.37343,-1.60149 -4.37343,-3.59077 v -15.40254 c 0,-1.98929 1.95055,-3.59077 4.37343,-3.59077 h 71.254441 v -1.60779 h 2.5187087"
       style="opacity:1;fill:none;fill-opacity:1;stroke:#000000;stroke-width:0.1;stroke-linecap:round;stroke-linejoin:round;stroke-miterlimit:4;stroke-dasharray:none;stroke-dashoffset:0;stroke-opacity:1" />
    <path
       sodipodi:nodetypes="cccssssccc"
       inkscape:connector-curvature="0"
       id="rect1625-4-6-9-6-7-5-5"
       d="m -9.9292493,76.929962 h -2.5187087 v 1.96443 h -71.254441 c -2.42288,0 -4.37343,-1.60149 -4.37343,-3.59077 v -15.40254 c 0,-1.98929 1.95055,-3.59077 4.37343,-3.59077 h 71.254441 v -1.60779 h 2.5187087"
       style="opacity:1;fill:none;fill-opacity:1;stroke:#000000;stroke-width:0.1;stroke-linecap:round;stroke-linejoin:round;stroke-miterlimit:4;stroke-dasharray:none;stroke-dashoffset:0;stroke-opacity:1" />
    <path
       style="fill:none;stroke:#000000;stroke-width:0.1;stroke-linecap:butt;stroke-linejoin:miter;stroke-miterlimit:4;stroke-dasharray:none;stroke-opacity:1"
       d="M -12.447958,-78.656628 H -57.6135 v 1.60777"
       id="path1678-18"
       inkscape:connector-curvature="0" />
    <path
       style="fill:none;stroke:#000000;stroke-width:0.1;stroke-linecap:butt;stroke-linejoin:miter;stroke-miterlimit:4;stroke-dasharray:none;stroke-opacity:1"
       d="M -12.447958,-45.316847 H -57.6135 v 1.60777"
       id="path1678-9-5"
       inkscape:connector-curvature="0" />
    <path
       style="fill:none;stroke:#000000;stroke-width:0.1;stroke-linecap:butt;stroke-linejoin:miter;stroke-miterlimit:4;stroke-dasharray:none;stroke-opacity:1"
       d="m -12.447958,-11.977048 h -45.165531 v 1.60777"
       id="path1678-4-9"
       inkscape:connector-curvature="0" />
    <path
       style="fill:none;stroke:#000000;stroke-width:0.1;stroke-linecap:butt;stroke-linejoin:miter;stroke-miterlimit:4;stroke-dasharray:none;stroke-opacity:1"
       d="M -12.447958,21.362732 H -57.6135 v 1.60777"
       id="path1678-8-7"
       inkscape:connector-curvature="0" />
    <path
       style="fill:none;stroke:#000000;stroke-width:0.1;stroke-linecap:butt;stroke-linejoin:miter;stroke-miterlimit:4;stroke-dasharray:none;stroke-opacity:1"
       d="M -12.447958,54.702522 H -57.6135 v 1.60777"
       id="path1678-1-5"
       inkscape:connector-curvature="0" />
    <path
       style="opacity:1;fill:none;fill-opacity:1;stroke:#000000;stroke-width:0.1;stroke-linecap:round;stroke-linejoin:round;stroke-miterlimit:4;stroke-dasharray:none;stroke-dashoffset:0;stroke-opacity:1"
       d="m 45.592721,-77.444118 c 0,-3.19333 2.5708,-5.76414 5.76414,-5.76414 h 53.633399 c 3.19333,0 5.76414,2.57081 5.76414,5.76414 v 153.39972 c 0,3.19333 -2.57081,5.76414 -5.76414,5.76414 H 51.356861 c -3.19334,0 -5.76414,-2.57081 -5.76414,-5.76414"
       id="rect1979-36-38"
       inkscape:connector-curvature="0"
       sodipodi:nodetypes="cssssssc" />
    <path
       style="opacity:1;fill:none;fill-opacity:1;stroke:#000000;stroke-width:0.1;stroke-linecap:round;stroke-linejoin:round;stroke-miterlimit:4;stroke-dasharray:none;stroke-dashoffset:0;stroke-opacity:1"
       d="m 57.054131,-78.181158 h 42.23884 c 3.900049,0 7.039809,3.13976 7.039809,7.03981 0,3.90005 -3.13976,7.03981 -7.039809,7.03981 h -42.23884 c -3.90006,0 -7.03981,-3.13976 -7.03981,-7.03981 0,-3.90005 3.13975,-7.03981 7.03981,-7.03981 z"
       id="rect1981-7-8"
       inkscape:connector-curvature="0"
       sodipodi:nodetypes="sssssss" />
    <path
       style="opacity:1;fill:none;fill-opacity:1;stroke:#000000;stroke-width:0.1;stroke-linecap:round;stroke-linejoin:round;stroke-miterlimit:4;stroke-dasharray:none;stroke-dashoffset:0;stroke-opacity:1"
       d="m 57.054131,-57.916507 h 42.23884 c 3.900049,0 7.039809,3.139761 7.039809,7.039809 0,3.900051 -3.13976,7.039811 -7.039809,7.039811 h -42.23884 c -3.90006,0 -7.03981,-3.13976 -7.03981,-7.039811 0,-3.900048 3.13975,-7.039809 7.03981,-7.039809 z"
       id="rect1981-1-53-3"
       inkscape:connector-curvature="0"
       sodipodi:nodetypes="sssssss" />
    <path
       style="opacity:1;fill:none;fill-opacity:1;stroke:#000000;stroke-width:0.1;stroke-linecap:round;stroke-linejoin:round;stroke-miterlimit:4;stroke-dasharray:none;stroke-dashoffset:0;stroke-opacity:1"
       d="m 57.054131,-37.651857 h 42.23884 c 3.900049,0 7.039809,3.139749 7.039809,7.039811 0,3.900048 -3.13976,7.039797 -7.039809,7.039797 h -42.23884 c -3.90006,0 -7.03981,-3.139749 -7.03981,-7.039797 0,-3.900062 3.13975,-7.039811 7.03981,-7.039811 z"
       id="rect1981-1-5-5-1"
       inkscape:connector-curvature="0"
       sodipodi:nodetypes="sssssss" />
    <path
       style="opacity:1;fill:none;fill-opacity:1;stroke:#000000;stroke-width:0.1;stroke-linecap:round;stroke-linejoin:round;stroke-miterlimit:4;stroke-dasharray:none;stroke-dashoffset:0;stroke-opacity:1"
       d="m 57.054131,-17.387208 h 42.23884 c 3.900049,0 7.039809,3.139752 7.039809,7.039811 0,3.9000509 -3.13976,7.0397999 -7.039809,7.0397999 h -42.23884 c -3.90006,0 -7.03981,-3.139749 -7.03981,-7.0397999 0,-3.900059 3.13975,-7.039811 7.03981,-7.039811 z"
       id="rect1981-1-9-6-8"
       inkscape:connector-curvature="0"
       sodipodi:nodetypes="sssssss" />
    <path
       style="opacity:1;fill:none;fill-opacity:1;stroke:#000000;stroke-width:0.1;stroke-linecap:round;stroke-linejoin:round;stroke-miterlimit:4;stroke-dasharray:none;stroke-dashoffset:0;stroke-opacity:1"
       d="m 57.054131,2.8774439 h 42.23884 c 3.900049,0 7.039809,3.139749 7.039809,7.0398 0,3.9000581 -3.13976,7.0398081 -7.039809,7.0398081 h -42.23884 c -3.90006,0 -7.03981,-3.13975 -7.03981,-7.0398081 0,-3.900051 3.13975,-7.0398 7.03981,-7.0398 z"
       id="rect1981-1-4-2-9"
       inkscape:connector-curvature="0"
       sodipodi:nodetypes="sssssss" />
    <path
       style="opacity:1;fill:none;fill-opacity:1;stroke:#000000;stroke-width:0.1;stroke-linecap:round;stroke-linejoin:round;stroke-miterlimit:4;stroke-dasharray:none;stroke-dashoffset:0;stroke-opacity:1"
       d="m 57.054131,23.142092 h 42.23884 c 3.900049,0 7.039809,3.13975 7.039809,7.0398 0,3.90006 -3.13976,7.03981 -7.039809,7.03981 h -42.23884 c -3.90006,0 -7.03981,-3.13975 -7.03981,-7.03981 0,-3.90005 3.13975,-7.0398 7.03981,-7.0398 z"
       id="rect1981-1-3-9-6"
       inkscape:connector-curvature="0"
       sodipodi:nodetypes="sssssss" />
    <path
       style="opacity:1;fill:none;fill-opacity:1;stroke:#000000;stroke-width:0.1;stroke-linecap:round;stroke-linejoin:round;stroke-miterlimit:4;stroke-dasharray:none;stroke-dashoffset:0;stroke-opacity:1"
       d="m 57.054131,43.406732 h 42.23884 c 3.900049,0 7.039809,3.13976 7.039809,7.03981 0,3.90005 -3.13976,7.03981 -7.039809,7.03981 h -42.23884 c -3.90006,0 -7.03981,-3.13976 -7.03981,-7.03981 0,-3.90005 3.13975,-7.03981 7.03981,-7.03981 z"
       id="rect1981-1-5-6-1-4"
       inkscape:connector-curvature="0"
       sodipodi:nodetypes="sssssss" />
    <path
       style="opacity:1;fill:none;fill-opacity:1;stroke:#000000;stroke-width:0.1;stroke-linecap:round;stroke-linejoin:round;stroke-miterlimit:4;stroke-dasharray:none;stroke-dashoffset:0;stroke-opacity:1"
       d="m 57.054131,63.671382 h 42.23884 c 3.900049,0 7.039809,3.13976 7.039809,7.03981 0,3.90005 -3.13976,7.03981 -7.039809,7.03981 h -42.23884 c -3.90006,0 -7.03981,-3.13976 -7.03981,-7.03981 0,-3.90005 3.13975,-7.03981 7.03981,-7.03981 z"
       id="rect1981-1-9-7-2-3"
       inkscape:connector-curvature="0"
       sodipodi:nodetypes="sssssss" />
    <path
       style="opacity:1;fill:none;fill-opacity:1;stroke:#000000;stroke-width:0.1;stroke-linecap:round;stroke-linejoin:round;stroke-miterlimit:4;stroke-dasharray:none;stroke-dashoffset:0;stroke-opacity:1"
       d="m 81.267121,-78.133928 c 3.50914,0.40542 6.21615,3.37123 6.21615,6.99257 0,3.50515 -2.53611,6.39618 -5.88096,6.9457 m -6.57692,0.0403 c -3.48259,-0.42972 -6.16156,-3.38352 -6.16156,-6.98604 0,-3.61989 2.70485,-6.58478 6.21194,-6.99208"
       id="rect1981-9-0-3"
       inkscape:connector-curvature="0"
       sodipodi:nodetypes="csccsc" />
    <path
       style="opacity:1;fill:none;fill-opacity:1;stroke:#000000;stroke-width:0.1;stroke-linecap:round;stroke-linejoin:round;stroke-miterlimit:4;stroke-dasharray:none;stroke-dashoffset:0;stroke-opacity:1"
       d="m 81.267121,-57.868797 c 3.50914,0.405418 6.21615,3.371228 6.21615,6.99257 0,3.505149 -2.53611,6.39618 -5.88096,6.945699 m -6.57692,0.0403 c -3.48259,-0.42972 -6.16156,-3.383521 -6.16156,-6.98604 0,-3.619892 2.70485,-6.584781 6.21194,-6.99208"
       id="rect1981-9-0-3-2"
       inkscape:connector-curvature="0"
       sodipodi:nodetypes="csccsc" />
    <path
       style="opacity:1;fill:none;fill-opacity:1;stroke:#000000;stroke-width:0.1;stroke-linecap:round;stroke-linejoin:round;stroke-miterlimit:4;stroke-dasharray:none;stroke-dashoffset:0;stroke-opacity:1"
       d="m 81.267121,-37.603687 c 3.50914,0.405421 6.21615,3.37123 6.21615,6.992569 0,3.50515 -2.53611,6.396181 -5.88096,6.945702 m -6.57692,0.0403 c -3.48259,-0.42972 -6.16156,-3.38352 -6.16156,-6.986039 0,-3.619889 2.70485,-6.584781 6.21194,-6.992081"
       id="rect1981-9-0-3-4"
       inkscape:connector-curvature="0"
       sodipodi:nodetypes="csccsc" />
    <path
       style="opacity:1;fill:none;fill-opacity:1;stroke:#000000;stroke-width:0.1;stroke-linecap:round;stroke-linejoin:round;stroke-miterlimit:4;stroke-dasharray:none;stroke-dashoffset:0;stroke-opacity:1"
       d="m 81.267121,-17.338588 c 3.50914,0.405421 6.21615,3.37123 6.21615,6.992572 0,3.5051499 -2.53611,6.3961779 -5.88096,6.9456989 m -6.57692,0.0403 c -3.48259,-0.42972 -6.16156,-3.383521 -6.16156,-6.9860419 0,-3.619889 2.70485,-6.584778 6.21194,-6.992078"
       id="rect1981-9-0-3-7"
       inkscape:connector-curvature="0"
       sodipodi:nodetypes="csccsc" />
    <path
       style="opacity:1;fill:none;fill-opacity:1;stroke:#000000;stroke-width:0.1;stroke-linecap:round;stroke-linejoin:round;stroke-miterlimit:4;stroke-dasharray:none;stroke-dashoffset:0;stroke-opacity:1"
       d="m 81.267121,2.9265529 c 3.50914,0.405421 6.21615,3.371231 6.21615,6.99257 0,3.5051491 -2.53611,6.3961791 -5.88096,6.9456991 m -6.57692,0.0403 c -3.48259,-0.42972 -6.16156,-3.38352 -6.16156,-6.9860391 0,-3.619889 2.70485,-6.584781 6.21194,-6.99208"
       id="rect1981-9-0-3-75"
       inkscape:connector-curvature="0"
       sodipodi:nodetypes="csccsc" />
    <path
       style="opacity:1;fill:none;fill-opacity:1;stroke:#000000;stroke-width:0.1;stroke-linecap:round;stroke-linejoin:round;stroke-miterlimit:4;stroke-dasharray:none;stroke-dashoffset:0;stroke-opacity:1"
       d="m 81.267121,23.191662 c 3.50914,0.40542 6.21615,3.37123 6.21615,6.99257 0,3.50515 -2.53611,6.39618 -5.88096,6.9457 m -6.57692,0.0403 c -3.48259,-0.42972 -6.16156,-3.38352 -6.16156,-6.98604 0,-3.61989 2.70485,-6.58478 6.21194,-6.99208"
       id="rect1981-9-0-3-48"
       inkscape:connector-curvature="0"
       sodipodi:nodetypes="csccsc" />
    <path
       style="opacity:1;fill:none;fill-opacity:1;stroke:#000000;stroke-width:0.1;stroke-linecap:round;stroke-linejoin:round;stroke-miterlimit:4;stroke-dasharray:none;stroke-dashoffset:0;stroke-opacity:1"
       d="m 81.267121,43.456802 c 3.50914,0.40542 6.21615,3.37123 6.21615,6.99257 0,3.50515 -2.53611,6.39618 -5.88096,6.9457 m -6.57692,0.0403 c -3.48259,-0.42972 -6.16156,-3.38352 -6.16156,-6.98604 0,-3.61989 2.70485,-6.58478 6.21194,-6.99208"
       id="rect1981-9-0-3-1"
       inkscape:connector-curvature="0"
       sodipodi:nodetypes="csccsc" />
    <path
       style="opacity:1;fill:none;fill-opacity:1;stroke:#000000;stroke-width:0.1;stroke-linecap:round;stroke-linejoin:round;stroke-miterlimit:4;stroke-dasharray:none;stroke-dashoffset:0;stroke-opacity:1"
       d="m 81.267121,63.721902 c 3.50914,0.40542 6.21615,3.37123 6.21615,6.99257 0,3.50515 -2.53611,6.39618 -5.88096,6.9457 m -6.57692,0.0403 c -3.48259,-0.42972 -6.16156,-3.38352 -6.16156,-6.98604 0,-3.61989 2.70485,-6.58478 6.21194,-6.99208"
       id="rect1981-9-0-3-28"
       inkscape:connector-curvature="0"
       sodipodi:nodetypes="csccsc" />
  </g>
</svg>
