<?xml version="1.0" encoding="UTF-8" standalone="no"?>
<!-- Created with Inkscape (http://www.inkscape.org/) -->

<svg
   xmlns:dc="http://purl.org/dc/elements/1.1/"
   xmlns:cc="http://creativecommons.org/ns#"
   xmlns:rdf="http://www.w3.org/1999/02/22-rdf-syntax-ns#"
   xmlns:svg="http://www.w3.org/2000/svg"
   xmlns="http://www.w3.org/2000/svg"
   xmlns:sodipodi="http://sodipodi.sourceforge.net/DTD/sodipodi-0.dtd"
   xmlns:inkscape="http://www.inkscape.org/namespaces/inkscape"
   width="210mm"
   height="297mm"
   viewBox="0 0 210 297"
   version="1.1"
   id="svg859"
   inkscape:version="0.92.5 (2060ec1f9f, 2020-04-08)"
   sodipodi:docname="lino-multicolor-register.svg">
  <defs
     id="defs853" />
  <sodipodi:namedview
     id="base"
     pagecolor="#ffffff"
     bordercolor="#666666"
     borderopacity="1.0"
     inkscape:pageopacity="0.0"
     inkscape:pageshadow="2"
     inkscape:zoom="1.4142136"
     inkscape:cx="550.27087"
     inkscape:cy="565.61362"
     inkscape:document-units="mm"
     inkscape:current-layer="layer1"
     showgrid="false"
     inkscape:window-width="1920"
     inkscape:window-height="1016"
     inkscape:window-x="0"
     inkscape:window-y="27"
     inkscape:window-maximized="1" />
  <metadata
     id="metadata856">
    <rdf:RDF>
      <cc:Work
         rdf:about="">
        <dc:format>image/svg+xml</dc:format>
        <dc:type
           rdf:resource="http://purl.org/dc/dcmitype/StillImage" />
        <dc:title />
      </cc:Work>
    </rdf:RDF>
  </metadata>
  <g
     inkscape:label="bottom"
     inkscape:groupmode="layer"
     id="layer1"
     style="display:inline">
    <path
       style="opacity:1;fill:none;fill-opacity:1;stroke:#000000;stroke-width:0.1;stroke-linecap:round;stroke-linejoin:miter;stroke-miterlimit:4;stroke-dasharray:none;stroke-dashoffset:0;stroke-opacity:1"
       d="m 17.764877,91.639194 c -6.732206,0 -12.189736,-5.457532 -12.1897324,-12.18974 2.4e-6,-6.732196 5.4575314,-12.189728 12.1897324,-12.189728 6.732199,0 12.189729,5.457532 12.189731,12.189728"
       id="path1441"
       inkscape:connector-curvature="0"
       sodipodi:nodetypes="cssc" />
    <path
       style="opacity:1;fill:none;fill-opacity:1;stroke:#000000;stroke-width:0.1;stroke-linecap:round;stroke-linejoin:miter;stroke-miterlimit:4;stroke-dasharray:none;stroke-dashoffset:0;stroke-opacity:1"
       d="m 181.582,79.456304 c 0,-6.7322 5.45753,-12.18973 12.18974,-12.18973 6.73219,0 12.18972,5.45753 12.18972,12.18973 0,6.7322 -5.45753,12.18973 -12.18972,12.18974"
       id="path1441-5"
       inkscape:connector-curvature="0"
       sodipodi:nodetypes="cssc" />
    <path
       style="opacity:1;fill:none;fill-opacity:1;stroke:#000000;stroke-width:0.1;stroke-linecap:round;stroke-linejoin:miter;stroke-miterlimit:4;stroke-dasharray:none;stroke-dashoffset:0;stroke-opacity:1"
       d="m 193.76488,178.03342 c 6.73221,0 12.18974,5.45754 12.18974,12.18974 -1e-5,6.7322 -5.45753,12.18973 -12.18974,12.18973 -6.7322,0 -12.18973,-5.45753 -12.18973,-12.18973"
       id="path1441-6"
       inkscape:connector-curvature="0"
       sodipodi:nodetypes="cssc" />
    <path
       style="opacity:1;fill:none;fill-opacity:1;stroke:#000000;stroke-width:0.1;stroke-linecap:round;stroke-linejoin:miter;stroke-miterlimit:4;stroke-dasharray:none;stroke-dashoffset:0;stroke-opacity:1"
       d="m 29.947763,190.21631 c 0,6.73221 -5.45753,12.18974 -12.18974,12.18974 -6.73219,-1e-5 -12.18972,-5.45753 -12.18972,-12.18974 0,-6.7322 5.45753,-12.18973 12.18972,-12.18973"
       id="path1441-1"
       inkscape:connector-curvature="0"
       sodipodi:nodetypes="cssc" />
    <path
       style="fill:none;stroke:#000000;stroke-width:0.1;stroke-linecap:butt;stroke-linejoin:miter;stroke-miterlimit:4;stroke-dasharray:none;stroke-opacity:1"
       d="m 29.954609,79.449453 73.310271,0.0069 V 133.33631 H 17.764879 l -2e-6,-41.697117"
       id="path1509"
       inkscape:connector-curvature="0" />
    <path
       style="fill:none;stroke:#000000;stroke-width:0.1;stroke-linecap:butt;stroke-linejoin:miter;stroke-miterlimit:4;stroke-dasharray:none;stroke-opacity:1"
       d="m 181.582,79.456304 -73.31027,0.0069 v 53.879956 h 85.5 V 91.646044"
       id="path1509-3"
       inkscape:connector-curvature="0" />
    <path
       style="fill:none;stroke:#000000;stroke-width:0.1;stroke-linecap:butt;stroke-linejoin:miter;stroke-miterlimit:4;stroke-dasharray:none;stroke-opacity:1"
       d="m 29.954613,190.22326 73.310267,-0.007 V 136.3363 H 17.764883 v 41.69712"
       id="path1509-6"
       inkscape:connector-curvature="0" />
    <path
       style="fill:none;stroke:#000000;stroke-width:0.1;stroke-linecap:butt;stroke-linejoin:miter;stroke-miterlimit:4;stroke-dasharray:none;stroke-opacity:1"
       d="m 181.57515,190.22326 -73.31028,-0.007 V 136.3363 h 85.50001 v 41.69712"
       id="path1509-0"
       inkscape:connector-curvature="0" />
    <path
       style="display:inline;opacity:1;fill:none;fill-opacity:1;stroke:#000000;stroke-width:0.1;stroke-linecap:round;stroke-linejoin:miter;stroke-miterlimit:4;stroke-dasharray:none;stroke-dashoffset:0;stroke-opacity:1"
       d="m 5.5437409,166.88921 c -8.38911,4.40166 -14.11175,13.19608 -14.11175,23.3271 m 228.6589291,0.007 c 0,-10.1408 -5.7337,-18.94244 -14.13608,-23.33985 l 0.0312,-64.0999 c 8.3891,-4.401658 14.11174,-13.196078 14.11174,-23.327098 m -26.32604,-26.32604 c -10.14082,0 -18.94245,5.7337 -23.33986,14.13608 L 41.091983,67.235173 C 36.690324,58.846063 27.895899,53.123421 17.764879,53.123421 M -8.5611629,79.449463 c -1.9e-6,10.140813 5.7337065,18.942447 14.1360825,23.339857 l -0.031179,64.09989"
       id="path839-1"
       inkscape:connector-curvature="0"
       sodipodi:nodetypes="ccccccccccccc" />
    <rect
       style="display:inline;opacity:1;fill:none;fill-opacity:1;stroke:#000000;stroke-width:0.10000001;stroke-linecap:round;stroke-linejoin:miter;stroke-miterlimit:4;stroke-dasharray:none;stroke-dashoffset:0;stroke-opacity:1"
       id="rect923-7"
       width="228.65921"
       height="163.44235"
       x="-8.5665655"
       y="53.134186"
       rx="26.379501"
       ry="26.379505" />
  </g>
  <g
     inkscape:groupmode="layer"
     id="layer2"
     inkscape:label="top"
     style="display:inline">
    <rect
       style="opacity:1;fill:none;fill-opacity:1;stroke:#000000;stroke-width:0.1;stroke-linecap:round;stroke-linejoin:miter;stroke-miterlimit:4;stroke-dasharray:none;stroke-dashoffset:0;stroke-opacity:1"
       id="rect1549"
       width="39.158333"
       height="2.9000001"
       x="258.89481"
       y="150.49741" />
    <circle
       style="opacity:1;fill:none;fill-opacity:1;stroke:#000000;stroke-width:0.09999999;stroke-linecap:round;stroke-linejoin:miter;stroke-miterlimit:4;stroke-dasharray:none;stroke-dashoffset:0;stroke-opacity:1"
       id="path1551"
       cx="251.3448"
       cy="145.9474"
       r="7.4499998" />
    <rect
       style="opacity:1;fill:none;fill-opacity:1;stroke:#000000;stroke-width:0.1;stroke-linecap:round;stroke-linejoin:miter;stroke-miterlimit:4;stroke-dasharray:none;stroke-dashoffset:0;stroke-opacity:1"
       id="rect1549-6"
       width="39.158333"
       height="2.9000001"
       x="258.89481"
       y="147.59741" />
  </g>
</svg>
