<?xml version="1.0" encoding="UTF-8" standalone="no"?>
<!-- Created with Inkscape (http://www.inkscape.org/) -->

<svg
   xmlns:dc="http://purl.org/dc/elements/1.1/"
   xmlns:cc="http://creativecommons.org/ns#"
   xmlns:rdf="http://www.w3.org/1999/02/22-rdf-syntax-ns#"
   xmlns:svg="http://www.w3.org/2000/svg"
   xmlns="http://www.w3.org/2000/svg"
   xmlns:sodipodi="http://sodipodi.sourceforge.net/DTD/sodipodi-0.dtd"
   xmlns:inkscape="http://www.inkscape.org/namespaces/inkscape"
   width="333.06985mm"
   height="201.58752mm"
   viewBox="0 0 333.06984 201.58752"
   version="1.1"
   id="svg8"
   sodipodi:docname="coasters.svg"
   inkscape:version="0.92.5 (2060ec1f9f, 2020-04-08)">
  <defs
     id="defs2" />
  <sodipodi:namedview
     id="base"
     pagecolor="#ffffff"
     bordercolor="#666666"
     borderopacity="1.0"
     inkscape:pageopacity="0.0"
     inkscape:pageshadow="2"
     inkscape:zoom="1"
     inkscape:cx="442.48115"
     inkscape:cy="491.23459"
     inkscape:document-units="mm"
     inkscape:current-layer="layer1"
     showgrid="false"
     inkscape:window-width="2560"
     inkscape:window-height="1376"
     inkscape:window-x="0"
     inkscape:window-y="27"
     inkscape:window-maximized="1"
     fit-margin-top="0"
     fit-margin-left="0"
     fit-margin-right="0"
     fit-margin-bottom="0" />
  <metadata
     id="metadata5">
    <rdf:RDF>
      <cc:Work
         rdf:about="">
        <dc:format>image/svg+xml</dc:format>
        <dc:type
           rdf:resource="http://purl.org/dc/dcmitype/StillImage" />
        <dc:title></dc:title>
      </cc:Work>
    </rdf:RDF>
  </metadata>
  <g
     inkscape:label="Layer 1"
     inkscape:groupmode="layer"
     id="layer1"
     transform="translate(-52.856681,-70.030717)">
    <path
       inkscape:connector-curvature="0"
       id="path817"
       d="m 152.80668,120.03073 a 49.950001,49.950001 0 0 1 -49.95,49.95 49.950001,49.950001 0 0 1 -49.949999,-49.95 49.950001,49.950001 0 0 1 49.949999,-49.950013 49.950001,49.950001 0 0 1 49.95,49.950013 z"
       style="opacity:1;fill:none;fill-opacity:1;stroke:#000000;stroke-width:0.1;stroke-linecap:butt;stroke-miterlimit:4;stroke-dasharray:none;stroke-dashoffset:0;stroke-opacity:1" />
    <path
       style="opacity:1;fill:none;fill-opacity:1;stroke:#000000;stroke-width:0.1;stroke-linecap:butt;stroke-miterlimit:4;stroke-dasharray:none;stroke-dashoffset:0;stroke-opacity:1"
       d="m 103.80668,120.03072 a 0.94999999,0.94999999 0 0 1 -0.95,0.95 0.94999999,0.94999999 0 0 1 -0.95,-0.95 0.94999999,0.94999999 0 0 1 0.95,-0.95 0.94999999,0.94999999 0 0 1 0.95,0.95 z"
       id="path819"
       inkscape:connector-curvature="0" />
    <path
       inkscape:connector-curvature="0"
       id="path817-6"
       d="m 254.39418,120.03073 a 49.950001,49.950001 0 0 1 -49.95,49.95 49.950001,49.950001 0 0 1 -49.95,-49.95 49.950001,49.950001 0 0 1 49.95,-49.950013 49.950001,49.950001 0 0 1 49.95,49.950013 z"
       style="opacity:1;fill:none;fill-opacity:1;stroke:#000000;stroke-width:0.1;stroke-linecap:butt;stroke-miterlimit:4;stroke-dasharray:none;stroke-dashoffset:0;stroke-opacity:1" />
    <path
       style="opacity:1;fill:none;fill-opacity:1;stroke:#000000;stroke-width:0.1;stroke-linecap:butt;stroke-miterlimit:4;stroke-dasharray:none;stroke-dashoffset:0;stroke-opacity:1"
       d="m 205.39418,120.03072 a 0.94999999,0.94999999 0 0 1 -0.95,0.95 0.94999999,0.94999999 0 0 1 -0.95,-0.95 0.94999999,0.94999999 0 0 1 0.95,-0.95 0.94999999,0.94999999 0 0 1 0.95,0.95 z"
       id="path819-7"
       inkscape:connector-curvature="0" />
    <path
       inkscape:connector-curvature="0"
       id="path817-3"
       d="m 152.80668,221.61824 a 49.950001,49.950001 0 0 1 -49.95,49.95 49.950001,49.950001 0 0 1 -49.949999,-49.95 49.950001,49.950001 0 0 1 49.949999,-49.95001 49.950001,49.950001 0 0 1 49.95,49.95001 z"
       style="opacity:1;fill:none;fill-opacity:1;stroke:#000000;stroke-width:0.1;stroke-linecap:butt;stroke-miterlimit:4;stroke-dasharray:none;stroke-dashoffset:0;stroke-opacity:1" />
    <path
       style="opacity:1;fill:none;fill-opacity:1;stroke:#000000;stroke-width:0.1;stroke-linecap:butt;stroke-miterlimit:4;stroke-dasharray:none;stroke-dashoffset:0;stroke-opacity:1"
       d="m 103.80668,221.61823 a 0.94999999,0.94999999 0 0 1 -0.95,0.95 0.94999999,0.94999999 0 0 1 -0.95,-0.95 0.94999999,0.94999999 0 0 1 0.95,-0.95 0.94999999,0.94999999 0 0 1 0.95,0.95 z"
       id="path819-5"
       inkscape:connector-curvature="0" />
    <path
       inkscape:connector-curvature="0"
       id="path817-6-2"
       d="m 254.39418,221.61824 a 49.950001,49.950001 0 0 1 -49.95,49.95 49.950001,49.950001 0 0 1 -49.95,-49.95 49.950001,49.950001 0 0 1 49.95,-49.95001 49.950001,49.950001 0 0 1 49.95,49.95001 z"
       style="opacity:1;fill:none;fill-opacity:1;stroke:#000000;stroke-width:0.1;stroke-linecap:butt;stroke-miterlimit:4;stroke-dasharray:none;stroke-dashoffset:0;stroke-opacity:1" />
    <path
       style="opacity:1;fill:none;fill-opacity:1;stroke:#000000;stroke-width:0.1;stroke-linecap:butt;stroke-miterlimit:4;stroke-dasharray:none;stroke-dashoffset:0;stroke-opacity:1"
       d="m 205.39418,221.61823 a 0.94999999,0.94999999 0 0 1 -0.95,0.95 0.94999999,0.94999999 0 0 1 -0.95,-0.95 0.94999999,0.94999999 0 0 1 0.95,-0.95 0.94999999,0.94999999 0 0 1 0.95,0.95 z"
       id="path819-7-9"
       inkscape:connector-curvature="0" />
    <path
       inkscape:connector-curvature="0"
       id="path817-6-6"
       d="m 355.98168,120.03073 a 49.950001,49.950001 0 0 1 -49.95,49.95 49.950001,49.950001 0 0 1 -49.95,-49.95 49.950001,49.950001 0 0 1 49.95,-49.950013 49.950001,49.950001 0 0 1 49.95,49.950013 z"
       style="opacity:1;fill:none;fill-opacity:1;stroke:#000000;stroke-width:0.1;stroke-linecap:butt;stroke-miterlimit:4;stroke-dasharray:none;stroke-dashoffset:0;stroke-opacity:1" />
    <path
       style="opacity:1;fill:none;fill-opacity:1;stroke:#000000;stroke-width:0.1;stroke-linecap:butt;stroke-miterlimit:4;stroke-dasharray:none;stroke-dashoffset:0;stroke-opacity:1"
       d="m 306.98168,120.03072 a 0.94999999,0.94999999 0 0 1 -0.95,0.95 0.94999999,0.94999999 0 0 1 -0.95,-0.95 0.94999999,0.94999999 0 0 1 0.95,-0.95 0.94999999,0.94999999 0 0 1 0.95,0.95 z"
       id="path819-7-2"
       inkscape:connector-curvature="0" />
    <path
       inkscape:connector-curvature="0"
       id="path817-6-2-1"
       d="m 355.98168,221.61824 a 49.950001,49.950001 0 0 1 -49.95,49.95 49.950001,49.950001 0 0 1 -49.95,-49.95 49.950001,49.950001 0 0 1 49.95,-49.95001 49.950001,49.950001 0 0 1 49.95,49.95001 z"
       style="opacity:1;fill:none;fill-opacity:1;stroke:#000000;stroke-width:0.1;stroke-linecap:butt;stroke-miterlimit:4;stroke-dasharray:none;stroke-dashoffset:0;stroke-opacity:1" />
    <path
       style="opacity:1;fill:none;fill-opacity:1;stroke:#000000;stroke-width:0.1;stroke-linecap:butt;stroke-miterlimit:4;stroke-dasharray:none;stroke-dashoffset:0;stroke-opacity:1"
       d="m 306.98168,221.61823 a 0.94999999,0.94999999 0 0 1 -0.95,0.95 0.94999999,0.94999999 0 0 1 -0.95,-0.95 0.94999999,0.94999999 0 0 1 0.95,-0.95 0.94999999,0.94999999 0 0 1 0.95,0.95 z"
       id="path819-7-9-8"
       inkscape:connector-curvature="0" />
    <path
       style="display:inline;fill:none;stroke:#000000;stroke-width:0.1;stroke-linecap:butt;stroke-linejoin:miter;stroke-miterlimit:4;stroke-dasharray:none;stroke-opacity:1"
       d="m 385.87653,96.096737 v -22.03003 h -27.99998 v 88.120123 c 2.5539,-0.10626 27.99998,0 27.99998,0"
       id="path1540"
       inkscape:connector-curvature="0"
       sodipodi:nodetypes="cccc" />
    <path
       style="display:inline;fill:none;stroke:#000000;stroke-width:0.1;stroke-linecap:butt;stroke-linejoin:miter;stroke-miterlimit:4;stroke-dasharray:none;stroke-opacity:1"
       d="m 357.87655,96.096737 h 27.99998 v 22.030033"
       id="path1540-3"
       inkscape:connector-curvature="0"
       sodipodi:nodetypes="ccc" />
    <path
       style="display:inline;fill:none;stroke:#000000;stroke-width:0.1;stroke-linecap:butt;stroke-linejoin:miter;stroke-miterlimit:4;stroke-dasharray:none;stroke-opacity:1"
       d="m 357.87655,118.12677 h 27.99998 v 22.03003"
       id="path1540-5"
       inkscape:connector-curvature="0"
       sodipodi:nodetypes="ccc" />
    <path
       style="display:inline;fill:none;stroke:#000000;stroke-width:0.1;stroke-linecap:butt;stroke-linejoin:miter;stroke-miterlimit:4;stroke-dasharray:none;stroke-opacity:1"
       d="m 357.87655,140.1568 h 27.99998 v 22.03003"
       id="path1540-6"
       inkscape:connector-curvature="0"
       sodipodi:nodetypes="ccc" />
    <path
       style="fill:none;stroke:#000000;stroke-width:0.1;stroke-linecap:butt;stroke-linejoin:miter;stroke-miterlimit:4;stroke-dasharray:none;stroke-opacity:1"
       d="M 256.54064,143.40374 282.6089,169.472 254.35998,197.72092 228.29172,171.65266 Z"
       id="path1461"
       inkscape:connector-curvature="0" />
    <path
       style="fill:none;stroke:#000000;stroke-width:0.1;stroke-linecap:butt;stroke-linejoin:miter;stroke-miterlimit:4;stroke-dasharray:none;stroke-opacity:1"
       d="m 154.9749,143.71514 26.06826,26.06826 -28.24892,28.24893 -26.06826,-26.06827 z"
       id="path1461-3"
       inkscape:connector-curvature="0" />
  </g>
</svg>
