<?xml version="1.0" encoding="UTF-8" standalone="no"?>
<!-- Created with Inkscape (http://www.inkscape.org/) -->

<svg
   xmlns:dc="http://purl.org/dc/elements/1.1/"
   xmlns:cc="http://creativecommons.org/ns#"
   xmlns:rdf="http://www.w3.org/1999/02/22-rdf-syntax-ns#"
   xmlns:svg="http://www.w3.org/2000/svg"
   xmlns="http://www.w3.org/2000/svg"
   xmlns:sodipodi="http://sodipodi.sourceforge.net/DTD/sodipodi-0.dtd"
   xmlns:inkscape="http://www.inkscape.org/namespaces/inkscape"
   width="297mm"
   height="210mm"
   viewBox="0 0 297 210"
   version="1.1"
   id="svg8"
   inkscape:version="0.92.5 (2060ec1f9f, 2020-04-08)"
   sodipodi:docname="poison-identification-puzzle-jigsaw.svg">
  <defs
     id="defs2" />
  <sodipodi:namedview
     id="base"
     pagecolor="#ffffff"
     bordercolor="#666666"
     borderopacity="1.0"
     inkscape:pageopacity="0.0"
     inkscape:pageshadow="2"
     inkscape:zoom="0.98994949"
     inkscape:cx="572.93415"
     inkscape:cy="388.293"
     inkscape:document-units="mm"
     inkscape:current-layer="layer2"
     showgrid="false"
     inkscape:window-width="1920"
     inkscape:window-height="1016"
     inkscape:window-x="0"
     inkscape:window-y="27"
     inkscape:window-maximized="1" />
  <metadata
     id="metadata5">
    <rdf:RDF>
      <cc:Work
         rdf:about="">
        <dc:format>image/svg+xml</dc:format>
        <dc:type
           rdf:resource="http://purl.org/dc/dcmitype/StillImage" />
        <dc:title />
      </cc:Work>
    </rdf:RDF>
  </metadata>
  <g
     inkscape:groupmode="layer"
     id="layer2"
     inkscape:label="puzzle"
     style="display:inline">
    <path
       style="opacity:1;fill:none;fill-opacity:1;stroke:#000000;stroke-width:1.52600002;stroke-linecap:round;stroke-linejoin:miter;stroke-miterlimit:4;stroke-dasharray:none;stroke-dashoffset:0;stroke-opacity:1"
       d="M 36.572681,33.30489 H 263.15863 V 176.76455 H 36.572681 Z"
       id="rect941" />
    <path
       style="opacity:1;fill:none;fill-opacity:1;stroke:#000000;stroke-width:0.1;stroke-linecap:round;stroke-linejoin:miter;stroke-miterlimit:4;stroke-dasharray:none;stroke-dashoffset:0;stroke-opacity:1"
       d="m 232.64435,91.731247 h 18.52083 v 7.370536 h -18.52083 z"
       id="rect826" />
    <path
       style="display:inline;opacity:1;fill:none;fill-opacity:1;stroke:#000000;stroke-width:0.1;stroke-linecap:round;stroke-linejoin:miter;stroke-miterlimit:4;stroke-dasharray:none;stroke-dashoffset:0;stroke-opacity:1"
       d="m 211.47769,59.848957 h 23.05655 v 7.370536 h -23.05655 z"
       id="rect826-3" />
    <path
       style="display:inline;opacity:1;fill:none;fill-opacity:1;stroke:#000000;stroke-width:0.1;stroke-linecap:round;stroke-linejoin:miter;stroke-miterlimit:4;stroke-dasharray:none;stroke-dashoffset:0;stroke-opacity:1"
       d="m 70.303574,59.697765 h 13.985119 v 7.370536 H 70.303574 Z"
       id="rect826-6" />
    <path
       style="display:inline;opacity:1;fill:none;fill-opacity:1;stroke:#000000;stroke-width:0.1;stroke-linecap:round;stroke-linejoin:miter;stroke-miterlimit:4;stroke-dasharray:none;stroke-dashoffset:0;stroke-opacity:1"
       d="m 213.74553,46.619793 h 13.98512 v 7.370536 h -13.98512 z"
       id="rect826-6-2" />
    <path
       style="display:inline;opacity:1;fill:none;fill-opacity:1;stroke:#000000;stroke-width:0.1;stroke-linecap:round;stroke-linejoin:miter;stroke-miterlimit:4;stroke-dasharray:none;stroke-dashoffset:0;stroke-opacity:1"
       d="m 96.194939,104.82812 h 30.616071 v 7.37053 H 96.194939 Z"
       id="rect826-9" />
    <path
       transform="translate(0,-87.000001)"
       style="display:inline;opacity:1;fill:none;fill-opacity:1;stroke:#000000;stroke-width:0.1;stroke-linecap:round;stroke-linejoin:miter;stroke-miterlimit:4;stroke-dasharray:none;stroke-dashoffset:0;stroke-opacity:1"
       d="m 52.727676,210.72693 h 11.339287 v 7.37053 H 52.727676 Z"
       id="rect826-5" />
    <path
       style="display:inline;opacity:1;fill:none;fill-opacity:1;stroke:#000000;stroke-width:0.1;stroke-linecap:round;stroke-linejoin:miter;stroke-miterlimit:4;stroke-dasharray:none;stroke-dashoffset:0;stroke-opacity:1"
       d="m 126.6096,143.24806 h 15.875 v 7.37054 h -15.875 z"
       id="rect826-35" />
    <path
       transform="translate(0,-87.000001)"
       style="display:inline;opacity:1;fill:none;fill-opacity:1;stroke:#000000;stroke-width:0.1;stroke-linecap:round;stroke-linejoin:miter;stroke-miterlimit:4;stroke-dasharray:none;stroke-dashoffset:0;stroke-opacity:1"
       d="m 114.05431,133.4686 h 14.3631 v 7.37053 h -14.3631 z"
       id="rect826-7-6" />
    <path
       transform="translate(0,-87.000001)"
       style="display:inline;opacity:1;fill:none;fill-opacity:1;stroke:#000000;stroke-width:0.1;stroke-linecap:round;stroke-linejoin:miter;stroke-miterlimit:4;stroke-dasharray:none;stroke-dashoffset:0;stroke-opacity:1"
       d="m 113.39286,210.91592 h 20.5997 v 7.37054 h -20.5997 z"
       id="rect826-7" />
    <path
       style="fill:none;stroke:#000000;stroke-width:0.8;stroke-linecap:butt;stroke-linejoin:miter;stroke-miterlimit:4;stroke-dasharray:none;stroke-opacity:1"
       d="m 84.28869,63.534226 41.66006,5.48e-4 m 3.83883,6.3e-5 80.3865,0.0015"
       id="path916"
       inkscape:connector-curvature="0"
       sodipodi:nodetypes="cccc" />
    <path
       style="fill:none;stroke:#000000;stroke-width:0.8;stroke-linecap:butt;stroke-linejoin:miter;stroke-miterlimit:4;stroke-dasharray:none;stroke-opacity:1"
       d="m 223.80915,67.219493 16.86719,23.34003"
       id="path918"
       inkscape:connector-curvature="0"
       sodipodi:nodetypes="cc" />
    <path
       style="fill:none;stroke:#000000;stroke-width:0.8;stroke-linecap:butt;stroke-linejoin:miter;stroke-miterlimit:4;stroke-dasharray:none;stroke-opacity:1"
       d="m 126.82282,108.35984 65.02235,-43.339394 m 4.30171,-2.878217 16.29907,-11.026907"
       id="path922"
       inkscape:connector-curvature="0"
       sodipodi:nodetypes="cccc" />
    <path
       style="fill:#000000;fill-opacity:1;stroke:#000000;stroke-width:0.1;stroke-linecap:butt;stroke-linejoin:miter;stroke-miterlimit:4;stroke-dasharray:none;stroke-opacity:1"
       d="m 210.17408,63.536314 -2.3806,-1.487351 v 3.108115 z"
       id="path928"
       inkscape:connector-curvature="0" />
    <path
       style="display:inline;fill:#000000;fill-opacity:1;stroke:#000000;stroke-width:0.1;stroke-linecap:butt;stroke-linejoin:miter;stroke-miterlimit:4;stroke-dasharray:none;stroke-opacity:1"
       d="m 240.67634,90.559523 0.0716,-2.806125 -2.67711,1.579073 z"
       id="path928-1"
       inkscape:connector-curvature="0" />
    <path
       style="display:inline;fill:#000000;fill-opacity:1;stroke:#000000;stroke-width:0.1;stroke-linecap:butt;stroke-linejoin:miter;stroke-miterlimit:4;stroke-dasharray:none;stroke-opacity:1"
       d="m 212.44595,51.115322 -2.8056,0.08989 1.73044,2.581848 z"
       id="path928-7"
       inkscape:connector-curvature="0" />
    <path
       style="fill:none;stroke:#000000;stroke-width:0.8;stroke-linecap:butt;stroke-linejoin:miter;stroke-miterlimit:4;stroke-dasharray:none;stroke-opacity:1"
       d="M 123.55097,123.86867 112.83695,113.62139"
       id="path957"
       inkscape:connector-curvature="0"
       sodipodi:nodetypes="cc" />
    <path
       style="display:inline;fill:#000000;fill-opacity:1;stroke:#000000;stroke-width:0.1;stroke-linecap:butt;stroke-linejoin:miter;stroke-miterlimit:4;stroke-dasharray:none;stroke-opacity:1"
       d="m 139.94696,142.03515 -1.83275,-2.12614 3.07182,-0.47364 z"
       id="path928-0"
       inkscape:connector-curvature="0" />
    <path
       style="display:inline;fill:#000000;fill-opacity:1;stroke:#000000;stroke-width:0.1;stroke-linecap:butt;stroke-linejoin:miter;stroke-miterlimit:4;stroke-dasharray:none;stroke-opacity:1"
       d="m 65.64004,127.86608 2.760746,-0.50769 -1.142972,2.89032 z"
       id="path928-9"
       inkscape:connector-curvature="0" />
    <path
       style="display:inline;fill:#000000;fill-opacity:1;stroke:#000000;stroke-width:0.1;stroke-linecap:butt;stroke-linejoin:miter;stroke-miterlimit:4;stroke-dasharray:none;stroke-opacity:1"
       d="m 112.45275,113.35412 0.58677,2.74503 2.23345,-2.1615 z"
       id="path928-3"
       inkscape:connector-curvature="0" />
    <path
       style="fill:none;stroke:#000000;stroke-width:0.8;stroke-linecap:butt;stroke-linejoin:miter;stroke-miterlimit:4;stroke-dasharray:none;stroke-opacity:1"
       d="M 126.57478,146.92522 65.64004,127.86608"
       id="path988"
       inkscape:connector-curvature="0"
       sodipodi:nodetypes="cc" />
    <path
       style="display:inline;opacity:1;fill:none;fill-opacity:1;stroke:#000000;stroke-width:0.1;stroke-linecap:round;stroke-linejoin:miter;stroke-miterlimit:4;stroke-dasharray:none;stroke-dashoffset:0;stroke-opacity:1"
       d="m 71.248512,143.42894 h 18.993305 v 7.37054 H 71.248512 Z"
       id="rect826-5-6" />
    <path
       style="fill:none;stroke:#000000;stroke-width:0.8;stroke-linecap:butt;stroke-linejoin:miter;stroke-miterlimit:4;stroke-dasharray:none;stroke-opacity:1"
       d="m 58.775298,131.05022 18.757067,11.30385"
       id="path1005"
       inkscape:connector-curvature="0"
       sodipodi:nodetypes="cc" />
    <path
       style="display:inline;fill:#000000;fill-opacity:1;stroke:#000000;stroke-width:0.1;stroke-linecap:butt;stroke-linejoin:miter;stroke-miterlimit:4;stroke-dasharray:none;stroke-opacity:1"
       d="m 77.532365,142.35407 -1.021532,-2.61456 -1.855859,2.49321 z"
       id="path928-9-0"
       inkscape:connector-curvature="0" />
    <path
       style="fill:none;stroke:#000000;stroke-width:0.8;stroke-linecap:butt;stroke-linejoin:miter;stroke-miterlimit:4;stroke-dasharray:none;stroke-opacity:1"
       d="m 126.21803,53.814368 13.72893,88.220782"
       id="path1022"
       inkscape:connector-curvature="0"
       sodipodi:nodetypes="cc" />
    <path
       style="fill:none;stroke:#000000;stroke-width:0.1;stroke-linecap:butt;stroke-linejoin:miter;stroke-opacity:1;stroke-miterlimit:4;stroke-dasharray:none"
       d="m 37.217281,117.32429 3.407688,-11.62622 2.605875,-2.87315 5.946749,-3.207235 0.601355,-0.668176 0.06682,-3.741772 2.873148,-4.142679 2.806329,-0.935442 4.877671,1.403164 2.472243,3.474503 -0.734992,2.405428 0.267269,1.804069 -1.5368,1.67043 0.200453,1.1359 h -1.135896 l -0.53454,1.26953 1.336349,1.60362 1.069079,3.8754 0.467719,2.73952 1.80407,4.34313 1.135896,0.33408 1.269531,-0.13363 5.879928,1.20271 1.469983,1.73726 -0.734991,1.33634 -1.737252,-0.0668 -0.467722,-1.13589 -2.539061,0.46772 -0.935442,2.07134 -0.935443,1.5368 -0.734991,0.53454 4.944486,3.0736 4.075858,0.26727 3.34087,2.07134 1.937705,4.47676 1.737252,9.82215"
       id="path1024"
       inkscape:connector-curvature="0" />
    <path
       style="fill:none;stroke:#000000;stroke-width:0.1;stroke-linecap:butt;stroke-linejoin:miter;stroke-opacity:1;stroke-miterlimit:4;stroke-dasharray:none"
       d="m 88.777155,150.84672 -3.165549,3.16555 -6.18936,0.47248 -5.102678,-0.75596 -6.094867,-1.37016 -6.142112,-14.64658 -5.291666,-6.42559 -0.230011,-0.18944"
       id="path1026"
       inkscape:connector-curvature="0" />
    <path
       style="fill:none;stroke:#000000;stroke-width:0.1;stroke-linecap:butt;stroke-linejoin:miter;stroke-opacity:1;stroke-miterlimit:4;stroke-dasharray:none"
       d="m 53.861607,123.67969 -2.196986,-1.2048 -4.110493,0.51971 -4.181361,3.92151 0.307107,6.59096 1.771761,4.3231 -4.039618,6.37835 -4.653833,4.55934"
       id="path1028"
       inkscape:connector-curvature="0" />
    <path
       style="fill:none;stroke:#000000;stroke-width:0.1;stroke-linecap:butt;stroke-linejoin:miter;stroke-opacity:1;stroke-miterlimit:4;stroke-dasharray:none"
       d="m 83.187639,175.85632 7.550365,-10.49033 5.278572,-3.47451 0.400905,-4.74403 -2.672694,-8.48581 5.278572,-7.41673 7.416731,-2.13816 7.01582,1.60362 3.27405,5.94675 -0.66817,7.08264 1.87089,3.54132 -3.00679,1.46999 1.40317,4.14267 -1.26953,3.47451 -2.20497,-0.13364 0.80181,5.07812 2.60587,4.6104 0.33409,0.60136"
       id="path1030"
       inkscape:connector-curvature="0" />
    <path
       style="fill:none;stroke:#000000;stroke-width:0.1;stroke-linecap:butt;stroke-linejoin:miter;stroke-opacity:1;stroke-miterlimit:4;stroke-dasharray:none"
       d="m 74.319568,153.72879 -1.0209,5.62363 1.403165,4.81086 13.563928,4.74403"
       id="path1032"
       inkscape:connector-curvature="0" />
    <path
       style="fill:none;stroke:#000000;stroke-width:0.1;stroke-linecap:butt;stroke-linejoin:miter;stroke-opacity:1;stroke-miterlimit:4;stroke-dasharray:none"
       d="m 60.737,104.89626 12.04704,-1.58004 -0.354353,-1.79539 36.716503,-35.913194 17.17207,-0.200451 -10.55715,9.989198 1.23613,1.403165 4.10926,1.169304 4.81086,0.567947 7.45013,1.035672 2.43884,2.472243 -0.20045,2.572467 -4.04246,6.614921 -4.54358,1.80407 -7.75082,4.844259 -3.97563,1.670436 21.06152,0.410813 2.07887,1.37016 0.23623,13.08743 -6.37835,7.2288 -2.69307,1.13392 0.0472,1.08668 m -0.025,7.5122 -0.0222,6.66191 -4.18237,1.59852 -0.38359,-8.39639 m -11.70537,-1.68042 -1.94269,0.52192 -2.20497,8.75308 -0.13363,0.73499"
       id="path1034"
       inkscape:connector-curvature="0"
       sodipodi:nodetypes="cccccccccccccccccccccccccccccc" />
    <path
       style="fill:none;stroke:#000000;stroke-width:0.1;stroke-linecap:butt;stroke-linejoin:miter;stroke-opacity:1;stroke-miterlimit:4;stroke-dasharray:none"
       d="m 60.995906,105.82031 35.065654,4.94895 m 4.11458,1.61881 0.082,6.85039 -7.984744,3.92151 0.519719,5.33891 -26.30986,-5.29464"
       id="path1036"
       inkscape:connector-curvature="0"
       sodipodi:nodetypes="ccccccc" />
    <path
       style="fill:none;stroke:#000000;stroke-width:0.1;stroke-linecap:butt;stroke-linejoin:miter;stroke-opacity:1;stroke-miterlimit:4;stroke-dasharray:none"
       d="m 122.13356,104.78087 14.22135,-4.819192"
       id="path1038"
       inkscape:connector-curvature="0"
       sodipodi:nodetypes="cc" />
    <path
       style="fill:none;stroke:#000000;stroke-width:0.1;stroke-linecap:butt;stroke-linejoin:miter;stroke-opacity:1;stroke-miterlimit:4;stroke-dasharray:none"
       d="M 57.168898,33.863094 55.525243,90.129616"
       id="path1040"
       inkscape:connector-curvature="0" />
    <path
       style="fill:none;stroke:#000000;stroke-width:0.1;stroke-linecap:butt;stroke-linejoin:miter;stroke-opacity:1;stroke-miterlimit:4;stroke-dasharray:none"
       d="m 59.531249,33.863094 12.473215,17.670389 16.441962,5.480653 15.119044,-5.953125 9.35491,-17.29241"
       id="path1042"
       inkscape:connector-curvature="0" />
    <path
       style="fill:none;stroke:#000000;stroke-width:0.1;stroke-linecap:butt;stroke-linejoin:miter;stroke-opacity:1;stroke-miterlimit:4;stroke-dasharray:none"
       d="m 103.56547,51.061011 -2.07886,21.733631 -0.0244,0.430176"
       id="path1044"
       inkscape:connector-curvature="0" />
    <path
       style="fill:none;stroke:#000000;stroke-width:0.1;stroke-linecap:butt;stroke-linejoin:miter;stroke-opacity:1;stroke-miterlimit:4;stroke-dasharray:none"
       d="m 159.02165,90.9375 -4.77375,2.532985 -1.73725,2.03793 -1.90429,2.706105 -1.1359,3.24064 2.17157,8.15172 1.23612,0.30068 2.03793,1.83748 0.66817,3.37428 0.10023,3.17382 -1.03567,1.10249 -1.70385,-1.33635 -0.16704,1.46998 -0.16704,6.54811 0.70158,3.60814 2.00452,5.44561 3.4411,2.90656 4.44335,-0.13364 11.79327,-1.20271 4.07586,-2.83974 3.00678,-2.57247 2.07134,-4.6104 -0.7684,-3.40768 -1.26953,-4.34313 -1.36975,-2.63929 -2.83974,-3.90882 -2.03793,0.20045 -1.16931,-0.56794 -1.26953,-2.13816 -0.73499,-1.73725 -0.4009,-1.83748 0.46772,-1.83748 0.93544,-0.50113 -0.16704,-3.54132 -1.00226,-2.539059 -2.00452,-3.27405 -4.2095,-1.737254 -7.28309,-1.937702 c 0,0 -0.26725,-3.006783 -0.0668,-3.407688 0.20045,-0.400905 6.68174,1.002263 6.68174,1.002263 l 1.40316,-1.670437 -1.9377,-5.144936 -3.87541,-3.140419 -7.41673,-3.942226 2.47224,-5.412208 -3.8754,-4.81085 -1.87089,4.343131 1.00226,8.819893 -1.40317,-0.467723 -0.53453,-7.216275 -3.20724,-0.935444 -3.34087,1.5368 -1.33634,4.409948 1.80407,4.877668 -4.47677,5.412208 0.42624,7.406016 2.12612,6.047619 3.26005,2.078865 4.6302,0.85045"
       id="path1046"
       inkscape:connector-curvature="0" />
    <path
       style="fill:none;stroke:#000000;stroke-width:0.1;stroke-linecap:butt;stroke-linejoin:miter;stroke-opacity:1;stroke-miterlimit:4;stroke-dasharray:none"
       d="m 138.43378,101.33184 6.4256,-0.61421"
       id="path1048"
       inkscape:connector-curvature="0" />
    <path
       style="fill:none;stroke:#000000;stroke-width:0.1;stroke-linecap:butt;stroke-linejoin:miter;stroke-opacity:1;stroke-miterlimit:4;stroke-dasharray:none"
       d="m 138.51243,107.63577 3.4745,0.0668 2.2718,21.98292 0.4009,13.49711 3.74177,0.20045 5.34539,-1.06908 5.27858,1.46998 1.87088,-3.34087 -2.13817,-2.40542"
       id="path1050"
       inkscape:connector-curvature="0" />
    <path
       style="fill:none;stroke:#000000;stroke-width:0.1;stroke-linecap:butt;stroke-linejoin:miter;stroke-opacity:1;stroke-miterlimit:4;stroke-dasharray:none"
       d="m 110.04823,38.813867 11.04848,7.605719 12.60487,-0.01286 9.28762,-5.321072 4.61039,-7.684"
       id="path1052"
       inkscape:connector-curvature="0"
       sodipodi:nodetypes="ccccc" />
    <path
       style="fill:none;stroke:#000000;stroke-width:0.1;stroke-linecap:butt;stroke-linejoin:miter;stroke-opacity:1;stroke-miterlimit:4;stroke-dasharray:none"
       d="m 159.82717,33.735745 10.15625,9.554887 11.75986,3.140417 10.35669,-2.004521 8.75308,-5.412208 3.4745,-5.278575"
       id="path1054"
       inkscape:connector-curvature="0" />
    <path
       style="fill:none;stroke:#000000;stroke-width:0.1;stroke-linecap:butt;stroke-linejoin:miter;stroke-opacity:1;stroke-miterlimit:4;stroke-dasharray:none"
       d="m 202.85757,35.807086 10.81701,12.597449 m 9.16522,5.604307 2.46841,1.509371 14.43255,-2.806332 9.02035,-8.15172 7.81763,-11.425771"
       id="path1056"
       inkscape:connector-curvature="0"
       sodipodi:nodetypes="ccccccc" />
    <path
       style="fill:none;stroke:#000000;stroke-width:0.1;stroke-linecap:butt;stroke-linejoin:miter;stroke-opacity:1;stroke-miterlimit:4;stroke-dasharray:none"
       d="m 174.9947,136.70133 15.36356,0.39651 5.00818,17.62314 -40.72693,-0.28348 2.45684,-11.19755"
       id="path1058"
       inkscape:connector-curvature="0" />
    <path
       style="fill:none;stroke:#000000;stroke-width:0.1;stroke-linecap:butt;stroke-linejoin:miter;stroke-opacity:1;stroke-miterlimit:4;stroke-dasharray:none"
       d="m 203.35119,113.75781 4.29948,-1.27567 -0.61421,-8.17373 -8.40997,-3.96875 -2.4096,-3.685271 1.98437,-1.984375 6.23661,-0.850448 8.07924,0.944941 7.51228,3.921503 1.79538,3.59077 -1.37016,2.03163 -5.24442,1.03943 -5.95312,-0.47247 -0.14175,7.89025 6.52009,0.33073 5.05543,1.65365 0.0472,11.67001 -3.44903,1.13393 -3.30729,2.03162 -6.18936,-0.61421 -5.43341,-1.08668 z"
       id="path1060"
       inkscape:connector-curvature="0" />
    <path
       style="fill:none;stroke:#000000;stroke-width:0.1;stroke-linecap:butt;stroke-linejoin:miter;stroke-opacity:1;stroke-miterlimit:4;stroke-dasharray:none"
       d="m 224.57322,111.9789 4.64381,-1.9377 6.28083,-0.93545 4.40995,0.23386 1.60361,10.89124 -4.17608,1.63702 -6.18061,0.7684 -5.07812,-0.0668 z"
       id="path1062"
       inkscape:connector-curvature="0" />
    <path
       style="fill:none;stroke:#000000;stroke-width:0.1;stroke-linecap:butt;stroke-linejoin:miter;stroke-opacity:1;stroke-miterlimit:4;stroke-dasharray:none"
       d="m 231.65216,106.62351 4.91368,-2.59859 5.05544,-1.74814 2.69308,-0.94494 1.40119,-1.1444 1.95335,0.81367 5.33891,-1.086677 5.81138,0.377977 1.51191,0.42522 -1.27567,1.51191 -5.38616,2.45684 -5.6224,1.32292 -5.5279,1.13393 -5.24442,0.56696 h -3.2128 z"
       id="path1064"
       inkscape:connector-curvature="0"
       sodipodi:nodetypes="cccccccccccccccc" />
    <path
       style="fill:none;stroke:#000000;stroke-width:0.1;stroke-linecap:butt;stroke-linejoin:miter;stroke-opacity:1;stroke-miterlimit:4;stroke-dasharray:none"
       d="m 220.73804,126.42001 4.20504,0.28349 3.30729,1.88988 3.9215,3.40178 3.07106,4.77195 0.42052,3.03249 0.40236,5.25391 -3.74177,6.01356 -11.82668,0.13364 -7.48355,-5.81312 -2.47222,-7.14946 3.44015,-8.65257"
       id="path1066"
       inkscape:connector-curvature="0"
       sodipodi:nodetypes="cccccccccccc" />
    <path
       style="fill:none;stroke:#000000;stroke-width:0.1;stroke-linecap:butt;stroke-linejoin:miter;stroke-opacity:1;stroke-miterlimit:4;stroke-dasharray:none"
       d="m 139.09524,43.595983 30.88818,-0.305351"
       id="path1068"
       inkscape:connector-curvature="0" />
    <path
       style="fill:none;stroke:#000000;stroke-width:0.1;stroke-linecap:butt;stroke-linejoin:miter;stroke-opacity:1;stroke-miterlimit:4;stroke-dasharray:none"
       d="m 186.43675,45.533108 -0.18898,21.639138 -29.96192,2.043528"
       id="path1070"
       inkscape:connector-curvature="0" />
    <path
       style="fill:none;stroke:#000000;stroke-width:0.1;stroke-linecap:butt;stroke-linejoin:miter;stroke-opacity:1;stroke-miterlimit:4;stroke-dasharray:none"
       d="M 143.05601,70.485306 124.25967,67.455729"
       id="path1072"
       inkscape:connector-curvature="0" />
    <path
       style="fill:none;stroke:#000000;stroke-width:0.1;stroke-linecap:butt;stroke-linejoin:miter;stroke-opacity:1;stroke-miterlimit:4;stroke-dasharray:none"
       d="m 121.66109,65.518601 -0.28732,-11.70423"
       id="path1074"
       inkscape:connector-curvature="0"
       sodipodi:nodetypes="cc" />
    <path
       style="fill:none;stroke:#000000;stroke-width:0.1;stroke-linecap:butt;stroke-linejoin:miter;stroke-opacity:1;stroke-miterlimit:4;stroke-dasharray:none"
       d="m 219.42828,98.281335 c 0.0668,-0.133633 1.77066,-5.445614 1.77066,-5.445614 l 3.00678,-0.634767 2.87315,-0.935443 -0.60136,-2.906556 0.73499,-2.305201 -0.0334,-1.403164 1.70385,-2.639285 2.50565,-0.534541 1.9377,0.300678 2.60588,1.436574 -0.66817,3.34087 -0.16705,1.503391 -1.9377,1.536801 -0.5149,2.136169 m 8.23231,7.418714 0.4009,3.189059"
       id="path1076"
       inkscape:connector-curvature="0"
       sodipodi:nodetypes="ccccccccccccccccc" />
    <path
       style="fill:none;stroke:#000000;stroke-width:0.1;stroke-linecap:butt;stroke-linejoin:miter;stroke-opacity:1;stroke-miterlimit:4;stroke-dasharray:none"
       d="m 220.69084,114.75 3.88238,-2.7711"
       id="path1078"
       inkscape:connector-curvature="0" />
    <path
       style="fill:none;stroke:#000000;stroke-width:0.1;stroke-linecap:butt;stroke-linejoin:miter;stroke-opacity:1;stroke-miterlimit:4;stroke-dasharray:none"
       d="m 241.4112,50.907812 1.69,40.84926"
       id="path1080"
       inkscape:connector-curvature="0"
       sodipodi:nodetypes="cc" />
    <path
       style="fill:none;stroke:#000000;stroke-width:0.1;stroke-linecap:butt;stroke-linejoin:miter;stroke-opacity:1;stroke-miterlimit:4;stroke-dasharray:none"
       d="m 183.03497,67.313986 -0.0945,54.806544"
       id="path1082"
       inkscape:connector-curvature="0" />
    <path
       style="fill:none;stroke:#000000;stroke-width:0.1;stroke-linecap:butt;stroke-linejoin:miter;stroke-opacity:1;stroke-miterlimit:4;stroke-dasharray:none"
       d="m 129.83482,148.38988 -8.78795,5.48065 2.74033,22.3006 18.80432,0.66146 z"
       id="path1084"
       inkscape:connector-curvature="0" />
    <path
       style="fill:none;stroke:#000000;stroke-width:0.1;stroke-linecap:butt;stroke-linejoin:miter;stroke-opacity:1;stroke-miterlimit:4;stroke-dasharray:none"
       d="m 194.56463,157.8614 3.48209,-12.54063 6.1472,-1.46998 8.28535,4.94449 2.13816,8.68626 -4.67722,7.34991 0.80181,11.49259 -20.17885,-0.13364 6.68174,-11.35895 -3.20723,-1.73725 2.00452,-4.00905 z"
       id="path1086"
       inkscape:connector-curvature="0"
       sodipodi:nodetypes="cccccccccccc" />
    <path
       style="fill:none;stroke:#000000;stroke-width:0.1;stroke-linecap:butt;stroke-linejoin:miter;stroke-opacity:1;stroke-miterlimit:4;stroke-dasharray:none"
       d="m 202.35895,127.88467 -0.21256,16.39472"
       id="path1088"
       inkscape:connector-curvature="0" />
    <path
       style="fill:none;stroke:#000000;stroke-width:0.1;stroke-linecap:butt;stroke-linejoin:miter;stroke-opacity:1;stroke-miterlimit:4;stroke-dasharray:none"
       d="m 241.51142,120.23085 21.08754,-3.40198"
       id="path1090"
       inkscape:connector-curvature="0" />
    <path
       style="fill:none;stroke:#000000;stroke-width:0.1;stroke-linecap:butt;stroke-linejoin:miter;stroke-opacity:1;stroke-miterlimit:4;stroke-dasharray:none"
       d="m 242.51897,107.14323 -2.61116,2.19638"
       id="path1092"
       inkscape:connector-curvature="0"
       sodipodi:nodetypes="cc" />
    <path
       style="fill:none;stroke:#000000;stroke-width:0.1;stroke-linecap:butt;stroke-linejoin:miter;stroke-opacity:1;stroke-miterlimit:4;stroke-dasharray:none"
       d="m 234.72946,147.25848 27.6624,12.6953"
       id="path1096"
       inkscape:connector-curvature="0" />
    <path
       style="fill:none;stroke:#000000;stroke-width:0.1;stroke-linecap:butt;stroke-linejoin:miter;stroke-opacity:1;stroke-miterlimit:4;stroke-dasharray:none"
       d="m 244.3616,151.79167 -25.98586,24.37946"
       id="path1098"
       inkscape:connector-curvature="0" />
    <path
       style="fill:none;stroke:#000000;stroke-width:0.1;stroke-linecap:butt;stroke-linejoin:miter;stroke-opacity:1;stroke-miterlimit:4;stroke-dasharray:none"
       d="m 148.54464,158.68973 -4.06324,17.57589 46.08177,-0.0752 -2.52002,-18.25662 z"
       id="path1100"
       inkscape:connector-curvature="0" />
    <path
       style="fill:none;stroke:#000000;stroke-width:0.1;stroke-linecap:butt;stroke-linejoin:miter;stroke-opacity:1;stroke-miterlimit:4;stroke-dasharray:none"
       d="m 200.85305,39.01432 3.58482,54.805246"
       id="path1102"
       inkscape:connector-curvature="0" />
    <path
       style="fill:none;stroke:#000000;stroke-width:0.1;stroke-linecap:butt;stroke-linejoin:miter;stroke-opacity:1;stroke-miterlimit:4;stroke-dasharray:none"
       d="m 248.42485,119.09672 -0.28348,34.20685"
       id="path1104"
       inkscape:connector-curvature="0" />
  </g>
  <g
     inkscape:label="text"
     inkscape:groupmode="layer"
     id="layer1"
     transform="translate(0,-87)"
     style="display:none"
     sodipodi:insensitive="true">
    <flowRoot
       xml:space="preserve"
       id="flowRoot880"
       style="font-style:normal;font-weight:normal;font-size:18.66666603px;line-height:1.25;font-family:sans-serif;letter-spacing:0px;word-spacing:0px;fill:#000000;fill-opacity:1;stroke:none;stroke-width:1.07991326"
       transform="matrix(0.24500424,0,0,0.24500424,21.997367,101.49385)"><flowRegion
         id="flowRegion882"
         style="stroke-width:1.07991326"><rect
           id="rect884"
           width="833.02795"
           height="590.10156"
           x="106.71429"
           y="106.55795"
           style="stroke-width:1.07991326" /></flowRegion><flowPara
         id="flowPara898"
         style="font-style:normal;font-variant:normal;font-weight:normal;font-stretch:normal;font-size:21.33333397px;font-family:padmaa;-inkscape-font-specification:padmaa;stroke-width:1.07991326">In the dimly lit jazz club, amber lights cast a warm glow over the stage. The pianist, dressed in a sleek black suit, played a melody that would ooze between the ivory keys of the grand piano. A sultry saxophone, shimmering in shades of gold and blue, joined in, filling the room with a smooth, surreal chemical haze of sound.</flowPara><flowPara
         id="flowPara927"
         style="font-style:normal;font-variant:normal;font-weight:normal;font-stretch:normal;font-size:21.33333397px;font-family:padmaa;-inkscape-font-specification:padmaa;stroke-width:1.07991326" /><flowPara
         id="flowPara929"
         style="font-style:normal;font-variant:normal;font-weight:normal;font-stretch:normal;font-size:21.33333397px;font-family:padmaa;-inkscape-font-specification:padmaa;stroke-width:1.07991326">The drummer, in a crisp white shirt, kept a steady beat, his silver drumsticks flashing under the lights. Nearby, the bassist plucked deep notes from his mahogany instrument, adding a rich, earthy undertone to the music like a poison. The trumpeter, with his ruby red instrument, added bright notes that soared above the rest, sharp like vine thorns.</flowPara><flowPara
         id="flowPara931"
         style="font-style:normal;font-variant:normal;font-weight:normal;font-stretch:normal;font-size:21.33333397px;font-family:padmaa;-inkscape-font-specification:padmaa;stroke-width:1.07991326" /><flowPara
         id="flowPara933"
         style="font-style:normal;font-variant:normal;font-weight:normal;font-stretch:normal;font-size:21.33333397px;font-family:padmaa;-inkscape-font-specification:padmaa;stroke-width:1.07991326">The audience, captivated by the performance, swayed to the rhythm while having a bite. Women in elegant emerald dresses and men in dark gray suits sipped their drinks, the clinking of ice in their glasses a gentle accompaniment to the music. A singer in a dazzling sapphire gown took the stage, her voice as smooth as velvet venom, weaving as a snake through the golden notes of the band.</flowPara><flowPara
         id="flowPara935"
         style="font-style:normal;font-variant:normal;font-weight:normal;font-stretch:normal;font-size:21.33333397px;font-family:padmaa;-inkscape-font-specification:padmaa;stroke-width:1.07991326" /><flowPara
         id="flowPara937"
         style="font-style:normal;font-variant:normal;font-weight:normal;font-stretch:normal;font-size:21.33333397px;font-family:padmaa;-inkscape-font-specification:padmaa;stroke-width:1.07991326">Behind her, a backdrop of deep purple curtains framed the scene, adding a touch of regal splendor. The night was alive with the vibrant colors of jazz, each hue contributing to the rich tapestry of sound that enveloped the room.</flowPara></flowRoot>  </g>
</svg>
