<?xml version="1.0" encoding="UTF-8" standalone="no"?>
<!-- Created with Inkscape (http://www.inkscape.org/) -->

<svg
   xmlns:dc="http://purl.org/dc/elements/1.1/"
   xmlns:cc="http://creativecommons.org/ns#"
   xmlns:rdf="http://www.w3.org/1999/02/22-rdf-syntax-ns#"
   xmlns:svg="http://www.w3.org/2000/svg"
   xmlns="http://www.w3.org/2000/svg"
   xmlns:sodipodi="http://sodipodi.sourceforge.net/DTD/sodipodi-0.dtd"
   xmlns:inkscape="http://www.inkscape.org/namespaces/inkscape"
   width="325.60669mm"
   height="210.96582mm"
   viewBox="0 0 325.60669 210.96582"
   version="1.1"
   id="svg6049"
   inkscape:version="0.92.5 (2060ec1f9f, 2020-04-08)"
   sodipodi:docname="jewelry-organizer-2.svg">
  <defs
     id="defs6043" />
  <sodipodi:namedview
     id="base"
     pagecolor="#ffffff"
     bordercolor="#666666"
     borderopacity="1.0"
     inkscape:pageopacity="0.0"
     inkscape:pageshadow="2"
     inkscape:zoom="0.7"
     inkscape:cx="710.24485"
     inkscape:cy="569.37097"
     inkscape:document-units="mm"
     inkscape:current-layer="layer1"
     showgrid="false"
     fit-margin-top="0"
     fit-margin-left="0"
     fit-margin-right="0"
     fit-margin-bottom="0"
     inkscape:window-width="1920"
     inkscape:window-height="1016"
     inkscape:window-x="0"
     inkscape:window-y="27"
     inkscape:window-maximized="1" />
  <metadata
     id="metadata6046">
    <rdf:RDF>
      <cc:Work
         rdf:about="">
        <dc:format>image/svg+xml</dc:format>
        <dc:type
           rdf:resource="http://purl.org/dc/dcmitype/StillImage" />
        <dc:title />
      </cc:Work>
    </rdf:RDF>
  </metadata>
  <g
     inkscape:label="Layer 1"
     inkscape:groupmode="layer"
     id="layer1"
     transform="translate(56.078964,-34.69957)">
    <path
       style="display:inline;fill:none;stroke:#000000;stroke-width:0.1;stroke-linecap:butt;stroke-linejoin:miter;stroke-miterlimit:4;stroke-dasharray:none;stroke-opacity:1"
       d="m -37.101913,194.09048 -2.90803,-5.04067 -3.55071,2.05 -4.88839,-8.46695 3.5507,-2.05 -2.67322,-4.63015 -3.5507,2.05 -4.8884,-8.46695 3.55071,-2.05 -2.90389,-5.02948 16.55961,-28.68205 -16.55567,-28.67926 18.26591,-31.636845 36.52700966,-0.0021 4.90017304,8.487359 -0.615598,1.067049 0.616278,1.06743 1.231882,2.64e-4 5.9754083,10.34972 -0.615588,1.067059 0.616278,1.067422 1.231882,2.64e-4 3.214288,5.573318 33.115209,-0.003 m 4.90017,8.48735 -0.61558,1.06706 0.61628,1.06743 1.23187,2.7e-4 m 5.97542,10.34973 -0.6156,1.06703 0.61628,1.06743 1.23187,2.6e-4 m 3.2143,5.57334 33.11521,-0.003 4.900161,8.48732 -0.61558,1.06706 0.61627,1.06744 1.23188,2.7e-4 5.97543,10.34974 -0.61561,1.06703 0.61628,1.06743 1.23189,2.6e-4 4.92104,8.5275 -18.265481,31.74013 m -36.527,0.002 -16.55498,-28.78342 -29.703047,0.003 -16.55960534,28.68209"
       id="path4081-2"
       inkscape:connector-curvature="0"
       sodipodi:nodetypes="cccccccccccccccccccccccccccccccccccccccccccccccc" />
    <path
       sodipodi:type="star"
       style="display:inline;opacity:1;fill:none;fill-opacity:1;stroke:#000000;stroke-width:0.34258961;stroke-linecap:butt;stroke-miterlimit:4;stroke-dasharray:none;stroke-dashoffset:0;stroke-opacity:1"
       id="path1656-1-70-0-0-7-1"
       sodipodi:sides="6"
       sodipodi:cx="-5.4061103"
       sodipodi:cy="264.14529"
       sodipodi:r1="101.76452"
       sodipodi:r2="88.130661"
       sodipodi:arg1="-1.5707963"
       sodipodi:arg2="-1.0471976"
       inkscape:flatsided="true"
       inkscape:rounded="0"
       inkscape:randomized="0"
       d="m -5.4061076,162.38078 88.1306576,50.88226 -3e-6,101.76452 -88.13066,50.88225 -88.130657,-50.88226 3e-6,-101.76452 z"
       inkscape:transform-center-y="-4.7649874e-06"
       transform="matrix(-0.25276295,-0.14593276,0.14596168,-0.25281305,-9.0836433,199.76019)"
       inkscape:transform-center-x="-7.9439788e-06" />
    <path
       style="display:inline;fill:none;stroke:#000000;stroke-width:0.1;stroke-linecap:butt;stroke-linejoin:miter;stroke-miterlimit:4;stroke-dasharray:none;stroke-opacity:1"
       d="m 95.362049,136.71959 14.848921,25.72508 -14.853711,25.72748 -29.70302,0.003 -3.21718,-5.57631 -1.23187,-2.7e-4 -0.61628,-1.06741 0.61559,-1.06706 -5.97541,-10.34973 -1.23188,-2.6e-4 -0.61629,-1.06745 0.61561,-1.06702 -3.19186,-5.52893 14.8537,-25.72745 z"
       id="path4115-6"
       inkscape:connector-curvature="0" />
    <path
       style="display:inline;opacity:1;fill:none;stroke:#000000;stroke-width:0.1;stroke-linecap:butt;stroke-linejoin:miter;stroke-miterlimit:4;stroke-dasharray:none;stroke-opacity:1"
       d="m 6.7411417,143.51 1.326459,-0.76584 1.9948503,3.45518 3.80333,-2.19579 m -3.380449,-14.6064 -1.6838803,-2.91655 -3.45785,-10e-6"
       id="path4157-3-3"
       inkscape:connector-curvature="0"
       sodipodi:nodetypes="ccccccc" />
    <rect
       style="opacity:1;fill:none;fill-opacity:1;stroke:#000000;stroke-width:0.1;stroke-linecap:butt;stroke-miterlimit:4;stroke-dasharray:none;stroke-dashoffset:0;stroke-opacity:1"
       id="rect4181-2"
       width="3.7"
       height="4.0999999"
       x="115.45389"
       y="105.4206"
       transform="rotate(60)" />
    <rect
       style="opacity:1;fill:none;fill-opacity:1;stroke:#000000;stroke-width:0.1;stroke-linecap:butt;stroke-miterlimit:4;stroke-dasharray:none;stroke-dashoffset:0;stroke-opacity:1"
       id="rect4181-6-1"
       width="3.7"
       height="4.0999999"
       x="143.57541"
       y="105.4206"
       transform="rotate(60)" />
    <rect
       style="opacity:1;fill:none;fill-opacity:1;stroke:#000000;stroke-width:0.1;stroke-linecap:butt;stroke-miterlimit:4;stroke-dasharray:none;stroke-dashoffset:0;stroke-opacity:1"
       id="rect4181-6-9-5"
       width="3.7"
       height="4.0999999"
       x="129.51469"
       y="81.858925"
       transform="rotate(60)" />
    <ellipse
       style="display:inline;opacity:1;fill:none;fill-opacity:1;stroke:#000000;stroke-width:0.1;stroke-linecap:butt;stroke-miterlimit:4;stroke-dasharray:none;stroke-dashoffset:0;stroke-opacity:1"
       id="path4261-6"
       cx="211.73891"
       cy="7.5282035"
       transform="matrix(0.49999887,0.86602605,-0.86602474,0.50000114,0,0)"
       rx="0.95006907"
       ry="0.9500705" />
    <ellipse
       style="display:inline;opacity:1;fill:none;fill-opacity:1;stroke:#000000;stroke-width:0.1;stroke-linecap:butt;stroke-miterlimit:4;stroke-dasharray:none;stroke-dashoffset:0;stroke-opacity:1"
       id="path4261-6-5"
       cx="205.75887"
       cy="-2.8295853"
       transform="matrix(0.49999886,0.86602606,-0.86602474,0.50000114,0,0)"
       rx="0.95006907"
       ry="0.9500705" />
    <ellipse
       style="display:inline;opacity:1;fill:none;fill-opacity:1;stroke:#000000;stroke-width:0.1;stroke-linecap:butt;stroke-miterlimit:4;stroke-dasharray:none;stroke-dashoffset:0;stroke-opacity:1"
       id="path4261-6-0"
       cx="81.583344"
       cy="-11.551062"
       transform="matrix(-0.50000114,0.86602474,-0.86602605,-0.49999887,0,0)"
       rx="0.95006907"
       ry="0.9500705" />
    <ellipse
       style="display:inline;opacity:1;fill:none;fill-opacity:1;stroke:#000000;stroke-width:0.1;stroke-linecap:butt;stroke-miterlimit:4;stroke-dasharray:none;stroke-dashoffset:0;stroke-opacity:1"
       id="path4261-6-5-3"
       cx="75.603302"
       cy="-21.90885"
       transform="matrix(-0.50000114,0.86602474,-0.86602605,-0.49999887,0,0)"
       rx="0.95006907"
       ry="0.9500705" />
    <path
       style="display:inline;opacity:1;fill:none;stroke:#000000;stroke-width:0.1;stroke-linecap:butt;stroke-linejoin:miter;stroke-miterlimit:4;stroke-dasharray:none;stroke-opacity:1"
       d="m 17.309362,129.39745 -1.683882,-2.91657 -3.457848,1e-5 -4.2087113,7.29169 5.9068603,10.23097 1.326459,-0.76585 1.99485,3.45518 3.803312,-2.1958"
       id="path4157-3-3-0"
       inkscape:connector-curvature="0"
       sodipodi:nodetypes="cccccccc" />
    <path
       style="display:inline;opacity:1;fill:none;stroke:#000000;stroke-width:0.1;stroke-linecap:butt;stroke-linejoin:miter;stroke-miterlimit:4;stroke-dasharray:none;stroke-opacity:1"
       d="m 28.115041,144.99064 -6.50806,-11.21749 2.526411,-4.37543 -1.683882,-2.91656 h -3.457848 l -4.208721,7.2917 6.207461,10.72422 1.32647,-0.76583 1.994839,3.45518 z"
       id="path4157-3-3-2"
       inkscape:connector-curvature="0"
       sodipodi:nodetypes="cccccccccc" />
    <path
       style="display:inline;fill:none;stroke:#000000;stroke-width:0.1;stroke-linecap:butt;stroke-linejoin:miter;stroke-miterlimit:4;stroke-dasharray:none;stroke-opacity:1"
       d="m -36.903373,125.24371 -1.23185,-2.7e-4 -0.6163,-1.06746 0.6156,-1.06706 -5.9754,-10.3497 -1.2319,-5.3e-4 -0.6163,-1.06747 0.61565,-1.06697 -3.19179,-5.52908 14.85387,-25.727497 29.7030197,-0.003 14.8497933,25.724577 -14.8537333,25.7274 -29.7030197,0.003 z"
       id="path4115-6-3-2-8"
       inkscape:connector-curvature="0"
       sodipodi:nodetypes="ccccccccccccccc" />
    <path
       style="display:inline;opacity:1;fill:none;stroke:#000000;stroke-width:0.1;stroke-linecap:butt;stroke-linejoin:miter;stroke-miterlimit:4;stroke-dasharray:none;stroke-opacity:1"
       d="m 236.56047,44.749539 v 1.531669 l -3.9897,-10e-7 -1e-4,4.391673 m 14.3398,4.375651 3.3677,-2e-6 1.7289,-2.994589"
       id="path4157-3-3-00"
       inkscape:connector-curvature="0"
       sodipodi:nodetypes="ccccccc" />
    <rect
       style="opacity:1;fill:none;fill-opacity:1;stroke:#000000;stroke-width:0.1;stroke-linecap:butt;stroke-miterlimit:4;stroke-dasharray:none;stroke-dashoffset:0;stroke-opacity:1"
       id="rect4181-2-4"
       width="3.7"
       height="4.0999999"
       x="-149.41573"
       y="-62.607338"
       transform="scale(-1)" />
    <rect
       style="opacity:1;fill:none;fill-opacity:1;stroke:#000000;stroke-width:0.1;stroke-linecap:butt;stroke-miterlimit:4;stroke-dasharray:none;stroke-dashoffset:0;stroke-opacity:1"
       id="rect4181-6-1-2"
       width="3.7"
       height="4.0999999"
       x="-121.2942"
       y="-62.607338"
       transform="scale(-1)" />
    <rect
       style="opacity:1;fill:none;fill-opacity:1;stroke:#000000;stroke-width:0.1;stroke-linecap:butt;stroke-miterlimit:4;stroke-dasharray:none;stroke-dashoffset:0;stroke-opacity:1"
       id="rect4181-6-9-5-4"
       width="3.7"
       height="4.0999999"
       x="-135.35492"
       y="-86.169014"
       transform="scale(-1)" />
    <ellipse
       style="display:inline;opacity:1;fill:none;fill-opacity:1;stroke:#000000;stroke-width:0.1;stroke-linecap:butt;stroke-miterlimit:4;stroke-dasharray:none;stroke-dashoffset:0;stroke-opacity:1"
       id="path4261-6-0-9"
       cx="-246.02974"
       cy="162.49127"
       transform="matrix(-0.49999886,-0.86602606,0.86602475,-0.50000114,0,0)"
       rx="0.95006907"
       ry="0.9500705" />
    <ellipse
       style="display:inline;opacity:1;fill:none;fill-opacity:1;stroke:#000000;stroke-width:0.1;stroke-linecap:butt;stroke-miterlimit:4;stroke-dasharray:none;stroke-dashoffset:0;stroke-opacity:1"
       id="path4261-6-5-3-4"
       cx="-252.00978"
       cy="152.13348"
       transform="matrix(-0.49999886,-0.86602606,0.86602475,-0.50000114,0,0)"
       rx="0.95006907"
       ry="0.9500705" />
    <path
       style="display:inline;opacity:1;fill:none;stroke:#000000;stroke-width:0.1;stroke-linecap:butt;stroke-linejoin:miter;stroke-miterlimit:4;stroke-dasharray:none;stroke-opacity:1"
       d="m 243.49817,60.958171 3.3678,-2e-6 1.7289,-2.994589 -4.2105,-7.290701 -11.8137,10e-7 v 1.531669 l -3.9897,-10e-7 v 4.391671"
       id="path4157-3-3-0-9"
       inkscape:connector-curvature="0"
       sodipodi:nodetypes="cccccccc" />
    <path
       style="display:inline;opacity:1;fill:none;stroke:#000000;stroke-width:0.1;stroke-linecap:butt;stroke-linejoin:miter;stroke-miterlimit:4;stroke-dasharray:none;stroke-opacity:1"
       d="m 224.59117,62.519558 12.9687,-0.0274 2.526,4.375651 h 3.3678 l 1.7289,-2.99459 -4.2104,-7.290701 -12.3912,0.0137 v 1.531669 l -3.9897,-1e-6 z"
       id="path4157-3-3-2-8"
       inkscape:connector-curvature="0"
       sodipodi:nodetypes="cccccccccc" />
    <ellipse
       style="display:inline;opacity:1;fill:none;fill-opacity:1;stroke:#000000;stroke-width:0.1;stroke-linecap:butt;stroke-miterlimit:4;stroke-dasharray:none;stroke-dashoffset:0;stroke-opacity:1"
       id="path4261-6-0-9-3"
       cx="-62.773224"
       cy="-97.582443"
       transform="matrix(0.49999886,-0.86602606,-0.86602475,-0.50000114,0,0)"
       rx="0.95006907"
       ry="0.9500705" />
    <ellipse
       style="display:inline;opacity:1;fill:none;fill-opacity:1;stroke:#000000;stroke-width:0.1;stroke-linecap:butt;stroke-miterlimit:4;stroke-dasharray:none;stroke-dashoffset:0;stroke-opacity:1"
       id="path4261-6-5-3-4-72"
       cx="-68.753265"
       cy="-107.94023"
       transform="matrix(0.49999886,-0.86602606,-0.86602475,-0.50000114,0,0)"
       rx="0.95006907"
       ry="0.9500705" />
    <ellipse
       style="display:inline;opacity:1;fill:none;fill-opacity:1;stroke:#000000;stroke-width:0.1;stroke-linecap:butt;stroke-miterlimit:4;stroke-dasharray:none;stroke-dashoffset:0;stroke-opacity:1"
       id="path4261-6-0-9-5"
       cx="-62.773163"
       cy="-212.29137"
       transform="matrix(0.49999886,-0.86602606,-0.86602475,-0.50000114,0,0)"
       rx="0.95006907"
       ry="0.9500705" />
    <ellipse
       style="display:inline;opacity:1;fill:none;fill-opacity:1;stroke:#000000;stroke-width:0.1;stroke-linecap:butt;stroke-miterlimit:4;stroke-dasharray:none;stroke-dashoffset:0;stroke-opacity:1"
       id="path4261-6-5-3-4-3"
       cx="-68.753204"
       cy="-222.64915"
       transform="matrix(0.49999886,-0.86602606,-0.86602475,-0.50000114,0,0)"
       rx="0.95006907"
       ry="0.9500705" />
    <path
       style="display:inline;opacity:1;fill:none;stroke:#000000;stroke-width:0.1;stroke-linecap:butt;stroke-linejoin:miter;stroke-miterlimit:4;stroke-dasharray:none;stroke-opacity:1"
       d="m 198.11873,182.25359 -29.70303,-0.003 -14.85379,-25.72743 14.84891,-25.72507 6.43781,0.002 0.61627,-1.06664 1.23254,-1e-5 0.61631,1.06665 h 11.95083 l 0.61627,-1.06665 h 1.23258 l 0.61627,1.06665 6.38412,2.2e-4 14.85378,25.72743 z"
       id="path4115-6-36"
       inkscape:connector-curvature="0" />
    <path
       style="display:inline;opacity:1;fill:none;stroke:#000000;stroke-width:0.1;stroke-linecap:butt;stroke-linejoin:miter;stroke-miterlimit:4;stroke-dasharray:none;stroke-opacity:1"
       d="m 247.79758,153.57677 -29.70303,-0.003 -14.85379,-25.72742 14.84891,-25.72507 6.43781,0.002 0.61627,-1.06665 h 1.23254 l 0.61631,1.06665 h 11.95083 l 0.61627,-1.06665 h 1.23258 l 0.61627,1.06665 6.38412,2.2e-4 14.85378,25.72743 z"
       id="path4115-6-4"
       inkscape:connector-curvature="0" />
    <path
       style="display:inline;opacity:1;fill:none;stroke:#000000;stroke-width:0.1;stroke-linecap:butt;stroke-linejoin:miter;stroke-miterlimit:4;stroke-dasharray:none;stroke-opacity:1"
       d="m 98.77304,124.90146 -29.70303,-0.003 -14.85379,-25.727423 14.84891,-25.725068 6.43781,0.0024 0.61627,-1.066646 1.23254,-3e-6 0.61631,1.066647 11.95083,2e-6 0.61627,-1.066649 h 1.23258 l 0.61627,1.066649 6.38412,2.2e-4 14.85378,25.727428 z"
       id="path4115-6-3"
       inkscape:connector-curvature="0" />
    <path
       sodipodi:nodetypes="cccccccccccccccccccccccccccccccccccccccccccccccccccccc"
       style="opacity:1;fill:none;stroke:#000000;stroke-width:0.1;stroke-linecap:butt;stroke-linejoin:miter;stroke-miterlimit:4;stroke-dasharray:none;stroke-opacity:1"
       d="m 75.50384,130.81138 0.6163,-1.06664 h 1.2325 l 0.6163,1.06664 m 11.9509,0 0.6162,-1.06664 h 1.2326 l 0.6163,1.06664 m -26.7267,0.002 -18.2615,-31.634463 18.2655,-31.636768 33.10629,-0.0023 16.56816,-28.681669 5.81146,-0.008 v -4.1 l 24.90002,0 v 4.1 l 5.81552,0.006 16.55683,28.683175 h 29.70053 l 16.56043,-28.687785 5.81213,-0.002 v -4.1 h 24.90002 v 4.1 l 5.81485,-8e-4 18.26152,31.634466 -16.56472,28.687271 16.56072,28.674113 -18.26551,31.63677 h -9.8003 l -0.61629,-1.06664 h -1.23259 l -0.61621,1.06664 h -11.95089 l -0.61632,-1.06664 h -1.23248 l -0.61632,1.06664 -6.4338,-0.003 -16.55921,28.68716 -9.8003,4.5e-4 -0.6163,-1.06664 h -1.2326 l -0.6162,1.06664 h -11.9509 l -0.6163,-1.06664 h -1.2325 l -0.6163,1.06664 -9.84558,0.002 -18.26151,-31.63446 16.55523,-28.68983 -14.84527,-25.7164 -29.70279,0.002 -16.55952,28.68207 -3.41179,-0.001"
       id="path5622"
       inkscape:connector-curvature="0" />
    <path
       sodipodi:type="star"
       style="display:inline;opacity:1;fill:none;fill-opacity:1;stroke:#000000;stroke-width:0.34258962;stroke-linecap:butt;stroke-miterlimit:4;stroke-dasharray:none;stroke-dashoffset:0;stroke-opacity:1"
       id="path1656-1-9-2-0-8-3"
       sodipodi:sides="6"
       sodipodi:cx="-5.4061103"
       sodipodi:cy="264.14529"
       sodipodi:r1="101.76452"
       sodipodi:r2="88.130661"
       sodipodi:arg1="-1.5707963"
       sodipodi:arg2="-1.0471976"
       inkscape:flatsided="true"
       inkscape:rounded="0"
       inkscape:randomized="0"
       d="m -5.4061076,162.38078 88.1306576,50.88226 -3e-6,101.76452 -88.13066,50.88225 -88.130657,-50.88226 3e-6,-101.76452 z"
       inkscape:transform-center-y="-6.268929e-06"
       transform="matrix(0.25276295,0.14593276,-0.14596168,0.25281305,272.86454,4.4950902)" />
    <path
       style="display:inline;opacity:1;fill:none;stroke:#000000;stroke-width:0.1;stroke-linecap:butt;stroke-linejoin:miter;stroke-miterlimit:4;stroke-dasharray:none;stroke-opacity:1"
       d="m 198.11788,124.89968 -29.70303,-0.003 -14.85379,-25.727423 14.84891,-25.725071 6.43781,0.0024 0.61627,-1.066646 1.23254,-3e-6 0.61631,1.066647 11.95083,2e-6 0.61627,-1.066649 h 1.23258 l 0.61627,1.066649 6.38412,2.2e-4 14.85378,25.727431 z"
       id="path4115-6-0"
       inkscape:connector-curvature="0" />
    <path
       style="display:inline;opacity:1;fill:none;fill-opacity:1;stroke:#000000;stroke-width:0.1;stroke-linecap:butt;stroke-miterlimit:4;stroke-dasharray:none;stroke-dashoffset:0;stroke-opacity:1"
       d="m 27.62988,198.18243 c 0,-2.19869 1.77007,-3.96875 3.96875,-3.96875 h 174.59031 c 2.19869,0 3.96875,1.77006 3.96875,3.96875 v 43.4642 c 0,2.19869 -1.77006,3.96875 -3.96875,3.96875 H 31.59863 c -2.19868,0 -3.96875,-1.77006 -3.96875,-3.96875"
       id="rect5802-0"
       inkscape:connector-curvature="0"
       sodipodi:nodetypes="cccssccc" />
    <rect
       style="opacity:1;fill:none;fill-opacity:1;stroke:#000000;stroke-width:0.1;stroke-linecap:butt;stroke-miterlimit:4;stroke-dasharray:none;stroke-dashoffset:0;stroke-opacity:1"
       id="rect5807-3"
       width="24.699999"
       height="3.7"
       x="56.871094"
       y="218.06453"
       rx="0"
       ry="0" />
    <rect
       style="display:inline;opacity:1;fill:none;fill-opacity:1;stroke:#000000;stroke-width:0.1;stroke-linecap:butt;stroke-miterlimit:4;stroke-dasharray:none;stroke-dashoffset:0;stroke-opacity:1"
       id="rect5807-3-0"
       width="24.699999"
       height="3.7"
       x="156.21649"
       y="218.06453"
       rx="0"
       ry="0" />
    <rect
       style="opacity:1;fill:none;fill-opacity:1;stroke:#000000;stroke-width:0.1;stroke-linecap:butt;stroke-miterlimit:4;stroke-dasharray:none;stroke-dashoffset:0;stroke-opacity:1"
       id="rect5802"
       width="83.182411"
       height="51.401707"
       x="-55.552555"
       y="194.10205"
       rx="3.9687502"
       ry="3.9687502" />
    <rect
       style="display:inline;opacity:1;fill:none;fill-opacity:1;stroke:#000000;stroke-width:0.1;stroke-linecap:butt;stroke-miterlimit:4;stroke-dasharray:none;stroke-dashoffset:0;stroke-opacity:1"
       id="rect5807-5"
       width="9.5769997"
       height="3.7"
       x="-26.311497"
       y="217.95291"
       rx="0"
       ry="0" />
    <rect
       style="display:inline;opacity:1;fill:none;fill-opacity:1;stroke:#000000;stroke-width:0.1;stroke-linecap:butt;stroke-miterlimit:4;stroke-dasharray:none;stroke-dashoffset:0;stroke-opacity:1"
       id="rect5807-5-3"
       width="9.5769997"
       height="3.7"
       x="-11.188175"
       y="217.95291"
       rx="0"
       ry="0" />
  </g>
</svg>
